<svg xmlns="http://www.w3.org/2000/svg" xmlns:xlink="http://www.w3.org/1999/xlink" width="500" zoomAndPan="magnify" viewBox="0 0 375 374.999991" height="500" preserveAspectRatio="xMidYMid meet" version="1.0"><defs><filter x="0%" y="0%" width="100%" height="100%" id="8d35d4f426"><feColorMatrix values="0 0 0 0 1 0 0 0 0 1 0 0 0 0 1 0 0 0 1 0" color-interpolation-filters="sRGB"/></filter><clipPath id="1fed400d59"><path d="M 3.136719 0 L 373.636719 0 L 373.636719 375 L 3.136719 375 Z M 3.136719 0 " clip-rule="nonzero"/></clipPath><mask id="a68bb10233"><g filter="url(#8d35d4f426)"><rect x="-37.5" width="450" fill="#000000" y="-37.499999" height="449.999989" fill-opacity="0.2"/></g></mask><clipPath id="350b8de801"><path d="M 0.136719 3 L 370.441406 3 L 370.441406 374 L 0.136719 374 Z M 0.136719 3 " clip-rule="nonzero"/></clipPath><clipPath id="c0c467f384"><rect x="0" width="371" y="0" height="375"/></clipPath><clipPath id="4c82a9a0d3"><path d="M 76.386719 76.386719 L 296 76.386719 L 296 298.386719 L 76.386719 298.386719 Z M 76.386719 76.386719 " clip-rule="nonzero"/></clipPath></defs><g clip-path="url(#1fed400d59)"><g mask="url(#a68bb10233)"><g transform="matrix(1, 0, 0, 1, 3, 0)"><g clip-path="url(#c0c467f384)"><g clip-path="url(#350b8de801)"><path fill="#30cbb8" d="M 370.355469 188.207031 C 370.355469 191.238281 370.28125 194.265625 370.132812 197.289062 C 369.984375 200.316406 369.761719 203.335938 369.464844 206.351562 C 369.167969 209.367188 368.796875 212.371094 368.351562 215.371094 C 367.90625 218.367188 367.390625 221.351562 366.796875 224.320312 C 366.207031 227.292969 365.542969 230.246094 364.808594 233.1875 C 364.070312 236.125 363.265625 239.042969 362.382812 241.941406 C 361.503906 244.839844 360.554688 247.71875 359.535156 250.570312 C 358.515625 253.421875 357.421875 256.246094 356.265625 259.046875 C 355.105469 261.84375 353.878906 264.613281 352.582031 267.351562 C 351.289062 270.089844 349.925781 272.796875 348.496094 275.46875 C 347.070312 278.140625 345.578125 280.773438 344.019531 283.375 C 342.460938 285.972656 340.839844 288.53125 339.160156 291.050781 C 337.476562 293.566406 335.730469 296.042969 333.925781 298.476562 C 332.121094 300.910156 330.257812 303.296875 328.335938 305.640625 C 326.414062 307.980469 324.4375 310.273438 322.402344 312.519531 C 320.367188 314.765625 318.28125 316.957031 316.136719 319.101562 C 313.996094 321.242188 311.800781 323.332031 309.558594 325.363281 C 307.3125 327.398438 305.019531 329.378906 302.679688 331.300781 C 300.335938 333.222656 297.949219 335.085938 295.515625 336.890625 C 293.082031 338.695312 290.605469 340.4375 288.085938 342.121094 C 285.566406 343.804688 283.007812 345.425781 280.410156 346.980469 C 277.8125 348.539062 275.175781 350.03125 272.503906 351.460938 C 269.832031 352.886719 267.128906 354.25 264.390625 355.542969 C 261.652344 356.839844 258.882812 358.066406 256.085938 359.226562 C 253.285156 360.386719 250.460938 361.476562 247.605469 362.496094 C 244.753906 363.515625 241.878906 364.46875 238.980469 365.347656 C 236.082031 366.226562 233.164062 367.035156 230.222656 367.769531 C 227.285156 368.507812 224.328125 369.167969 221.359375 369.761719 C 218.386719 370.351562 215.402344 370.871094 212.40625 371.3125 C 209.410156 371.757812 206.40625 372.128906 203.390625 372.425781 C 200.375 372.722656 197.355469 372.945312 194.328125 373.09375 C 191.304688 373.242188 188.273438 373.316406 185.246094 373.316406 C 182.214844 373.316406 179.1875 373.242188 176.164062 373.09375 C 173.136719 372.945312 170.117188 372.722656 167.101562 372.425781 C 164.085938 372.128906 161.082031 371.757812 158.085938 371.3125 C 155.085938 370.871094 152.105469 370.351562 149.132812 369.761719 C 146.160156 369.167969 143.207031 368.507812 140.269531 367.769531 C 137.328125 367.035156 134.410156 366.226562 131.511719 365.347656 C 128.613281 364.46875 125.738281 363.515625 122.882812 362.496094 C 120.03125 361.476562 117.207031 360.386719 114.40625 359.226562 C 111.609375 358.066406 108.839844 356.839844 106.101562 355.542969 C 103.363281 354.25 100.65625 352.886719 97.984375 351.460938 C 95.3125 350.03125 92.679688 348.539062 90.082031 346.980469 C 87.480469 345.425781 84.921875 343.804688 82.40625 342.121094 C 79.886719 340.4375 77.410156 338.695312 74.976562 336.890625 C 72.542969 335.085938 70.15625 333.222656 67.8125 331.300781 C 65.472656 329.378906 63.179688 327.398438 60.933594 325.363281 C 58.6875 323.332031 56.496094 321.242188 54.355469 319.101562 C 52.210938 316.957031 50.125 314.765625 48.089844 312.519531 C 46.054688 310.273438 44.074219 307.980469 42.152344 305.640625 C 40.230469 303.296875 38.367188 300.910156 36.566406 298.476562 C 34.761719 296.042969 33.015625 293.566406 31.332031 291.050781 C 29.648438 288.53125 28.03125 285.972656 26.472656 283.375 C 24.914062 280.773438 23.421875 278.140625 21.992188 275.46875 C 20.566406 272.796875 19.203125 270.089844 17.910156 267.351562 C 16.613281 264.613281 15.386719 261.84375 14.226562 259.046875 C 13.066406 256.246094 11.976562 253.421875 10.957031 250.570312 C 9.9375 247.71875 8.988281 244.839844 8.105469 241.941406 C 7.226562 239.042969 6.421875 236.125 5.683594 233.1875 C 4.949219 230.246094 4.285156 227.292969 3.691406 224.320312 C 3.101562 221.351562 2.585938 218.367188 2.140625 215.371094 C 1.695312 212.371094 1.324219 209.367188 1.027344 206.351562 C 0.730469 203.335938 0.507812 200.316406 0.359375 197.289062 C 0.210938 194.265625 0.136719 191.238281 0.136719 188.207031 C 0.136719 185.179688 0.210938 182.152344 0.359375 179.125 C 0.507812 176.097656 0.730469 173.078125 1.027344 170.0625 C 1.324219 167.050781 1.695312 164.042969 2.140625 161.046875 C 2.585938 158.050781 3.101562 155.066406 3.691406 152.09375 C 4.285156 149.125 4.949219 146.167969 5.683594 143.230469 C 6.421875 140.292969 7.226562 137.371094 8.105469 134.472656 C 8.988281 131.574219 9.9375 128.699219 10.957031 125.847656 C 11.976562 122.996094 13.066406 120.167969 14.226562 117.371094 C 15.386719 114.570312 16.613281 111.800781 17.910156 109.0625 C 19.203125 106.324219 20.566406 103.621094 21.992188 100.949219 C 23.421875 98.277344 24.914062 95.640625 26.472656 93.042969 C 28.03125 90.445312 29.648438 87.886719 31.332031 85.367188 C 33.015625 82.847656 34.761719 80.371094 36.566406 77.9375 C 38.367188 75.503906 40.230469 73.117188 42.152344 70.777344 C 44.074219 68.433594 46.054688 66.140625 48.089844 63.894531 C 50.125 61.652344 52.210938 59.457031 54.355469 57.316406 C 56.496094 55.171875 58.6875 53.085938 60.933594 51.050781 C 63.179688 49.015625 65.472656 47.039062 67.8125 45.117188 C 70.15625 43.195312 72.542969 41.332031 74.976562 39.527344 C 77.410156 37.722656 79.886719 35.976562 82.40625 34.296875 C 84.921875 32.613281 87.480469 30.992188 90.082031 29.433594 C 92.679688 27.878906 95.3125 26.382812 97.984375 24.957031 C 100.65625 23.527344 103.363281 22.167969 106.101562 20.871094 C 108.839844 19.574219 111.609375 18.347656 114.40625 17.1875 C 117.207031 16.03125 120.03125 14.941406 122.882812 13.917969 C 125.738281 12.898438 128.613281 11.949219 131.511719 11.070312 C 134.410156 10.191406 137.328125 9.382812 140.269531 8.644531 C 143.207031 7.910156 146.160156 7.246094 149.132812 6.65625 C 152.105469 6.066406 155.085938 5.546875 158.085938 5.101562 C 161.082031 4.65625 164.085938 4.285156 167.101562 3.988281 C 170.117188 3.691406 173.136719 3.46875 176.164062 3.320312 C 179.1875 3.171875 182.214844 3.097656 185.246094 3.097656 C 188.273438 3.097656 191.304688 3.171875 194.328125 3.320312 C 197.355469 3.46875 200.375 3.691406 203.390625 3.988281 C 206.40625 4.285156 209.410156 4.65625 212.40625 5.101562 C 215.402344 5.546875 218.386719 6.066406 221.359375 6.65625 C 224.328125 7.246094 227.285156 7.910156 230.222656 8.644531 C 233.164062 9.382812 236.082031 10.191406 238.980469 11.070312 C 241.878906 11.949219 244.753906 12.898438 247.605469 13.917969 C 250.460938 14.941406 253.285156 16.03125 256.085938 17.1875 C 258.882812 18.347656 261.652344 19.574219 264.390625 20.871094 C 267.128906 22.167969 269.832031 23.527344 272.503906 24.957031 C 275.175781 26.382812 277.8125 27.878906 280.410156 29.433594 C 283.007812 30.992188 285.566406 32.613281 288.085938 34.296875 C 290.605469 35.976562 293.082031 37.722656 295.515625 39.527344 C 297.949219 41.332031 300.335938 43.195312 302.679688 45.117188 C 305.019531 47.039062 307.3125 49.015625 309.558594 51.050781 C 311.800781 53.085938 313.996094 55.171875 316.136719 57.316406 C 318.28125 59.457031 320.367188 61.652344 322.402344 63.894531 C 324.4375 66.140625 326.414062 68.433594 328.335938 70.777344 C 330.257812 73.117188 332.121094 75.503906 333.925781 77.9375 C 335.730469 80.371094 337.476562 82.847656 339.160156 85.367188 C 340.839844 87.886719 342.460938 90.445312 344.019531 93.042969 C 345.578125 95.640625 347.070312 98.277344 348.496094 100.949219 C 349.925781 103.621094 351.289062 106.324219 352.582031 109.0625 C 353.878906 111.800781 355.105469 114.570312 356.265625 117.371094 C 357.421875 120.167969 358.515625 122.996094 359.535156 125.847656 C 360.554688 128.699219 361.503906 131.574219 362.382812 134.472656 C 363.265625 137.371094 364.070312 140.292969 364.808594 143.230469 C 365.542969 146.167969 366.207031 149.125 366.796875 152.09375 C 367.390625 155.066406 367.90625 158.050781 368.351562 161.046875 C 368.796875 164.042969 369.167969 167.050781 369.464844 170.0625 C 369.761719 173.078125 369.984375 176.097656 370.132812 179.125 C 370.28125 182.152344 370.355469 185.179688 370.355469 188.207031 Z M 370.355469 188.207031 " fill-opacity="1" fill-rule="nonzero"/></g></g></g></g></g><path fill="#218d7d" d="M 221.722656 111.078125 L 154.851562 111.078125 C 128.703125 111.078125 111.117188 129.433594 111.117188 156.738281 L 111.117188 219.75 C 111.117188 246.976562 128.703125 265.335938 154.851562 265.335938 L 221.722656 265.335938 C 247.867188 265.335938 265.375 246.976562 265.375 219.75 L 265.375 156.738281 C 265.375 129.433594 247.867188 111.078125 221.722656 111.078125 Z M 221.722656 111.078125 " fill-opacity="1" fill-rule="nonzero"/><path fill="#218d7d" d="M 179.09375 213.257812 C 177.367188 213.257812 175.636719 212.601562 174.320312 211.285156 L 156.015625 192.980469 C 153.378906 190.34375 153.378906 186.070312 156.015625 183.441406 C 158.65625 180.800781 162.917969 180.792969 165.558594 183.433594 L 179.09375 196.96875 L 210.933594 165.128906 C 213.570312 162.492188 217.835938 162.492188 220.472656 165.128906 C 223.109375 167.765625 223.109375 172.039062 220.472656 174.679688 L 183.867188 211.285156 C 182.550781 212.601562 180.820312 213.257812 179.09375 213.257812 Z M 179.09375 213.257812 " fill-opacity="1" fill-rule="nonzero"/><g clip-path="url(#4c82a9a0d3)"><path fill="#f5df99" d="M 200.765625 80.125 C 200.472656 79.992188 200.117188 79.84375 199.742188 79.726562 C 201.496094 78.386719 206.96875 76.996094 210.921875 76.546875 C 216.761719 75.886719 220.992188 77.332031 222.675781 79.835938 C 226.832031 86.023438 228.457031 99.214844 227.84375 111.574219 C 227.550781 117.554688 227.097656 119.921875 226.253906 123.140625 C 223.921875 132.242188 221.710938 134.808594 214.253906 135.667969 C 208.691406 136.308594 204.53125 134.882812 203.46875 134.554688 C 203.527344 134.320312 206.585938 127.214844 207.15625 121.113281 C 207.503906 117.410156 207.691406 108.558594 207.132812 99.746094 C 206.71875 93.21875 204.511719 85.609375 204.285156 84.839844 C 203.496094 82.195312 202.789062 81.039062 200.765625 80.125 Z M 166.386719 290.140625 C 166.171875 289.367188 164.082031 281.726562 163.769531 275.195312 C 163.351562 266.375 163.679688 257.527344 164.085938 253.832031 C 164.753906 247.738281 167.925781 240.679688 167.988281 240.449219 C 166.933594 240.105469 162.796875 238.613281 157.222656 239.167969 C 149.753906 239.914062 147.5 242.453125 145.027344 251.515625 C 144.132812 254.71875 143.640625 257.082031 143.25 263.054688 C 142.445312 275.402344 143.863281 288.617188 147.917969 294.867188 C 149.558594 297.398438 153.765625 298.90625 159.617188 298.335938 C 163.578125 297.949219 169.070312 296.640625 170.84375 295.324219 C 170.472656 295.203125 170.117188 295.046875 169.828125 294.910156 C 167.820312 293.964844 167.132812 292.800781 166.386719 290.140625 Z M 293.8125 224.628906 C 290.207031 233.109375 288.265625 238.484375 282.210938 251.191406 C 268.269531 280.453125 235.335938 294.695312 181.832031 292.25 C 174.996094 291.9375 171.703125 291.933594 171.078125 291.613281 C 170.324219 291.25 169.746094 289.738281 168.863281 285.816406 C 167.566406 280.152344 167.144531 275.824219 167.125 268.011719 C 167.078125 256.878906 167.796875 251.484375 170.195312 244.917969 C 172.859375 237.722656 176.261719 232.550781 182.328125 226.472656 C 187.183594 221.625 195.878906 216.132812 206.183594 211.40625 C 216.796875 206.53125 237.425781 198.914062 241.207031 198.445312 C 241.246094 198.496094 241.5 198.707031 241.777344 199.027344 C 241.625 197.242188 241.382812 195.382812 241.007812 193.449219 C 239.980469 188.085938 237.335938 180.679688 236.324219 178.375 C 235.707031 178.769531 234.757812 179.402344 233.628906 180.199219 C 228.3125 183.9375 223.488281 186.769531 215.179688 191.023438 C 198.917969 199.410156 190.585938 202.765625 162.742188 212.132812 C 157.359375 213.953125 150.480469 216.332031 148.09375 217.253906 C 145.65625 218.191406 141.320312 219.742188 138.476562 220.722656 C 135.621094 221.722656 132.085938 223.054688 130.753906 223.640625 L 128.96875 224.4375 L 129.109375 225.792969 C 129.992188 233.90625 130.195312 237.257812 130.160156 242.871094 C 130.160156 247.761719 130.007812 249.886719 129.53125 251.609375 C 127.828125 257.859375 124.5625 262.84375 120.34375 265.65625 C 117.289062 267.703125 114.84375 268.3125 111.648438 267.835938 C 106.015625 266.902344 102.804688 263.542969 101.234375 256.953125 C 99.9375 251.488281 101.933594 243.777344 106.3125 237.324219 C 110.109375 231.746094 115.351562 226.972656 121.476562 223.523438 C 123.414062 222.433594 123.980469 221.964844 124.140625 221.792969 C 124.085938 221.246094 123.765625 219.027344 122.875 213.480469 C 121.628906 205.785156 121.566406 205 121.566406 196.757812 C 121.558594 194.363281 121.960938 186.144531 124.28125 177.933594 C 123.179688 177.578125 121.007812 175.105469 118.925781 172.304688 C 108.949219 158.890625 110.039062 148.535156 111.882812 140.09375 C 113.367188 133.3125 116.601562 125.28125 119.710938 120.933594 C 121.503906 118.421875 121.234375 116.863281 119.875 116.699219 C 118.917969 116.578125 117.949219 117.296875 116.097656 120.023438 C 100.539062 142.960938 106.78125 169.519531 102.472656 173.898438 C 100.925781 175.476562 97.476562 175.71875 97.097656 174.5625 C 94.023438 165.179688 94.566406 144.464844 99.15625 132.464844 C 101.378906 126.660156 103.757812 121.257812 106.4375 116.667969 C 107.324219 115.152344 106.007812 113.292969 104.019531 115.117188 C 102.582031 116.429688 99.117188 123.144531 97.234375 127.953125 C 95.183594 133.195312 91.683594 144.046875 89.070312 148.804688 C 85.203125 155.824219 79.101562 160.601562 76.65625 158.230469 C 76.261719 157.851562 76.042969 156.886719 77.917969 152.285156 C 81.394531 143.753906 83.25 138.351562 89.101562 125.550781 C 102.566406 96.070312 135.269531 81.332031 188.808594 82.964844 C 195.648438 83.175781 198.941406 83.132812 199.570312 83.4375 C 200.328125 83.789062 200.929688 85.296875 201.878906 89.199219 C 203.265625 94.84375 203.757812 99.164062 203.898438 106.980469 C 204.121094 118.109375 203.488281 123.515625 201.191406 130.121094 C 198.644531 137.355469 195.324219 142.578125 189.351562 148.746094 C 184.578125 153.667969 175.972656 159.289062 165.738281 164.171875 C 155.203125 169.210938 134.699219 177.136719 130.921875 177.660156 C 130.84375 177.546875 129.8125 176.832031 129.613281 175.367188 C 128.109375 178.964844 126.984375 183.113281 125.976562 189.335938 C 125.652344 191.324219 125.453125 201.8125 126.679688 209.496094 C 126.925781 210.890625 127.257812 213.179688 127.546875 215.191406 L 127.765625 216.703125 C 127.964844 218.246094 128.148438 219.453125 128.273438 220.179688 C 128.414062 220.117188 128.582031 220.03125 128.785156 219.929688 C 129.769531 219.46875 132.941406 218.261719 136.183594 217.105469 C 142.144531 214.976562 145.070312 213.886719 146.476562 213.351562 C 149.1875 212.3125 155.398438 210.09375 160.332031 208.441406 C 190.671875 198.15625 201.65625 193.601562 219.105469 184.070312 C 226.445312 180.058594 233.539062 175.164062 234.632812 173.984375 C 234.453125 173.402344 233.929688 171.785156 233.164062 169.691406 C 230.746094 162.976562 230.339844 160.566406 230.59375 154.535156 C 231.019531 143.835938 234.257812 135.878906 240.496094 130.199219 C 243.90625 127.039062 246.960938 125.6875 250.699219 125.6875 C 257.261719 125.726562 261.066406 129.660156 261.707031 137.066406 C 262 140.246094 260.976562 144.585938 258.660156 149.960938 C 254.074219 160.640625 248.730469 168.050781 240.796875 174.730469 L 239.957031 175.425781 L 241.121094 178.613281 C 243.917969 186.359375 245.625 191.992188 246.304688 198.953125 C 246.617188 198.683594 246.980469 198.441406 247.433594 198.253906 C 248.304688 197.894531 250.78125 200.730469 253.121094 203.984375 C 262.882812 217.546875 261.632812 227.886719 259.65625 236.296875 C 258.0625 243.058594 254.703125 251.039062 251.523438 255.339844 C 249.6875 257.820312 249.9375 259.386719 251.289062 259.574219 C 252.25 259.703125 253.230469 259.007812 255.121094 256.308594 C 271.042969 233.609375 265.222656 206.957031 269.597656 202.644531 C 271.167969 201.09375 274.621094 200.902344 274.980469 202.0625 C 277.90625 211.492188 277.039062 232.199219 272.257812 244.125 C 269.945312 249.898438 267.480469 255.261719 264.726562 259.808594 C 263.820312 261.3125 265.105469 263.191406 267.117188 261.398438 C 268.578125 260.105469 272.148438 253.441406 274.105469 248.667969 C 276.242188 243.457031 279.910156 232.660156 282.601562 227.941406 C 286.578125 220.980469 292.757812 216.296875 295.167969 218.703125 C 295.554688 219.09375 295.757812 220.058594 293.8125 224.632812 Z M 126.554688 171.5 C 126.816406 170.917969 127.082031 170.335938 127.371094 169.769531 C 129.28125 165.992188 135.03125 156.296875 137.609375 156.296875 C 138.800781 156.296875 139.292969 156.878906 139.476562 157.222656 C 139.882812 157.988281 139.65625 158.953125 138.789062 160.171875 C 138.296875 160.859375 136.8125 162.671875 135.773438 164.324219 C 134.765625 165.917969 133.859375 167.355469 133.039062 168.726562 C 134.953125 167.019531 137.339844 165.554688 139.386719 164.367188 C 141.289062 163.285156 159.585938 152.636719 163.914062 144.804688 C 169.828125 134.09375 165.9375 123.558594 158.773438 120.773438 C 152.695312 118.410156 145.855469 119.21875 141.074219 122.035156 C 134.929688 125.648438 130.371094 129.648438 126.925781 136.382812 C 118.988281 151.886719 123.75 163.417969 125.6875 168.742188 C 126.039062 169.71875 126.332031 170.636719 126.554688 171.5 Z M 125.410156 231.488281 C 125.144531 229.039062 124.941406 227.4375 124.804688 226.542969 C 123.859375 226.984375 122.085938 227.96875 119.863281 229.492188 C 108.144531 237.648438 102.257812 251.191406 106.746094 259.6875 C 108.445312 262.964844 112.347656 264.535156 115.835938 263.351562 C 120.789062 261.621094 125.039062 254.878906 125.9375 247.324219 C 126.378906 243.792969 126.253906 239.945312 125.410156 231.488281 Z M 238.292969 171.011719 C 240.136719 169.566406 245.0625 164.632812 247.570312 161.160156 C 250.675781 156.804688 254.730469 148.929688 256.246094 144.316406 C 257.371094 140.8125 257.453125 140.3125 257.351562 137.640625 C 257.1875 134.171875 256.453125 132.410156 254.550781 130.914062 C 253.496094 130.105469 253.332031 130.027344 251.042969 129.929688 C 250.589844 129.910156 250.210938 129.894531 249.882812 129.894531 C 248.679688 129.894531 248.214844 130.0625 246.75 130.78125 C 244.527344 131.886719 241.980469 134.359375 239.933594 137.394531 C 236.246094 142.824219 234.132812 151.980469 234.917969 159.164062 C 235.175781 161.476562 237.132812 168.242188 238.292969 171.011719 Z M 246.378906 207.65625 C 245.9375 212.824219 244.828125 218.171875 244.039062 220.210938 C 241.441406 226.9375 238.230469 230.890625 233.898438 234.878906 C 231.527344 237.023438 230.242188 237.898438 228.90625 237.414062 C 227.945312 237.054688 227.753906 236.339844 227.714844 236.046875 C 227.589844 235.105469 228.289062 234.097656 229.789062 233.050781 C 232.992188 230.699219 237.453125 225.550781 239.082031 220.667969 C 239.667969 218.910156 241.996094 212.589844 241.972656 203.484375 C 240.457031 206.917969 236.019531 209.648438 232.53125 211.597656 C 230.609375 212.65625 212.144531 223.023438 207.695312 230.792969 C 201.609375 241.414062 205.335938 252.003906 212.457031 254.902344 C 218.492188 257.355469 225.347656 256.648438 230.171875 253.910156 C 236.371094 250.390625 240.992188 246.457031 244.546875 239.777344 C 252.632812 224.585938 248.277344 213.097656 246.378906 207.65625 Z M 246.378906 207.65625 " fill-opacity="1" fill-rule="nonzero"/></g></svg>