<svg xmlns="http://www.w3.org/2000/svg" xmlns:xlink="http://www.w3.org/1999/xlink" width="500" zoomAndPan="magnify" viewBox="0 0 375 374.999991" height="500" preserveAspectRatio="xMidYMid meet" version="1.0"><defs><filter x="0%" y="0%" width="100%" height="100%" id="069c612299"><feColorMatrix values="0 0 0 0 1 0 0 0 0 1 0 0 0 0 1 0 0 0 1 0" color-interpolation-filters="sRGB"/></filter><clipPath id="4089c055cf"><path d="M 3.136719 0 L 373.636719 0 L 373.636719 375 L 3.136719 375 Z M 3.136719 0 " clip-rule="nonzero"/></clipPath><mask id="35d77d9254"><g filter="url(#069c612299)"><rect x="-37.5" width="450" fill="#000000" y="-37.499999" height="449.999989" fill-opacity="0.2"/></g></mask><clipPath id="83ac99cf88"><path d="M 0.136719 3 L 370.441406 3 L 370.441406 374 L 0.136719 374 Z M 0.136719 3 " clip-rule="nonzero"/></clipPath><clipPath id="a69dead62e"><rect x="0" width="371" y="0" height="375"/></clipPath><clipPath id="42d92df7ab"><path d="M 90 95.125 L 269 95.125 L 269 274 L 90 274 Z M 90 95.125 " clip-rule="nonzero"/></clipPath></defs><g clip-path="url(#4089c055cf)"><g mask="url(#35d77d9254)"><g transform="matrix(1, 0, 0, 1, 3, 0)"><g clip-path="url(#a69dead62e)"><g clip-path="url(#83ac99cf88)"><path fill="#30cbb8" d="M 370.355469 188.207031 C 370.355469 191.238281 370.28125 194.265625 370.132812 197.289062 C 369.984375 200.316406 369.761719 203.335938 369.464844 206.351562 C 369.167969 209.367188 368.796875 212.371094 368.351562 215.371094 C 367.90625 218.367188 367.390625 221.351562 366.796875 224.320312 C 366.207031 227.292969 365.542969 230.246094 364.808594 233.1875 C 364.070312 236.125 363.265625 239.042969 362.382812 241.941406 C 361.503906 244.839844 360.554688 247.71875 359.535156 250.570312 C 358.515625 253.421875 357.421875 256.246094 356.265625 259.046875 C 355.105469 261.84375 353.878906 264.613281 352.582031 267.351562 C 351.289062 270.089844 349.925781 272.796875 348.496094 275.46875 C 347.070312 278.140625 345.578125 280.773438 344.019531 283.375 C 342.460938 285.972656 340.839844 288.53125 339.160156 291.050781 C 337.476562 293.566406 335.730469 296.042969 333.925781 298.476562 C 332.121094 300.910156 330.257812 303.296875 328.335938 305.640625 C 326.414062 307.980469 324.4375 310.273438 322.402344 312.519531 C 320.367188 314.765625 318.28125 316.957031 316.136719 319.101562 C 313.996094 321.242188 311.800781 323.332031 309.558594 325.363281 C 307.3125 327.398438 305.019531 329.378906 302.679688 331.300781 C 300.335938 333.222656 297.949219 335.085938 295.515625 336.890625 C 293.082031 338.695312 290.605469 340.4375 288.085938 342.121094 C 285.566406 343.804688 283.007812 345.425781 280.410156 346.980469 C 277.8125 348.539062 275.175781 350.03125 272.503906 351.460938 C 269.832031 352.886719 267.128906 354.25 264.390625 355.542969 C 261.652344 356.839844 258.882812 358.066406 256.085938 359.226562 C 253.285156 360.386719 250.460938 361.476562 247.605469 362.496094 C 244.753906 363.515625 241.878906 364.46875 238.980469 365.347656 C 236.082031 366.226562 233.164062 367.035156 230.222656 367.769531 C 227.285156 368.507812 224.328125 369.167969 221.359375 369.761719 C 218.386719 370.351562 215.402344 370.871094 212.40625 371.3125 C 209.410156 371.757812 206.40625 372.128906 203.390625 372.425781 C 200.375 372.722656 197.355469 372.945312 194.328125 373.09375 C 191.304688 373.242188 188.273438 373.316406 185.246094 373.316406 C 182.214844 373.316406 179.1875 373.242188 176.164062 373.09375 C 173.136719 372.945312 170.117188 372.722656 167.101562 372.425781 C 164.085938 372.128906 161.082031 371.757812 158.085938 371.3125 C 155.085938 370.871094 152.105469 370.351562 149.132812 369.761719 C 146.160156 369.167969 143.207031 368.507812 140.269531 367.769531 C 137.328125 367.035156 134.410156 366.226562 131.511719 365.347656 C 128.613281 364.46875 125.738281 363.515625 122.882812 362.496094 C 120.03125 361.476562 117.207031 360.386719 114.40625 359.226562 C 111.609375 358.066406 108.839844 356.839844 106.101562 355.542969 C 103.363281 354.25 100.65625 352.886719 97.984375 351.460938 C 95.3125 350.03125 92.679688 348.539062 90.082031 346.980469 C 87.480469 345.425781 84.921875 343.804688 82.40625 342.121094 C 79.886719 340.4375 77.410156 338.695312 74.976562 336.890625 C 72.542969 335.085938 70.15625 333.222656 67.8125 331.300781 C 65.472656 329.378906 63.179688 327.398438 60.933594 325.363281 C 58.6875 323.332031 56.496094 321.242188 54.355469 319.101562 C 52.210938 316.957031 50.125 314.765625 48.089844 312.519531 C 46.054688 310.273438 44.074219 307.980469 42.152344 305.640625 C 40.230469 303.296875 38.367188 300.910156 36.566406 298.476562 C 34.761719 296.042969 33.015625 293.566406 31.332031 291.050781 C 29.648438 288.53125 28.03125 285.972656 26.472656 283.375 C 24.914062 280.773438 23.421875 278.140625 21.992188 275.46875 C 20.566406 272.796875 19.203125 270.089844 17.910156 267.351562 C 16.613281 264.613281 15.386719 261.84375 14.226562 259.046875 C 13.066406 256.246094 11.976562 253.421875 10.957031 250.570312 C 9.9375 247.71875 8.988281 244.839844 8.105469 241.941406 C 7.226562 239.042969 6.421875 236.125 5.683594 233.1875 C 4.949219 230.246094 4.285156 227.292969 3.691406 224.320312 C 3.101562 221.351562 2.585938 218.367188 2.140625 215.371094 C 1.695312 212.371094 1.324219 209.367188 1.027344 206.351562 C 0.730469 203.335938 0.507812 200.316406 0.359375 197.289062 C 0.210938 194.265625 0.136719 191.238281 0.136719 188.207031 C 0.136719 185.179688 0.210938 182.152344 0.359375 179.125 C 0.507812 176.097656 0.730469 173.078125 1.027344 170.0625 C 1.324219 167.050781 1.695312 164.042969 2.140625 161.046875 C 2.585938 158.050781 3.101562 155.066406 3.691406 152.09375 C 4.285156 149.125 4.949219 146.167969 5.683594 143.230469 C 6.421875 140.292969 7.226562 137.371094 8.105469 134.472656 C 8.988281 131.574219 9.9375 128.699219 10.957031 125.847656 C 11.976562 122.996094 13.066406 120.167969 14.226562 117.371094 C 15.386719 114.570312 16.613281 111.800781 17.910156 109.0625 C 19.203125 106.324219 20.566406 103.621094 21.992188 100.949219 C 23.421875 98.277344 24.914062 95.640625 26.472656 93.042969 C 28.03125 90.445312 29.648438 87.886719 31.332031 85.367188 C 33.015625 82.847656 34.761719 80.371094 36.566406 77.9375 C 38.367188 75.503906 40.230469 73.117188 42.152344 70.777344 C 44.074219 68.433594 46.054688 66.140625 48.089844 63.894531 C 50.125 61.652344 52.210938 59.457031 54.355469 57.316406 C 56.496094 55.171875 58.6875 53.085938 60.933594 51.050781 C 63.179688 49.015625 65.472656 47.039062 67.8125 45.117188 C 70.15625 43.195312 72.542969 41.332031 74.976562 39.527344 C 77.410156 37.722656 79.886719 35.976562 82.40625 34.296875 C 84.921875 32.613281 87.480469 30.992188 90.082031 29.433594 C 92.679688 27.878906 95.3125 26.382812 97.984375 24.957031 C 100.65625 23.527344 103.363281 22.167969 106.101562 20.871094 C 108.839844 19.574219 111.609375 18.347656 114.40625 17.1875 C 117.207031 16.03125 120.03125 14.941406 122.882812 13.917969 C 125.738281 12.898438 128.613281 11.949219 131.511719 11.070312 C 134.410156 10.191406 137.328125 9.382812 140.269531 8.644531 C 143.207031 7.910156 146.160156 7.246094 149.132812 6.65625 C 152.105469 6.066406 155.085938 5.546875 158.085938 5.101562 C 161.082031 4.65625 164.085938 4.285156 167.101562 3.988281 C 170.117188 3.691406 173.136719 3.46875 176.164062 3.320312 C 179.1875 3.171875 182.214844 3.097656 185.246094 3.097656 C 188.273438 3.097656 191.304688 3.171875 194.328125 3.320312 C 197.355469 3.46875 200.375 3.691406 203.390625 3.988281 C 206.40625 4.285156 209.410156 4.65625 212.40625 5.101562 C 215.402344 5.546875 218.386719 6.066406 221.359375 6.65625 C 224.328125 7.246094 227.285156 7.910156 230.222656 8.644531 C 233.164062 9.382812 236.082031 10.191406 238.980469 11.070312 C 241.878906 11.949219 244.753906 12.898438 247.605469 13.917969 C 250.460938 14.941406 253.285156 16.03125 256.085938 17.1875 C 258.882812 18.347656 261.652344 19.574219 264.390625 20.871094 C 267.128906 22.167969 269.832031 23.527344 272.503906 24.957031 C 275.175781 26.382812 277.8125 27.878906 280.410156 29.433594 C 283.007812 30.992188 285.566406 32.613281 288.085938 34.296875 C 290.605469 35.976562 293.082031 37.722656 295.515625 39.527344 C 297.949219 41.332031 300.335938 43.195312 302.679688 45.117188 C 305.019531 47.039062 307.3125 49.015625 309.558594 51.050781 C 311.800781 53.085938 313.996094 55.171875 316.136719 57.316406 C 318.28125 59.457031 320.367188 61.652344 322.402344 63.894531 C 324.4375 66.140625 326.414062 68.433594 328.335938 70.777344 C 330.257812 73.117188 332.121094 75.503906 333.925781 77.9375 C 335.730469 80.371094 337.476562 82.847656 339.160156 85.367188 C 340.839844 87.886719 342.460938 90.445312 344.019531 93.042969 C 345.578125 95.640625 347.070312 98.277344 348.496094 100.949219 C 349.925781 103.621094 351.289062 106.324219 352.582031 109.0625 C 353.878906 111.800781 355.105469 114.570312 356.265625 117.371094 C 357.421875 120.167969 358.515625 122.996094 359.535156 125.847656 C 360.554688 128.699219 361.503906 131.574219 362.382812 134.472656 C 363.265625 137.371094 364.070312 140.292969 364.808594 143.230469 C 365.542969 146.167969 366.207031 149.125 366.796875 152.09375 C 367.390625 155.066406 367.90625 158.050781 368.351562 161.046875 C 368.796875 164.042969 369.167969 167.050781 369.464844 170.0625 C 369.761719 173.078125 369.984375 176.097656 370.132812 179.125 C 370.28125 182.152344 370.355469 185.179688 370.355469 188.207031 Z M 370.355469 188.207031 " fill-opacity="1" fill-rule="nonzero"/></g></g></g></g></g><path fill="#218d7d" d="M 221.722656 111.078125 L 154.851562 111.078125 C 128.703125 111.078125 111.117188 129.433594 111.117188 156.738281 L 111.117188 219.75 C 111.117188 246.976562 128.703125 265.335938 154.851562 265.335938 L 221.722656 265.335938 C 247.867188 265.335938 265.375 246.976562 265.375 219.75 L 265.375 156.738281 C 265.375 129.433594 247.867188 111.078125 221.722656 111.078125 Z M 221.722656 111.078125 " fill-opacity="1" fill-rule="nonzero"/><path fill="#218d7d" d="M 179.09375 213.257812 C 177.367188 213.257812 175.636719 212.601562 174.320312 211.285156 L 156.015625 192.980469 C 153.378906 190.34375 153.378906 186.070312 156.015625 183.441406 C 158.65625 180.800781 162.917969 180.792969 165.558594 183.433594 L 179.09375 196.96875 L 210.933594 165.128906 C 213.570312 162.492188 217.835938 162.492188 220.472656 165.128906 C 223.109375 167.765625 223.109375 172.039062 220.472656 174.679688 L 183.867188 211.285156 C 182.550781 212.601562 180.820312 213.257812 179.09375 213.257812 Z M 179.09375 213.257812 " fill-opacity="1" fill-rule="nonzero"/><g clip-path="url(#42d92df7ab)"><path fill="#f5df99" d="M 186.859375 120.175781 C 187.9375 121.238281 188.265625 122.324219 188.210938 123.796875 C 188.082031 127.390625 187.960938 142.214844 187.902344 145.808594 C 193.546875 147.222656 204.558594 150.070312 207.980469 151.78125 C 208.003906 151.523438 207.140625 148.929688 207.164062 148.671875 C 201.847656 145.472656 198.277344 139.664062 198.277344 133.011719 C 198.277344 122.910156 206.46875 114.722656 216.5625 114.722656 C 216.769531 114.722656 216.964844 114.746094 217.164062 114.753906 C 217.214844 114.691406 217.277344 114.636719 217.328125 114.578125 C 217.960938 113.851562 218.582031 113.113281 219.171875 112.359375 C 220.679688 110.457031 222.109375 108.332031 223.007812 106.066406 C 223.421875 105.007812 223.882812 103.8125 223.773438 102.652344 C 223.640625 101.273438 222.953125 100.199219 221.640625 99.675781 C 220.296875 99.144531 219.230469 99.722656 218.261719 100.679688 C 217.683594 101.25 217.175781 101.886719 216.644531 102.492188 C 213.265625 106.332031 210.203125 111.042969 205.261719 113.015625 C 203.984375 113.527344 202.496094 113.890625 201.113281 113.960938 C 200.050781 114.015625 198.886719 114.007812 197.828125 113.824219 C 191.648438 112.746094 187.960938 108.542969 185.007812 103.480469 C 183.742188 101.316406 182.683594 99.035156 181.429688 96.871094 C 180.238281 94.8125 179.605469 94.703125 177.476562 95.871094 C 176.894531 96.757812 176.476562 97.722656 176.546875 98.785156 C 176.75 101.675781 177.242188 104.519531 178.160156 107.277344 C 179.867188 112.375 183.089844 116.480469 186.859375 120.175781 Z M 161.65625 138.324219 C 171.4375 138.324219 178.269531 130.332031 179.367188 120.609375 C 180.5 110.578125 172.832031 101.851562 163.046875 101.851562 C 153.265625 101.851562 143.9375 110.824219 143.9375 120.609375 C 143.933594 130.394531 151.863281 138.324219 161.652344 138.324219 Z M 200.167969 133.011719 C 200.167969 142.066406 207.507812 149.410156 216.5625 149.410156 C 225.621094 149.410156 232.964844 142.066406 232.964844 133.011719 C 232.964844 123.953125 225.621094 116.609375 216.5625 116.609375 C 207.507812 116.609375 200.167969 123.953125 200.167969 133.011719 Z M 200.617188 111.699219 C 204.648438 111.699219 207.324219 108.25 207.921875 104.09375 C 208.519531 99.902344 204.203125 96.414062 200.617188 96.484375 C 195.933594 96.574219 193.304688 99.890625 193.304688 104.09375 C 193.304688 108.292969 196.574219 111.699219 200.617188 111.699219 Z M 137.253906 113.644531 C 142.65625 114.058594 145.796875 109.320312 145.507812 104.964844 C 145.15625 99.664062 141.523438 97.839844 137.253906 97.839844 C 132.984375 97.839844 129.519531 101.378906 129.519531 105.742188 C 129.515625 110.105469 132.996094 113.324219 137.253906 113.644531 Z M 267.808594 109.691406 C 267.09375 107.765625 265.972656 106.351562 263.789062 106.09375 C 261.589844 105.839844 259.808594 106.585938 258.707031 108.554688 C 255.761719 113.816406 253.621094 119.4375 251.304688 124.988281 C 247.296875 134.613281 242.503906 143.632812 233.839844 150.078125 C 223.085938 158.078125 210.417969 161.597656 197.4375 164.023438 C 193.210938 164.8125 188.957031 165.488281 184.65625 165.816406 C 181.914062 166.027344 179.011719 166.15625 177.503906 168.804688 C 176.109375 171.261719 175.257812 175.871094 177.605469 178.050781 C 179.347656 179.667969 182.382812 179.90625 184.582031 180.507812 C 188.09375 181.472656 191.726562 181.980469 195.371094 182.132812 C 198.617188 182.269531 203.582031 181.152344 206.476562 182.953125 C 209.363281 184.738281 208.253906 190.898438 208.140625 193.660156 C 207.851562 200.664062 206.789062 207.589844 204.191406 214.132812 C 203.59375 215.636719 202.132812 217.546875 201.84375 219.101562 C 201.488281 221.070312 202.246094 222.542969 203.035156 224.503906 C 205.402344 230.363281 199.710938 237.117188 197.171875 239.496094 C 193.203125 243.214844 188.285156 245.574219 183.960938 248.773438 C 183.960938 248.773438 207.976562 264.054688 231.617188 250.710938 C 243.871094 243.792969 249.292969 230.707031 250.273438 224.667969 C 252.535156 210.710938 250.359375 196.027344 249.585938 186.371094 C 248.902344 177.8125 249.679688 170.582031 250.742188 165.195312 C 252.796875 160.402344 256.257812 156.261719 258.617188 151.632812 C 262.203125 144.597656 264.917969 137.160156 266.589844 129.445312 C 267.554688 125.003906 268.171875 120.488281 268.433594 115.949219 C 268.5625 113.851562 268.574219 111.726562 267.808594 109.691406 Z M 154.480469 217.058594 C 154.480469 223.925781 159.945312 228.984375 166.648438 229.492188 C 175.15625 230.136719 180.085938 222.683594 179.632812 215.832031 C 179.082031 207.5 173.367188 204.625 166.648438 204.625 C 159.925781 204.628906 154.480469 210.191406 154.480469 217.058594 Z M 118.148438 117.464844 C 119.5625 118.804688 120.484375 120.515625 122.597656 121.300781 C 124.410156 121.980469 125.285156 123.777344 125.226562 126.164062 C 125.21875 126.628906 125.214844 127.214844 125.210938 127.851562 C 129.882812 131.144531 134.882812 133.847656 140.171875 135.921875 C 141.652344 136.5 143.15625 137.042969 144.671875 137.550781 C 144.683594 135.152344 144.699219 133.058594 144.707031 131.636719 C 142.632812 128.460938 141.414062 124.675781 141.414062 120.609375 C 141.414062 119.003906 141.652344 117.421875 142.050781 115.886719 C 138.148438 116.582031 134.179688 116.617188 130.304688 115.382812 C 128.039062 114.660156 125.777344 113.433594 123.875 112.011719 C 122.363281 110.871094 114.203125 103.609375 113.800781 108.964844 C 113.542969 112.308594 115.851562 115.289062 118.148438 117.464844 Z M 200.777344 229.3125 C 200.933594 227.96875 201.429688 226.246094 199.980469 225.445312 C 198.671875 224.722656 197.15625 225.042969 195.667969 225.726562 C 183.429688 231.335938 169.207031 236.523438 155.730469 232.226562 C 152.164062 231.09375 148.605469 229.160156 145.617188 226.921875 C 143.226562 225.128906 130.402344 213.703125 129.757812 222.132812 C 129.351562 227.386719 132.996094 232.074219 136.605469 235.496094 C 138.828125 237.601562 140.277344 240.292969 143.597656 241.539062 C 146.441406 242.601562 147.820312 245.429688 147.738281 249.1875 C 147.589844 256.796875 147.675781 264.414062 147.71875 272.027344 C 154.410156 273.277344 161.28125 273.96875 168.316406 273.96875 C 171.59375 273.96875 174.828125 273.792969 178.042969 273.515625 C 178.21875 267.660156 178.34375 261.796875 178.390625 255.949219 C 178.410156 253.363281 177.417969 247.871094 180.519531 246.550781 C 187.207031 243.710938 193.039062 239.628906 198.179688 234.523438 C 199.613281 233.085938 200.546875 231.328125 200.78125 229.3125 Z M 139.484375 219.328125 C 141.929688 221.273438 144.570312 222.894531 147.207031 224.546875 C 148.101562 225.097656 151.164062 227.703125 152.164062 226.847656 C 152.695312 226.394531 151.324219 224.65625 151.105469 224.128906 C 148.839844 218.65625 149.902344 211.671875 153.589844 207.066406 C 157.1875 202.570312 165.675781 199.59375 171.28125 200.816406 C 172.296875 201.039062 173.535156 201.695312 173.679688 199.804688 C 173.996094 195.496094 173.046875 191.050781 173.109375 186.710938 C 173.195312 180.148438 173.644531 173.335938 174.96875 166.898438 C 175.523438 164.195312 177.3125 163.136719 179.785156 163.0625 C 190.609375 162.746094 201.175781 160.746094 211.664062 158.28125 C 213.222656 157.335938 212.542969 156.875 211.339844 156.265625 C 204.949219 153.035156 198.125 151.109375 191.15625 149.722656 C 173.796875 146.265625 155.867188 144.773438 139.25 138.261719 C 130.488281 134.824219 122.613281 129.792969 115.71875 123.378906 C 112.859375 120.722656 110.265625 117.773438 107.523438 114.980469 C 106.46875 113.914062 105.441406 112.785156 104.246094 111.894531 C 101.289062 109.699219 97.628906 107.949219 94.15625 110.089844 C 91.867188 111.503906 90.46875 115.75 90.683594 118.25 C 90.988281 121.820312 93.242188 125.132812 95.1875 128.023438 C 99.519531 134.46875 104.523438 140.179688 110.316406 145.351562 C 113.488281 148.1875 116.683594 151 119.878906 153.820312 C 122.445312 156.082031 125.003906 158.722656 126.273438 161.972656 C 126.765625 163.234375 127.066406 164.1875 127.261719 165.066406 C 127.300781 170 126.703125 176.308594 124.738281 184.164062 C 119.027344 207.023438 126.523438 219.042969 126.523438 219.042969 L 128.648438 217.183594 C 132.640625 214.460938 136.101562 216.632812 139.488281 219.328125 Z M 139.484375 219.328125 " fill-opacity="1" fill-rule="evenodd"/></g></svg>