<svg xmlns="http://www.w3.org/2000/svg" xmlns:xlink="http://www.w3.org/1999/xlink" width="500" zoomAndPan="magnify" viewBox="0 0 375 374.999991" height="500" preserveAspectRatio="xMidYMid meet" version="1.0"><path fill="#218d7d" d="M 234.058594 73.265625 L 272.738281 73.265625 C 288.753906 73.265625 301.734375 86.355469 301.734375 102.507812 L 301.734375 141.515625 C 301.734375 157.667969 288.753906 170.757812 272.738281 170.757812 L 234.058594 170.757812 C 218.039062 170.757812 205.0625 157.667969 205.0625 141.515625 L 205.0625 102.507812 C 205.0625 86.355469 218.039062 73.265625 234.058594 73.265625 " fill-opacity="1" fill-rule="nonzero"/><path fill="#f5df99" d="M 102.261719 73.265625 L 140.941406 73.265625 C 156.960938 73.265625 169.941406 86.355469 169.941406 102.507812 L 169.941406 141.515625 C 169.941406 157.667969 156.960938 170.757812 140.941406 170.757812 L 102.261719 170.757812 C 86.246094 170.757812 73.265625 157.667969 73.265625 141.515625 L 73.265625 102.507812 C 73.265625 86.355469 86.246094 73.265625 102.261719 73.265625 " fill-opacity="1" fill-rule="nonzero"/><path fill="#218d7d" d="M 102.261719 204.238281 L 140.941406 204.238281 C 156.960938 204.238281 169.941406 217.328125 169.941406 233.480469 L 169.941406 272.488281 C 169.941406 288.628906 156.960938 301.730469 140.941406 301.730469 L 102.261719 301.730469 C 86.246094 301.730469 73.265625 288.628906 73.265625 272.488281 L 73.265625 233.480469 C 73.265625 217.328125 86.246094 204.238281 102.261719 204.238281 " fill-opacity="1" fill-rule="nonzero"/><path fill="#f5df99" d="M 234.058594 204.238281 L 272.738281 204.238281 C 288.753906 204.238281 301.734375 217.328125 301.734375 233.480469 L 301.734375 272.488281 C 301.734375 288.628906 288.753906 301.730469 272.738281 301.730469 L 234.058594 301.730469 C 218.039062 301.730469 205.0625 288.628906 205.0625 272.488281 L 205.0625 233.480469 C 205.0625 217.328125 218.039062 204.238281 234.058594 204.238281 " fill-opacity="1" fill-rule="nonzero"/></svg>