<svg xmlns="http://www.w3.org/2000/svg" xmlns:xlink="http://www.w3.org/1999/xlink" width="500" zoomAndPan="magnify" viewBox="0 0 375 374.999991" height="500" preserveAspectRatio="xMidYMid meet" version="1.0"><defs><clipPath id="b01793c29e"><path d="M 15.304688 18.75 L 359 18.75 L 359 356.25 L 15.304688 356.25 Z M 15.304688 18.75 " clip-rule="nonzero"/></clipPath></defs><g clip-path="url(#b01793c29e)"><path fill="#ffffff" d="M 358.878906 187.5 C 358.878906 190.261719 358.808594 193.023438 358.671875 195.78125 C 358.535156 198.539062 358.328125 201.292969 358.050781 204.039062 C 357.777344 206.789062 357.429688 209.527344 357.019531 212.261719 C 356.605469 214.992188 356.125 217.710938 355.578125 220.421875 C 355.03125 223.128906 354.414062 225.824219 353.730469 228.503906 C 353.046875 231.183594 352.296875 233.84375 351.480469 236.484375 C 350.667969 239.128906 349.785156 241.75 348.839844 244.351562 C 347.890625 246.949219 346.878906 249.527344 345.804688 252.078125 C 344.726562 254.628906 343.589844 257.152344 342.386719 259.648438 C 341.1875 262.144531 339.921875 264.613281 338.597656 267.046875 C 337.273438 269.484375 335.886719 271.886719 334.441406 274.253906 C 332.996094 276.625 331.492188 278.957031 329.933594 281.253906 C 328.371094 283.546875 326.753906 285.804688 325.078125 288.023438 C 323.402344 290.242188 321.675781 292.417969 319.890625 294.554688 C 318.109375 296.6875 316.273438 298.777344 314.386719 300.824219 C 312.496094 302.871094 310.558594 304.871094 308.574219 306.824219 C 306.585938 308.777344 304.550781 310.679688 302.46875 312.535156 C 300.382812 314.390625 298.257812 316.195312 296.082031 317.945312 C 293.910156 319.699219 291.695312 321.394531 289.4375 323.042969 C 287.179688 324.6875 284.882812 326.277344 282.546875 327.808594 C 280.207031 329.34375 277.835938 330.820312 275.421875 332.242188 C 273.011719 333.660156 270.566406 335.023438 268.089844 336.324219 C 265.609375 337.625 263.097656 338.867188 260.558594 340.046875 C 258.015625 341.230469 255.449219 342.347656 252.851562 343.40625 C 250.253906 344.460938 247.632812 345.457031 244.988281 346.386719 C 242.339844 347.316406 239.671875 348.183594 236.980469 348.984375 C 234.292969 349.785156 231.582031 350.523438 228.855469 351.191406 C 226.128906 351.863281 223.386719 352.46875 220.632812 353.007812 C 217.875 353.546875 215.105469 354.019531 212.324219 354.421875 C 209.546875 354.828125 206.757812 355.167969 203.960938 355.4375 C 201.160156 355.707031 198.359375 355.910156 195.550781 356.046875 C 192.746094 356.183594 189.933594 356.25 187.125 356.25 C 184.3125 356.25 181.503906 356.183594 178.695312 356.046875 C 175.890625 355.910156 173.085938 355.707031 170.289062 355.4375 C 167.492188 355.167969 164.703125 354.828125 161.921875 354.421875 C 159.140625 354.019531 156.375 353.546875 153.617188 353.007812 C 150.859375 352.46875 148.117188 351.863281 145.390625 351.191406 C 142.664062 350.523438 139.957031 349.785156 137.265625 348.984375 C 134.578125 348.183594 131.910156 347.316406 129.261719 346.386719 C 126.617188 345.457031 123.992188 344.460938 121.398438 343.40625 C 118.800781 342.347656 116.230469 341.230469 113.691406 340.046875 C 111.148438 338.867188 108.640625 337.625 106.160156 336.324219 C 103.679688 335.023438 101.234375 333.660156 98.824219 332.242188 C 96.414062 330.820312 94.039062 329.34375 91.703125 327.808594 C 89.367188 326.277344 87.070312 324.6875 84.8125 323.042969 C 82.554688 321.394531 80.335938 319.699219 78.164062 317.945312 C 75.992188 316.195312 73.863281 314.390625 71.78125 312.535156 C 69.699219 310.679688 67.664062 308.777344 65.675781 306.824219 C 63.6875 304.871094 61.75 302.871094 59.863281 300.824219 C 57.976562 298.777344 56.140625 296.6875 54.355469 294.554688 C 52.574219 292.417969 50.84375 290.242188 49.171875 288.023438 C 47.496094 285.804688 45.878906 283.546875 44.316406 281.253906 C 42.753906 278.957031 41.25 276.625 39.804688 274.253906 C 38.359375 271.886719 36.976562 269.484375 35.652344 267.046875 C 34.324219 264.613281 33.0625 262.144531 31.859375 259.648438 C 30.660156 257.152344 29.519531 254.628906 28.445312 252.078125 C 27.367188 249.527344 26.359375 246.949219 25.410156 244.351562 C 24.464844 241.75 23.582031 239.128906 22.765625 236.484375 C 21.949219 233.84375 21.199219 231.183594 20.519531 228.503906 C 19.835938 225.824219 19.21875 223.128906 18.671875 220.421875 C 18.121094 217.710938 17.640625 214.992188 17.230469 212.261719 C 16.816406 209.527344 16.472656 206.789062 16.199219 204.039062 C 15.921875 201.292969 15.714844 198.539062 15.578125 195.78125 C 15.441406 193.023438 15.371094 190.261719 15.371094 187.5 C 15.371094 184.738281 15.441406 181.976562 15.578125 179.21875 C 15.714844 176.460938 15.921875 173.707031 16.199219 170.960938 C 16.472656 168.210938 16.816406 165.472656 17.230469 162.738281 C 17.640625 160.007812 18.121094 157.289062 18.671875 154.578125 C 19.21875 151.871094 19.835938 149.175781 20.519531 146.496094 C 21.199219 143.816406 21.949219 141.15625 22.765625 138.515625 C 23.582031 135.871094 24.464844 133.25 25.410156 130.648438 C 26.359375 128.050781 27.367188 125.472656 28.445312 122.921875 C 29.519531 120.371094 30.660156 117.847656 31.859375 115.351562 C 33.0625 112.851562 34.324219 110.386719 35.652344 107.953125 C 36.976562 105.515625 38.359375 103.113281 39.804688 100.746094 C 41.25 98.375 42.753906 96.042969 44.316406 93.746094 C 45.878906 91.453125 47.496094 89.195312 49.171875 86.976562 C 50.84375 84.757812 52.574219 82.582031 54.355469 80.445312 C 56.140625 78.3125 57.976562 76.222656 59.863281 74.175781 C 61.75 72.128906 63.6875 70.128906 65.675781 68.175781 C 67.664062 66.222656 69.699219 64.320312 71.78125 62.464844 C 73.863281 60.609375 75.992188 58.804688 78.164062 57.054688 C 80.335938 55.300781 82.554688 53.605469 84.8125 51.957031 C 87.070312 50.3125 89.367188 48.722656 91.703125 47.191406 C 94.039062 45.65625 96.414062 44.179688 98.824219 42.757812 C 101.234375 41.339844 103.679688 39.976562 106.160156 38.675781 C 108.640625 37.375 111.148438 36.132812 113.691406 34.953125 C 116.230469 33.769531 118.800781 32.652344 121.398438 31.59375 C 123.992188 30.539062 126.617188 29.542969 129.261719 28.613281 C 131.910156 27.683594 134.578125 26.816406 137.265625 26.015625 C 139.957031 25.214844 142.664062 24.476562 145.390625 23.808594 C 148.117188 23.136719 150.859375 22.53125 153.617188 21.992188 C 156.375 21.453125 159.140625 20.980469 161.921875 20.578125 C 164.703125 20.171875 167.492188 19.832031 170.289062 19.5625 C 173.085938 19.292969 175.890625 19.089844 178.695312 18.953125 C 181.503906 18.816406 184.3125 18.75 187.125 18.75 C 189.933594 18.75 192.746094 18.816406 195.550781 18.953125 C 198.359375 19.089844 201.160156 19.292969 203.960938 19.5625 C 206.757812 19.832031 209.546875 20.171875 212.324219 20.578125 C 215.105469 20.980469 217.875 21.453125 220.632812 21.992188 C 223.386719 22.53125 226.128906 23.136719 228.855469 23.808594 C 231.582031 24.476562 234.292969 25.214844 236.980469 26.015625 C 239.671875 26.816406 242.339844 27.683594 244.988281 28.613281 C 247.632812 29.542969 250.253906 30.539062 252.851562 31.59375 C 255.449219 32.652344 258.015625 33.769531 260.558594 34.953125 C 263.097656 36.132812 265.609375 37.375 268.089844 38.675781 C 270.566406 39.976562 273.011719 41.339844 275.421875 42.757812 C 277.835938 44.179688 280.207031 45.65625 282.546875 47.191406 C 284.882812 48.722656 287.179688 50.3125 289.4375 51.957031 C 291.695312 53.605469 293.910156 55.300781 296.082031 57.054688 C 298.257812 58.804688 300.382812 60.609375 302.46875 62.464844 C 304.550781 64.320312 306.585938 66.222656 308.574219 68.175781 C 310.558594 70.128906 312.496094 72.128906 314.386719 74.175781 C 316.273438 76.222656 318.109375 78.3125 319.890625 80.445312 C 321.675781 82.582031 323.402344 84.757812 325.078125 86.976562 C 326.753906 89.195312 328.371094 91.453125 329.933594 93.746094 C 331.492188 96.042969 332.996094 98.375 334.441406 100.746094 C 335.886719 103.113281 337.273438 105.515625 338.597656 107.953125 C 339.921875 110.386719 341.1875 112.851562 342.386719 115.351562 C 343.589844 117.847656 344.726562 120.371094 345.804688 122.921875 C 346.878906 125.472656 347.890625 128.050781 348.839844 130.648438 C 349.785156 133.25 350.667969 135.871094 351.480469 138.515625 C 352.296875 141.15625 353.046875 143.816406 353.730469 146.496094 C 354.414062 149.175781 355.03125 151.871094 355.578125 154.578125 C 356.125 157.289062 356.605469 160.007812 357.019531 162.738281 C 357.429688 165.472656 357.777344 168.210938 358.050781 170.960938 C 358.328125 173.707031 358.535156 176.460938 358.671875 179.21875 C 358.808594 181.976562 358.878906 184.738281 358.878906 187.5 Z M 358.878906 187.5 " fill-opacity="1" fill-rule="nonzero"/></g><path fill="#218d7d" d="M 226.132812 178.691406 C 232.96875 182.574219 232.96875 192.425781 226.132812 196.308594 L 174.980469 225.324219 C 168.230469 229.152344 159.859375 224.277344 159.859375 216.515625 L 159.859375 158.484375 C 159.859375 150.722656 168.230469 145.847656 174.980469 149.675781 Z M 226.132812 178.691406 " fill-opacity="1" fill-rule="nonzero"/></svg>