<svg xmlns="http://www.w3.org/2000/svg" xmlns:xlink="http://www.w3.org/1999/xlink" width="500" zoomAndPan="magnify" viewBox="0 0 375 374.999991" height="500" preserveAspectRatio="xMidYMid meet" version="1.0"><defs><filter x="0%" y="0%" width="100%" height="100%" id="7c9eaa9a9f"><feColorMatrix values="0 0 0 0 1 0 0 0 0 1 0 0 0 0 1 0 0 0 1 0" color-interpolation-filters="sRGB"/></filter><clipPath id="e674ac0ee2"><path d="M 16 14.898438 L 361 14.898438 L 361 359.898438 L 16 359.898438 Z M 16 14.898438 " clip-rule="nonzero"/></clipPath><mask id="75782b6e9b"><g filter="url(#7c9eaa9a9f)"><rect x="-37.5" width="450" fill="#000000" y="-37.499999" height="449.999989" fill-opacity="0.2"/></g></mask><clipPath id="d0f21f8190"><path d="M 0 0.898438 L 345 0.898438 L 345 345.898438 L 0 345.898438 Z M 0 0.898438 " clip-rule="nonzero"/></clipPath><clipPath id="9cb042e119"><rect x="0" width="345" y="0" height="346"/></clipPath></defs><g clip-path="url(#e674ac0ee2)"><g mask="url(#75782b6e9b)"><g transform="matrix(1, 0, 0, 1, 16, 14)"><g clip-path="url(#9cb042e119)"><g clip-path="url(#d0f21f8190)"><path fill="#30cbb8" d="M 345.199219 173.496094 C 345.199219 176.324219 345.128906 179.144531 344.988281 181.96875 C 344.851562 184.789062 344.644531 187.605469 344.367188 190.414062 C 344.089844 193.226562 343.746094 196.03125 343.328125 198.824219 C 342.914062 201.617188 342.433594 204.398438 341.882812 207.171875 C 341.332031 209.941406 340.710938 212.695312 340.027344 215.4375 C 339.339844 218.175781 338.585938 220.898438 337.765625 223.601562 C 336.945312 226.304688 336.058594 228.984375 335.109375 231.644531 C 334.15625 234.304688 333.140625 236.9375 332.058594 239.550781 C 330.980469 242.160156 329.835938 244.742188 328.625 247.292969 C 327.417969 249.847656 326.148438 252.371094 324.816406 254.859375 C 323.484375 257.351562 322.09375 259.808594 320.640625 262.230469 C 319.191406 264.65625 317.679688 267.039062 316.109375 269.390625 C 314.539062 271.738281 312.914062 274.046875 311.230469 276.316406 C 309.550781 278.585938 307.8125 280.808594 306.019531 282.992188 C 304.226562 285.175781 302.382812 287.316406 300.484375 289.410156 C 298.589844 291.5 296.640625 293.546875 294.644531 295.542969 C 292.648438 297.542969 290.601562 299.488281 288.507812 301.386719 C 286.417969 303.28125 284.277344 305.128906 282.09375 306.917969 C 279.910156 308.710938 277.683594 310.449219 275.414062 312.132812 C 273.148438 313.8125 270.839844 315.441406 268.488281 317.007812 C 266.140625 318.578125 263.753906 320.089844 261.332031 321.542969 C 258.910156 322.992188 256.453125 324.386719 253.960938 325.71875 C 251.46875 327.046875 248.949219 328.320312 246.394531 329.527344 C 243.839844 330.734375 241.257812 331.878906 238.648438 332.960938 C 236.039062 334.039062 233.40625 335.054688 230.746094 336.007812 C 228.085938 336.960938 225.40625 337.84375 222.703125 338.664062 C 220 339.484375 217.277344 340.238281 214.535156 340.925781 C 211.796875 341.613281 209.042969 342.230469 206.269531 342.78125 C 203.5 343.332031 200.71875 343.816406 197.925781 344.230469 C 195.128906 344.644531 192.328125 344.988281 189.515625 345.265625 C 186.703125 345.542969 183.890625 345.75 181.066406 345.890625 C 178.246094 346.027344 175.421875 346.097656 172.597656 346.097656 C 169.773438 346.097656 166.949219 346.027344 164.128906 345.890625 C 161.308594 345.75 158.492188 345.542969 155.679688 345.265625 C 152.871094 344.988281 150.066406 344.644531 147.273438 344.230469 C 144.480469 343.816406 141.695312 343.332031 138.925781 342.78125 C 136.15625 342.230469 133.398438 341.613281 130.660156 340.925781 C 127.921875 340.238281 125.199219 339.484375 122.496094 338.664062 C 119.792969 337.84375 117.109375 336.960938 114.453125 336.007812 C 111.792969 335.054688 109.15625 334.039062 106.546875 332.960938 C 103.9375 331.878906 101.355469 330.734375 98.800781 329.527344 C 96.25 328.320312 93.726562 327.046875 91.234375 325.71875 C 88.746094 324.386719 86.289062 322.992188 83.863281 321.542969 C 81.441406 320.089844 79.054688 318.578125 76.707031 317.007812 C 74.359375 315.441406 72.050781 313.8125 69.78125 312.132812 C 67.511719 310.449219 65.285156 308.710938 63.101562 306.917969 C 60.917969 305.128906 58.78125 303.28125 56.6875 301.386719 C 54.59375 299.488281 52.550781 297.542969 50.550781 295.542969 C 48.554688 293.546875 46.609375 291.5 44.710938 289.410156 C 42.8125 287.316406 40.96875 285.175781 39.175781 282.992188 C 37.386719 280.808594 35.648438 278.585938 33.964844 276.316406 C 32.28125 274.046875 30.65625 271.738281 29.085938 269.390625 C 27.519531 267.039062 26.007812 264.65625 24.554688 262.230469 C 23.101562 259.808594 21.710938 257.351562 20.378906 254.859375 C 19.046875 252.371094 17.777344 249.847656 16.570312 247.292969 C 15.363281 244.742188 14.21875 242.160156 13.136719 239.550781 C 12.054688 236.9375 11.039062 234.304688 10.089844 231.644531 C 9.136719 228.984375 8.25 226.304688 7.429688 223.601562 C 6.609375 220.898438 5.859375 218.175781 5.171875 215.4375 C 4.484375 212.695312 3.867188 209.941406 3.316406 207.171875 C 2.765625 204.398438 2.28125 201.617188 1.867188 198.824219 C 1.453125 196.03125 1.105469 193.226562 0.828125 190.414062 C 0.554688 187.605469 0.34375 184.789062 0.207031 181.96875 C 0.0664062 179.144531 0 176.324219 0 173.496094 C 0 170.671875 0.0664062 167.851562 0.207031 165.027344 C 0.34375 162.207031 0.554688 159.390625 0.828125 156.582031 C 1.105469 153.769531 1.453125 150.964844 1.867188 148.171875 C 2.28125 145.378906 2.765625 142.597656 3.316406 139.824219 C 3.867188 137.054688 4.484375 134.300781 5.171875 131.558594 C 5.859375 128.820312 6.609375 126.097656 7.429688 123.394531 C 8.25 120.691406 9.136719 118.011719 10.089844 115.351562 C 11.039062 112.691406 12.054688 110.058594 13.136719 107.445312 C 14.21875 104.835938 15.363281 102.253906 16.570312 99.703125 C 17.777344 97.148438 19.046875 94.625 20.378906 92.136719 C 21.710938 89.644531 23.101562 87.1875 24.554688 84.765625 C 26.007812 82.339844 27.519531 79.957031 29.085938 77.605469 C 30.65625 75.257812 32.28125 72.949219 33.964844 70.679688 C 35.648438 68.410156 37.386719 66.183594 39.175781 64.003906 C 40.96875 61.820312 42.8125 59.679688 44.710938 57.585938 C 46.609375 55.496094 48.554688 53.449219 50.550781 51.453125 C 52.550781 49.453125 54.59375 47.507812 56.6875 45.609375 C 58.78125 43.714844 60.917969 41.867188 63.101562 40.078125 C 65.285156 38.285156 67.511719 36.546875 69.78125 34.863281 C 72.050781 33.183594 74.359375 31.554688 76.707031 29.988281 C 79.054688 28.417969 81.441406 26.90625 83.863281 25.453125 C 86.289062 24.003906 88.746094 22.609375 91.234375 21.277344 C 93.726562 19.945312 96.25 18.675781 98.800781 17.46875 C 101.355469 16.261719 103.9375 15.117188 106.546875 14.035156 C 109.15625 12.957031 111.792969 11.941406 114.453125 10.988281 C 117.109375 10.035156 119.792969 9.152344 122.496094 8.332031 C 125.199219 7.511719 127.921875 6.757812 130.660156 6.070312 C 133.398438 5.382812 136.15625 4.765625 138.925781 4.214844 C 141.695312 3.664062 144.480469 3.179688 147.273438 2.765625 C 150.066406 2.351562 152.871094 2.007812 155.679688 1.730469 C 158.492188 1.453125 161.308594 1.246094 164.128906 1.105469 C 166.949219 0.96875 169.773438 0.898438 172.597656 0.898438 C 175.421875 0.898438 178.246094 0.96875 181.066406 1.105469 C 183.890625 1.246094 186.703125 1.453125 189.515625 1.730469 C 192.328125 2.007812 195.128906 2.351562 197.925781 2.765625 C 200.71875 3.179688 203.5 3.664062 206.269531 4.214844 C 209.042969 4.765625 211.796875 5.382812 214.535156 6.070312 C 217.277344 6.757812 220 7.511719 222.703125 8.332031 C 225.40625 9.152344 228.085938 10.035156 230.746094 10.988281 C 233.40625 11.941406 236.039062 12.957031 238.648438 14.035156 C 241.257812 15.117188 243.839844 16.261719 246.394531 17.46875 C 248.949219 18.675781 251.46875 19.945312 253.960938 21.277344 C 256.453125 22.609375 258.910156 24.003906 261.332031 25.453125 C 263.753906 26.90625 266.140625 28.417969 268.488281 29.988281 C 270.839844 31.554688 273.148438 33.183594 275.414062 34.863281 C 277.683594 36.546875 279.910156 38.285156 282.09375 40.078125 C 284.277344 41.867188 286.417969 43.714844 288.507812 45.609375 C 290.601562 47.507812 292.648438 49.453125 294.644531 51.453125 C 296.640625 53.449219 298.589844 55.496094 300.484375 57.585938 C 302.382812 59.679688 304.226562 61.820312 306.019531 64.003906 C 307.8125 66.183594 309.550781 68.410156 311.230469 70.679688 C 312.914062 72.949219 314.539062 75.257812 316.109375 77.605469 C 317.679688 79.957031 319.191406 82.339844 320.640625 84.765625 C 322.09375 87.1875 323.484375 89.644531 324.816406 92.136719 C 326.148438 94.625 327.417969 97.148438 328.625 99.703125 C 329.835938 102.253906 330.980469 104.835938 332.058594 107.445312 C 333.140625 110.058594 334.15625 112.691406 335.109375 115.351562 C 336.058594 118.011719 336.945312 120.691406 337.765625 123.394531 C 338.585938 126.097656 339.339844 128.820312 340.027344 131.558594 C 340.710938 134.300781 341.332031 137.054688 341.882812 139.824219 C 342.433594 142.597656 342.914062 145.378906 343.328125 148.171875 C 343.746094 150.964844 344.089844 153.769531 344.367188 156.582031 C 344.644531 159.390625 344.851562 162.207031 344.988281 165.027344 C 345.128906 167.851562 345.199219 170.671875 345.199219 173.496094 Z M 345.199219 173.496094 " fill-opacity="1" fill-rule="nonzero"/></g></g></g></g></g><path fill="#218d7d" d="M 274.898438 187.496094 C 274.898438 235.171875 236.261719 273.796875 188.597656 273.796875 C 140.933594 273.796875 102.296875 235.171875 102.296875 187.496094 C 102.296875 139.84375 140.933594 101.199219 188.597656 101.199219 C 236.261719 101.199219 274.898438 139.84375 274.898438 187.496094 " fill-opacity="1" fill-rule="nonzero"/><path fill="#f5df99" d="M 196.105469 192.941406 C 196.105469 197.101562 192.714844 200.492188 188.554688 200.492188 C 184.394531 200.492188 181.003906 197.101562 181.003906 192.941406 L 181.003906 154.796875 C 181.003906 150.636719 184.394531 147.246094 188.554688 147.246094 C 192.714844 147.246094 196.105469 150.636719 196.105469 154.796875 Z M 181.046875 220.324219 C 181.046875 216.164062 184.421875 212.773438 188.554688 212.773438 C 192.808594 212.773438 196.191406 216.164062 196.191406 220.324219 C 196.191406 224.484375 192.808594 227.875 188.640625 227.875 C 184.457031 227.875 181.046875 224.484375 181.046875 220.324219 Z M 181.046875 220.324219 " fill-opacity="1" fill-rule="evenodd"/></svg>