<svg xmlns="http://www.w3.org/2000/svg" xmlns:xlink="http://www.w3.org/1999/xlink" width="500" zoomAndPan="magnify" viewBox="0 0 375 374.999991" height="500" preserveAspectRatio="xMidYMid meet" version="1.0"><defs><filter x="0%" y="0%" width="100%" height="100%" id="9fc70423d0"><feColorMatrix values="0 0 0 0 1 0 0 0 0 1 0 0 0 0 1 0 0 0 1 0" color-interpolation-filters="sRGB"/></filter><clipPath id="04f484d750"><path d="M 14.304688 14.304688 L 367.554688 14.304688 L 367.554688 367.554688 L 14.304688 367.554688 Z M 14.304688 14.304688 " clip-rule="nonzero"/></clipPath><mask id="1049ac9e06"><g filter="url(#9fc70423d0)"><rect x="-37.5" width="450" fill="#000000" y="-37.499999" height="449.999989" fill-opacity="0.2"/></g></mask><clipPath id="2ca7c0d96f"><path d="M 0.304688 0.304688 L 353.554688 0.304688 L 353.554688 353.554688 L 0.304688 353.554688 Z M 0.304688 0.304688 " clip-rule="nonzero"/></clipPath><clipPath id="e1068095e6"><rect x="0" width="354" y="0" height="354"/></clipPath></defs><g clip-path="url(#04f484d750)"><g mask="url(#1049ac9e06)"><g transform="matrix(1, 0, 0, 1, 14, 14)"><g clip-path="url(#e1068095e6)"><g clip-path="url(#2ca7c0d96f)"><path fill="#30cbb8" d="M 353.460938 176.882812 C 353.460938 179.773438 353.390625 182.660156 353.25 185.546875 C 353.109375 188.433594 352.894531 191.316406 352.613281 194.191406 C 352.328125 197.066406 351.976562 199.933594 351.550781 202.792969 C 351.125 205.652344 350.632812 208.5 350.070312 211.332031 C 349.503906 214.167969 348.871094 216.984375 348.171875 219.789062 C 347.46875 222.59375 346.699219 225.375 345.859375 228.140625 C 345.019531 230.90625 344.113281 233.652344 343.140625 236.371094 C 342.167969 239.09375 341.125 241.789062 340.019531 244.457031 C 338.914062 247.128906 337.746094 249.769531 336.507812 252.378906 C 335.273438 254.992188 333.972656 257.574219 332.613281 260.121094 C 331.25 262.671875 329.824219 265.183594 328.339844 267.664062 C 326.855469 270.140625 325.308594 272.582031 323.703125 274.984375 C 322.097656 277.386719 320.433594 279.75 318.710938 282.070312 C 316.992188 284.390625 315.214844 286.671875 313.378906 288.902344 C 311.546875 291.136719 309.660156 293.324219 307.71875 295.464844 C 305.777344 297.609375 303.785156 299.699219 301.742188 301.742188 C 299.699219 303.785156 297.609375 305.777344 295.464844 307.71875 C 293.324219 309.660156 291.136719 311.546875 288.902344 313.378906 C 286.671875 315.214844 284.390625 316.992188 282.070312 318.710938 C 279.75 320.433594 277.386719 322.097656 274.984375 323.703125 C 272.582031 325.308594 270.140625 326.855469 267.664062 328.339844 C 265.183594 329.824219 262.671875 331.25 260.121094 332.613281 C 257.574219 333.972656 254.992188 335.273438 252.378906 336.507812 C 249.769531 337.746094 247.128906 338.914062 244.457031 340.019531 C 241.789062 341.125 239.09375 342.167969 236.371094 343.140625 C 233.652344 344.113281 230.90625 345.019531 228.140625 345.859375 C 225.375 346.699219 222.59375 347.46875 219.789062 348.171875 C 216.984375 348.871094 214.167969 349.503906 211.332031 350.070312 C 208.5 350.632812 205.652344 351.125 202.792969 351.550781 C 199.933594 351.976562 197.066406 352.328125 194.191406 352.613281 C 191.316406 352.894531 188.433594 353.109375 185.546875 353.25 C 182.660156 353.390625 179.773438 353.460938 176.882812 353.460938 C 173.996094 353.460938 171.105469 353.390625 168.21875 353.25 C 165.332031 353.109375 162.453125 352.894531 159.578125 352.613281 C 156.699219 352.328125 153.832031 351.976562 150.972656 351.550781 C 148.117188 351.125 145.269531 350.632812 142.433594 350.070312 C 139.601562 349.503906 136.78125 348.871094 133.980469 348.171875 C 131.175781 347.46875 128.390625 346.699219 125.625 345.859375 C 122.859375 345.019531 120.117188 344.113281 117.398438 343.140625 C 114.675781 342.167969 111.980469 341.125 109.308594 340.019531 C 106.640625 338.914062 104 337.746094 101.386719 336.507812 C 98.773438 335.273438 96.195312 333.972656 93.644531 332.613281 C 91.097656 331.25 88.582031 329.824219 86.105469 328.339844 C 83.625 326.855469 81.183594 325.308594 78.78125 323.703125 C 76.378906 322.097656 74.019531 320.433594 71.695312 318.710938 C 69.375 316.992188 67.097656 315.214844 64.863281 313.378906 C 62.628906 311.546875 60.441406 309.660156 58.300781 307.71875 C 56.160156 305.777344 54.066406 303.785156 52.023438 301.742188 C 49.980469 299.699219 47.988281 297.609375 46.046875 295.464844 C 44.109375 293.324219 42.21875 291.136719 40.386719 288.902344 C 38.554688 286.671875 36.777344 284.390625 35.054688 282.070312 C 33.332031 279.75 31.671875 277.386719 30.066406 274.984375 C 28.460938 272.582031 26.914062 270.140625 25.429688 267.664062 C 23.941406 265.183594 22.519531 262.671875 21.15625 260.121094 C 19.792969 257.574219 18.496094 254.992188 17.257812 252.378906 C 16.023438 249.769531 14.851562 247.128906 13.746094 244.457031 C 12.640625 241.789062 11.601562 239.09375 10.628906 236.371094 C 9.65625 233.652344 8.75 230.90625 7.910156 228.140625 C 7.070312 225.375 6.300781 222.59375 5.597656 219.789062 C 4.894531 216.984375 4.261719 214.167969 3.699219 211.332031 C 3.136719 208.5 2.640625 205.652344 2.21875 202.792969 C 1.792969 199.933594 1.4375 197.066406 1.15625 194.191406 C 0.871094 191.316406 0.660156 188.433594 0.519531 185.546875 C 0.375 182.660156 0.304688 179.773438 0.304688 176.882812 C 0.304688 173.996094 0.375 171.105469 0.519531 168.21875 C 0.660156 165.332031 0.871094 162.453125 1.15625 159.578125 C 1.4375 156.699219 1.792969 153.832031 2.21875 150.972656 C 2.640625 148.117188 3.136719 145.269531 3.699219 142.433594 C 4.261719 139.601562 4.894531 136.78125 5.597656 133.980469 C 6.300781 131.175781 7.070312 128.390625 7.910156 125.625 C 8.75 122.859375 9.65625 120.117188 10.628906 117.398438 C 11.601562 114.675781 12.640625 111.980469 13.746094 109.308594 C 14.851562 106.640625 16.023438 104 17.257812 101.386719 C 18.496094 98.773438 19.792969 96.195312 21.15625 93.644531 C 22.519531 91.097656 23.941406 88.582031 25.429688 86.105469 C 26.914062 83.625 28.460938 81.183594 30.066406 78.78125 C 31.671875 76.378906 33.332031 74.019531 35.054688 71.695312 C 36.777344 69.375 38.554688 67.097656 40.386719 64.863281 C 42.21875 62.628906 44.109375 60.441406 46.046875 58.300781 C 47.988281 56.160156 49.980469 54.066406 52.023438 52.023438 C 54.066406 49.980469 56.160156 47.988281 58.300781 46.046875 C 60.441406 44.109375 62.628906 42.21875 64.863281 40.386719 C 67.097656 38.554688 69.375 36.777344 71.695312 35.054688 C 74.019531 33.332031 76.378906 31.671875 78.78125 30.066406 C 81.183594 28.460938 83.625 26.914062 86.105469 25.429688 C 88.582031 23.941406 91.097656 22.519531 93.644531 21.15625 C 96.195312 19.792969 98.773438 18.496094 101.386719 17.257812 C 104 16.023438 106.640625 14.851562 109.308594 13.746094 C 111.980469 12.640625 114.675781 11.601562 117.398438 10.628906 C 120.117188 9.65625 122.859375 8.75 125.625 7.910156 C 128.390625 7.070312 131.175781 6.300781 133.980469 5.597656 C 136.78125 4.894531 139.601562 4.261719 142.433594 3.699219 C 145.269531 3.136719 148.117188 2.640625 150.972656 2.21875 C 153.832031 1.792969 156.699219 1.4375 159.578125 1.15625 C 162.453125 0.871094 165.332031 0.660156 168.21875 0.519531 C 171.105469 0.375 173.996094 0.304688 176.882812 0.304688 C 179.773438 0.304688 182.660156 0.375 185.546875 0.519531 C 188.433594 0.660156 191.316406 0.871094 194.191406 1.15625 C 197.066406 1.4375 199.933594 1.792969 202.792969 2.21875 C 205.652344 2.640625 208.5 3.136719 211.332031 3.699219 C 214.167969 4.261719 216.984375 4.894531 219.789062 5.597656 C 222.59375 6.300781 225.375 7.070312 228.140625 7.910156 C 230.90625 8.75 233.652344 9.65625 236.371094 10.628906 C 239.09375 11.601562 241.789062 12.640625 244.457031 13.746094 C 247.128906 14.851562 249.769531 16.023438 252.378906 17.257812 C 254.992188 18.496094 257.574219 19.792969 260.121094 21.15625 C 262.671875 22.519531 265.183594 23.941406 267.664062 25.429688 C 270.140625 26.914062 272.582031 28.460938 274.984375 30.066406 C 277.386719 31.671875 279.75 33.332031 282.070312 35.054688 C 284.390625 36.777344 286.671875 38.554688 288.902344 40.386719 C 291.136719 42.21875 293.324219 44.109375 295.464844 46.046875 C 297.609375 47.988281 299.699219 49.980469 301.742188 52.023438 C 303.785156 54.066406 305.777344 56.160156 307.71875 58.300781 C 309.660156 60.441406 311.546875 62.628906 313.378906 64.863281 C 315.214844 67.097656 316.992188 69.375 318.710938 71.695312 C 320.433594 74.019531 322.097656 76.378906 323.703125 78.78125 C 325.308594 81.183594 326.855469 83.625 328.339844 86.105469 C 329.824219 88.582031 331.25 91.097656 332.613281 93.644531 C 333.972656 96.195312 335.273438 98.773438 336.507812 101.386719 C 337.746094 104 338.914062 106.640625 340.019531 109.308594 C 341.125 111.980469 342.167969 114.675781 343.140625 117.398438 C 344.113281 120.117188 345.019531 122.859375 345.859375 125.625 C 346.699219 128.390625 347.46875 131.175781 348.171875 133.980469 C 348.871094 136.78125 349.503906 139.601562 350.070312 142.433594 C 350.632812 145.269531 351.125 148.117188 351.550781 150.972656 C 351.976562 153.832031 352.328125 156.699219 352.613281 159.578125 C 352.894531 162.453125 353.109375 165.332031 353.25 168.21875 C 353.390625 171.105469 353.460938 173.996094 353.460938 176.882812 Z M 353.460938 176.882812 " fill-opacity="1" fill-rule="nonzero"/></g></g></g></g></g><path fill="#218d7d" d="M 212.234375 133.40625 C 208.03125 132.628906 204.171875 135.3125 203.371094 139.414062 C 202.570312 143.519531 205.261719 147.523438 209.351562 148.324219 C 221.660156 150.726562 231.164062 160.253906 233.574219 172.605469 L 233.574219 172.613281 C 234.261719 176.171875 237.390625 178.757812 240.996094 178.757812 C 241.480469 178.757812 241.960938 178.710938 242.457031 178.625 C 246.542969 177.804688 249.234375 173.804688 248.433594 169.695312 C 244.839844 151.246094 230.636719 136.996094 212.234375 133.40625 " fill-opacity="1" fill-rule="nonzero"/><path fill="#218d7d" d="M 211.683594 102.664062 C 209.714844 102.382812 207.734375 102.964844 206.160156 104.21875 C 204.542969 105.488281 203.53125 107.324219 203.3125 109.378906 C 202.847656 113.535156 205.84375 117.292969 209.996094 117.761719 C 238.617188 120.953125 260.859375 143.25 264.078125 171.960938 C 264.511719 175.804688 267.738281 178.707031 271.589844 178.707031 C 271.878906 178.707031 272.160156 178.691406 272.449219 178.65625 C 274.464844 178.433594 276.257812 177.4375 277.523438 175.851562 C 278.78125 174.261719 279.351562 172.285156 279.125 170.265625 C 275.113281 134.445312 247.390625 106.644531 211.683594 102.664062 " fill-opacity="1" fill-rule="nonzero"/><path fill="#f5df99" d="M 182.335938 199.46875 C 217.554688 234.679688 225.542969 193.945312 247.96875 216.355469 C 269.585938 237.964844 282.011719 242.296875 254.621094 269.679688 C 251.191406 272.4375 229.390625 305.609375 152.785156 229.023438 C 76.164062 152.425781 109.320312 130.605469 112.078125 127.171875 C 139.535156 99.714844 143.789062 112.214844 165.40625 133.824219 C 187.832031 156.242188 147.117188 164.257812 182.335938 199.46875 Z M 182.335938 199.46875 " fill-opacity="1" fill-rule="evenodd"/></svg>