<svg xmlns="http://www.w3.org/2000/svg" xmlns:xlink="http://www.w3.org/1999/xlink" width="500" zoomAndPan="magnify" viewBox="0 0 375 374.999991" height="500" preserveAspectRatio="xMidYMid meet" version="1.0"><defs><filter x="0%" y="0%" width="100%" height="100%" id="943f291c05"><feColorMatrix values="0 0 0 0 1 0 0 0 0 1 0 0 0 0 1 0 0 0 1 0" color-interpolation-filters="sRGB"/></filter><clipPath id="3a905bef96"><path d="M 7.789062 6.191406 L 367.039062 6.191406 L 367.039062 375 L 7.789062 375 Z M 7.789062 6.191406 " clip-rule="nonzero"/></clipPath><mask id="8e629f6d5e"><g filter="url(#943f291c05)"><rect x="-37.5" width="450" fill="#000000" y="-37.499999" height="449.999989" fill-opacity="0.2"/></g></mask><clipPath id="6072cd77cc"><path d="M 0.789062 1 L 360.039062 1 L 360.039062 362 L 0.789062 362 Z M 0.789062 1 " clip-rule="nonzero"/></clipPath><clipPath id="0e21a2ff13"><rect x="0" width="361" y="0" height="369"/></clipPath></defs><g clip-path="url(#3a905bef96)"><g mask="url(#8e629f6d5e)"><g transform="matrix(1, 0, 0, 1, 7, 6)"><g clip-path="url(#0e21a2ff13)"><g clip-path="url(#6072cd77cc)"><path fill="#30cbb8" d="M 360.203125 181.589844 C 360.203125 184.53125 360.132812 187.472656 359.988281 190.410156 C 359.84375 193.347656 359.625 196.277344 359.339844 199.203125 C 359.050781 202.132812 358.691406 205.050781 358.257812 207.957031 C 357.828125 210.867188 357.324219 213.765625 356.75 216.648438 C 356.175781 219.535156 355.53125 222.402344 354.816406 225.253906 C 354.101562 228.109375 353.320312 230.941406 352.464844 233.757812 C 351.613281 236.570312 350.6875 239.363281 349.699219 242.132812 C 348.707031 244.902344 347.648438 247.644531 346.523438 250.359375 C 345.398438 253.078125 344.207031 255.765625 342.949219 258.425781 C 341.691406 261.082031 340.371094 263.710938 338.984375 266.304688 C 337.597656 268.898438 336.148438 271.457031 334.636719 273.976562 C 333.125 276.5 331.550781 278.984375 329.917969 281.429688 C 328.285156 283.875 326.589844 286.28125 324.839844 288.640625 C 323.085938 291.003906 321.277344 293.320312 319.410156 295.59375 C 317.546875 297.867188 315.625 300.09375 313.652344 302.273438 C 311.675781 304.453125 309.648438 306.582031 307.570312 308.664062 C 305.488281 310.742188 303.359375 312.769531 301.179688 314.746094 C 299 316.71875 296.773438 318.640625 294.5 320.503906 C 292.226562 322.371094 289.910156 324.179688 287.546875 325.933594 C 285.1875 327.683594 282.78125 329.378906 280.335938 331.011719 C 277.890625 332.644531 275.40625 334.21875 272.882812 335.730469 C 270.363281 337.242188 267.804688 338.691406 265.210938 340.078125 C 262.617188 341.464844 259.988281 342.785156 257.332031 344.042969 C 254.671875 345.300781 251.984375 346.492188 249.265625 347.617188 C 246.550781 348.742188 243.808594 349.800781 241.039062 350.792969 C 238.269531 351.785156 235.476562 352.707031 232.664062 353.558594 C 229.847656 354.414062 227.015625 355.195312 224.160156 355.910156 C 221.308594 356.625 218.441406 357.269531 215.554688 357.84375 C 212.671875 358.417969 209.773438 358.921875 206.863281 359.351562 C 203.957031 359.785156 201.039062 360.144531 198.109375 360.433594 C 195.183594 360.71875 192.25 360.9375 189.3125 361.082031 C 186.375 361.226562 183.4375 361.296875 180.496094 361.296875 C 177.554688 361.296875 174.617188 361.226562 171.679688 361.082031 C 168.742188 360.9375 165.808594 360.71875 162.882812 360.433594 C 159.957031 360.144531 157.039062 359.785156 154.128906 359.351562 C 151.21875 358.921875 148.320312 358.417969 145.4375 357.84375 C 142.554688 357.269531 139.683594 356.625 136.832031 355.910156 C 133.976562 355.195312 131.144531 354.414062 128.332031 353.558594 C 125.515625 352.707031 122.722656 351.785156 119.953125 350.792969 C 117.1875 349.800781 114.441406 348.742188 111.726562 347.617188 C 109.007812 346.492188 106.320312 345.300781 103.660156 344.042969 C 101.003906 342.785156 98.378906 341.464844 95.785156 340.078125 C 93.191406 338.691406 90.632812 337.242188 88.109375 335.730469 C 85.585938 334.21875 83.101562 332.644531 80.65625 331.011719 C 78.210938 329.378906 75.808594 327.683594 73.445312 325.933594 C 71.082031 324.179688 68.765625 322.371094 66.492188 320.503906 C 64.21875 318.640625 61.992188 316.71875 59.8125 314.746094 C 57.632812 312.769531 55.503906 310.742188 53.425781 308.664062 C 51.34375 306.582031 49.316406 304.453125 47.34375 302.273438 C 45.367188 300.09375 43.445312 297.867188 41.582031 295.59375 C 39.714844 293.320312 37.90625 291.003906 36.15625 288.640625 C 34.402344 286.28125 32.710938 283.875 31.074219 281.429688 C 29.441406 278.984375 27.867188 276.5 26.355469 273.976562 C 24.84375 271.457031 23.394531 268.898438 22.007812 266.304688 C 20.621094 263.710938 19.300781 261.082031 18.042969 258.425781 C 16.785156 255.765625 15.59375 253.078125 14.46875 250.359375 C 13.34375 247.644531 12.285156 244.902344 11.292969 242.132812 C 10.304688 239.363281 9.382812 236.570312 8.527344 233.757812 C 7.675781 230.941406 6.890625 228.109375 6.175781 225.253906 C 5.460938 222.402344 4.816406 219.535156 4.242188 216.648438 C 3.667969 213.765625 3.167969 210.867188 2.734375 207.957031 C 2.304688 205.050781 1.941406 202.132812 1.65625 199.203125 C 1.367188 196.277344 1.148438 193.347656 1.007812 190.410156 C 0.863281 187.472656 0.789062 184.53125 0.789062 181.589844 C 0.789062 178.648438 0.863281 175.710938 1.007812 172.773438 C 1.148438 169.835938 1.367188 166.902344 1.65625 163.976562 C 1.941406 161.050781 2.304688 158.132812 2.734375 155.222656 C 3.167969 152.3125 3.667969 149.414062 4.242188 146.53125 C 4.816406 143.648438 5.460938 140.777344 6.175781 137.925781 C 6.890625 135.074219 7.675781 132.238281 8.527344 129.425781 C 9.382812 126.609375 10.304688 123.816406 11.292969 121.050781 C 12.285156 118.28125 13.34375 115.535156 14.46875 112.820312 C 15.59375 110.101562 16.785156 107.414062 18.042969 104.753906 C 19.300781 102.097656 20.621094 99.472656 22.007812 96.878906 C 23.394531 94.285156 24.84375 91.726562 26.355469 89.203125 C 27.867188 86.679688 29.441406 84.195312 31.074219 81.75 C 32.710938 79.304688 34.402344 76.902344 36.15625 74.539062 C 37.90625 72.175781 39.714844 69.859375 41.582031 67.585938 C 43.445312 65.3125 45.367188 63.085938 47.34375 60.90625 C 49.316406 58.726562 51.34375 56.597656 53.425781 54.519531 C 55.503906 52.4375 57.632812 50.410156 59.8125 48.4375 C 61.992188 46.460938 64.21875 44.539062 66.492188 42.675781 C 68.765625 40.808594 71.082031 39 73.445312 37.25 C 75.808594 35.496094 78.210938 33.804688 80.65625 32.167969 C 83.101562 30.535156 85.585938 28.960938 88.109375 27.449219 C 90.632812 25.9375 93.191406 24.488281 95.785156 23.101562 C 98.378906 21.714844 101.003906 20.394531 103.660156 19.136719 C 106.320312 17.878906 109.007812 16.6875 111.726562 15.5625 C 114.441406 14.4375 117.1875 13.378906 119.953125 12.386719 C 122.722656 11.398438 125.515625 10.476562 128.332031 9.621094 C 131.144531 8.769531 133.976562 7.984375 136.832031 7.269531 C 139.683594 6.554688 142.554688 5.910156 145.4375 5.335938 C 148.320312 4.761719 151.21875 4.261719 154.128906 3.828125 C 157.039062 3.398438 159.957031 3.035156 162.882812 2.75 C 165.808594 2.460938 168.742188 2.246094 171.679688 2.101562 C 174.617188 1.957031 177.554688 1.882812 180.496094 1.882812 C 183.4375 1.882812 186.375 1.957031 189.3125 2.101562 C 192.25 2.246094 195.183594 2.460938 198.109375 2.75 C 201.039062 3.035156 203.957031 3.398438 206.863281 3.828125 C 209.773438 4.261719 212.671875 4.761719 215.554688 5.335938 C 218.441406 5.910156 221.308594 6.554688 224.160156 7.269531 C 227.015625 7.984375 229.847656 8.769531 232.664062 9.621094 C 235.476562 10.476562 238.269531 11.398438 241.039062 12.386719 C 243.808594 13.378906 246.550781 14.4375 249.265625 15.5625 C 251.984375 16.6875 254.671875 17.878906 257.332031 19.136719 C 259.988281 20.394531 262.617188 21.714844 265.210938 23.101562 C 267.804688 24.488281 270.363281 25.9375 272.882812 27.449219 C 275.40625 28.960938 277.890625 30.535156 280.335938 32.167969 C 282.78125 33.804688 285.1875 35.496094 287.546875 37.25 C 289.910156 39 292.226562 40.808594 294.5 42.675781 C 296.773438 44.539062 299 46.460938 301.179688 48.4375 C 303.359375 50.410156 305.488281 52.4375 307.570312 54.519531 C 309.648438 56.597656 311.675781 58.726562 313.652344 60.90625 C 315.625 63.085938 317.546875 65.3125 319.410156 67.585938 C 321.277344 69.859375 323.085938 72.175781 324.839844 74.539062 C 326.589844 76.902344 328.285156 79.304688 329.917969 81.75 C 331.550781 84.195312 333.125 86.679688 334.636719 89.203125 C 336.148438 91.726562 337.597656 94.285156 338.984375 96.878906 C 340.371094 99.472656 341.691406 102.097656 342.949219 104.753906 C 344.207031 107.414062 345.398438 110.101562 346.523438 112.820312 C 347.648438 115.535156 348.707031 118.28125 349.699219 121.050781 C 350.6875 123.816406 351.613281 126.609375 352.464844 129.425781 C 353.320312 132.238281 354.101562 135.074219 354.816406 137.925781 C 355.53125 140.777344 356.175781 143.648438 356.75 146.53125 C 357.324219 149.414062 357.828125 152.3125 358.257812 155.222656 C 358.691406 158.132812 359.050781 161.050781 359.339844 163.976562 C 359.625 166.902344 359.84375 169.835938 359.988281 172.773438 C 360.132812 175.710938 360.203125 178.648438 360.203125 181.589844 Z M 360.203125 181.589844 " fill-opacity="1" fill-rule="nonzero"/></g></g></g></g></g><path fill="#218d7d" d="M 142.570312 97.738281 L 232.421875 97.738281 C 233.894531 97.738281 235.363281 97.808594 236.828125 97.953125 C 238.292969 98.097656 239.746094 98.3125 241.1875 98.601562 C 242.632812 98.886719 244.058594 99.246094 245.464844 99.671875 C 246.871094 100.097656 248.257812 100.59375 249.617188 101.15625 C 250.976562 101.71875 252.304688 102.347656 253.601562 103.042969 C 254.898438 103.734375 256.160156 104.492188 257.382812 105.308594 C 258.605469 106.125 259.785156 107 260.925781 107.933594 C 262.0625 108.867188 263.152344 109.855469 264.191406 110.894531 C 265.230469 111.9375 266.21875 113.023438 267.152344 114.164062 C 268.085938 115.300781 268.960938 116.480469 269.777344 117.703125 C 270.597656 118.925781 271.351562 120.1875 272.046875 121.484375 C 272.738281 122.78125 273.367188 124.113281 273.929688 125.472656 C 274.492188 126.832031 274.988281 128.214844 275.414062 129.621094 C 275.84375 131.03125 276.199219 132.457031 276.488281 133.898438 C 276.773438 135.34375 276.988281 136.796875 277.132812 138.261719 C 277.277344 139.722656 277.351562 141.191406 277.351562 142.664062 L 277.351562 232.515625 C 277.351562 233.988281 277.277344 235.457031 277.132812 236.921875 C 276.988281 238.386719 276.773438 239.839844 276.488281 241.28125 C 276.199219 242.726562 275.84375 244.152344 275.414062 245.558594 C 274.988281 246.964844 274.492188 248.351562 273.929688 249.710938 C 273.367188 251.070312 272.738281 252.398438 272.046875 253.695312 C 271.351562 254.992188 270.597656 256.253906 269.777344 257.476562 C 268.960938 258.699219 268.085938 259.882812 267.152344 261.019531 C 266.21875 262.15625 265.230469 263.246094 264.191406 264.285156 C 263.152344 265.324219 262.0625 266.3125 260.925781 267.246094 C 259.785156 268.179688 258.605469 269.054688 257.382812 269.871094 C 256.160156 270.691406 254.898438 271.445312 253.601562 272.140625 C 252.304688 272.832031 250.976562 273.460938 249.617188 274.023438 C 248.257812 274.585938 246.871094 275.082031 245.464844 275.507812 C 244.058594 275.9375 242.632812 276.292969 241.1875 276.582031 C 239.746094 276.867188 238.292969 277.082031 236.828125 277.226562 C 235.363281 277.371094 233.894531 277.445312 232.421875 277.445312 L 142.570312 277.445312 C 141.097656 277.445312 139.628906 277.371094 138.167969 277.226562 C 136.703125 277.082031 135.25 276.867188 133.804688 276.582031 C 132.363281 276.292969 130.9375 275.9375 129.527344 275.507812 C 128.121094 275.082031 126.738281 274.585938 125.378906 274.023438 C 124.019531 273.460938 122.6875 272.832031 121.390625 272.140625 C 120.09375 271.445312 118.832031 270.691406 117.609375 269.871094 C 116.386719 269.054688 115.207031 268.179688 114.070312 267.246094 C 112.929688 266.3125 111.84375 265.324219 110.800781 264.285156 C 109.761719 263.246094 108.773438 262.15625 107.839844 261.019531 C 106.90625 259.882812 106.03125 258.699219 105.214844 257.476562 C 104.398438 256.253906 103.640625 254.992188 102.949219 253.695312 C 102.253906 252.398438 101.625 251.070312 101.0625 249.710938 C 100.5 248.351562 100.003906 246.964844 99.578125 245.558594 C 99.152344 244.152344 98.792969 242.726562 98.507812 241.28125 C 98.21875 239.839844 98.003906 238.386719 97.859375 236.921875 C 97.714844 235.457031 97.644531 233.988281 97.644531 232.515625 L 97.644531 142.664062 C 97.644531 141.191406 97.714844 139.722656 97.859375 138.261719 C 98.003906 136.796875 98.21875 135.34375 98.507812 133.898438 C 98.792969 132.457031 99.152344 131.03125 99.578125 129.621094 C 100.003906 128.214844 100.5 126.832031 101.0625 125.472656 C 101.625 124.113281 102.253906 122.78125 102.949219 121.484375 C 103.640625 120.1875 104.398438 118.925781 105.214844 117.703125 C 106.03125 116.480469 106.90625 115.300781 107.839844 114.164062 C 108.773438 113.023438 109.761719 111.9375 110.800781 110.894531 C 111.84375 109.855469 112.929688 108.867188 114.070312 107.933594 C 115.207031 107 116.386719 106.125 117.609375 105.308594 C 118.832031 104.492188 120.09375 103.734375 121.390625 103.042969 C 122.6875 102.347656 124.019531 101.71875 125.378906 101.15625 C 126.738281 100.59375 128.121094 100.097656 129.527344 99.671875 C 130.9375 99.246094 132.363281 98.886719 133.804688 98.601562 C 135.25 98.3125 136.703125 98.097656 138.167969 97.953125 C 139.628906 97.808594 141.097656 97.738281 142.570312 97.738281 Z M 142.570312 97.738281 " fill-opacity="1" fill-rule="nonzero"/><path fill="#f5df99" d="M 179.730469 141.019531 C 183.199219 135.066406 191.796875 135.066406 195.261719 141.019531 L 204.871094 157.515625 C 206.140625 159.695312 208.265625 161.238281 210.730469 161.773438 L 229.390625 165.8125 C 236.121094 167.273438 238.777344 175.449219 234.1875 180.582031 L 221.46875 194.816406 C 219.789062 196.699219 218.976562 199.199219 219.230469 201.710938 L 221.152344 220.703125 C 221.847656 227.554688 214.890625 232.609375 208.589844 229.832031 L 191.121094 222.132812 C 188.8125 221.117188 186.183594 221.117188 183.875 222.132812 L 166.40625 229.832031 C 160.101562 232.609375 153.148438 227.554688 153.839844 220.703125 L 155.765625 201.710938 C 156.019531 199.199219 155.207031 196.699219 153.523438 194.816406 L 140.804688 180.582031 C 136.21875 175.449219 138.875 167.273438 145.605469 165.8125 L 164.261719 161.773438 C 166.726562 161.238281 168.855469 159.695312 170.125 157.515625 Z M 179.730469 141.019531 " fill-opacity="1" fill-rule="nonzero"/></svg>