<svg xmlns="http://www.w3.org/2000/svg" xmlns:xlink="http://www.w3.org/1999/xlink" width="500" zoomAndPan="magnify" viewBox="0 0 375 374.999991" height="500" preserveAspectRatio="xMidYMid meet" version="1.0"><defs><filter x="0%" y="0%" width="100%" height="100%" id="7f675b95d8"><feColorMatrix values="0 0 0 0 1 0 0 0 0 1 0 0 0 0 1 0 0 0 1 0" color-interpolation-filters="sRGB"/></filter><clipPath id="92f7e2ffd2"><path d="M 2.386719 0 L 372.886719 0 L 372.886719 375 L 2.386719 375 Z M 2.386719 0 " clip-rule="nonzero"/></clipPath><mask id="205fd80fb7"><g filter="url(#7f675b95d8)"><rect x="-37.5" width="450" fill="#000000" y="-37.499999" height="449.999989" fill-opacity="0.2"/></g></mask><clipPath id="55449572c9"><path d="M 0.386719 3 L 370.71875 3 L 370.71875 374 L 0.386719 374 Z M 0.386719 3 " clip-rule="nonzero"/></clipPath><clipPath id="385a8b9e6c"><rect x="0" width="371" y="0" height="375"/></clipPath></defs><g clip-path="url(#92f7e2ffd2)"><g mask="url(#205fd80fb7)"><g transform="matrix(1, 0, 0, 1, 2, 0)"><g clip-path="url(#385a8b9e6c)"><g clip-path="url(#55449572c9)"><path fill="#30cbb8" d="M 370.605469 188.207031 C 370.605469 191.238281 370.53125 194.265625 370.382812 197.289062 C 370.234375 200.316406 370.011719 203.335938 369.714844 206.351562 C 369.417969 209.367188 369.046875 212.371094 368.601562 215.371094 C 368.15625 218.367188 367.640625 221.351562 367.046875 224.320312 C 366.457031 227.292969 365.792969 230.246094 365.058594 233.1875 C 364.320312 236.125 363.515625 239.042969 362.632812 241.941406 C 361.753906 244.839844 360.804688 247.71875 359.785156 250.570312 C 358.765625 253.421875 357.671875 256.246094 356.515625 259.046875 C 355.355469 261.84375 354.128906 264.613281 352.832031 267.351562 C 351.539062 270.089844 350.175781 272.796875 348.746094 275.46875 C 347.320312 278.140625 345.828125 280.773438 344.269531 283.375 C 342.710938 285.972656 341.089844 288.53125 339.410156 291.050781 C 337.726562 293.566406 335.980469 296.042969 334.175781 298.476562 C 332.371094 300.910156 330.507812 303.296875 328.585938 305.640625 C 326.664062 307.980469 324.6875 310.273438 322.652344 312.519531 C 320.617188 314.765625 318.53125 316.957031 316.386719 319.101562 C 314.246094 321.242188 312.050781 323.332031 309.808594 325.363281 C 307.5625 327.398438 305.269531 329.378906 302.929688 331.300781 C 300.585938 333.222656 298.199219 335.085938 295.765625 336.890625 C 293.332031 338.695312 290.855469 340.4375 288.335938 342.121094 C 285.816406 343.804688 283.257812 345.425781 280.660156 346.980469 C 278.0625 348.539062 275.425781 350.03125 272.753906 351.460938 C 270.082031 352.886719 267.378906 354.25 264.640625 355.542969 C 261.902344 356.839844 259.132812 358.066406 256.335938 359.226562 C 253.535156 360.386719 250.710938 361.476562 247.855469 362.496094 C 245.003906 363.515625 242.128906 364.46875 239.230469 365.347656 C 236.332031 366.226562 233.414062 367.035156 230.472656 367.769531 C 227.535156 368.507812 224.578125 369.167969 221.609375 369.761719 C 218.636719 370.351562 215.652344 370.871094 212.65625 371.3125 C 209.660156 371.757812 206.65625 372.128906 203.640625 372.425781 C 200.625 372.722656 197.605469 372.945312 194.578125 373.09375 C 191.554688 373.242188 188.523438 373.316406 185.496094 373.316406 C 182.464844 373.316406 179.4375 373.242188 176.414062 373.09375 C 173.386719 372.945312 170.367188 372.722656 167.351562 372.425781 C 164.335938 372.128906 161.332031 371.757812 158.335938 371.3125 C 155.335938 370.871094 152.355469 370.351562 149.382812 369.761719 C 146.410156 369.167969 143.457031 368.507812 140.519531 367.769531 C 137.578125 367.035156 134.660156 366.226562 131.761719 365.347656 C 128.863281 364.46875 125.988281 363.515625 123.132812 362.496094 C 120.28125 361.476562 117.457031 360.386719 114.65625 359.226562 C 111.859375 358.066406 109.089844 356.839844 106.351562 355.542969 C 103.613281 354.25 100.90625 352.886719 98.234375 351.460938 C 95.5625 350.03125 92.929688 348.539062 90.332031 346.980469 C 87.730469 345.425781 85.171875 343.804688 82.65625 342.121094 C 80.136719 340.4375 77.660156 338.695312 75.226562 336.890625 C 72.792969 335.085938 70.40625 333.222656 68.0625 331.300781 C 65.722656 329.378906 63.429688 327.398438 61.183594 325.363281 C 58.9375 323.332031 56.746094 321.242188 54.605469 319.101562 C 52.460938 316.957031 50.375 314.765625 48.339844 312.519531 C 46.304688 310.273438 44.324219 307.980469 42.402344 305.640625 C 40.480469 303.296875 38.617188 300.910156 36.816406 298.476562 C 35.011719 296.042969 33.265625 293.566406 31.582031 291.050781 C 29.898438 288.53125 28.28125 285.972656 26.722656 283.375 C 25.164062 280.773438 23.671875 278.140625 22.242188 275.46875 C 20.816406 272.796875 19.453125 270.089844 18.160156 267.351562 C 16.863281 264.613281 15.636719 261.84375 14.476562 259.046875 C 13.316406 256.246094 12.226562 253.421875 11.207031 250.570312 C 10.1875 247.71875 9.238281 244.839844 8.355469 241.941406 C 7.476562 239.042969 6.671875 236.125 5.933594 233.1875 C 5.199219 230.246094 4.535156 227.292969 3.941406 224.320312 C 3.351562 221.351562 2.835938 218.367188 2.390625 215.371094 C 1.945312 212.371094 1.574219 209.367188 1.277344 206.351562 C 0.980469 203.335938 0.757812 200.316406 0.609375 197.289062 C 0.460938 194.265625 0.386719 191.238281 0.386719 188.207031 C 0.386719 185.179688 0.460938 182.152344 0.609375 179.125 C 0.757812 176.097656 0.980469 173.078125 1.277344 170.0625 C 1.574219 167.050781 1.945312 164.042969 2.390625 161.046875 C 2.835938 158.050781 3.351562 155.066406 3.941406 152.09375 C 4.535156 149.125 5.199219 146.167969 5.933594 143.230469 C 6.671875 140.292969 7.476562 137.371094 8.355469 134.472656 C 9.238281 131.574219 10.1875 128.699219 11.207031 125.847656 C 12.226562 122.996094 13.316406 120.167969 14.476562 117.371094 C 15.636719 114.570312 16.863281 111.800781 18.160156 109.0625 C 19.453125 106.324219 20.816406 103.621094 22.242188 100.949219 C 23.671875 98.277344 25.164062 95.640625 26.722656 93.042969 C 28.28125 90.445312 29.898438 87.886719 31.582031 85.367188 C 33.265625 82.847656 35.011719 80.371094 36.816406 77.9375 C 38.617188 75.503906 40.480469 73.117188 42.402344 70.777344 C 44.324219 68.433594 46.304688 66.140625 48.339844 63.894531 C 50.375 61.652344 52.460938 59.457031 54.605469 57.316406 C 56.746094 55.171875 58.9375 53.085938 61.183594 51.050781 C 63.429688 49.015625 65.722656 47.039062 68.0625 45.117188 C 70.40625 43.195312 72.792969 41.332031 75.226562 39.527344 C 77.660156 37.722656 80.136719 35.976562 82.65625 34.296875 C 85.171875 32.613281 87.730469 30.992188 90.332031 29.433594 C 92.929688 27.878906 95.5625 26.382812 98.234375 24.957031 C 100.90625 23.527344 103.613281 22.167969 106.351562 20.871094 C 109.089844 19.574219 111.859375 18.347656 114.65625 17.1875 C 117.457031 16.03125 120.28125 14.941406 123.132812 13.917969 C 125.988281 12.898438 128.863281 11.949219 131.761719 11.070312 C 134.660156 10.191406 137.578125 9.382812 140.519531 8.644531 C 143.457031 7.910156 146.410156 7.246094 149.382812 6.65625 C 152.355469 6.066406 155.335938 5.546875 158.335938 5.101562 C 161.332031 4.65625 164.335938 4.285156 167.351562 3.988281 C 170.367188 3.691406 173.386719 3.46875 176.414062 3.320312 C 179.4375 3.171875 182.464844 3.097656 185.496094 3.097656 C 188.523438 3.097656 191.554688 3.171875 194.578125 3.320312 C 197.605469 3.46875 200.625 3.691406 203.640625 3.988281 C 206.65625 4.285156 209.660156 4.65625 212.65625 5.101562 C 215.652344 5.546875 218.636719 6.066406 221.609375 6.65625 C 224.578125 7.246094 227.535156 7.910156 230.472656 8.644531 C 233.414062 9.382812 236.332031 10.191406 239.230469 11.070312 C 242.128906 11.949219 245.003906 12.898438 247.855469 13.917969 C 250.710938 14.941406 253.535156 16.03125 256.335938 17.1875 C 259.132812 18.347656 261.902344 19.574219 264.640625 20.871094 C 267.378906 22.167969 270.082031 23.527344 272.753906 24.957031 C 275.425781 26.382812 278.0625 27.878906 280.660156 29.433594 C 283.257812 30.992188 285.816406 32.613281 288.335938 34.296875 C 290.855469 35.976562 293.332031 37.722656 295.765625 39.527344 C 298.199219 41.332031 300.585938 43.195312 302.929688 45.117188 C 305.269531 47.039062 307.5625 49.015625 309.808594 51.050781 C 312.050781 53.085938 314.246094 55.171875 316.386719 57.316406 C 318.53125 59.457031 320.617188 61.652344 322.652344 63.894531 C 324.6875 66.140625 326.664062 68.433594 328.585938 70.777344 C 330.507812 73.117188 332.371094 75.503906 334.175781 77.9375 C 335.980469 80.371094 337.726562 82.847656 339.410156 85.367188 C 341.089844 87.886719 342.710938 90.445312 344.269531 93.042969 C 345.828125 95.640625 347.320312 98.277344 348.746094 100.949219 C 350.175781 103.621094 351.539062 106.324219 352.832031 109.0625 C 354.128906 111.800781 355.355469 114.570312 356.515625 117.371094 C 357.671875 120.167969 358.765625 122.996094 359.785156 125.847656 C 360.804688 128.699219 361.753906 131.574219 362.632812 134.472656 C 363.515625 137.371094 364.320312 140.292969 365.058594 143.230469 C 365.792969 146.167969 366.457031 149.125 367.046875 152.09375 C 367.640625 155.066406 368.15625 158.050781 368.601562 161.046875 C 369.046875 164.042969 369.417969 167.050781 369.714844 170.0625 C 370.011719 173.078125 370.234375 176.097656 370.382812 179.125 C 370.53125 182.152344 370.605469 185.179688 370.605469 188.207031 Z M 370.605469 188.207031 " fill-opacity="1" fill-rule="nonzero"/></g></g></g></g></g><path fill="#f5df99" d="M 185.769531 264.082031 C 168.160156 253.207031 151.789062 240.382812 136.960938 225.84375 C 126.492188 215.460938 118.496094 202.789062 113.585938 188.789062 C 104.808594 161.484375 115.023438 130.28125 143.539062 121.015625 C 158.59375 116.289062 174.960938 119.191406 187.550781 128.816406 C 200.140625 119.199219 216.507812 116.300781 231.558594 121.015625 C 260.078125 130.28125 270.359375 161.484375 261.585938 188.789062 C 256.714844 202.773438 248.765625 215.449219 238.347656 225.84375 C 223.503906 240.367188 207.136719 253.1875 189.539062 264.082031 L 187.617188 265.335938 Z M 185.769531 264.082031 " fill-opacity="1" fill-rule="nonzero"/><path fill="#00a087" d="M 187.578125 265.335938 L 185.769531 264.082031 C 168.136719 253.207031 151.746094 240.382812 136.890625 225.84375 C 126.371094 215.476562 118.328125 202.800781 113.378906 188.789062 C 104.671875 161.484375 114.886719 130.28125 143.402344 121.015625 C 158.457031 116.289062 175.042969 119.191406 187.578125 128.898438 Z M 187.578125 265.335938 " fill-opacity="1" fill-rule="nonzero"/><path fill="#00a087" d="M 235.550781 172.777344 C 234 172.675781 232.558594 171.902344 231.558594 170.632812 C 230.5625 169.367188 230.09375 167.71875 230.269531 166.074219 C 230.4375 160.65625 227.355469 155.722656 222.601562 153.804688 C 219.585938 152.984375 217.761719 149.71875 218.515625 146.5 C 219.230469 143.332031 222.199219 141.363281 225.179688 142.074219 C 225.554688 142.136719 225.917969 142.273438 226.246094 142.476562 C 235.777344 146.144531 241.949219 156.015625 241.457031 166.808594 C 241.441406 168.445312 240.804688 170.003906 239.691406 171.128906 C 238.578125 172.253906 237.082031 172.847656 235.550781 172.777344 Z M 235.550781 172.777344 " fill-opacity="1" fill-rule="nonzero"/></svg>