<svg xmlns="http://www.w3.org/2000/svg" xmlns:xlink="http://www.w3.org/1999/xlink" width="500" zoomAndPan="magnify" viewBox="0 0 375 374.999991" height="500" preserveAspectRatio="xMidYMid meet" version="1.0"><defs><filter x="0%" y="0%" width="100%" height="100%" id="86203cbb91"><feColorMatrix values="0 0 0 0 1 0 0 0 0 1 0 0 0 0 1 0 0 0 1 0" color-interpolation-filters="sRGB"/></filter><clipPath id="b9b28e88ac"><path d="M 3.75 2.199219 L 372 2.199219 L 372 374.949219 L 3.75 374.949219 Z M 3.75 2.199219 " clip-rule="nonzero"/></clipPath><mask id="3156f6d1f3"><g filter="url(#86203cbb91)"><rect x="-37.5" width="450" fill="#000000" y="-37.499999" height="449.999989" fill-opacity="0.2"/></g></mask><clipPath id="9bce45941e"><path d="M 0.75 3 L 369 3 L 369 372 L 0.75 372 Z M 0.75 3 " clip-rule="nonzero"/></clipPath><clipPath id="09fc3cf494"><rect x="0" width="369" y="0" height="373"/></clipPath></defs><g clip-path="url(#b9b28e88ac)"><g mask="url(#3156f6d1f3)"><g transform="matrix(1, 0, 0, 1, 3, 2)"><g clip-path="url(#09fc3cf494)"><g clip-path="url(#9bce45941e)"><path fill="#30cbb8" d="M 368.800781 187.300781 C 368.800781 190.3125 368.726562 193.324219 368.578125 196.332031 C 368.429688 199.339844 368.210938 202.34375 367.914062 205.339844 C 367.621094 208.335938 367.25 211.324219 366.808594 214.304688 C 366.367188 217.28125 365.851562 220.25 365.265625 223.203125 C 364.675781 226.15625 364.015625 229.09375 363.285156 232.015625 C 362.554688 234.9375 361.75 237.839844 360.875 240.722656 C 360.003906 243.601562 359.058594 246.460938 358.042969 249.296875 C 357.027344 252.132812 355.945312 254.941406 354.792969 257.726562 C 353.640625 260.507812 352.421875 263.261719 351.132812 265.984375 C 349.84375 268.703125 348.492188 271.394531 347.070312 274.050781 C 345.652344 276.707031 344.167969 279.328125 342.621094 281.910156 C 341.070312 284.492188 339.460938 287.035156 337.785156 289.539062 C 336.113281 292.042969 334.378906 294.507812 332.585938 296.925781 C 330.792969 299.34375 328.941406 301.71875 327.027344 304.046875 C 325.117188 306.375 323.152344 308.652344 321.128906 310.886719 C 319.105469 313.117188 317.03125 315.296875 314.902344 317.425781 C 312.769531 319.558594 310.589844 321.632812 308.359375 323.65625 C 306.128906 325.679688 303.847656 327.644531 301.519531 329.554688 C 299.191406 331.464844 296.816406 333.316406 294.398438 335.113281 C 291.980469 336.90625 289.519531 338.640625 287.015625 340.3125 C 284.511719 341.984375 281.964844 343.597656 279.382812 345.144531 C 276.800781 346.695312 274.179688 348.175781 271.523438 349.597656 C 268.867188 351.015625 266.179688 352.371094 263.457031 353.660156 C 260.734375 354.945312 257.980469 356.167969 255.199219 357.320312 C 252.417969 358.472656 249.605469 359.554688 246.773438 360.570312 C 243.9375 361.585938 241.078125 362.527344 238.195312 363.402344 C 235.3125 364.277344 232.410156 365.082031 229.488281 365.8125 C 226.570312 366.542969 223.628906 367.203125 220.675781 367.789062 C 217.722656 368.378906 214.757812 368.894531 211.777344 369.335938 C 208.796875 369.777344 205.808594 370.144531 202.8125 370.441406 C 199.816406 370.734375 196.8125 370.957031 193.804688 371.105469 C 190.796875 371.253906 187.785156 371.328125 184.773438 371.328125 C 181.765625 371.328125 178.753906 371.253906 175.746094 371.105469 C 172.738281 370.957031 169.734375 370.734375 166.738281 370.441406 C 163.742188 370.144531 160.753906 369.777344 157.773438 369.335938 C 154.792969 368.894531 151.828125 368.378906 148.875 367.789062 C 145.921875 367.203125 142.980469 366.542969 140.0625 365.8125 C 137.140625 365.082031 134.238281 364.277344 131.355469 363.402344 C 128.472656 362.527344 125.613281 361.585938 122.777344 360.570312 C 119.945312 359.554688 117.132812 358.472656 114.351562 357.320312 C 111.570312 356.167969 108.816406 354.945312 106.09375 353.660156 C 103.371094 352.371094 100.683594 351.015625 98.027344 349.597656 C 95.371094 348.175781 92.75 346.695312 90.167969 345.144531 C 87.585938 343.597656 85.039062 341.984375 82.535156 340.3125 C 80.03125 338.640625 77.570312 336.90625 75.152344 335.113281 C 72.734375 333.316406 70.359375 331.464844 68.03125 329.554688 C 65.703125 327.644531 63.421875 325.679688 61.191406 323.65625 C 58.960938 321.632812 56.78125 319.558594 54.648438 317.425781 C 52.519531 315.296875 50.445312 313.117188 48.421875 310.886719 C 46.398438 308.652344 44.433594 306.375 42.523438 304.046875 C 40.609375 301.71875 38.757812 299.34375 36.964844 296.925781 C 35.171875 294.507812 33.4375 292.042969 31.765625 289.539062 C 30.089844 287.035156 28.480469 284.492188 26.929688 281.910156 C 25.382812 279.328125 23.898438 276.707031 22.480469 274.050781 C 21.058594 271.394531 19.707031 268.703125 18.417969 265.984375 C 17.128906 263.261719 15.910156 260.507812 14.757812 257.726562 C 13.605469 254.941406 12.523438 252.132812 11.507812 249.296875 C 10.492188 246.460938 9.546875 243.601562 8.675781 240.722656 C 7.800781 237.839844 6.996094 234.9375 6.265625 232.015625 C 5.535156 229.09375 4.875 226.15625 4.285156 223.203125 C 3.699219 220.25 3.183594 217.28125 2.742188 214.304688 C 2.300781 211.324219 1.929688 208.335938 1.636719 205.339844 C 1.339844 202.34375 1.121094 199.339844 0.972656 196.332031 C 0.824219 193.324219 0.75 190.3125 0.75 187.300781 C 0.75 184.289062 0.824219 181.28125 0.972656 178.273438 C 1.121094 175.265625 1.339844 172.261719 1.636719 169.265625 C 1.929688 166.265625 2.300781 163.277344 2.742188 160.300781 C 3.183594 157.320312 3.699219 154.355469 4.285156 151.398438 C 4.875 148.445312 5.535156 145.507812 6.265625 142.585938 C 6.996094 139.664062 7.800781 136.765625 8.675781 133.882812 C 9.546875 131 10.492188 128.140625 11.507812 125.304688 C 12.523438 122.46875 13.605469 119.660156 14.757812 116.878906 C 15.910156 114.09375 17.128906 111.34375 18.417969 108.621094 C 19.707031 105.898438 21.058594 103.207031 22.480469 100.550781 C 23.898438 97.898438 25.382812 95.277344 26.929688 92.695312 C 28.480469 90.109375 30.089844 87.566406 31.765625 85.0625 C 33.4375 82.558594 35.171875 80.097656 36.964844 77.679688 C 38.757812 75.257812 40.609375 72.886719 42.523438 70.558594 C 44.433594 68.230469 46.398438 65.949219 48.421875 63.71875 C 50.445312 61.484375 52.519531 59.304688 54.648438 57.175781 C 56.78125 55.046875 58.960938 52.96875 61.191406 50.949219 C 63.421875 48.925781 65.703125 46.957031 68.03125 45.046875 C 70.359375 43.136719 72.734375 41.285156 75.152344 39.492188 C 77.570312 37.695312 80.03125 35.964844 82.535156 34.289062 C 85.039062 32.617188 87.585938 31.007812 90.167969 29.457031 C 92.75 27.910156 95.371094 26.425781 98.027344 25.003906 C 100.683594 23.585938 103.371094 22.230469 106.09375 20.945312 C 108.816406 19.65625 111.570312 18.4375 114.351562 17.285156 C 117.132812 16.132812 119.945312 15.046875 122.777344 14.035156 C 125.613281 13.019531 128.472656 12.074219 131.355469 11.199219 C 134.238281 10.324219 137.140625 9.523438 140.0625 8.792969 C 142.980469 8.058594 145.921875 7.398438 148.875 6.8125 C 151.828125 6.222656 154.792969 5.710938 157.773438 5.269531 C 160.753906 4.824219 163.742188 4.457031 166.738281 4.164062 C 169.734375 3.867188 172.738281 3.644531 175.746094 3.496094 C 178.753906 3.351562 181.765625 3.277344 184.773438 3.277344 C 187.785156 3.277344 190.796875 3.351562 193.804688 3.496094 C 196.8125 3.644531 199.816406 3.867188 202.8125 4.164062 C 205.808594 4.457031 208.796875 4.824219 211.777344 5.269531 C 214.757812 5.710938 217.722656 6.222656 220.675781 6.8125 C 223.628906 7.398438 226.570312 8.058594 229.488281 8.792969 C 232.410156 9.523438 235.3125 10.324219 238.195312 11.199219 C 241.078125 12.074219 243.9375 13.019531 246.773438 14.035156 C 249.605469 15.046875 252.417969 16.132812 255.199219 17.285156 C 257.980469 18.4375 260.734375 19.65625 263.457031 20.945312 C 266.179688 22.230469 268.867188 23.585938 271.523438 25.003906 C 274.179688 26.425781 276.800781 27.910156 279.382812 29.457031 C 281.964844 31.007812 284.511719 32.617188 287.015625 34.289062 C 289.519531 35.964844 291.980469 37.695312 294.398438 39.492188 C 296.816406 41.285156 299.191406 43.136719 301.519531 45.046875 C 303.847656 46.957031 306.128906 48.925781 308.359375 50.949219 C 310.589844 52.96875 312.769531 55.046875 314.902344 57.175781 C 317.03125 59.304688 319.105469 61.484375 321.128906 63.71875 C 323.152344 65.949219 325.117188 68.230469 327.027344 70.558594 C 328.941406 72.886719 330.792969 75.257812 332.585938 77.679688 C 334.378906 80.097656 336.113281 82.558594 337.785156 85.0625 C 339.460938 87.566406 341.070312 90.109375 342.621094 92.695312 C 344.167969 95.277344 345.652344 97.898438 347.070312 100.550781 C 348.492188 103.207031 349.84375 105.898438 351.132812 108.621094 C 352.421875 111.34375 353.640625 114.09375 354.792969 116.878906 C 355.945312 119.660156 357.027344 122.46875 358.042969 125.304688 C 359.058594 128.140625 360.003906 131 360.875 133.882812 C 361.75 136.765625 362.554688 139.664062 363.285156 142.585938 C 364.015625 145.507812 364.675781 148.445312 365.265625 151.398438 C 365.851562 154.355469 366.367188 157.320312 366.808594 160.300781 C 367.25 163.277344 367.621094 166.265625 367.914062 169.265625 C 368.210938 172.261719 368.429688 175.265625 368.578125 178.273438 C 368.726562 181.28125 368.800781 184.289062 368.800781 187.300781 Z M 368.800781 187.300781 " fill-opacity="1" fill-rule="nonzero"/></g></g></g></g></g><path fill="#00a087" d="M 187.382812 208.777344 C 160.929688 208.777344 138.609375 213.101562 138.609375 229.78125 C 138.609375 246.472656 161.074219 250.644531 187.382812 250.644531 C 213.839844 250.644531 236.160156 246.320312 236.160156 229.636719 C 236.160156 212.949219 213.695312 208.777344 187.382812 208.777344 Z M 187.382812 208.777344 " fill-opacity="1" fill-rule="nonzero"/><path fill="#f5df99" d="M 187.386719 192.882812 C 205.296875 192.882812 219.660156 178.4375 219.660156 160.421875 C 219.660156 142.398438 205.296875 127.960938 187.386719 127.960938 C 169.472656 127.960938 155.109375 142.398438 155.109375 160.421875 C 155.109375 178.4375 169.472656 192.882812 187.386719 192.882812 Z M 187.386719 192.882812 " fill-opacity="1" fill-rule="nonzero"/><path fill="#f5df99" d="M 257.460938 167.980469 C 262.09375 149.75 248.507812 133.378906 231.203125 133.378906 C 229.324219 133.378906 227.523438 133.585938 225.765625 133.9375 C 225.535156 133.992188 225.273438 134.109375 225.136719 134.316406 C 224.976562 134.578125 225.09375 134.929688 225.265625 135.160156 C 230.464844 142.492188 233.449219 151.421875 233.449219 161.003906 C 233.449219 170.191406 230.710938 178.75 225.90625 185.859375 C 225.410156 186.589844 225.851562 187.578125 226.722656 187.730469 C 227.929688 187.941406 229.164062 188.054688 230.429688 188.089844 C 243.027344 188.417969 254.335938 180.265625 257.460938 167.980469 Z M 257.460938 167.980469 " fill-opacity="1" fill-rule="nonzero"/><path fill="#00a087" d="M 270.65625 210.902344 C 268.351562 205.957031 262.78125 202.566406 254.316406 200.902344 C 250.320312 199.921875 239.507812 198.539062 229.449219 198.726562 C 229.300781 198.746094 229.214844 198.851562 229.203125 198.921875 C 229.183594 199.015625 229.222656 199.183594 229.421875 199.285156 C 234.070312 201.597656 252.039062 211.660156 249.777344 232.878906 C 249.683594 233.796875 250.417969 234.59375 251.332031 234.453125 C 255.753906 233.820312 267.128906 231.359375 270.65625 223.703125 C 272.609375 219.65625 272.609375 214.953125 270.65625 210.902344 Z M 270.65625 210.902344 " fill-opacity="1" fill-rule="nonzero"/><path fill="#f5df99" d="M 149.78125 133.9375 C 148.03125 133.578125 146.222656 133.378906 144.34375 133.378906 C 127.042969 133.378906 113.453125 149.75 118.09375 167.980469 C 121.210938 180.265625 132.519531 188.421875 145.117188 188.089844 C 146.382812 188.054688 147.625 187.9375 148.828125 187.730469 C 149.699219 187.578125 150.136719 186.589844 149.644531 185.859375 C 144.835938 178.746094 142.097656 170.191406 142.097656 161.007812 C 142.097656 151.414062 145.089844 142.488281 150.289062 135.160156 C 150.453125 134.933594 150.578125 134.582031 150.414062 134.316406 C 150.273438 134.105469 150.019531 133.992188 149.78125 133.9375 Z M 149.78125 133.9375 " fill-opacity="1" fill-rule="nonzero"/><path fill="#00a087" d="M 121.230469 200.898438 C 112.765625 202.5625 107.207031 205.953125 104.898438 210.898438 C 102.941406 214.953125 102.941406 219.652344 104.898438 223.707031 C 108.425781 231.359375 119.804688 233.824219 124.226562 234.453125 C 125.136719 234.589844 125.867188 233.804688 125.769531 232.878906 C 123.511719 211.664062 141.480469 201.605469 146.132812 199.289062 C 146.324219 199.179688 146.367188 199.019531 146.347656 198.917969 C 146.332031 198.847656 146.257812 198.746094 146.105469 198.730469 C 136.042969 198.539062 125.234375 199.917969 121.230469 200.898438 Z M 121.230469 200.898438 " fill-opacity="1" fill-rule="nonzero"/></svg>