<svg xmlns="http://www.w3.org/2000/svg" xmlns:xlink="http://www.w3.org/1999/xlink" width="500" zoomAndPan="magnify" viewBox="0 0 375 374.999991" height="500" preserveAspectRatio="xMidYMid meet" version="1.0"><defs><filter x="0%" y="0%" width="100%" height="100%" id="078e329b73"><feColorMatrix values="0 0 0 0 1 0 0 0 0 1 0 0 0 0 1 0 0 0 1 0" color-interpolation-filters="sRGB"/></filter><clipPath id="5a8c804d99"><path d="M 138 90 L 355.5 90 L 355.5 293 L 138 293 Z M 138 90 " clip-rule="nonzero"/></clipPath><clipPath id="c84f34f7ae"><path d="M 180 45.15625 L 345 45.15625 L 345 170 L 180 170 Z M 180 45.15625 " clip-rule="nonzero"/></clipPath><clipPath id="1a0dc091b6"><path d="M 19.5 90 L 222 90 L 222 293 L 19.5 293 Z M 19.5 90 " clip-rule="nonzero"/></clipPath><clipPath id="7678fc21d2"><path d="M 19.5 45.15625 L 184 45.15625 L 184 170 L 19.5 170 Z M 19.5 45.15625 " clip-rule="nonzero"/></clipPath><mask id="bd59205afc"><g filter="url(#078e329b73)"><rect x="-37.5" width="450" fill="#000000" y="-37.499999" height="449.999989" fill-opacity="0.4"/></g></mask><clipPath id="19a161a215"><path d="M 3 0.28125 L 12 0.28125 L 12 55.71875 L 3 55.71875 Z M 3 0.28125 " clip-rule="nonzero"/></clipPath><clipPath id="e222c86e7d"><rect x="0" width="14" y="0" height="56"/></clipPath><mask id="90c887750e"><g filter="url(#078e329b73)"><rect x="-37.5" width="450" fill="#000000" y="-37.499999" height="449.999989" fill-opacity="0.4"/></g></mask><clipPath id="a105d09106"><path d="M 0 0.28125 L 10 0.28125 L 10 55.71875 L 0 55.71875 Z M 0 0.28125 " clip-rule="nonzero"/></clipPath><clipPath id="97c163a477"><rect x="0" width="13" y="0" height="56"/></clipPath><clipPath id="989377279e"><path d="M 28 138 L 304 138 L 304 330.15625 L 28 330.15625 Z M 28 138 " clip-rule="nonzero"/></clipPath><clipPath id="d9e53ea776"><path d="M 75 45.15625 L 261 45.15625 L 261 218 L 75 218 Z M 75 45.15625 " clip-rule="nonzero"/></clipPath><mask id="1a3fc33c3d"><g filter="url(#078e329b73)"><rect x="-37.5" width="450" fill="#000000" y="-37.499999" height="449.999989" fill-opacity="0.4"/></g></mask><clipPath id="d41acac560"><rect x="0" width="13" y="0" height="74"/></clipPath><mask id="21d03212a9"><g filter="url(#078e329b73)"><rect x="-37.5" width="450" fill="#000000" y="-37.499999" height="449.999989" fill-opacity="0.4"/></g></mask><clipPath id="64d3a20067"><rect x="0" width="14" y="0" height="74"/></clipPath></defs><path fill="#00a087" d="M 192.746094 193.367188 C 192.746094 165.207031 215.574219 142.378906 243.730469 142.378906 L 300.195312 142.378906 C 328.351562 142.378906 351.179688 165.207031 351.179688 193.367188 L 351.179688 227.867188 C 351.179688 244.292969 337.863281 257.609375 321.4375 257.609375 L 222.488281 257.609375 C 206.058594 257.609375 192.746094 244.292969 192.746094 227.867188 Z M 192.746094 193.367188 " fill-opacity="1" fill-rule="nonzero"/><path fill="#00a087" d="M 311.574219 91.96875 C 311.574219 93.265625 311.515625 94.558594 311.390625 95.851562 C 311.269531 97.140625 311.089844 98.425781 310.847656 99.695312 C 310.605469 100.96875 310.304688 102.226562 309.945312 103.464844 C 309.585938 104.707031 309.171875 105.929688 308.695312 107.125 C 308.222656 108.324219 307.695312 109.496094 307.109375 110.640625 C 306.527344 111.785156 305.890625 112.894531 305.203125 113.972656 C 304.515625 115.054688 303.777344 116.09375 302.992188 117.097656 C 302.207031 118.097656 301.375 119.058594 300.5 119.976562 C 299.625 120.894531 298.707031 121.765625 297.75 122.585938 C 296.792969 123.410156 295.800781 124.183594 294.773438 124.902344 C 293.742188 125.625 292.679688 126.289062 291.589844 126.902344 C 290.496094 127.511719 289.378906 128.066406 288.234375 128.5625 C 287.089844 129.058594 285.925781 129.496094 284.742188 129.871094 C 283.558594 130.25 282.355469 130.5625 281.144531 130.816406 C 279.929688 131.070312 278.703125 131.261719 277.472656 131.386719 C 276.242188 131.515625 275.003906 131.578125 273.765625 131.578125 C 272.527344 131.578125 271.292969 131.515625 270.0625 131.386719 C 268.828125 131.261719 267.605469 131.070312 266.390625 130.816406 C 265.175781 130.5625 263.976562 130.25 262.792969 129.871094 C 261.605469 129.496094 260.441406 129.058594 259.296875 128.5625 C 258.15625 128.066406 257.035156 127.511719 255.945312 126.902344 C 254.851562 126.289062 253.792969 125.625 252.761719 124.902344 C 251.730469 124.183594 250.738281 123.410156 249.78125 122.585938 C 248.824219 121.765625 247.910156 120.894531 247.03125 119.976562 C 246.15625 119.058594 245.328125 118.097656 244.542969 117.097656 C 243.753906 116.09375 243.019531 115.054688 242.332031 113.972656 C 241.644531 112.894531 241.007812 111.785156 240.421875 110.640625 C 239.839844 109.496094 239.3125 108.324219 238.835938 107.125 C 238.363281 105.929688 237.945312 104.707031 237.585938 103.464844 C 237.226562 102.226562 236.925781 100.96875 236.6875 99.695312 C 236.445312 98.425781 236.261719 97.140625 236.140625 95.851562 C 236.019531 94.558594 235.960938 93.265625 235.960938 91.96875 C 235.960938 90.671875 236.019531 89.378906 236.140625 88.085938 C 236.261719 86.796875 236.445312 85.515625 236.6875 84.242188 C 236.925781 82.96875 237.226562 81.710938 237.585938 80.472656 C 237.945312 79.230469 238.363281 78.007812 238.835938 76.8125 C 239.3125 75.613281 239.839844 74.441406 240.421875 73.296875 C 241.007812 72.152344 241.644531 71.042969 242.332031 69.964844 C 243.019531 68.882812 243.753906 67.84375 244.542969 66.839844 C 245.328125 65.839844 246.15625 64.878906 247.03125 63.960938 C 247.910156 63.042969 248.824219 62.171875 249.78125 61.351562 C 250.738281 60.527344 251.730469 59.753906 252.761719 59.035156 C 253.792969 58.3125 254.851562 57.648438 255.945312 57.035156 C 257.035156 56.425781 258.15625 55.871094 259.296875 55.375 C 260.441406 54.878906 261.605469 54.441406 262.792969 54.066406 C 263.976562 53.6875 265.175781 53.375 266.390625 53.121094 C 267.605469 52.867188 268.828125 52.675781 270.0625 52.550781 C 271.292969 52.421875 272.527344 52.359375 273.765625 52.359375 C 275.003906 52.359375 276.242188 52.421875 277.472656 52.550781 C 278.703125 52.675781 279.929688 52.867188 281.144531 53.121094 C 282.355469 53.375 283.558594 53.6875 284.742188 54.066406 C 285.925781 54.441406 287.089844 54.878906 288.234375 55.375 C 289.378906 55.871094 290.496094 56.425781 291.589844 57.035156 C 292.679688 57.648438 293.742188 58.3125 294.773438 59.035156 C 295.800781 59.753906 296.792969 60.527344 297.75 61.351562 C 298.707031 62.171875 299.625 63.042969 300.5 63.960938 C 301.375 64.878906 302.207031 65.839844 302.992188 66.839844 C 303.777344 67.84375 304.515625 68.882812 305.203125 69.964844 C 305.890625 71.042969 306.527344 72.152344 307.109375 73.296875 C 307.695312 74.441406 308.222656 75.613281 308.695312 76.8125 C 309.171875 78.007812 309.585938 79.230469 309.945312 80.472656 C 310.304688 81.710938 310.605469 82.96875 310.847656 84.242188 C 311.089844 85.515625 311.269531 86.796875 311.390625 88.085938 C 311.515625 89.378906 311.574219 90.671875 311.574219 91.96875 Z M 311.574219 91.96875 " fill-opacity="1" fill-rule="nonzero"/><path fill="#ffffff" d="M 232.929688 138.636719 L 288.167969 138.636719 C 313.980469 138.636719 334.90625 159.5625 334.90625 185.375 L 334.90625 219.367188 C 334.90625 233.445312 323.492188 244.859375 309.414062 244.859375 L 211.6875 244.859375 C 197.605469 244.859375 186.191406 233.445312 186.191406 219.367188 L 186.191406 185.375 C 186.191406 159.5625 207.117188 138.636719 232.929688 138.636719 Z M 232.929688 138.636719 " fill-opacity="1" fill-rule="nonzero"/><g clip-path="url(#5a8c804d99)"><path stroke-linecap="butt" transform="matrix(4.249009, 0, 0, 4.249009, 19.663315, 45.157468)" fill="none" stroke-linejoin="miter" d="M 50.192027 22.000248 L 63.192302 22.000248 C 69.267248 22.000248 74.192109 26.92511 74.192109 33.000056 L 74.192109 41.000083 C 74.192109 44.313356 71.505821 46.999644 68.192549 46.999644 L 45.1927 46.999644 C 41.878508 46.999644 39.19222 44.313356 39.19222 41.000083 L 39.19222 33.000056 C 39.19222 26.92511 44.117081 22.000248 50.192027 22.000248 Z M 50.192027 22.000248 " stroke="#063137" stroke-width="2" stroke-opacity="1" stroke-miterlimit="4"/></g><path fill="#f5df99" d="M 296.667969 85.523438 C 296.667969 105.6875 281.234375 121.640625 262.675781 121.640625 C 244.113281 121.640625 228.683594 105.6875 228.683594 85.523438 C 228.683594 65.355469 244.113281 49.40625 262.675781 49.40625 C 281.234375 49.40625 296.667969 65.355469 296.667969 85.523438 Z M 296.667969 85.523438 " fill-opacity="1" fill-rule="nonzero"/><g clip-path="url(#c84f34f7ae)"><path stroke-linecap="butt" transform="matrix(4.249009, 0, 0, 4.249009, 19.663315, 45.157468)" fill="none" stroke-linejoin="miter" d="M 65.192768 9.50009 C 65.192768 14.245682 61.560487 18.000234 57.192741 18.000234 C 52.824075 18.000234 49.192714 14.245682 49.192714 9.50009 C 49.192714 4.753579 52.824075 0.999947 57.192741 0.999947 C 61.560487 0.999947 65.192768 4.753579 65.192768 9.50009 Z M 65.192768 9.50009 " stroke="#063137" stroke-width="2" stroke-opacity="1" stroke-miterlimit="4"/></g><path fill="#00a087" d="M 31.28125 193.367188 C 31.28125 165.207031 54.109375 142.378906 82.269531 142.378906 L 138.730469 142.378906 C 166.890625 142.378906 189.71875 165.207031 189.71875 193.367188 L 189.71875 227.867188 C 189.71875 244.292969 176.402344 257.609375 159.976562 257.609375 L 61.023438 257.609375 C 44.597656 257.609375 31.28125 244.292969 31.28125 227.867188 Z M 31.28125 193.367188 " fill-opacity="1" fill-rule="nonzero"/><path fill="#00a087" d="M 150.113281 91.96875 C 150.113281 93.265625 150.050781 94.558594 149.929688 95.851562 C 149.808594 97.140625 149.628906 98.425781 149.386719 99.695312 C 149.144531 100.96875 148.84375 102.226562 148.484375 103.464844 C 148.125 104.707031 147.707031 105.929688 147.234375 107.125 C 146.761719 108.324219 146.230469 109.496094 145.648438 110.640625 C 145.0625 111.785156 144.429688 112.894531 143.742188 113.972656 C 143.050781 115.054688 142.316406 116.09375 141.53125 117.097656 C 140.746094 118.097656 139.914062 119.058594 139.039062 119.976562 C 138.164062 120.894531 137.246094 121.765625 136.289062 122.585938 C 135.332031 123.410156 134.339844 124.183594 133.308594 124.902344 C 132.28125 125.625 131.21875 126.289062 130.125 126.902344 C 129.035156 127.511719 127.917969 128.066406 126.773438 128.5625 C 125.628906 129.058594 124.464844 129.496094 123.28125 129.871094 C 122.09375 130.25 120.894531 130.5625 119.679688 130.816406 C 118.464844 131.070312 117.242188 131.261719 116.011719 131.386719 C 114.777344 131.515625 113.542969 131.578125 112.304688 131.578125 C 111.066406 131.578125 109.832031 131.515625 108.597656 131.386719 C 107.367188 131.261719 106.144531 131.070312 104.929688 130.816406 C 103.714844 130.5625 102.515625 130.25 101.328125 129.871094 C 100.144531 129.496094 98.980469 129.058594 97.835938 128.5625 C 96.691406 128.066406 95.574219 127.511719 94.480469 126.902344 C 93.390625 126.289062 92.328125 125.625 91.300781 124.902344 C 90.269531 124.183594 89.277344 123.410156 88.320312 122.585938 C 87.363281 121.765625 86.445312 120.894531 85.570312 119.976562 C 84.695312 119.058594 83.863281 118.097656 83.078125 117.097656 C 82.292969 116.09375 81.554688 115.054688 80.867188 113.972656 C 80.179688 112.894531 79.542969 111.785156 78.960938 110.640625 C 78.378906 109.496094 77.847656 108.324219 77.375 107.125 C 76.902344 105.929688 76.484375 104.707031 76.125 103.464844 C 75.765625 102.226562 75.464844 100.96875 75.222656 99.695312 C 74.980469 98.425781 74.800781 97.140625 74.679688 95.851562 C 74.558594 94.558594 74.496094 93.265625 74.496094 91.96875 C 74.496094 90.671875 74.558594 89.378906 74.679688 88.085938 C 74.800781 86.796875 74.980469 85.515625 75.222656 84.242188 C 75.464844 82.96875 75.765625 81.710938 76.125 80.472656 C 76.484375 79.230469 76.902344 78.007812 77.375 76.8125 C 77.847656 75.613281 78.378906 74.441406 78.960938 73.296875 C 79.542969 72.152344 80.179688 71.042969 80.867188 69.964844 C 81.554688 68.882812 82.292969 67.84375 83.078125 66.839844 C 83.863281 65.839844 84.695312 64.878906 85.570312 63.960938 C 86.445312 63.042969 87.363281 62.171875 88.320312 61.351562 C 89.277344 60.527344 90.269531 59.753906 91.300781 59.035156 C 92.328125 58.3125 93.390625 57.648438 94.480469 57.035156 C 95.574219 56.425781 96.691406 55.871094 97.835938 55.375 C 98.980469 54.878906 100.144531 54.441406 101.328125 54.066406 C 102.515625 53.6875 103.714844 53.375 104.929688 53.121094 C 106.144531 52.867188 107.367188 52.675781 108.597656 52.550781 C 109.832031 52.421875 111.066406 52.359375 112.304688 52.359375 C 113.542969 52.359375 114.777344 52.421875 116.011719 52.550781 C 117.242188 52.675781 118.464844 52.867188 119.679688 53.121094 C 120.894531 53.375 122.09375 53.6875 123.28125 54.066406 C 124.464844 54.441406 125.628906 54.878906 126.773438 55.375 C 127.917969 55.871094 129.035156 56.425781 130.125 57.035156 C 131.21875 57.648438 132.28125 58.3125 133.308594 59.035156 C 134.339844 59.753906 135.332031 60.527344 136.289062 61.351562 C 137.246094 62.171875 138.164062 63.042969 139.039062 63.960938 C 139.914062 64.878906 140.746094 65.839844 141.53125 66.839844 C 142.316406 67.84375 143.050781 68.882812 143.742188 69.964844 C 144.429688 71.042969 145.0625 72.152344 145.648438 73.296875 C 146.230469 74.441406 146.761719 75.613281 147.234375 76.8125 C 147.707031 78.007812 148.125 79.230469 148.484375 80.472656 C 148.84375 81.710938 149.144531 82.96875 149.386719 84.242188 C 149.628906 85.515625 149.808594 86.796875 149.929688 88.085938 C 150.050781 89.378906 150.113281 90.671875 150.113281 91.96875 Z M 150.113281 91.96875 " fill-opacity="1" fill-rule="nonzero"/><path fill="#ffffff" d="M 71.46875 138.636719 L 126.707031 138.636719 C 152.519531 138.636719 173.445312 159.5625 173.445312 185.375 L 173.445312 219.367188 C 173.445312 233.445312 162.03125 244.859375 147.949219 244.859375 L 50.222656 244.859375 C 36.144531 244.859375 24.730469 233.445312 24.730469 219.367188 L 24.730469 185.375 C 24.730469 159.5625 45.65625 138.636719 71.46875 138.636719 Z M 71.46875 138.636719 " fill-opacity="1" fill-rule="nonzero"/><g clip-path="url(#1a0dc091b6)"><path stroke-linecap="butt" transform="matrix(4.249009, 0, 0, 4.249009, 19.663315, 45.157468)" fill="none" stroke-linejoin="miter" d="M 12.192357 22.000248 L 25.192632 22.000248 C 31.267578 22.000248 36.192439 26.92511 36.192439 33.000056 L 36.192439 41.000083 C 36.192439 44.313356 33.506151 46.999644 30.191959 46.999644 L 7.19211 46.999644 C 3.878838 46.999644 1.19255 44.313356 1.19255 41.000083 L 1.19255 33.000056 C 1.19255 26.92511 6.117411 22.000248 12.192357 22.000248 Z M 12.192357 22.000248 " stroke="#063137" stroke-width="2" stroke-opacity="1" stroke-miterlimit="4"/></g><path fill="#f5df99" d="M 135.203125 85.523438 C 135.203125 105.6875 119.773438 121.640625 101.210938 121.640625 C 82.652344 121.640625 67.21875 105.6875 67.21875 85.523438 C 67.21875 65.355469 82.652344 49.40625 101.210938 49.40625 C 119.773438 49.40625 135.203125 65.355469 135.203125 85.523438 Z M 135.203125 85.523438 " fill-opacity="1" fill-rule="nonzero"/><g clip-path="url(#7678fc21d2)"><path stroke-linecap="butt" transform="matrix(4.249009, 0, 0, 4.249009, 19.663315, 45.157468)" fill="none" stroke-linejoin="miter" d="M 27.192179 9.50009 C 27.192179 14.245682 23.560817 18.000234 19.192151 18.000234 C 14.824405 18.000234 11.192124 14.245682 11.192124 9.50009 C 11.192124 4.753579 14.824405 0.999947 19.192151 0.999947 C 23.560817 0.999947 27.192179 4.753579 27.192179 9.50009 Z M 27.192179 9.50009 " stroke="#063137" stroke-width="2" stroke-opacity="1" stroke-miterlimit="4"/></g><g mask="url(#bd59205afc)"><g transform="matrix(1, 0, 0, 1, 45, 185)"><g clip-path="url(#e222c86e7d)"><g clip-path="url(#19a161a215)"><path fill="#00a087" d="M 11.597656 4.625 C 11.597656 2.277344 9.695312 0.375 7.347656 0.375 C 5 0.375 3.097656 2.277344 3.097656 4.625 Z M 11.597656 55.613281 L 11.597656 4.625 L 3.097656 4.625 L 3.097656 55.613281 Z M 11.597656 55.613281 " fill-opacity="1" fill-rule="nonzero"/></g></g></g></g><g mask="url(#90c887750e)"><g transform="matrix(1, 0, 0, 1, 300, 185)"><g clip-path="url(#97c163a477)"><g clip-path="url(#a105d09106)"><path fill="#00a087" d="M 9.414062 4.625 C 9.414062 2.277344 7.511719 0.375 5.164062 0.375 C 2.816406 0.375 0.914062 2.277344 0.914062 4.625 Z M 9.414062 55.613281 L 9.414062 4.625 L 0.914062 4.625 L 0.914062 55.613281 Z M 9.414062 55.613281 " fill-opacity="1" fill-rule="nonzero"/></g></g></g></g><path fill="#00a087" d="M 85.003906 241.695312 C 85.003906 213.535156 107.832031 190.707031 135.992188 190.707031 L 220.972656 190.707031 C 249.132812 190.707031 271.960938 213.535156 271.960938 241.695312 L 271.960938 296.929688 C 271.960938 313.359375 258.644531 326.675781 242.21875 326.675781 L 114.746094 326.675781 C 98.320312 326.675781 85.003906 313.359375 85.003906 296.929688 Z M 85.003906 241.695312 " fill-opacity="1" fill-rule="nonzero"/><path fill="#00a087" d="M 226.300781 125.636719 C 226.300781 127.351562 226.222656 129.0625 226.0625 130.765625 C 225.898438 132.472656 225.660156 134.164062 225.339844 135.84375 C 225.023438 137.527344 224.625 139.1875 224.152344 140.828125 C 223.675781 142.464844 223.125 144.078125 222.5 145.660156 C 221.875 147.242188 221.175781 148.792969 220.402344 150.300781 C 219.632812 151.8125 218.792969 153.28125 217.882812 154.707031 C 216.976562 156.132812 216.003906 157.507812 214.964844 158.832031 C 213.925781 160.15625 212.828125 161.421875 211.671875 162.636719 C 210.515625 163.847656 209.304688 164.996094 208.042969 166.082031 C 206.777344 167.171875 205.464844 168.191406 204.105469 169.140625 C 202.746094 170.09375 201.34375 170.972656 199.902344 171.78125 C 198.457031 172.589844 196.980469 173.320312 195.46875 173.976562 C 193.960938 174.632812 192.421875 175.210938 190.855469 175.707031 C 189.289062 176.203125 187.707031 176.621094 186.101562 176.953125 C 184.496094 177.289062 182.882812 177.539062 181.253906 177.707031 C 179.625 177.875 177.992188 177.960938 176.359375 177.960938 C 174.722656 177.960938 173.089844 177.875 171.464844 177.707031 C 169.835938 177.539062 168.21875 177.289062 166.613281 176.953125 C 165.011719 176.621094 163.425781 176.203125 161.859375 175.707031 C 160.296875 175.210938 158.757812 174.632812 157.246094 173.976562 C 155.734375 173.320312 154.257812 172.589844 152.816406 171.78125 C 151.371094 170.972656 149.972656 170.09375 148.613281 169.140625 C 147.25 168.191406 145.9375 167.171875 144.675781 166.082031 C 143.410156 164.996094 142.199219 163.847656 141.042969 162.636719 C 139.886719 161.421875 138.789062 160.15625 137.75 158.832031 C 136.714844 157.507812 135.742188 156.132812 134.832031 154.707031 C 133.921875 153.28125 133.082031 151.8125 132.3125 150.300781 C 131.542969 148.792969 130.84375 147.242188 130.21875 145.660156 C 129.589844 144.078125 129.039062 142.464844 128.566406 140.828125 C 128.089844 139.1875 127.695312 137.527344 127.375 135.84375 C 127.054688 134.164062 126.816406 132.472656 126.65625 130.765625 C 126.496094 129.0625 126.414062 127.351562 126.414062 125.636719 C 126.414062 123.925781 126.496094 122.214844 126.65625 120.507812 C 126.816406 118.804688 127.054688 117.109375 127.375 115.429688 C 127.695312 113.75 128.089844 112.089844 128.566406 110.449219 C 129.039062 108.808594 129.589844 107.199219 130.21875 105.613281 C 130.84375 104.03125 131.542969 102.484375 132.3125 100.972656 C 133.082031 99.460938 133.921875 97.992188 134.832031 96.570312 C 135.742188 95.144531 136.714844 93.769531 137.75 92.445312 C 138.789062 91.121094 139.886719 89.851562 141.042969 88.640625 C 142.199219 87.429688 143.410156 86.28125 144.675781 85.191406 C 145.9375 84.105469 147.25 83.085938 148.613281 82.132812 C 149.972656 81.179688 151.371094 80.300781 152.816406 79.492188 C 154.257812 78.6875 155.734375 77.953125 157.246094 77.296875 C 158.757812 76.644531 160.296875 76.066406 161.859375 75.570312 C 163.425781 75.070312 165.011719 74.65625 166.613281 74.320312 C 168.21875 73.988281 169.835938 73.734375 171.464844 73.566406 C 173.089844 73.398438 174.722656 73.316406 176.359375 73.316406 C 177.992188 73.316406 179.625 73.398438 181.253906 73.566406 C 182.882812 73.734375 184.496094 73.988281 186.101562 74.320312 C 187.707031 74.65625 189.289062 75.070312 190.855469 75.570312 C 192.421875 76.066406 193.960938 76.644531 195.46875 77.296875 C 196.980469 77.953125 198.457031 78.6875 199.902344 79.492188 C 201.34375 80.300781 202.746094 81.179688 204.105469 82.132812 C 205.464844 83.085938 206.777344 84.105469 208.042969 85.191406 C 209.304688 86.28125 210.515625 87.429688 211.671875 88.640625 C 212.828125 89.851562 213.925781 91.121094 214.964844 92.445312 C 216.003906 93.769531 216.976562 95.144531 217.882812 96.570312 C 218.792969 97.992188 219.632812 99.460938 220.402344 100.972656 C 221.175781 102.484375 221.875 104.03125 222.5 105.613281 C 223.125 107.199219 223.675781 108.808594 224.152344 110.449219 C 224.625 112.089844 225.023438 113.75 225.339844 115.429688 C 225.660156 117.109375 225.898438 118.804688 226.0625 120.507812 C 226.222656 122.214844 226.300781 123.925781 226.300781 125.636719 Z M 226.300781 125.636719 " fill-opacity="1" fill-rule="nonzero"/><path fill="#ffffff" d="M 123.246094 186.457031 L 208.226562 186.457031 C 234.039062 186.457031 254.964844 207.382812 254.964844 233.195312 L 254.964844 288.433594 C 254.964844 302.511719 243.550781 313.925781 229.46875 313.925781 L 102 313.925781 C 87.921875 313.925781 76.507812 302.511719 76.507812 288.433594 L 76.507812 233.195312 C 76.507812 207.382812 97.433594 186.457031 123.246094 186.457031 Z M 123.246094 186.457031 " fill-opacity="1" fill-rule="nonzero"/><g clip-path="url(#989377279e)"><path stroke-linecap="butt" transform="matrix(4.249009, 0, 0, 4.249009, 19.663315, 45.157468)" fill="none" stroke-linejoin="miter" d="M 24.378103 33.254711 L 44.378172 33.254711 C 50.453118 33.254711 55.377979 38.179573 55.377979 44.254519 L 55.377979 57.254793 C 55.377979 60.568065 52.691691 63.254354 49.377499 63.254354 L 19.377856 63.254354 C 16.064584 63.254354 13.378296 60.568065 13.378296 57.254793 L 13.378296 44.254519 C 13.378296 38.179573 18.303157 33.254711 24.378103 33.254711 Z M 24.378103 33.254711 " stroke="#063137" stroke-width="2" stroke-opacity="1" stroke-miterlimit="4"/></g><path fill="#ffffff" d="M 212.476562 122.722656 C 212.476562 124.253906 212.402344 125.78125 212.261719 127.304688 C 212.117188 128.828125 211.902344 130.339844 211.617188 131.839844 C 211.332031 133.34375 210.976562 134.824219 210.554688 136.289062 C 210.128906 137.753906 209.636719 139.195312 209.078125 140.609375 C 208.519531 142.023438 207.894531 143.40625 207.207031 144.753906 C 206.519531 146.105469 205.769531 147.417969 204.957031 148.691406 C 204.144531 149.960938 203.273438 151.191406 202.347656 152.375 C 201.421875 153.558594 200.441406 154.691406 199.40625 155.773438 C 198.375 156.855469 197.292969 157.882812 196.164062 158.851562 C 195.035156 159.824219 193.863281 160.734375 192.648438 161.585938 C 191.433594 162.4375 190.179688 163.222656 188.890625 163.941406 C 187.601562 164.664062 186.285156 165.320312 184.933594 165.90625 C 183.582031 166.488281 182.210938 167.003906 180.8125 167.449219 C 179.414062 167.894531 177.996094 168.265625 176.5625 168.5625 C 175.132812 168.863281 173.6875 169.085938 172.234375 169.238281 C 170.777344 169.386719 169.320312 169.460938 167.859375 169.460938 C 166.398438 169.460938 164.941406 169.386719 163.488281 169.238281 C 162.03125 169.085938 160.589844 168.863281 159.15625 168.5625 C 157.722656 168.265625 156.308594 167.894531 154.910156 167.449219 C 153.511719 167.003906 152.136719 166.488281 150.785156 165.90625 C 149.4375 165.320312 148.117188 164.664062 146.828125 163.941406 C 145.539062 163.222656 144.289062 162.4375 143.074219 161.585938 C 141.859375 160.734375 140.6875 159.824219 139.558594 158.851562 C 138.425781 157.882812 137.347656 156.855469 136.3125 155.773438 C 135.28125 154.691406 134.300781 153.558594 133.371094 152.375 C 132.445312 151.191406 131.578125 149.960938 130.765625 148.691406 C 129.953125 147.417969 129.203125 146.105469 128.515625 144.753906 C 127.824219 143.40625 127.199219 142.023438 126.640625 140.609375 C 126.082031 139.195312 125.589844 137.753906 125.167969 136.289062 C 124.742188 134.824219 124.386719 133.34375 124.101562 131.839844 C 123.816406 130.339844 123.605469 128.828125 123.460938 127.304688 C 123.316406 125.78125 123.246094 124.253906 123.246094 122.722656 C 123.246094 121.191406 123.316406 119.664062 123.460938 118.140625 C 123.605469 116.617188 123.816406 115.105469 124.101562 113.605469 C 124.386719 112.101562 124.742188 110.621094 125.167969 109.15625 C 125.589844 107.691406 126.082031 106.25 126.640625 104.835938 C 127.199219 103.421875 127.824219 102.039062 128.515625 100.691406 C 129.203125 99.339844 129.953125 98.027344 130.765625 96.757812 C 131.578125 95.484375 132.445312 94.253906 133.371094 93.070312 C 134.300781 91.890625 135.28125 90.757812 136.3125 89.671875 C 137.347656 88.589844 138.425781 87.5625 139.558594 86.59375 C 140.6875 85.621094 141.859375 84.710938 143.074219 83.859375 C 144.289062 83.011719 145.539062 82.222656 146.828125 81.503906 C 148.117188 80.78125 149.4375 80.128906 150.785156 79.542969 C 152.136719 78.957031 153.511719 78.441406 154.910156 77.996094 C 156.308594 77.550781 157.722656 77.179688 159.15625 76.882812 C 160.589844 76.582031 162.03125 76.359375 163.488281 76.210938 C 164.941406 76.058594 166.398438 75.984375 167.859375 75.984375 C 169.320312 75.984375 170.777344 76.058594 172.234375 76.210938 C 173.6875 76.359375 175.132812 76.582031 176.5625 76.882812 C 177.996094 77.179688 179.414062 77.550781 180.8125 77.996094 C 182.210938 78.441406 183.582031 78.957031 184.933594 79.542969 C 186.285156 80.128906 187.601562 80.78125 188.890625 81.503906 C 190.179688 82.222656 191.433594 83.011719 192.648438 83.859375 C 193.863281 84.710938 195.035156 85.621094 196.164062 86.59375 C 197.292969 87.5625 198.375 88.589844 199.40625 89.671875 C 200.441406 90.757812 201.421875 91.890625 202.347656 93.070312 C 203.273438 94.253906 204.144531 95.484375 204.957031 96.757812 C 205.769531 98.027344 206.519531 99.339844 207.207031 100.691406 C 207.894531 102.039062 208.519531 103.421875 209.078125 104.835938 C 209.636719 106.25 210.128906 107.691406 210.554688 109.15625 C 210.976562 110.621094 211.332031 112.101562 211.617188 113.605469 C 211.902344 115.105469 212.117188 116.617188 212.261719 118.140625 C 212.402344 119.664062 212.476562 121.191406 212.476562 122.722656 Z M 212.476562 122.722656 " fill-opacity="1" fill-rule="nonzero"/><g clip-path="url(#d9e53ea776)"><path stroke-linecap="butt" transform="matrix(4.249009, 0, 0, 4.249009, 19.663315, 45.157468)" fill="none" stroke-linejoin="miter" d="M 45.378405 18.254889 C 45.378405 18.615268 45.360938 18.974726 45.327842 19.333266 C 45.293826 19.691805 45.243263 20.047587 45.176152 20.40061 C 45.109041 20.754553 45.025381 21.10298 44.926094 21.44773 C 44.825886 21.792479 44.710051 22.131713 44.578586 22.464511 C 44.447122 22.797309 44.300028 23.122753 44.138226 23.439922 C 43.976424 23.758011 43.799912 24.066907 43.608691 24.366609 C 43.41747 24.665392 43.212459 24.954981 42.994577 25.233539 C 42.776695 25.512096 42.545943 25.778703 42.30232 26.033358 C 42.059616 26.288013 41.804961 26.529797 41.539274 26.757791 C 41.273587 26.986705 40.997788 27.200909 40.711876 27.401324 C 40.425963 27.601738 40.130858 27.786524 39.827478 27.955681 C 39.524099 28.125757 39.214284 28.280205 38.896195 28.418105 C 38.578106 28.555085 38.25542 28.676437 37.9263 28.781241 C 37.597179 28.886045 37.263461 28.973382 36.926066 29.043251 C 36.589591 29.114039 36.249438 29.166441 35.907446 29.202295 C 35.564536 29.23723 35.221625 29.254697 34.877794 29.254697 C 34.533964 29.254697 34.191053 29.23723 33.849062 29.202295 C 33.506151 29.166441 33.166918 29.114039 32.829523 29.043251 C 32.492128 28.973382 32.15933 28.886045 31.830209 28.781241 C 31.501088 28.676437 31.177483 28.555085 30.859394 28.418105 C 30.542225 28.280205 30.23149 28.125757 29.928111 27.955681 C 29.624731 27.786524 29.330545 27.601738 29.044633 27.401324 C 28.75872 27.200909 28.482921 26.986705 28.217234 26.757791 C 27.950628 26.529797 27.696892 26.288013 27.453269 26.033358 C 27.210565 25.778703 26.979813 25.512096 26.761012 25.233539 C 26.54313 24.954981 26.339039 24.665392 26.147818 24.366609 C 25.956596 24.066907 25.780085 23.758011 25.618282 23.439922 C 25.455561 23.122753 25.308467 22.797309 25.177003 22.464511 C 25.045538 22.131713 24.929703 21.792479 24.830415 21.44773 C 24.730208 21.10298 24.646548 20.754553 24.579437 20.40061 C 24.512326 20.047587 24.462682 19.691805 24.428667 19.333266 C 24.394651 18.974726 24.378103 18.615268 24.378103 18.254889 C 24.378103 17.894511 24.394651 17.535052 24.428667 17.176513 C 24.462682 16.817973 24.512326 16.462192 24.579437 16.109168 C 24.646548 15.755226 24.730208 15.406799 24.830415 15.062049 C 24.929703 14.7173 25.045538 14.378066 25.177003 14.045268 C 25.308467 13.71247 25.455561 13.387026 25.618282 13.069857 C 25.780085 12.751768 25.956596 12.442872 26.147818 12.144089 C 26.339039 11.844387 26.54313 11.554798 26.761012 11.27624 C 26.979813 10.998602 27.210565 10.731995 27.453269 10.476421 C 27.696892 10.221766 27.950628 9.979982 28.217234 9.751987 C 28.482921 9.523074 28.75872 9.308869 29.044633 9.108455 C 29.330545 8.90896 29.624731 8.723255 29.928111 8.554098 C 30.23149 8.384021 30.542225 8.230493 30.859394 8.092593 C 31.177483 7.954693 31.501088 7.833342 31.830209 7.728538 C 32.15933 7.623734 32.492128 7.536397 32.829523 7.466528 C 33.166918 7.395739 33.506151 7.343338 33.849062 7.308403 C 34.191053 7.272549 34.533964 7.255082 34.877794 7.255082 C 35.221625 7.255082 35.564536 7.272549 35.907446 7.308403 C 36.249438 7.343338 36.589591 7.395739 36.926066 7.466528 C 37.263461 7.536397 37.597179 7.623734 37.9263 7.728538 C 38.25542 7.833342 38.578106 7.954693 38.896195 8.092593 C 39.214284 8.230493 39.524099 8.384021 39.827478 8.554098 C 40.130858 8.723255 40.425963 8.90896 40.711876 9.108455 C 40.997788 9.308869 41.273587 9.523074 41.539274 9.751987 C 41.804961 9.979982 42.059616 10.221766 42.30232 10.476421 C 42.545943 10.731995 42.776695 10.998602 42.994577 11.27624 C 43.212459 11.554798 43.41747 11.844387 43.608691 12.144089 C 43.799912 12.442872 43.976424 12.751768 44.138226 13.069857 C 44.300028 13.387026 44.447122 13.71247 44.578586 14.045268 C 44.710051 14.378066 44.825886 14.7173 44.926094 15.062049 C 45.025381 15.406799 45.109041 15.755226 45.176152 16.109168 C 45.243263 16.462192 45.293826 16.817973 45.327842 17.176513 C 45.360938 17.535052 45.378405 17.894511 45.378405 18.254889 Z M 45.378405 18.254889 " stroke="#063137" stroke-width="2" stroke-opacity="1" stroke-miterlimit="4"/></g><g mask="url(#1a3fc33c3d)"><g transform="matrix(1, 0, 0, 1, 215, 244)"><g clip-path="url(#d41acac560)"><path fill="#00a087" d="M 10.222656 6.191406 C 10.222656 3.847656 8.320312 1.945312 5.972656 1.945312 C 3.625 1.945312 1.722656 3.847656 1.722656 6.191406 Z M 10.222656 69.925781 L 10.222656 6.191406 L 1.722656 6.191406 L 1.722656 69.925781 Z M 10.222656 69.925781 " fill-opacity="1" fill-rule="nonzero"/></g></g></g><g mask="url(#21d03212a9)"><g transform="matrix(1, 0, 0, 1, 104, 244)"><g clip-path="url(#64d3a20067)"><path fill="#00a087" d="M 10.746094 6.191406 C 10.746094 3.847656 8.84375 1.945312 6.5 1.945312 C 4.152344 1.945312 2.25 3.847656 2.25 6.191406 Z M 10.746094 69.925781 L 10.746094 6.191406 L 2.25 6.191406 L 2.25 69.925781 Z M 10.746094 69.925781 " fill-opacity="1" fill-rule="nonzero"/></g></g></g></svg>