<svg xmlns="http://www.w3.org/2000/svg" xmlns:xlink="http://www.w3.org/1999/xlink" width="500" zoomAndPan="magnify" viewBox="0 0 375 374.999991" height="500" preserveAspectRatio="xMidYMid meet" version="1.0"><defs><clipPath id="a0ae655098"><path d="M 73 59 L 331.910156 59 L 331.910156 268 L 73 268 Z M 73 59 " clip-rule="nonzero"/></clipPath><clipPath id="5ba7996719"><path d="M 54 29 L 77 29 L 77 360.664062 L 54 360.664062 Z M 54 29 " clip-rule="nonzero"/></clipPath><clipPath id="06b92b908b"><path d="M 43.160156 14.164062 L 89 14.164062 L 89 60 L 43.160156 60 Z M 43.160156 14.164062 " clip-rule="nonzero"/></clipPath></defs><g clip-path="url(#a0ae655098)"><path fill="#0e1628" d="M 73.914062 246.035156 C 166.78125 170.890625 236.65625 318.945312 329.066406 248.222656 C 330.796875 246.898438 331.847656 244.769531 331.847656 242.589844 L 331.847656 96.847656 C 331.847656 90.777344 324.628906 87.363281 319.457031 90.546875 C 231.746094 144.5625 163.535156 9.207031 73.914062 81.726562 " fill-opacity="1" fill-rule="nonzero"/></g><path fill="#00a087" d="M 73.914062 230.285156 C 162.984375 155.140625 230.007812 303.195312 318.636719 232.476562 C 320.300781 231.152344 321.304688 229.058594 321.304688 226.933594 L 321.304688 81.511719 C 321.304688 75.371094 313.925781 71.964844 308.730469 75.242188 C 224.933594 128.074219 159.636719 -6.339844 73.914062 65.980469 " fill-opacity="1" fill-rule="nonzero"/><g clip-path="url(#5ba7996719)"><path fill="#f5df99" d="M 62.191406 29.695312 L 69.667969 29.695312 C 70.140625 29.695312 70.609375 29.742188 71.074219 29.835938 C 71.539062 29.929688 71.992188 30.066406 72.429688 30.246094 C 72.867188 30.429688 73.28125 30.648438 73.675781 30.914062 C 74.070312 31.175781 74.433594 31.476562 74.769531 31.8125 C 75.105469 32.144531 75.40625 32.511719 75.667969 32.90625 C 75.929688 33.296875 76.152344 33.714844 76.335938 34.152344 C 76.515625 34.589844 76.652344 35.042969 76.746094 35.507812 C 76.835938 35.972656 76.882812 36.441406 76.882812 36.914062 L 76.882812 353.488281 C 76.882812 353.960938 76.835938 354.429688 76.746094 354.894531 C 76.652344 355.359375 76.515625 355.8125 76.335938 356.25 C 76.152344 356.6875 75.929688 357.101562 75.667969 357.496094 C 75.40625 357.890625 75.105469 358.253906 74.769531 358.589844 C 74.433594 358.925781 74.070312 359.226562 73.675781 359.488281 C 73.28125 359.75 72.867188 359.972656 72.429688 360.15625 C 71.992188 360.335938 71.539062 360.472656 71.074219 360.566406 C 70.609375 360.660156 70.140625 360.703125 69.667969 360.703125 L 62.191406 360.703125 C 61.714844 360.703125 61.246094 360.660156 60.78125 360.566406 C 60.316406 360.472656 59.867188 360.335938 59.429688 360.15625 C 58.992188 359.972656 58.574219 359.75 58.179688 359.488281 C 57.785156 359.226562 57.421875 358.925781 57.085938 358.589844 C 56.75 358.253906 56.453125 357.890625 56.191406 357.496094 C 55.925781 357.101562 55.703125 356.6875 55.523438 356.25 C 55.339844 355.8125 55.203125 355.359375 55.113281 354.894531 C 55.019531 354.429688 54.972656 353.960938 54.972656 353.488281 L 54.972656 36.914062 C 54.972656 36.441406 55.019531 35.972656 55.113281 35.507812 C 55.203125 35.042969 55.339844 34.589844 55.523438 34.152344 C 55.703125 33.714844 55.925781 33.296875 56.191406 32.90625 C 56.453125 32.511719 56.75 32.144531 57.085938 31.8125 C 57.421875 31.476562 57.785156 31.175781 58.179688 30.914062 C 58.574219 30.648438 58.992188 30.429688 59.429688 30.246094 C 59.867188 30.066406 60.316406 29.929688 60.78125 29.835938 C 61.246094 29.742188 61.714844 29.695312 62.191406 29.695312 Z M 62.191406 29.695312 " fill-opacity="1" fill-rule="nonzero"/></g><g clip-path="url(#06b92b908b)"><path fill="#0e1628" d="M 88.683594 37.050781 C 88.683594 37.796875 88.648438 38.539062 88.574219 39.28125 C 88.5 40.023438 88.390625 40.761719 88.246094 41.492188 C 88.101562 42.222656 87.921875 42.945312 87.703125 43.660156 C 87.488281 44.371094 87.238281 45.074219 86.949219 45.761719 C 86.664062 46.449219 86.347656 47.125 85.996094 47.78125 C 85.644531 48.4375 85.261719 49.078125 84.847656 49.699219 C 84.433594 50.316406 83.988281 50.914062 83.515625 51.492188 C 83.042969 52.066406 82.542969 52.621094 82.015625 53.148438 C 81.488281 53.675781 80.9375 54.175781 80.363281 54.648438 C 79.785156 55.121094 79.1875 55.5625 78.566406 55.976562 C 77.949219 56.390625 77.308594 56.773438 76.652344 57.125 C 75.992188 57.476562 75.320312 57.796875 74.632812 58.082031 C 73.945312 58.367188 73.242188 58.617188 72.527344 58.832031 C 71.816406 59.050781 71.09375 59.230469 70.363281 59.375 C 69.632812 59.523438 68.894531 59.632812 68.152344 59.703125 C 67.410156 59.777344 66.667969 59.8125 65.921875 59.8125 C 65.175781 59.8125 64.433594 59.777344 63.691406 59.703125 C 62.949219 59.632812 62.210938 59.523438 61.480469 59.375 C 60.75 59.230469 60.027344 59.050781 59.3125 58.832031 C 58.601562 58.617188 57.898438 58.367188 57.210938 58.082031 C 56.523438 57.796875 55.847656 57.476562 55.191406 57.125 C 54.535156 56.773438 53.894531 56.390625 53.273438 55.976562 C 52.65625 55.5625 52.058594 55.121094 51.480469 54.648438 C 50.90625 54.175781 50.351562 53.675781 49.824219 53.148438 C 49.296875 52.621094 48.796875 52.066406 48.324219 51.492188 C 47.851562 50.914062 47.410156 50.316406 46.996094 49.699219 C 46.582031 49.078125 46.199219 48.4375 45.847656 47.78125 C 45.496094 47.125 45.175781 46.449219 44.890625 45.761719 C 44.605469 45.074219 44.355469 44.371094 44.140625 43.660156 C 43.921875 42.945312 43.742188 42.222656 43.597656 41.492188 C 43.449219 40.761719 43.339844 40.023438 43.269531 39.28125 C 43.195312 38.539062 43.160156 37.796875 43.160156 37.050781 C 43.160156 36.304688 43.195312 35.5625 43.269531 34.820312 C 43.339844 34.078125 43.449219 33.339844 43.597656 32.609375 C 43.742188 31.878906 43.921875 31.15625 44.140625 30.445312 C 44.355469 29.730469 44.605469 29.027344 44.890625 28.339844 C 45.175781 27.652344 45.496094 26.980469 45.847656 26.320312 C 46.199219 25.664062 46.582031 25.023438 46.996094 24.40625 C 47.410156 23.785156 47.851562 23.1875 48.324219 22.609375 C 48.796875 22.035156 49.296875 21.484375 49.824219 20.957031 C 50.351562 20.429688 50.90625 19.929688 51.480469 19.457031 C 52.058594 18.984375 52.65625 18.539062 53.273438 18.125 C 53.894531 17.710938 54.535156 17.328125 55.191406 16.976562 C 55.847656 16.625 56.523438 16.308594 57.210938 16.023438 C 57.898438 15.738281 58.601562 15.484375 59.3125 15.269531 C 60.027344 15.050781 60.75 14.871094 61.480469 14.726562 C 62.210938 14.582031 62.949219 14.472656 63.691406 14.398438 C 64.433594 14.324219 65.175781 14.289062 65.921875 14.289062 C 66.667969 14.289062 67.410156 14.324219 68.152344 14.398438 C 68.894531 14.472656 69.632812 14.582031 70.363281 14.726562 C 71.09375 14.871094 71.816406 15.050781 72.527344 15.269531 C 73.242188 15.484375 73.945312 15.738281 74.632812 16.023438 C 75.320312 16.308594 75.992188 16.625 76.652344 16.976562 C 77.308594 17.328125 77.949219 17.710938 78.566406 18.125 C 79.1875 18.539062 79.785156 18.984375 80.363281 19.457031 C 80.9375 19.929688 81.488281 20.429688 82.015625 20.957031 C 82.542969 21.484375 83.042969 22.035156 83.515625 22.609375 C 83.988281 23.1875 84.433594 23.785156 84.847656 24.40625 C 85.261719 25.023438 85.644531 25.664062 85.996094 26.320312 C 86.347656 26.980469 86.664062 27.652344 86.949219 28.339844 C 87.238281 29.027344 87.488281 29.730469 87.703125 30.445312 C 87.921875 31.15625 88.101562 31.878906 88.246094 32.609375 C 88.390625 33.339844 88.5 34.078125 88.574219 34.820312 C 88.648438 35.5625 88.683594 36.304688 88.683594 37.050781 Z M 88.683594 37.050781 " fill-opacity="1" fill-rule="nonzero"/></g></svg>