<svg xmlns="http://www.w3.org/2000/svg" xmlns:xlink="http://www.w3.org/1999/xlink" width="500" zoomAndPan="magnify" viewBox="0 0 375 374.999991" height="500" preserveAspectRatio="xMidYMid meet" version="1.0"><defs><clipPath id="0cb0734abd"><path d="M 215 219 L 334 219 L 334 337.324219 L 215 337.324219 Z M 215 219 " clip-rule="nonzero"/></clipPath><clipPath id="6372aac0ca"><path d="M 51 55.324219 L 293 55.324219 L 293 297 L 51 297 Z M 51 55.324219 " clip-rule="nonzero"/></clipPath></defs><g clip-path="url(#0cb0734abd)"><path fill="#f5df99" d="M 215.058594 269.988281 L 282.570312 337.5 L 333.503906 286.566406 L 265.992188 219.054688 Z M 215.058594 269.988281 " fill-opacity="1" fill-rule="nonzero"/></g><g clip-path="url(#6372aac0ca)"><path fill="#00a087" d="M 256.796875 90.578125 C 303.796875 137.582031 303.796875 213.789062 256.796875 260.792969 C 209.792969 307.796875 133.582031 307.796875 86.578125 260.792969 C 39.578125 213.789062 39.578125 137.582031 86.578125 90.578125 C 133.582031 43.574219 209.792969 43.574219 256.796875 90.578125 Z M 137.644531 209.726562 C 156.445312 228.527344 186.929688 228.527344 205.730469 209.726562 C 224.53125 190.925781 224.53125 160.441406 205.730469 141.640625 C 186.929688 122.839844 156.445312 122.839844 137.644531 141.640625 C 118.84375 160.441406 118.84375 190.925781 137.644531 209.726562 Z M 137.644531 209.726562 " fill-opacity="1" fill-rule="nonzero"/></g></svg>