<svg xmlns="http://www.w3.org/2000/svg" xmlns:xlink="http://www.w3.org/1999/xlink" width="500" zoomAndPan="magnify" viewBox="0 0 375 374.999991" height="500" preserveAspectRatio="xMidYMid meet" version="1.0"><defs><clipPath id="5d0fd7b848"><path d="M 195 18.246094 L 291 18.246094 L 291 115 L 195 115 Z M 195 18.246094 " clip-rule="nonzero"/></clipPath><clipPath id="5555be7286"><path d="M 84 18.246094 L 180 18.246094 L 180 115 L 84 115 Z M 84 18.246094 " clip-rule="nonzero"/></clipPath></defs><path fill="#f5df99" d="M 184.175781 223.21875 C 185.660156 220.671875 189.339844 220.671875 190.824219 223.21875 L 208.925781 254.296875 C 209.46875 255.230469 210.378906 255.890625 211.433594 256.121094 L 246.585938 263.730469 C 249.46875 264.355469 250.605469 267.855469 248.640625 270.054688 L 224.675781 296.875 C 223.957031 297.679688 223.609375 298.75 223.71875 299.824219 L 227.339844 335.605469 C 227.636719 338.539062 224.660156 340.703125 221.964844 339.515625 L 189.050781 325.011719 C 188.0625 324.574219 186.9375 324.574219 185.949219 325.011719 L 153.039062 339.515625 C 150.339844 340.703125 147.363281 338.539062 147.660156 335.605469 L 151.28125 299.824219 C 151.390625 298.75 151.042969 297.679688 150.324219 296.875 L 126.359375 270.054688 C 124.394531 267.855469 125.535156 264.355469 128.414062 263.730469 L 163.566406 256.121094 C 164.621094 255.890625 165.53125 255.230469 166.074219 254.296875 Z M 184.175781 223.21875 " fill-opacity="1" fill-rule="nonzero"/><path fill="#00a087" d="M 79.910156 214.144531 C 81.394531 211.59375 85.074219 211.59375 86.558594 214.144531 L 98.417969 234.503906 C 98.960938 235.4375 99.871094 236.097656 100.925781 236.328125 L 123.953125 241.3125 C 126.835938 241.9375 127.972656 245.4375 126.007812 247.636719 L 110.308594 265.203125 C 109.589844 266.007812 109.242188 267.082031 109.351562 268.15625 L 111.726562 291.597656 C 112.023438 294.527344 109.042969 296.691406 106.347656 295.503906 L 84.785156 286.003906 C 83.796875 285.566406 82.671875 285.566406 81.683594 286.003906 L 60.125 295.503906 C 57.425781 296.691406 54.449219 294.527344 54.746094 291.597656 L 57.117188 268.15625 C 57.226562 267.082031 56.878906 266.007812 56.160156 265.203125 L 40.460938 247.636719 C 38.496094 245.4375 39.632812 241.9375 42.515625 241.3125 L 65.542969 236.328125 C 66.597656 236.097656 67.507812 235.4375 68.054688 234.503906 Z M 79.910156 214.144531 " fill-opacity="1" fill-rule="nonzero"/><path fill="#00a087" d="M 288.433594 214.144531 C 289.917969 211.59375 293.597656 211.59375 295.082031 214.144531 L 306.941406 234.503906 C 307.484375 235.4375 308.394531 236.097656 309.453125 236.328125 L 332.480469 241.3125 C 335.359375 241.9375 336.496094 245.4375 334.53125 247.636719 L 318.835938 265.203125 C 318.113281 266.007812 317.765625 267.082031 317.875 268.15625 L 320.25 291.597656 C 320.546875 294.527344 317.566406 296.691406 314.871094 295.503906 L 293.308594 286.003906 C 292.320312 285.566406 291.195312 285.566406 290.207031 286.003906 L 268.648438 295.503906 C 265.949219 296.691406 262.972656 294.527344 263.269531 291.597656 L 265.640625 268.15625 C 265.75 267.082031 265.402344 266.007812 264.683594 265.203125 L 248.984375 247.636719 C 247.019531 245.4375 248.160156 241.9375 251.039062 241.3125 L 274.066406 236.328125 C 275.121094 236.097656 276.035156 235.4375 276.578125 234.503906 Z M 288.433594 214.144531 " fill-opacity="1" fill-rule="nonzero"/><path stroke-linecap="round" transform="matrix(7.693066, 0, 0, 7.693066, 33.633357, 18.247277)" fill="none" stroke-linejoin="round" d="M 20.000692 18.629651 C 23.640334 18.629651 26.590941 15.679043 26.590941 12.039402 C 26.590941 8.399253 23.640334 5.448645 20.000692 5.448645 C 16.361051 5.448645 13.410444 8.399253 13.410444 12.039402 C 13.410444 15.679043 16.361051 18.629651 20.000692 18.629651 Z M 20.000692 18.629651 " stroke="#13322e" stroke-width="2" stroke-opacity="1" stroke-miterlimit="4"/><path stroke-linecap="round" transform="matrix(7.693066, 0, 0, 7.693066, 33.633357, 18.247277)" fill="none" stroke-linejoin="round" d="M 10.773633 23.901748 C 11.719595 22.296203 13.068719 20.96485 14.686451 20.040215 C 16.30469 19.115579 18.136189 18.629651 20.000185 18.629651 C 21.863673 18.629651 23.695172 19.115579 25.313411 20.040215 C 26.93165 20.96485 28.280267 22.296203 29.226736 23.901748 " stroke="#13322e" stroke-width="2" stroke-opacity="1" stroke-miterlimit="4"/><path stroke-linecap="round" transform="matrix(7.693066, 0, 0, 7.693066, 33.633357, 18.247277)" fill="none" stroke-linejoin="round" d="M 27.08601 11.544841 C 28.620976 11.543826 30.135123 11.900275 31.507605 12.58677 C 32.880595 13.273265 34.074344 14.27051 34.99441 15.499295 " stroke="#13322e" stroke-width="2" stroke-opacity="1" stroke-miterlimit="4"/><g clip-path="url(#5d0fd7b848)"><path stroke-linecap="round" transform="matrix(7.693066, 0, 0, 7.693066, 33.633357, 18.247277)" fill="none" stroke-linejoin="round" d="M 21.976396 4.954084 C 22.223169 3.999491 22.732454 3.133248 23.446368 2.453354 C 24.16079 1.77346 25.051406 1.307842 26.016662 1.108799 C 26.982426 0.909756 27.984749 0.985413 28.909385 1.327137 C 29.834528 1.668861 30.644917 2.263451 31.248646 3.042867 C 31.852884 3.821774 32.226089 4.755042 32.326626 5.736039 C 32.426655 6.717036 32.249954 7.706157 31.816325 8.591695 C 31.382696 9.477232 30.709403 10.223135 29.87261 10.745115 C 29.036325 11.267095 28.070053 11.544333 27.083979 11.544841 " stroke="#13322e" stroke-width="2" stroke-opacity="1" stroke-miterlimit="4"/></g><path stroke-linecap="round" transform="matrix(7.693066, 0, 0, 7.693066, 33.633357, 18.247277)" fill="none" stroke-linejoin="round" d="M 5.00799 15.499295 C 5.928056 14.27051 7.121805 13.273265 8.494795 12.58677 C 9.867277 11.900275 11.381425 11.543826 12.916391 11.544841 " stroke="#13322e" stroke-width="2" stroke-opacity="1" stroke-miterlimit="4"/><g clip-path="url(#5555be7286)"><path stroke-linecap="round" transform="matrix(7.693066, 0, 0, 7.693066, 33.633357, 18.247277)" fill="none" stroke-linejoin="round" d="M 12.918422 11.544841 C 11.932347 11.544333 10.966075 11.267095 10.12979 10.745115 C 9.292998 10.223135 8.619705 9.477232 8.186076 8.591695 C 7.752446 7.706157 7.575237 6.717036 7.675774 5.736039 C 7.776311 4.755042 8.149517 3.821774 8.753246 3.042867 C 9.357484 2.263451 10.167872 1.668861 11.092508 1.327137 C 12.017651 0.985413 13.019466 0.909756 13.985231 1.108799 C 14.950995 1.307842 15.84161 1.77346 16.556032 2.453354 C 17.269946 3.133248 17.779232 3.999491 18.026004 4.954084 " stroke="#13322e" stroke-width="2" stroke-opacity="1" stroke-miterlimit="4"/></g></svg>