<svg xmlns="http://www.w3.org/2000/svg" xmlns:xlink="http://www.w3.org/1999/xlink" width="500" zoomAndPan="magnify" viewBox="0 0 375 374.999991" height="500" preserveAspectRatio="xMidYMid meet" version="1.0"><defs><clipPath id="c32fbadf02"><path d="M 63.75 88 L 272 88 L 272 327.304688 L 63.75 327.304688 Z M 63.75 88 " clip-rule="nonzero"/></clipPath><clipPath id="3577da79ea"><path d="M 88 58.804688 L 300 58.804688 L 300 300 L 88 300 Z M 88 58.804688 " clip-rule="nonzero"/></clipPath></defs><g clip-path="url(#c32fbadf02)"><path fill="#00a087" d="M 74.183594 88.375 L 261.386719 88.375 C 264.148438 88.375 266.792969 89.472656 268.742188 91.421875 C 270.691406 93.371094 271.789062 96.019531 271.789062 98.777344 L 271.789062 296.382812 C 271.789062 304.660156 268.503906 312.59375 262.652344 318.445312 C 256.800781 324.296875 248.863281 327.585938 240.589844 327.585938 L 94.984375 327.585938 C 86.707031 327.585938 78.769531 324.296875 72.921875 318.445312 C 67.070312 312.59375 63.78125 304.660156 63.78125 296.382812 L 63.78125 98.777344 C 63.78125 96.019531 64.878906 93.371094 66.828125 91.421875 C 68.777344 89.472656 71.421875 88.375 74.183594 88.375 Z M 74.183594 88.375 " fill-opacity="1" fill-rule="nonzero"/></g><path fill="#f5df99" d="M 105.359375 65.359375 L 283.546875 65.359375 C 286.171875 65.359375 288.691406 66.402344 290.546875 68.257812 C 292.402344 70.117188 293.445312 72.632812 293.445312 75.257812 L 293.445312 263.347656 C 293.445312 271.222656 290.316406 278.777344 284.746094 284.347656 C 279.175781 289.917969 271.625 293.042969 263.746094 293.042969 L 125.15625 293.042969 C 117.28125 293.042969 109.726562 289.917969 104.15625 284.347656 C 98.585938 278.777344 95.457031 271.222656 95.457031 263.347656 L 95.457031 75.257812 C 95.457031 72.632812 96.5 70.117188 98.359375 68.257812 C 100.214844 66.402344 102.730469 65.359375 105.359375 65.359375 Z M 105.359375 65.359375 " fill-opacity="1" fill-rule="nonzero"/><g clip-path="url(#3577da79ea)"><path stroke-linecap="round" transform="matrix(6.555639, 0, 0, 6.555639, 63.781296, 58.804403)" fill="none" stroke-linejoin="round" d="M 6.342338 0.999898 L 33.523134 0.999898 C 33.923553 0.999898 34.307883 1.158993 34.590917 1.442027 C 34.873951 1.725657 35.033046 2.109391 35.033046 2.50981 L 35.033046 31.201114 C 35.033046 32.40237 34.555761 33.554765 33.706063 34.404463 C 32.856366 35.254161 31.704566 35.73085 30.502715 35.73085 L 9.362161 35.73085 C 8.160905 35.73085 7.00851 35.254161 6.158812 34.404463 C 5.309115 33.554765 4.83183 32.40237 4.83183 31.201114 L 4.83183 2.50981 C 4.83183 2.109391 4.990925 1.725657 5.274555 1.442027 C 5.557589 1.158993 5.941323 0.999898 6.342338 0.999898 Z M 6.342338 0.999898 " stroke="#13322e" stroke-width="2" stroke-opacity="1" stroke-miterlimit="4"/></g><path stroke-linecap="round" transform="matrix(6.555639, 0, 0, 6.555639, 63.781296, 58.804403)" fill="none" stroke-linejoin="round" d="M 10.937618 10.572406 L 28.930237 10.572406 " stroke="#13322e" stroke-width="2" stroke-opacity="1" stroke-miterlimit="4"/><path stroke-linecap="round" transform="matrix(6.555639, 0, 0, 6.555639, 63.781296, 58.804403)" fill="none" stroke-linejoin="round" d="M 10.937618 15.858289 L 28.930237 15.858289 " stroke="#13322e" stroke-width="2" stroke-opacity="1" stroke-miterlimit="4"/><path stroke-linecap="round" transform="matrix(6.555639, 0, 0, 6.555639, 63.781296, 58.804403)" fill="none" stroke-linejoin="round" d="M 10.937618 21.144768 L 28.930237 21.144768 " stroke="#13322e" stroke-width="2" stroke-opacity="1" stroke-miterlimit="4"/><path fill="#00a087" d="M 303.1875 92.257812 C 308.308594 87.136719 316.609375 87.136719 321.730469 92.257812 L 348.316406 118.84375 C 353.4375 123.964844 353.4375 132.265625 348.316406 137.386719 L 230.363281 255.339844 C 228.371094 257.332031 225.792969 258.628906 223.007812 259.039062 L 184.730469 264.6875 C 180.476562 265.3125 176.785156 261.746094 177.257812 257.476562 L 181.660156 217.847656 C 181.988281 214.890625 183.316406 212.132812 185.421875 210.023438 Z M 303.1875 92.257812 " fill-opacity="1" fill-rule="nonzero"/></svg>