<svg xmlns="http://www.w3.org/2000/svg" xmlns:xlink="http://www.w3.org/1999/xlink" width="500" zoomAndPan="magnify" viewBox="0 0 375 374.999991" height="500" preserveAspectRatio="xMidYMid meet" version="1.0"><defs><filter x="0%" y="0%" width="100%" height="100%" id="61e8997464"><feColorMatrix values="0 0 0 0 1 0 0 0 0 1 0 0 0 0 1 0 0 0 1 0" color-interpolation-filters="sRGB"/></filter><mask id="acc4a1d3a8"><g filter="url(#61e8997464)"><rect x="-37.5" width="450" fill="#000000" y="-37.499999" height="449.999989" fill-opacity="0.2"/></g></mask><clipPath id="616398825f"><path d="M 0 0 L 375 0 L 375 375 L 0 375 Z M 0 0 " clip-rule="nonzero"/></clipPath><clipPath id="b6bd5a0e71"><rect x="0" width="375" y="0" height="375"/></clipPath><mask id="e6d17347db"><g filter="url(#61e8997464)"><rect x="-37.5" width="450" fill="#000000" y="-37.499999" height="449.999989" fill-opacity="0.2"/></g></mask><clipPath id="023f095a73"><path d="M 0 0 L 375 0 L 375 375 L 0 375 Z M 0 0 " clip-rule="nonzero"/></clipPath><clipPath id="73c7ea98f4"><rect x="0" width="375" y="0" height="375"/></clipPath></defs><g mask="url(#acc4a1d3a8)"><g transform="matrix(1, 0, 0, 1, 0, 0)"><g clip-path="url(#b6bd5a0e71)"><g clip-path="url(#616398825f)"><path fill="#fefefe" d="M 466.242188 189.285156 C 466.242188 193.710938 466.132812 198.136719 465.917969 202.554688 C 465.699219 206.976562 465.375 211.390625 464.941406 215.796875 C 464.503906 220.203125 463.964844 224.59375 463.3125 228.972656 C 462.664062 233.351562 461.90625 237.710938 461.042969 242.054688 C 460.179688 246.394531 459.210938 250.714844 458.136719 255.007812 C 457.058594 259.300781 455.878906 263.566406 454.59375 267.804688 C 453.308594 272.039062 451.921875 276.242188 450.429688 280.410156 C 448.9375 284.578125 447.347656 288.707031 445.652344 292.796875 C 443.957031 296.886719 442.164062 300.933594 440.273438 304.933594 C 438.378906 308.9375 436.390625 312.890625 434.300781 316.792969 C 432.214844 320.695312 430.035156 324.546875 427.757812 328.34375 C 425.484375 332.140625 423.113281 335.878906 420.65625 339.5625 C 418.195312 343.242188 415.648438 346.859375 413.011719 350.414062 C 410.375 353.972656 407.652344 357.460938 404.84375 360.882812 C 402.035156 364.304688 399.144531 367.65625 396.171875 370.933594 C 393.199219 374.214844 390.148438 377.421875 387.015625 380.550781 C 383.886719 383.679688 380.679688 386.730469 377.402344 389.707031 C 374.121094 392.679688 370.769531 395.570312 367.347656 398.378906 C 363.925781 401.183594 360.4375 403.90625 356.882812 406.546875 C 353.328125 409.183594 349.707031 411.730469 346.027344 414.191406 C 342.347656 416.648438 338.609375 419.015625 334.8125 421.292969 C 331.011719 423.570312 327.164062 425.75 323.257812 427.835938 C 319.355469 429.921875 315.402344 431.914062 311.398438 433.804688 C 307.398438 435.699219 303.351562 437.492188 299.261719 439.1875 C 295.171875 440.878906 291.042969 442.472656 286.875 443.964844 C 282.707031 445.457031 278.503906 446.84375 274.269531 448.128906 C 270.035156 449.414062 265.769531 450.59375 261.472656 451.667969 C 257.179688 452.746094 252.863281 453.714844 248.519531 454.578125 C 244.179688 455.441406 239.816406 456.199219 235.4375 456.847656 C 231.058594 457.496094 226.667969 458.039062 222.261719 458.472656 C 217.855469 458.90625 213.445312 459.234375 209.023438 459.449219 C 204.601562 459.667969 200.175781 459.777344 195.75 459.777344 C 191.324219 459.777344 186.898438 459.667969 182.476562 459.449219 C 178.054688 459.234375 173.640625 458.90625 169.238281 458.472656 C 164.832031 458.039062 160.4375 457.496094 156.058594 456.847656 C 151.679688 456.199219 147.320312 455.441406 142.980469 454.578125 C 138.636719 453.714844 134.320312 452.746094 130.027344 451.667969 C 125.730469 450.59375 121.464844 449.414062 117.230469 448.128906 C 112.992188 446.84375 108.792969 445.457031 104.625 443.964844 C 100.457031 442.472656 96.328125 440.878906 92.238281 439.1875 C 88.148438 437.492188 84.101562 435.699219 80.097656 433.804688 C 76.097656 431.914062 72.144531 429.921875 68.242188 427.835938 C 64.335938 425.75 60.484375 423.570312 56.6875 421.292969 C 52.890625 419.015625 49.152344 416.648438 45.472656 414.191406 C 41.792969 411.730469 38.171875 409.183594 34.617188 406.546875 C 31.0625 403.90625 27.574219 401.183594 24.152344 398.378906 C 20.730469 395.570312 17.378906 392.679688 14.097656 389.707031 C 10.820312 386.730469 7.613281 383.679688 4.484375 380.550781 C 1.351562 377.421875 -1.699219 374.214844 -4.671875 370.933594 C -7.644531 367.65625 -10.535156 364.304688 -13.34375 360.882812 C -16.152344 357.460938 -18.875 353.972656 -21.511719 350.414062 C -24.148438 346.859375 -26.695312 343.242188 -29.15625 339.5625 C -31.617188 335.878906 -33.984375 332.140625 -36.257812 328.34375 C -38.535156 324.546875 -40.714844 320.695312 -42.804688 316.792969 C -44.890625 312.890625 -46.878906 308.9375 -48.773438 304.933594 C -50.664062 300.933594 -52.457031 296.886719 -54.152344 292.796875 C -55.847656 288.707031 -57.4375 284.578125 -58.929688 280.410156 C -60.421875 276.242188 -61.808594 272.039062 -63.09375 267.804688 C -64.378906 263.566406 -65.558594 259.300781 -66.636719 255.007812 C -67.710938 250.714844 -68.679688 246.394531 -69.542969 242.054688 C -70.410156 237.710938 -71.164062 233.351562 -71.816406 228.972656 C -72.464844 224.59375 -73.007812 220.203125 -73.441406 215.796875 C -73.875 211.390625 -74.199219 206.976562 -74.417969 202.554688 C -74.632812 198.136719 -74.742188 193.710938 -74.742188 189.285156 C -74.742188 184.855469 -74.632812 180.433594 -74.417969 176.011719 C -74.199219 171.589844 -73.875 167.175781 -73.441406 162.769531 C -73.007812 158.367188 -72.464844 153.972656 -71.816406 149.59375 C -71.164062 145.214844 -70.410156 140.855469 -69.542969 136.511719 C -68.679688 132.171875 -67.710938 127.855469 -66.636719 123.558594 C -65.558594 119.265625 -64.378906 115 -63.09375 110.765625 C -61.808594 106.527344 -60.421875 102.324219 -58.929688 98.15625 C -57.4375 93.988281 -55.847656 89.859375 -54.152344 85.769531 C -52.457031 81.679688 -50.664062 77.636719 -48.773438 73.632812 C -46.878906 69.632812 -44.890625 65.679688 -42.804688 61.773438 C -40.714844 57.871094 -38.535156 54.019531 -36.257812 50.222656 C -33.984375 46.425781 -31.617188 42.6875 -29.15625 39.007812 C -26.695312 35.324219 -24.148438 31.707031 -21.511719 28.152344 C -18.875 24.597656 -16.152344 21.105469 -13.34375 17.683594 C -10.535156 14.261719 -7.644531 10.914062 -4.671875 7.632812 C -1.699219 4.351562 1.351562 1.148438 4.484375 -1.984375 C 7.613281 -5.113281 10.820312 -8.164062 14.097656 -11.136719 C 17.378906 -14.109375 20.730469 -17 24.152344 -19.808594 C 27.574219 -22.617188 31.0625 -25.339844 34.617188 -27.976562 C 38.171875 -30.613281 41.792969 -33.164062 45.472656 -35.621094 C 49.152344 -38.082031 52.890625 -40.449219 56.6875 -42.726562 C 60.484375 -45 64.335938 -47.183594 68.242188 -49.269531 C 72.144531 -51.355469 76.097656 -53.34375 80.097656 -55.238281 C 84.101562 -57.132812 88.148438 -58.925781 92.238281 -60.617188 C 96.328125 -62.3125 100.457031 -63.90625 104.625 -65.394531 C 108.792969 -66.886719 112.992188 -68.277344 117.230469 -69.5625 C 121.464844 -70.847656 125.730469 -72.027344 130.027344 -73.101562 C 134.320312 -74.175781 138.636719 -75.148438 142.980469 -76.011719 C 147.320312 -76.875 151.679688 -77.632812 156.058594 -78.28125 C 160.4375 -78.929688 164.832031 -79.472656 169.238281 -79.90625 C 173.640625 -80.339844 178.054688 -80.664062 182.476562 -80.882812 C 186.898438 -81.101562 191.324219 -81.207031 195.75 -81.207031 C 200.175781 -81.207031 204.601562 -81.101562 209.023438 -80.882812 C 213.445312 -80.664062 217.855469 -80.339844 222.261719 -79.90625 C 226.667969 -79.472656 231.058594 -78.929688 235.4375 -78.28125 C 239.816406 -77.632812 244.179688 -76.875 248.519531 -76.011719 C 252.863281 -75.148438 257.179688 -74.175781 261.472656 -73.101562 C 265.769531 -72.027344 270.035156 -70.847656 274.269531 -69.5625 C 278.503906 -68.277344 282.707031 -66.886719 286.875 -65.394531 C 291.042969 -63.90625 295.171875 -62.3125 299.261719 -60.617188 C 303.351562 -58.925781 307.398438 -57.132812 311.398438 -55.238281 C 315.402344 -53.34375 319.355469 -51.355469 323.257812 -49.269531 C 327.164062 -47.183594 331.011719 -45 334.8125 -42.726562 C 338.609375 -40.449219 342.347656 -38.082031 346.027344 -35.621094 C 349.707031 -33.164062 353.328125 -30.613281 356.882812 -27.976562 C 360.4375 -25.339844 363.925781 -22.617188 367.347656 -19.808594 C 370.769531 -17 374.121094 -14.109375 377.402344 -11.136719 C 380.679688 -8.164062 383.886719 -5.113281 387.015625 -1.984375 C 390.148438 1.148438 393.199219 4.351562 396.171875 7.632812 C 399.144531 10.914062 402.035156 14.261719 404.84375 17.683594 C 407.652344 21.105469 410.375 24.597656 413.011719 28.152344 C 415.648438 31.707031 418.195312 35.324219 420.65625 39.007812 C 423.113281 42.6875 425.484375 46.425781 427.757812 50.222656 C 430.035156 54.019531 432.214844 57.871094 434.300781 61.773438 C 436.390625 65.679688 438.378906 69.632812 440.273438 73.632812 C 442.164062 77.636719 443.957031 81.679688 445.652344 85.769531 C 447.347656 89.859375 448.9375 93.988281 450.429688 98.15625 C 451.921875 102.324219 453.308594 106.527344 454.59375 110.765625 C 455.878906 115 457.058594 119.265625 458.136719 123.558594 C 459.210938 127.855469 460.179688 132.171875 461.042969 136.511719 C 461.90625 140.855469 462.664062 145.214844 463.3125 149.59375 C 463.964844 153.972656 464.503906 158.367188 464.941406 162.769531 C 465.375 167.175781 465.699219 171.589844 465.917969 176.011719 C 466.132812 180.433594 466.242188 184.855469 466.242188 189.285156 Z M 466.242188 189.285156 " fill-opacity="1" fill-rule="nonzero"/></g></g></g></g><path fill="#000000" d="M 195.175781 217.910156 C 156.292969 217.910156 123.484375 224.265625 123.484375 248.785156 C 123.484375 273.316406 156.503906 279.449219 195.175781 279.449219 C 234.058594 279.449219 266.867188 273.09375 266.867188 248.574219 C 266.867188 224.039062 233.847656 217.910156 195.175781 217.910156 Z M 195.175781 217.910156 " fill-opacity="1" fill-rule="nonzero"/><path fill="#000000" d="M 195.175781 194.546875 C 221.503906 194.546875 242.617188 173.3125 242.617188 146.832031 C 242.617188 120.34375 221.503906 99.121094 195.175781 99.121094 C 168.847656 99.121094 147.734375 120.34375 147.734375 146.832031 C 147.734375 173.3125 168.847656 194.546875 195.175781 194.546875 Z M 195.175781 194.546875 " fill-opacity="1" fill-rule="nonzero"/><path fill="#000000" d="M 298.175781 157.945312 C 304.988281 131.148438 285.015625 107.082031 259.585938 107.082031 C 256.820312 107.082031 254.175781 107.386719 251.59375 107.90625 C 251.25 107.988281 250.867188 108.160156 250.664062 108.464844 C 250.433594 108.847656 250.605469 109.367188 250.855469 109.703125 C 258.496094 120.480469 262.886719 133.605469 262.886719 147.691406 C 262.886719 161.191406 258.859375 173.777344 251.792969 184.222656 C 251.066406 185.296875 251.714844 186.75 252.996094 186.972656 C 254.773438 187.285156 256.589844 187.449219 258.445312 187.5 C 276.964844 187.988281 293.585938 176 298.175781 157.945312 Z M 298.175781 157.945312 " fill-opacity="1" fill-rule="nonzero"/><path fill="#000000" d="M 317.574219 221.03125 C 314.183594 213.765625 306 208.78125 293.558594 206.335938 C 287.683594 204.894531 271.789062 202.863281 257.003906 203.136719 C 256.785156 203.167969 256.664062 203.320312 256.640625 203.421875 C 256.613281 203.5625 256.671875 203.808594 256.964844 203.960938 C 263.796875 207.359375 290.207031 222.148438 286.886719 253.339844 C 286.746094 254.6875 287.824219 255.855469 289.167969 255.652344 C 295.667969 254.71875 312.390625 251.105469 317.574219 239.851562 C 320.441406 233.902344 320.441406 226.988281 317.574219 221.03125 Z M 317.574219 221.03125 " fill-opacity="1" fill-rule="nonzero"/><path fill="#000000" d="M 139.902344 107.90625 C 137.328125 107.378906 134.675781 107.085938 131.910156 107.085938 C 106.480469 107.085938 86.507812 131.148438 93.328125 157.945312 C 97.910156 176.003906 114.53125 187.988281 133.050781 187.5 C 134.90625 187.449219 136.734375 187.277344 138.5 186.972656 C 139.78125 186.75 140.425781 185.296875 139.699219 184.222656 C 132.636719 173.769531 128.609375 161.191406 128.609375 147.695312 C 128.609375 133.597656 133.011719 120.472656 140.648438 109.703125 C 140.890625 109.367188 141.074219 108.851562 140.832031 108.464844 C 140.628906 108.152344 140.253906 107.988281 139.902344 107.90625 Z M 139.902344 107.90625 " fill-opacity="1" fill-rule="nonzero"/><path fill="#000000" d="M 97.941406 206.332031 C 85.496094 208.777344 77.324219 213.761719 73.933594 221.027344 C 71.054688 226.988281 71.054688 233.898438 73.933594 239.855469 C 79.117188 251.101562 95.839844 254.726562 102.339844 255.648438 C 103.683594 255.851562 104.75 254.695312 104.609375 253.335938 C 101.289062 222.15625 127.699219 207.367188 134.542969 203.96875 C 134.824219 203.804688 134.886719 203.570312 134.855469 203.417969 C 134.835938 203.316406 134.722656 203.164062 134.5 203.144531 C 119.707031 202.859375 103.824219 204.890625 97.941406 206.332031 Z M 97.941406 206.332031 " fill-opacity="1" fill-rule="nonzero"/><g mask="url(#e6d17347db)"><g transform="matrix(1, 0, 0, 1, 0, 0)"><g clip-path="url(#73c7ea98f4)"><g clip-path="url(#023f095a73)"><path fill="#fefefe" d="M 457.992188 188.535156 C 457.992188 192.960938 457.882812 197.386719 457.667969 201.804688 C 457.449219 206.226562 457.125 210.640625 456.691406 215.046875 C 456.253906 219.453125 455.714844 223.84375 455.0625 228.222656 C 454.414062 232.601562 453.65625 236.960938 452.792969 241.304688 C 451.929688 245.644531 450.960938 249.964844 449.886719 254.257812 C 448.808594 258.550781 447.628906 262.816406 446.34375 267.054688 C 445.058594 271.289062 443.671875 275.492188 442.179688 279.660156 C 440.6875 283.828125 439.097656 287.957031 437.402344 292.046875 C 435.707031 296.136719 433.914062 300.183594 432.023438 304.183594 C 430.128906 308.1875 428.140625 312.140625 426.050781 316.042969 C 423.964844 319.945312 421.785156 323.796875 419.507812 327.59375 C 417.234375 331.390625 414.863281 335.128906 412.40625 338.8125 C 409.945312 342.492188 407.398438 346.109375 404.761719 349.664062 C 402.125 353.222656 399.402344 356.710938 396.59375 360.132812 C 393.785156 363.554688 390.894531 366.90625 387.921875 370.183594 C 384.949219 373.464844 381.898438 376.671875 378.765625 379.800781 C 375.636719 382.929688 372.429688 385.980469 369.152344 388.957031 C 365.871094 391.929688 362.519531 394.820312 359.097656 397.628906 C 355.675781 400.433594 352.1875 403.15625 348.632812 405.796875 C 345.078125 408.433594 341.457031 410.980469 337.777344 413.441406 C 334.097656 415.898438 330.359375 418.265625 326.5625 420.542969 C 322.761719 422.820312 318.914062 425 315.007812 427.085938 C 311.105469 429.171875 307.152344 431.164062 303.148438 433.054688 C 299.148438 434.949219 295.101562 436.742188 291.011719 438.4375 C 286.921875 440.128906 282.792969 441.722656 278.625 443.214844 C 274.457031 444.707031 270.253906 446.09375 266.019531 447.378906 C 261.785156 448.664062 257.519531 449.84375 253.222656 450.917969 C 248.929688 451.996094 244.613281 452.964844 240.269531 453.828125 C 235.929688 454.691406 231.566406 455.449219 227.1875 456.097656 C 222.808594 456.746094 218.417969 457.289062 214.011719 457.722656 C 209.605469 458.15625 205.195312 458.484375 200.773438 458.699219 C 196.351562 458.917969 191.925781 459.027344 187.5 459.027344 C 183.074219 459.027344 178.648438 458.917969 174.226562 458.699219 C 169.804688 458.484375 165.390625 458.15625 160.988281 457.722656 C 156.582031 457.289062 152.1875 456.746094 147.808594 456.097656 C 143.429688 455.449219 139.070312 454.691406 134.730469 453.828125 C 130.386719 452.964844 126.070312 451.996094 121.777344 450.917969 C 117.480469 449.84375 113.214844 448.664062 108.980469 447.378906 C 104.742188 446.09375 100.542969 444.707031 96.375 443.214844 C 92.207031 441.722656 88.078125 440.128906 83.988281 438.4375 C 79.898438 436.742188 75.851562 434.949219 71.847656 433.054688 C 67.847656 431.164062 63.894531 429.171875 59.992188 427.085938 C 56.085938 425 52.234375 422.820312 48.4375 420.542969 C 44.640625 418.265625 40.902344 415.898438 37.222656 413.441406 C 33.542969 410.980469 29.921875 408.433594 26.367188 405.796875 C 22.8125 403.15625 19.324219 400.433594 15.902344 397.628906 C 12.480469 394.820312 9.128906 391.929688 5.847656 388.957031 C 2.570312 385.980469 -0.636719 382.929688 -3.765625 379.800781 C -6.898438 376.671875 -9.949219 373.464844 -12.921875 370.183594 C -15.894531 366.90625 -18.785156 363.554688 -21.59375 360.132812 C -24.402344 356.710938 -27.125 353.222656 -29.761719 349.664062 C -32.398438 346.109375 -34.945312 342.492188 -37.40625 338.8125 C -39.867188 335.128906 -42.234375 331.390625 -44.507812 327.59375 C -46.785156 323.796875 -48.964844 319.945312 -51.054688 316.042969 C -53.140625 312.140625 -55.128906 308.1875 -57.023438 304.183594 C -58.914062 300.183594 -60.707031 296.136719 -62.402344 292.046875 C -64.097656 287.957031 -65.6875 283.828125 -67.179688 279.660156 C -68.671875 275.492188 -70.058594 271.289062 -71.34375 267.054688 C -72.628906 262.816406 -73.808594 258.550781 -74.886719 254.257812 C -75.960938 249.964844 -76.929688 245.644531 -77.792969 241.304688 C -78.660156 236.960938 -79.414062 232.601562 -80.066406 228.222656 C -80.714844 223.84375 -81.257812 219.453125 -81.691406 215.046875 C -82.125 210.640625 -82.449219 206.226562 -82.667969 201.804688 C -82.882812 197.386719 -82.992188 192.960938 -82.992188 188.535156 C -82.992188 184.105469 -82.882812 179.683594 -82.667969 175.261719 C -82.449219 170.839844 -82.125 166.425781 -81.691406 162.019531 C -81.257812 157.617188 -80.714844 153.222656 -80.066406 148.84375 C -79.414062 144.464844 -78.660156 140.105469 -77.792969 135.761719 C -76.929688 131.421875 -75.960938 127.105469 -74.886719 122.808594 C -73.808594 118.515625 -72.628906 114.25 -71.34375 110.015625 C -70.058594 105.777344 -68.671875 101.574219 -67.179688 97.40625 C -65.6875 93.238281 -64.097656 89.109375 -62.402344 85.019531 C -60.707031 80.929688 -58.914062 76.886719 -57.023438 72.882812 C -55.128906 68.882812 -53.140625 64.929688 -51.054688 61.023438 C -48.964844 57.121094 -46.785156 53.269531 -44.507812 49.472656 C -42.234375 45.675781 -39.867188 41.9375 -37.40625 38.257812 C -34.945312 34.574219 -32.398438 30.957031 -29.761719 27.402344 C -27.125 23.847656 -24.402344 20.355469 -21.59375 16.933594 C -18.785156 13.511719 -15.894531 10.164062 -12.921875 6.882812 C -9.949219 3.601562 -6.898438 0.398438 -3.765625 -2.734375 C -0.636719 -5.863281 2.570312 -8.914062 5.847656 -11.886719 C 9.128906 -14.859375 12.480469 -17.75 15.902344 -20.558594 C 19.324219 -23.367188 22.8125 -26.089844 26.367188 -28.726562 C 29.921875 -31.363281 33.542969 -33.914062 37.222656 -36.371094 C 40.902344 -38.832031 44.640625 -41.199219 48.4375 -43.476562 C 52.234375 -45.75 56.085938 -47.933594 59.992188 -50.019531 C 63.894531 -52.105469 67.847656 -54.09375 71.847656 -55.988281 C 75.851562 -57.882812 79.898438 -59.675781 83.988281 -61.367188 C 88.078125 -63.0625 92.207031 -64.65625 96.375 -66.144531 C 100.542969 -67.636719 104.742188 -69.027344 108.980469 -70.3125 C 113.214844 -71.597656 117.480469 -72.777344 121.777344 -73.851562 C 126.070312 -74.925781 130.386719 -75.898438 134.730469 -76.761719 C 139.070312 -77.625 143.429688 -78.382812 147.808594 -79.03125 C 152.1875 -79.679688 156.582031 -80.222656 160.988281 -80.65625 C 165.390625 -81.089844 169.804688 -81.414062 174.226562 -81.632812 C 178.648438 -81.851562 183.074219 -81.957031 187.5 -81.957031 C 191.925781 -81.957031 196.351562 -81.851562 200.773438 -81.632812 C 205.195312 -81.414062 209.605469 -81.089844 214.011719 -80.65625 C 218.417969 -80.222656 222.808594 -79.679688 227.1875 -79.03125 C 231.566406 -78.382812 235.929688 -77.625 240.269531 -76.761719 C 244.613281 -75.898438 248.929688 -74.925781 253.222656 -73.851562 C 257.519531 -72.777344 261.785156 -71.597656 266.019531 -70.3125 C 270.253906 -69.027344 274.457031 -67.636719 278.625 -66.144531 C 282.792969 -64.65625 286.921875 -63.0625 291.011719 -61.367188 C 295.101562 -59.675781 299.148438 -57.882812 303.148438 -55.988281 C 307.152344 -54.09375 311.105469 -52.105469 315.007812 -50.019531 C 318.914062 -47.933594 322.761719 -45.75 326.5625 -43.476562 C 330.359375 -41.199219 334.097656 -38.832031 337.777344 -36.371094 C 341.457031 -33.914062 345.078125 -31.363281 348.632812 -28.726562 C 352.1875 -26.089844 355.675781 -23.367188 359.097656 -20.558594 C 362.519531 -17.75 365.871094 -14.859375 369.152344 -11.886719 C 372.429688 -8.914062 375.636719 -5.863281 378.765625 -2.734375 C 381.898438 0.398438 384.949219 3.601562 387.921875 6.882812 C 390.894531 10.164062 393.785156 13.511719 396.59375 16.933594 C 399.402344 20.355469 402.125 23.847656 404.761719 27.402344 C 407.398438 30.957031 409.945312 34.574219 412.40625 38.257812 C 414.863281 41.9375 417.234375 45.675781 419.507812 49.472656 C 421.785156 53.269531 423.964844 57.121094 426.050781 61.023438 C 428.140625 64.929688 430.128906 68.882812 432.023438 72.882812 C 433.914062 76.886719 435.707031 80.929688 437.402344 85.019531 C 439.097656 89.109375 440.6875 93.238281 442.179688 97.40625 C 443.671875 101.574219 445.058594 105.777344 446.34375 110.015625 C 447.628906 114.25 448.808594 118.515625 449.886719 122.808594 C 450.960938 127.105469 451.929688 131.421875 452.792969 135.761719 C 453.65625 140.105469 454.414062 144.464844 455.0625 148.84375 C 455.714844 153.222656 456.253906 157.617188 456.691406 162.019531 C 457.125 166.425781 457.449219 170.839844 457.667969 175.261719 C 457.882812 179.683594 457.992188 184.105469 457.992188 188.535156 Z M 457.992188 188.535156 " fill-opacity="1" fill-rule="nonzero"/></g></g></g></g><path fill="#f5df99" d="M 186.925781 217.160156 C 148.042969 217.160156 115.234375 223.515625 115.234375 248.035156 C 115.234375 272.566406 148.253906 278.699219 186.925781 278.699219 C 225.808594 278.699219 258.617188 272.34375 258.617188 247.824219 C 258.617188 223.289062 225.597656 217.160156 186.925781 217.160156 Z M 186.925781 217.160156 " fill-opacity="1" fill-rule="nonzero"/><path fill="#00a087" d="M 186.925781 193.796875 C 213.253906 193.796875 234.367188 172.5625 234.367188 146.082031 C 234.367188 119.59375 213.253906 98.371094 186.925781 98.371094 C 160.597656 98.371094 139.484375 119.59375 139.484375 146.082031 C 139.484375 172.5625 160.597656 193.796875 186.925781 193.796875 Z M 186.925781 193.796875 " fill-opacity="1" fill-rule="nonzero"/><path fill="#00a087" d="M 289.925781 157.195312 C 296.738281 130.398438 276.765625 106.332031 251.335938 106.332031 C 248.570312 106.332031 245.925781 106.636719 243.34375 107.15625 C 243 107.238281 242.617188 107.410156 242.414062 107.714844 C 242.183594 108.097656 242.355469 108.617188 242.605469 108.953125 C 250.246094 119.730469 254.636719 132.855469 254.636719 146.941406 C 254.636719 160.441406 250.609375 173.027344 243.542969 183.472656 C 242.816406 184.546875 243.464844 186 244.746094 186.222656 C 246.523438 186.535156 248.339844 186.699219 250.195312 186.75 C 268.714844 187.238281 285.335938 175.25 289.925781 157.195312 Z M 289.925781 157.195312 " fill-opacity="1" fill-rule="nonzero"/><path fill="#f5df99" d="M 309.324219 220.28125 C 305.933594 213.015625 297.75 208.03125 285.308594 205.585938 C 279.433594 204.144531 263.539062 202.113281 248.753906 202.386719 C 248.535156 202.417969 248.414062 202.570312 248.390625 202.671875 C 248.363281 202.8125 248.421875 203.058594 248.714844 203.210938 C 255.546875 206.609375 281.957031 221.398438 278.636719 252.589844 C 278.496094 253.9375 279.574219 255.105469 280.917969 254.902344 C 287.417969 253.96875 304.140625 250.355469 309.324219 239.101562 C 312.191406 233.152344 312.191406 226.238281 309.324219 220.28125 Z M 309.324219 220.28125 " fill-opacity="1" fill-rule="nonzero"/><path fill="#00a087" d="M 131.652344 107.15625 C 129.078125 106.628906 126.425781 106.335938 123.660156 106.335938 C 98.230469 106.335938 78.257812 130.398438 85.078125 157.195312 C 89.660156 175.253906 106.28125 187.238281 124.800781 186.75 C 126.65625 186.699219 128.484375 186.527344 130.25 186.222656 C 131.53125 186 132.175781 184.546875 131.449219 183.472656 C 124.386719 173.019531 120.359375 160.441406 120.359375 146.945312 C 120.359375 132.847656 124.761719 119.722656 132.398438 108.953125 C 132.640625 108.617188 132.824219 108.101562 132.582031 107.714844 C 132.378906 107.402344 132.003906 107.238281 131.652344 107.15625 Z M 131.652344 107.15625 " fill-opacity="1" fill-rule="nonzero"/><path fill="#f5df99" d="M 89.691406 205.582031 C 77.246094 208.027344 69.074219 213.011719 65.683594 220.277344 C 62.804688 226.238281 62.804688 233.148438 65.683594 239.105469 C 70.867188 250.351562 87.589844 253.976562 94.089844 254.898438 C 95.433594 255.101562 96.5 253.945312 96.359375 252.585938 C 93.039062 221.40625 119.449219 206.617188 126.292969 203.21875 C 126.574219 203.054688 126.636719 202.820312 126.605469 202.667969 C 126.585938 202.566406 126.472656 202.414062 126.25 202.394531 C 111.457031 202.109375 95.574219 204.140625 89.691406 205.582031 Z M 89.691406 205.582031 " fill-opacity="1" fill-rule="nonzero"/></svg>