<svg xmlns="http://www.w3.org/2000/svg" xmlns:xlink="http://www.w3.org/1999/xlink" width="500" zoomAndPan="magnify" viewBox="0 0 375 374.999991" height="500" preserveAspectRatio="xMidYMid meet" version="1.0"><defs><filter x="0%" y="0%" width="100%" height="100%" id="866092e5cd"><feColorMatrix values="0 0 0 0 1 0 0 0 0 1 0 0 0 0 1 0 0 0 1 0" color-interpolation-filters="sRGB"/></filter><clipPath id="ee290e98fa"><path d="M 8.117188 8.117188 L 366.617188 8.117188 L 366.617188 366.617188 L 8.117188 366.617188 Z M 8.117188 8.117188 " clip-rule="nonzero"/></clipPath><mask id="abf84f161e"><g filter="url(#866092e5cd)"><rect x="-37.5" width="450" fill="#000000" y="-37.499999" height="449.999989" fill-opacity="0.2"/></g></mask><clipPath id="d3a2c7749f"><rect x="0" width="359" y="0" height="359"/></clipPath></defs><g clip-path="url(#ee290e98fa)"><g mask="url(#abf84f161e)"><g transform="matrix(1, 0, 0, 1, 8, 8)"><g clip-path="url(#d3a2c7749f)"><path fill="#30cbb8" d="M 355.796875 177.519531 C 355.796875 180.382812 355.726562 183.246094 355.585938 186.105469 C 355.445312 188.96875 355.234375 191.824219 354.953125 194.671875 C 354.671875 197.523438 354.324219 200.367188 353.902344 203.199219 C 353.480469 206.03125 352.992188 208.851562 352.433594 211.660156 C 351.875 214.472656 351.246094 217.265625 350.550781 220.042969 C 349.855469 222.820312 349.09375 225.582031 348.261719 228.320312 C 347.429688 231.0625 346.53125 233.78125 345.566406 236.476562 C 344.601562 239.171875 343.570312 241.84375 342.476562 244.492188 C 341.378906 247.136719 340.21875 249.753906 338.996094 252.34375 C 337.769531 254.933594 336.484375 257.492188 335.132812 260.015625 C 333.78125 262.542969 332.371094 265.035156 330.898438 267.488281 C 329.425781 269.945312 327.894531 272.367188 326.304688 274.746094 C 324.710938 277.128906 323.0625 279.46875 321.355469 281.769531 C 319.652344 284.070312 317.890625 286.328125 316.074219 288.542969 C 314.253906 290.753906 312.386719 292.921875 310.460938 295.046875 C 308.539062 297.167969 306.5625 299.242188 304.539062 301.265625 C 302.515625 303.292969 300.441406 305.265625 298.316406 307.1875 C 296.195312 309.113281 294.027344 310.984375 291.8125 312.800781 C 289.601562 314.617188 287.34375 316.378906 285.042969 318.085938 C 282.742188 319.789062 280.402344 321.4375 278.019531 323.03125 C 275.636719 324.621094 273.21875 326.152344 270.761719 327.625 C 268.304688 329.097656 265.816406 330.507812 263.289062 331.859375 C 260.761719 333.210938 258.207031 334.496094 255.617188 335.722656 C 253.027344 336.945312 250.410156 338.105469 247.765625 339.203125 C 245.117188 340.296875 242.445312 341.328125 239.75 342.292969 C 237.054688 343.257812 234.335938 344.15625 231.59375 344.988281 C 228.851562 345.820312 226.09375 346.582031 223.316406 347.277344 C 220.535156 347.976562 217.742188 348.601562 214.933594 349.160156 C 212.125 349.71875 209.304688 350.210938 206.472656 350.628906 C 203.636719 351.050781 200.796875 351.402344 197.945312 351.679688 C 195.097656 351.960938 192.242188 352.171875 189.378906 352.3125 C 186.519531 352.453125 183.65625 352.523438 180.792969 352.523438 C 177.929688 352.523438 175.066406 352.453125 172.207031 352.3125 C 169.34375 352.171875 166.488281 351.960938 163.640625 351.679688 C 160.789062 351.402344 157.949219 351.050781 155.113281 350.628906 C 152.28125 350.210938 149.460938 349.71875 146.652344 349.160156 C 143.84375 348.601562 141.046875 347.976562 138.269531 347.277344 C 135.492188 346.582031 132.734375 345.820312 129.992188 344.988281 C 127.25 344.15625 124.53125 343.257812 121.835938 342.292969 C 119.140625 341.328125 116.46875 340.296875 113.820312 339.203125 C 111.175781 338.105469 108.558594 336.945312 105.96875 335.722656 C 103.378906 334.496094 100.824219 333.210938 98.296875 331.859375 C 95.769531 330.507812 93.28125 329.097656 90.824219 327.625 C 88.367188 326.152344 85.945312 324.621094 83.566406 323.03125 C 81.183594 321.4375 78.84375 319.789062 76.542969 318.085938 C 74.242188 316.378906 71.984375 314.617188 69.773438 312.800781 C 67.558594 310.984375 65.390625 309.113281 63.265625 307.1875 C 61.144531 305.265625 59.070312 303.292969 57.046875 301.265625 C 55.019531 299.242188 53.046875 297.167969 51.125 295.046875 C 49.199219 292.921875 47.328125 290.753906 45.511719 288.542969 C 43.695312 286.328125 41.933594 284.070312 40.226562 281.769531 C 38.523438 279.46875 36.875 277.128906 35.28125 274.746094 C 33.691406 272.367188 32.160156 269.945312 30.6875 267.488281 C 29.214844 265.035156 27.804688 262.542969 26.453125 260.015625 C 25.101562 257.492188 23.816406 254.933594 22.589844 252.34375 C 21.367188 249.753906 20.207031 247.136719 19.109375 244.492188 C 18.015625 241.84375 16.984375 239.171875 16.019531 236.476562 C 15.054688 233.78125 14.15625 231.0625 13.324219 228.320312 C 12.492188 225.582031 11.730469 222.820312 11.035156 220.042969 C 10.335938 217.265625 9.710938 214.472656 9.152344 211.660156 C 8.59375 208.851562 8.101562 206.03125 7.683594 203.199219 C 7.261719 200.367188 6.914062 197.523438 6.632812 194.671875 C 6.351562 191.824219 6.140625 188.96875 6 186.105469 C 5.859375 183.246094 5.789062 180.382812 5.789062 177.519531 C 5.789062 174.65625 5.859375 171.792969 6 168.933594 C 6.140625 166.074219 6.351562 163.21875 6.632812 160.367188 C 6.914062 157.515625 7.261719 154.675781 7.683594 151.84375 C 8.101562 149.007812 8.59375 146.1875 9.152344 143.378906 C 9.710938 140.570312 10.335938 137.777344 11.035156 134.996094 C 11.730469 132.21875 12.492188 129.460938 13.324219 126.71875 C 14.15625 123.980469 15.054688 121.261719 16.019531 118.5625 C 16.984375 115.867188 18.015625 113.195312 19.109375 110.550781 C 20.207031 107.902344 21.367188 105.285156 22.589844 102.695312 C 23.816406 100.105469 25.101562 97.550781 26.453125 95.023438 C 27.804688 92.5 29.214844 90.007812 30.6875 87.550781 C 32.160156 85.09375 33.691406 82.675781 35.28125 80.292969 C 36.875 77.910156 38.523438 75.570312 40.226562 73.269531 C 41.933594 70.96875 43.695312 68.714844 45.511719 66.5 C 47.328125 64.285156 49.199219 62.117188 51.125 59.996094 C 53.046875 57.871094 55.019531 55.800781 57.046875 53.773438 C 59.070312 51.75 61.144531 49.773438 63.265625 47.851562 C 65.390625 45.925781 67.558594 44.058594 69.773438 42.242188 C 71.984375 40.421875 74.242188 38.660156 76.542969 36.957031 C 78.84375 35.25 81.183594 33.601562 83.566406 32.011719 C 85.945312 30.417969 88.367188 28.886719 90.824219 27.414062 C 93.28125 25.941406 95.769531 24.53125 98.296875 23.179688 C 100.824219 21.832031 103.378906 20.542969 105.96875 19.320312 C 108.558594 18.09375 111.175781 16.933594 113.820312 15.835938 C 116.46875 14.742188 119.140625 13.710938 121.835938 12.746094 C 124.53125 11.78125 127.25 10.882812 129.992188 10.050781 C 132.734375 9.21875 135.492188 8.457031 138.269531 7.761719 C 141.046875 7.066406 143.84375 6.4375 146.652344 5.878906 C 149.460938 5.320312 152.28125 4.832031 155.113281 4.410156 C 157.949219 3.992188 160.789062 3.640625 163.640625 3.359375 C 166.488281 3.078125 169.34375 2.867188 172.207031 2.726562 C 175.066406 2.585938 177.929688 2.515625 180.792969 2.515625 C 183.65625 2.515625 186.519531 2.585938 189.378906 2.726562 C 192.242188 2.867188 195.097656 3.078125 197.945312 3.359375 C 200.796875 3.640625 203.636719 3.992188 206.472656 4.410156 C 209.304688 4.832031 212.125 5.320312 214.933594 5.878906 C 217.742188 6.4375 220.535156 7.066406 223.316406 7.761719 C 226.09375 8.457031 228.851562 9.21875 231.59375 10.050781 C 234.335938 10.882812 237.054688 11.78125 239.75 12.746094 C 242.445312 13.710938 245.117188 14.742188 247.765625 15.835938 C 250.410156 16.933594 253.027344 18.09375 255.617188 19.320312 C 258.207031 20.542969 260.761719 21.832031 263.289062 23.179688 C 265.816406 24.53125 268.304688 25.941406 270.761719 27.414062 C 273.21875 28.886719 275.636719 30.417969 278.019531 32.011719 C 280.402344 33.601562 282.742188 35.25 285.042969 36.957031 C 287.34375 38.660156 289.601562 40.421875 291.8125 42.242188 C 294.027344 44.058594 296.195312 45.925781 298.316406 47.851562 C 300.441406 49.773438 302.515625 51.75 304.539062 53.773438 C 306.5625 55.800781 308.539062 57.871094 310.460938 59.996094 C 312.386719 62.117188 314.253906 64.285156 316.074219 66.5 C 317.890625 68.714844 319.652344 70.96875 321.355469 73.269531 C 323.0625 75.570312 324.710938 77.910156 326.304688 80.292969 C 327.894531 82.675781 329.425781 85.09375 330.898438 87.550781 C 332.371094 90.007812 333.78125 92.5 335.132812 95.023438 C 336.480469 97.550781 337.769531 100.105469 338.996094 102.695312 C 340.21875 105.285156 341.378906 107.902344 342.476562 110.550781 C 343.570312 113.195312 344.601562 115.867188 345.566406 118.5625 C 346.53125 121.261719 347.429688 123.980469 348.261719 126.71875 C 349.09375 129.460938 349.855469 132.21875 350.550781 134.996094 C 351.246094 137.777344 351.875 140.570312 352.433594 143.378906 C 352.992188 146.1875 353.480469 149.007812 353.902344 151.84375 C 354.324219 154.675781 354.671875 157.515625 354.953125 160.367188 C 355.234375 163.21875 355.445312 166.074219 355.585938 168.933594 C 355.726562 171.792969 355.796875 174.65625 355.796875 177.519531 Z M 355.796875 177.519531 " fill-opacity="1" fill-rule="nonzero"/></g></g></g></g><path fill="#218d7d" d="M 279.375 188.207031 C 279.375 236.410156 240.101562 275.667969 191.871094 275.667969 C 143.644531 275.667969 104.371094 236.410156 104.371094 188.207031 C 104.371094 139.917969 143.644531 100.664062 191.871094 100.664062 C 240.101562 100.664062 279.375 139.917969 279.375 188.207031 Z M 279.375 188.207031 " fill-opacity="1" fill-rule="nonzero"/><path fill="#f5df99" d="M 226.875 188.207031 C 226.875 190.417969 226.179688 192.636719 224.785156 194.414062 C 224.523438 194.765625 223.304688 196.203125 222.351562 197.136719 L 221.828125 197.648438 C 214.519531 205.398438 196.335938 217.050781 187.113281 220.785156 C 187.113281 220.867188 181.628906 223.089844 179.019531 223.164062 L 178.671875 223.164062 C 174.671875 223.164062 170.929688 220.960938 169.015625 217.390625 C 167.972656 215.425781 167.015625 209.726562 166.925781 209.648438 C 166.144531 204.539062 165.621094 196.710938 165.621094 188.121094 C 165.621094 179.113281 166.144531 170.941406 167.101562 165.921875 C 167.101562 165.835938 168.058594 161.242188 168.667969 159.714844 C 169.625 157.511719 171.363281 155.628906 173.539062 154.441406 C 175.28125 153.597656 177.105469 153.164062 179.019531 153.164062 C 181.023438 153.257812 184.761719 154.523438 186.242188 155.121094 C 195.988281 158.863281 214.605469 171.109375 221.742188 178.59375 C 222.957031 179.785156 224.261719 181.242188 224.613281 181.570312 C 226.089844 183.445312 226.875 185.738281 226.875 188.207031 Z M 226.875 188.207031 " fill-opacity="1" fill-rule="nonzero"/></svg>