<svg xmlns="http://www.w3.org/2000/svg" xmlns:xlink="http://www.w3.org/1999/xlink" width="500" zoomAndPan="magnify" viewBox="0 0 375 374.999991" height="500" preserveAspectRatio="xMidYMid meet" version="1.0"><defs><filter x="0%" y="0%" width="100%" height="100%" id="dd25e49aef"><feColorMatrix values="0 0 0 0 1 0 0 0 0 1 0 0 0 0 1 0 0 0 1 0" color-interpolation-filters="sRGB"/></filter><clipPath id="70787447fa"><path d="M 47.132812 47.132812 L 327.632812 47.132812 L 327.632812 327.632812 L 47.132812 327.632812 Z M 47.132812 47.132812 " clip-rule="nonzero"/></clipPath><clipPath id="080d4de9fb"><path d="M 47.132812 47.132812 L 327.632812 47.132812 L 327.632812 327.632812 L 47.132812 327.632812 Z M 47.132812 47.132812 " clip-rule="nonzero"/></clipPath><mask id="7923b5b280"><g filter="url(#dd25e49aef)"><rect x="-37.5" width="450" fill="#000000" y="-37.499999" height="449.999989" fill-opacity="0.4"/></g></mask><clipPath id="e5bb14803f"><rect x="0" width="25" y="0" height="108"/></clipPath><mask id="63d3063cb7"><g filter="url(#dd25e49aef)"><rect x="-37.5" width="450" fill="#000000" y="-37.499999" height="449.999989" fill-opacity="0.4"/></g></mask><clipPath id="db633d6c59"><rect x="0" width="25" y="0" height="65"/></clipPath></defs><path fill="#00a087" d="M 154.445312 66.15625 C 158.203125 57.71875 166.574219 52.28125 175.8125 52.28125 L 290.804688 52.28125 C 296.046875 52.28125 301.132812 54.042969 305.253906 57.28125 L 315.429688 65.273438 C 321.074219 69.707031 324.371094 76.488281 324.371094 83.667969 L 324.371094 299.167969 C 324.371094 312.085938 313.898438 322.5625 300.976562 322.5625 L 80.933594 322.5625 C 73.050781 322.5625 65.695312 318.589844 61.371094 311.996094 L 58.59375 307.757812 C 54.230469 301.101562 53.546875 292.683594 56.789062 285.414062 Z M 154.445312 66.15625 " fill-opacity="1" fill-rule="nonzero"/><g clip-path="url(#70787447fa)"><path stroke-linecap="butt" transform="matrix(3.341936, 0, 0, 3.341936, 47.13303, 47.133026)" fill="none" stroke-linejoin="miter" d="M 32.110813 5.692277 C 33.235255 3.167543 35.740119 1.540492 38.504469 1.540492 L 72.913323 1.540492 C 74.481931 1.540492 76.003785 2.067647 77.236931 3.03663 L 80.281807 5.428115 C 81.970807 6.754769 82.957324 8.783907 82.957324 10.932269 L 82.957324 75.41585 C 82.957324 79.281265 79.823614 82.416144 75.957031 82.416144 L 10.114067 82.416144 C 7.75531 82.416144 5.55435 81.227415 4.260424 79.254382 L 3.429365 77.98617 C 2.123751 75.994435 1.9192 73.475546 2.889353 71.3003 Z M 32.110813 5.692277 " stroke="#063137" stroke-width="2" stroke-opacity="1" stroke-miterlimit="4"/></g><path fill="#ffffff" d="M 75.402344 51.03125 L 289.28125 51.03125 C 290.050781 51.03125 290.8125 51.066406 291.574219 51.140625 C 292.339844 51.21875 293.09375 51.328125 293.847656 51.480469 C 294.597656 51.628906 295.339844 51.816406 296.074219 52.035156 C 296.808594 52.257812 297.527344 52.515625 298.234375 52.808594 C 298.941406 53.105469 299.636719 53.429688 300.3125 53.792969 C 300.988281 54.152344 301.644531 54.546875 302.28125 54.972656 C 302.917969 55.398438 303.53125 55.855469 304.125 56.339844 C 304.714844 56.824219 305.28125 57.339844 305.824219 57.882812 C 306.367188 58.421875 306.878906 58.992188 307.367188 59.582031 C 307.851562 60.175781 308.308594 60.789062 308.734375 61.425781 C 309.160156 62.0625 309.554688 62.71875 309.914062 63.394531 C 310.277344 64.070312 310.601562 64.761719 310.894531 65.472656 C 311.1875 66.179688 311.445312 66.898438 311.667969 67.632812 C 311.890625 68.367188 312.078125 69.109375 312.226562 69.859375 C 312.375 70.609375 312.488281 71.367188 312.5625 72.128906 C 312.640625 72.894531 312.675781 73.65625 312.675781 74.421875 L 312.675781 288.304688 C 312.675781 289.070312 312.640625 289.835938 312.5625 290.597656 C 312.488281 291.359375 312.375 292.117188 312.226562 292.867188 C 312.078125 293.617188 311.890625 294.363281 311.667969 295.09375 C 311.445312 295.828125 311.1875 296.546875 310.894531 297.257812 C 310.601562 297.964844 310.277344 298.65625 309.914062 299.332031 C 309.554688 300.007812 309.160156 300.664062 308.734375 301.300781 C 308.308594 301.9375 307.851562 302.550781 307.367188 303.144531 C 306.878906 303.738281 306.367188 304.304688 305.824219 304.84375 C 305.28125 305.386719 304.714844 305.902344 304.125 306.386719 C 303.53125 306.875 302.917969 307.328125 302.28125 307.753906 C 301.644531 308.179688 300.988281 308.574219 300.3125 308.933594 C 299.636719 309.296875 298.941406 309.625 298.234375 309.917969 C 297.527344 310.210938 296.808594 310.46875 296.074219 310.691406 C 295.339844 310.914062 294.597656 311.097656 293.847656 311.246094 C 293.09375 311.398438 292.339844 311.507812 291.574219 311.585938 C 290.8125 311.660156 290.050781 311.699219 289.28125 311.699219 L 75.402344 311.699219 C 74.636719 311.699219 73.871094 311.660156 73.109375 311.585938 C 72.347656 311.507812 71.589844 311.398438 70.839844 311.246094 C 70.085938 311.097656 69.34375 310.914062 68.613281 310.691406 C 67.878906 310.46875 67.15625 310.210938 66.449219 309.917969 C 65.742188 309.625 65.050781 309.296875 64.375 308.933594 C 63.699219 308.574219 63.042969 308.179688 62.40625 307.753906 C 61.769531 307.328125 61.152344 306.875 60.5625 306.386719 C 59.96875 305.902344 59.402344 305.386719 58.859375 304.84375 C 58.320312 304.304688 57.804688 303.738281 57.320312 303.144531 C 56.832031 302.550781 56.378906 301.9375 55.953125 301.300781 C 55.527344 300.664062 55.132812 300.007812 54.769531 299.332031 C 54.410156 298.65625 54.082031 297.964844 53.789062 297.257812 C 53.496094 296.546875 53.238281 295.828125 53.015625 295.09375 C 52.792969 294.363281 52.609375 293.617188 52.457031 292.867188 C 52.308594 292.117188 52.195312 291.359375 52.121094 290.597656 C 52.046875 289.835938 52.007812 289.070312 52.007812 288.304688 L 52.007812 74.421875 C 52.007812 73.65625 52.046875 72.894531 52.121094 72.128906 C 52.195312 71.367188 52.308594 70.609375 52.457031 69.859375 C 52.609375 69.109375 52.792969 68.367188 53.015625 67.632812 C 53.238281 66.898438 53.496094 66.179688 53.789062 65.472656 C 54.082031 64.761719 54.410156 64.070312 54.769531 63.394531 C 55.132812 62.71875 55.527344 62.0625 55.953125 61.425781 C 56.378906 60.789062 56.832031 60.175781 57.320312 59.582031 C 57.804688 58.992188 58.320312 58.421875 58.859375 57.882812 C 59.402344 57.339844 59.96875 56.824219 60.5625 56.339844 C 61.152344 55.855469 61.769531 55.398438 62.40625 54.972656 C 63.042969 54.546875 63.699219 54.152344 64.375 53.792969 C 65.050781 53.429688 65.742188 53.105469 66.449219 52.808594 C 67.15625 52.515625 67.878906 52.257812 68.613281 52.035156 C 69.34375 51.816406 70.085938 51.628906 70.839844 51.480469 C 71.589844 51.328125 72.347656 51.21875 73.109375 51.140625 C 73.871094 51.066406 74.636719 51.03125 75.402344 51.03125 Z M 75.402344 51.03125 " fill-opacity="1" fill-rule="nonzero"/><g clip-path="url(#080d4de9fb)"><path stroke-linecap="butt" transform="matrix(3.341936, 0, 0, 3.341936, 47.13303, 47.133026)" fill="none" stroke-linejoin="miter" d="M 8.458963 1.166457 L 72.457468 1.166457 C 72.687734 1.166457 72.915661 1.176977 73.143588 1.199185 C 73.372685 1.222562 73.598274 1.25529 73.823864 1.300876 C 74.048285 1.345292 74.270368 1.401397 74.490113 1.466854 C 74.709859 1.533478 74.924929 1.610623 75.136492 1.698287 C 75.348055 1.787121 75.556112 1.884136 75.758325 1.99284 C 75.960537 2.100375 76.156905 2.218429 76.347429 2.345835 C 76.537953 2.473241 76.721464 2.609997 76.89913 2.754936 C 77.075628 2.899874 77.245113 3.054163 77.407584 3.216635 C 77.570055 3.377937 77.723176 3.54859 77.869283 3.725088 C 78.014221 3.902754 78.150978 4.086265 78.278383 4.276789 C 78.405789 4.467313 78.523844 4.663681 78.631379 4.865894 C 78.740082 5.068106 78.837098 5.274994 78.924762 5.487726 C 79.012427 5.69929 79.089571 5.91436 79.156196 6.134105 C 79.222821 6.353851 79.278926 6.575934 79.323343 6.800355 C 79.367759 7.024775 79.401656 7.251534 79.423865 7.479461 C 79.447242 7.708558 79.457762 7.936485 79.457762 8.165581 L 79.457762 72.165255 C 79.457762 72.394351 79.447242 72.623448 79.423865 72.851375 C 79.401656 73.079303 79.367759 73.306061 79.323343 73.530482 C 79.278926 73.754903 79.222821 73.978155 79.156196 74.196731 C 79.089571 74.416477 79.012427 74.631546 78.924762 74.844279 C 78.837098 75.055842 78.740082 75.26273 78.631379 75.464943 C 78.523844 75.667155 78.405789 75.863523 78.278383 76.054047 C 78.150978 76.244571 78.014221 76.428082 77.869283 76.605748 C 77.723176 76.783415 77.570055 76.952899 77.407584 77.114202 C 77.245113 77.276673 77.075628 77.430962 76.89913 77.575901 C 76.721464 77.722008 76.537953 77.857596 76.347429 77.985001 C 76.156905 78.112407 75.960537 78.230462 75.758325 78.337997 C 75.556112 78.4467 75.348055 78.544884 75.136492 78.632549 C 74.924929 78.720213 74.709859 78.797358 74.490113 78.863983 C 74.270368 78.930608 74.048285 78.985544 73.823864 79.029961 C 73.598274 79.075546 73.372685 79.108274 73.143588 79.131651 C 72.915661 79.15386 72.687734 79.165548 72.457468 79.165548 L 8.458963 79.165548 C 8.229867 79.165548 8.000771 79.15386 7.772843 79.131651 C 7.544916 79.108274 7.318157 79.075546 7.093737 79.029961 C 6.868147 78.985544 6.646064 78.930608 6.427487 78.863983 C 6.207742 78.797358 5.991503 78.720213 5.77994 78.632549 C 5.568376 78.544884 5.361488 78.4467 5.159276 78.337997 C 4.957063 78.230462 4.760695 78.112407 4.570171 77.985001 C 4.379647 77.857596 4.194968 77.722008 4.01847 77.575901 C 3.840804 77.430962 3.671319 77.276673 3.508848 77.114202 C 3.347545 76.952899 3.193256 76.783415 3.048318 76.605748 C 2.90221 76.428082 2.766623 76.244571 2.639217 76.054047 C 2.511812 75.863523 2.393757 75.667155 2.285053 75.464943 C 2.177518 75.26273 2.079334 75.055842 1.99167 74.844279 C 1.904005 74.631546 1.826861 74.416477 1.760236 74.196731 C 1.693611 73.978155 1.638674 73.754903 1.593089 73.530482 C 1.548672 73.306061 1.514775 73.079303 1.492567 72.851375 C 1.470359 72.623448 1.45867 72.394351 1.45867 72.165255 L 1.45867 8.165581 C 1.45867 7.936485 1.470359 7.708558 1.492567 7.479461 C 1.514775 7.251534 1.548672 7.024775 1.593089 6.800355 C 1.638674 6.575934 1.693611 6.353851 1.760236 6.134105 C 1.826861 5.91436 1.904005 5.69929 1.99167 5.487726 C 2.079334 5.274994 2.177518 5.068106 2.285053 4.865894 C 2.393757 4.663681 2.511812 4.467313 2.639217 4.276789 C 2.766623 4.086265 2.90221 3.902754 3.048318 3.725088 C 3.193256 3.54859 3.347545 3.377937 3.508848 3.216635 C 3.671319 3.054163 3.840804 2.899874 4.01847 2.754936 C 4.194968 2.609997 4.379647 2.473241 4.570171 2.345835 C 4.760695 2.218429 4.957063 2.100375 5.159276 1.99284 C 5.361488 1.884136 5.568376 1.787121 5.77994 1.698287 C 5.991503 1.610623 6.207742 1.533478 6.427487 1.466854 C 6.646064 1.401397 6.868147 1.345292 7.093737 1.300876 C 7.318157 1.25529 7.544916 1.222562 7.772843 1.199185 C 8.000771 1.176977 8.229867 1.166457 8.458963 1.166457 Z M 8.458963 1.166457 " stroke="#063137" stroke-width="2" stroke-opacity="1" stroke-miterlimit="4"/></g><path fill="#f5df99" d="M 164.046875 111.503906 C 164.742188 111.503906 165.429688 111.574219 166.109375 111.707031 C 166.789062 111.84375 167.449219 112.042969 168.089844 112.308594 C 168.730469 112.574219 169.339844 112.902344 169.917969 113.285156 C 170.496094 113.671875 171.027344 114.109375 171.519531 114.601562 C 172.011719 115.089844 172.449219 115.625 172.832031 116.203125 C 173.21875 116.777344 173.542969 117.386719 173.808594 118.027344 C 174.074219 118.667969 174.277344 119.332031 174.410156 120.011719 C 174.546875 120.691406 174.613281 121.378906 174.613281 122.074219 L 174.613281 252.769531 C 174.613281 253.460938 174.546875 254.148438 174.410156 254.832031 C 174.277344 255.511719 174.074219 256.171875 173.808594 256.8125 C 173.542969 257.453125 173.21875 258.0625 172.832031 258.640625 C 172.449219 259.214844 172.011719 259.75 171.519531 260.242188 C 171.027344 260.730469 170.496094 261.167969 169.917969 261.554688 C 169.339844 261.941406 168.730469 262.265625 168.089844 262.53125 C 167.449219 262.796875 166.789062 262.996094 166.109375 263.132812 C 165.429688 263.269531 164.742188 263.335938 164.046875 263.335938 C 163.351562 263.335938 162.667969 263.269531 161.984375 263.132812 C 161.304688 262.996094 160.644531 262.796875 160.003906 262.53125 C 159.363281 262.265625 158.753906 261.941406 158.175781 261.554688 C 157.597656 261.167969 157.066406 260.730469 156.574219 260.242188 C 156.085938 259.75 155.648438 259.214844 155.261719 258.640625 C 154.875 258.0625 154.550781 257.453125 154.285156 256.8125 C 154.019531 256.171875 153.820312 255.511719 153.683594 254.832031 C 153.546875 254.148438 153.480469 253.460938 153.480469 252.769531 L 153.480469 122.074219 C 153.480469 121.378906 153.546875 120.691406 153.683594 120.011719 C 153.820312 119.332031 154.019531 118.667969 154.285156 118.027344 C 154.550781 117.386719 154.875 116.777344 155.261719 116.203125 C 155.648438 115.625 156.085938 115.089844 156.574219 114.601562 C 157.066406 114.109375 157.597656 113.671875 158.175781 113.285156 C 158.753906 112.902344 159.363281 112.574219 160.003906 112.308594 C 160.644531 112.042969 161.304688 111.84375 161.984375 111.707031 C 162.667969 111.574219 163.351562 111.503906 164.046875 111.503906 Z M 164.046875 111.503906 " fill-opacity="1" fill-rule="nonzero"/><path fill="#f5df99" d="M 259.789062 146.273438 C 260.484375 146.273438 261.171875 146.34375 261.851562 146.476562 C 262.53125 146.613281 263.191406 146.8125 263.835938 147.078125 C 264.476562 147.34375 265.085938 147.671875 265.660156 148.054688 C 266.238281 148.441406 266.773438 148.878906 267.261719 149.371094 C 267.753906 149.859375 268.191406 150.394531 268.578125 150.972656 C 268.960938 151.546875 269.289062 152.15625 269.554688 152.796875 C 269.820312 153.4375 270.019531 154.101562 270.15625 154.78125 C 270.289062 155.460938 270.359375 156.148438 270.359375 156.84375 L 270.359375 252.769531 C 270.359375 253.460938 270.289062 254.148438 270.15625 254.832031 C 270.019531 255.511719 269.820312 256.171875 269.554688 256.8125 C 269.289062 257.453125 268.960938 258.0625 268.578125 258.640625 C 268.191406 259.214844 267.753906 259.75 267.261719 260.242188 C 266.773438 260.730469 266.238281 261.167969 265.660156 261.554688 C 265.085938 261.941406 264.476562 262.265625 263.835938 262.53125 C 263.191406 262.796875 262.53125 262.996094 261.851562 263.132812 C 261.171875 263.269531 260.484375 263.335938 259.789062 263.335938 C 259.097656 263.335938 258.410156 263.269531 257.730469 263.132812 C 257.046875 262.996094 256.386719 262.796875 255.746094 262.53125 C 255.105469 262.265625 254.496094 261.941406 253.917969 261.554688 C 253.34375 261.167969 252.808594 260.730469 252.316406 260.242188 C 251.828125 259.75 251.390625 259.214844 251.003906 258.640625 C 250.617188 258.0625 250.292969 257.453125 250.027344 256.8125 C 249.761719 256.171875 249.5625 255.511719 249.425781 254.832031 C 249.289062 254.148438 249.222656 253.460938 249.222656 252.769531 L 249.222656 156.84375 C 249.222656 156.148438 249.289062 155.460938 249.425781 154.78125 C 249.5625 154.101562 249.761719 153.4375 250.027344 152.796875 C 250.292969 152.15625 250.617188 151.546875 251.003906 150.972656 C 251.390625 150.394531 251.828125 149.859375 252.316406 149.371094 C 252.808594 148.878906 253.34375 148.441406 253.917969 148.054688 C 254.496094 147.671875 255.105469 147.34375 255.746094 147.078125 C 256.386719 146.8125 257.046875 146.613281 257.730469 146.476562 C 258.410156 146.34375 259.097656 146.273438 259.789062 146.273438 Z M 259.789062 146.273438 " fill-opacity="1" fill-rule="nonzero"/><g mask="url(#7923b5b280)"><g transform="matrix(1, 0, 0, 1, 103, 157)"><g clip-path="url(#e5bb14803f)"><path fill="#00a087" d="M 13.175781 1.292969 C 13.871094 1.292969 14.558594 1.359375 15.238281 1.496094 C 15.917969 1.632812 16.582031 1.832031 17.222656 2.097656 C 17.863281 2.363281 18.472656 2.6875 19.046875 3.074219 C 19.625 3.457031 20.160156 3.898438 20.648438 4.386719 C 21.140625 4.878906 21.578125 5.410156 21.964844 5.988281 C 22.347656 6.566406 22.675781 7.175781 22.941406 7.816406 C 23.207031 8.457031 23.40625 9.117188 23.542969 9.796875 C 23.675781 10.480469 23.746094 11.164062 23.746094 11.859375 L 23.746094 95.769531 C 23.746094 96.460938 23.675781 97.148438 23.542969 97.832031 C 23.40625 98.511719 23.207031 99.171875 22.941406 99.8125 C 22.675781 100.453125 22.347656 101.0625 21.964844 101.640625 C 21.578125 102.214844 21.140625 102.75 20.648438 103.242188 C 20.160156 103.730469 19.625 104.167969 19.046875 104.554688 C 18.472656 104.941406 17.863281 105.265625 17.222656 105.53125 C 16.582031 105.796875 15.917969 105.996094 15.238281 106.132812 C 14.558594 106.269531 13.871094 106.335938 13.175781 106.335938 C 12.484375 106.335938 11.796875 106.269531 11.117188 106.132812 C 10.433594 105.996094 9.773438 105.796875 9.132812 105.53125 C 8.492188 105.265625 7.882812 104.941406 7.304688 104.554688 C 6.730469 104.167969 6.195312 103.730469 5.707031 103.242188 C 5.214844 102.75 4.777344 102.214844 4.390625 101.640625 C 4.003906 101.0625 3.679688 100.453125 3.414062 99.8125 C 3.148438 99.171875 2.949219 98.511719 2.8125 97.832031 C 2.679688 97.148438 2.609375 96.460938 2.609375 95.769531 L 2.609375 11.859375 C 2.609375 11.164062 2.679688 10.480469 2.8125 9.796875 C 2.949219 9.117188 3.148438 8.457031 3.414062 7.816406 C 3.679688 7.175781 4.003906 6.566406 4.390625 5.988281 C 4.777344 5.410156 5.214844 4.878906 5.707031 4.386719 C 6.195312 3.898438 6.730469 3.457031 7.304688 3.074219 C 7.882812 2.6875 8.492188 2.363281 9.132812 2.097656 C 9.773438 1.832031 10.433594 1.632812 11.117188 1.496094 C 11.796875 1.359375 12.484375 1.292969 13.175781 1.292969 Z M 13.175781 1.292969 " fill-opacity="1" fill-rule="nonzero"/></g></g></g><g mask="url(#63d3063cb7)"><g transform="matrix(1, 0, 0, 1, 200, 200)"><g clip-path="url(#db633d6c59)"><path fill="#00a087" d="M 11.921875 2.574219 C 12.613281 2.574219 13.300781 2.640625 13.980469 2.777344 C 14.664062 2.910156 15.324219 3.113281 15.964844 3.378906 C 16.605469 3.644531 17.214844 3.96875 17.792969 4.355469 C 18.367188 4.738281 18.902344 5.175781 19.394531 5.667969 C 19.882812 6.160156 20.320312 6.691406 20.707031 7.269531 C 21.09375 7.847656 21.417969 8.457031 21.683594 9.097656 C 21.949219 9.738281 22.148438 10.398438 22.285156 11.078125 C 22.421875 11.757812 22.488281 12.445312 22.488281 13.140625 L 22.488281 52.769531 C 22.488281 53.460938 22.421875 54.148438 22.285156 54.832031 C 22.148438 55.511719 21.949219 56.171875 21.683594 56.8125 C 21.417969 57.453125 21.09375 58.0625 20.707031 58.640625 C 20.320312 59.214844 19.882812 59.75 19.394531 60.242188 C 18.902344 60.730469 18.367188 61.167969 17.792969 61.554688 C 17.214844 61.941406 16.605469 62.265625 15.964844 62.53125 C 15.324219 62.796875 14.664062 62.996094 13.980469 63.132812 C 13.300781 63.269531 12.613281 63.335938 11.921875 63.335938 C 11.226562 63.335938 10.539062 63.269531 9.859375 63.132812 C 9.179688 62.996094 8.519531 62.796875 7.875 62.53125 C 7.234375 62.265625 6.625 61.941406 6.050781 61.554688 C 5.472656 61.167969 4.9375 60.730469 4.449219 60.242188 C 3.957031 59.75 3.519531 59.214844 3.132812 58.640625 C 2.75 58.0625 2.421875 57.453125 2.15625 56.8125 C 1.890625 56.171875 1.691406 55.511719 1.554688 54.832031 C 1.421875 54.148438 1.351562 53.460938 1.351562 52.769531 L 1.351562 13.140625 C 1.351562 12.445312 1.421875 11.757812 1.554688 11.078125 C 1.691406 10.398438 1.890625 9.738281 2.15625 9.097656 C 2.421875 8.457031 2.75 7.847656 3.132812 7.269531 C 3.519531 6.691406 3.957031 6.160156 4.449219 5.667969 C 4.9375 5.175781 5.472656 4.738281 6.050781 4.355469 C 6.625 3.96875 7.234375 3.644531 7.875 3.378906 C 8.519531 3.113281 9.179688 2.910156 9.859375 2.777344 C 10.539062 2.640625 11.226562 2.574219 11.921875 2.574219 Z M 11.921875 2.574219 " fill-opacity="1" fill-rule="nonzero"/></g></g></g></svg>