<svg xmlns="http://www.w3.org/2000/svg" xmlns:xlink="http://www.w3.org/1999/xlink" width="500" zoomAndPan="magnify" viewBox="0 0 375 374.999991" height="500" preserveAspectRatio="xMidYMid meet" version="1.0"><defs><filter x="0%" y="0%" width="100%" height="100%" id="e0d58f3bdc"><feColorMatrix values="0 0 0 0 1 0 0 0 0 1 0 0 0 0 1 0 0 0 1 0" color-interpolation-filters="sRGB"/></filter><clipPath id="100508eae2"><path d="M 31.207031 31.957031 L 343.792969 31.957031 L 343.792969 344.542969 L 31.207031 344.542969 Z M 31.207031 31.957031 " clip-rule="nonzero"/></clipPath><clipPath id="12fccbef78"><path d="M 187.5 31.957031 C 101.179688 31.957031 31.207031 101.929688 31.207031 188.25 C 31.207031 274.570312 101.179688 344.542969 187.5 344.542969 C 273.820312 344.542969 343.792969 274.570312 343.792969 188.25 C 343.792969 101.929688 273.820312 31.957031 187.5 31.957031 Z M 187.5 31.957031 " clip-rule="nonzero"/></clipPath><mask id="7cba0debb6"><g filter="url(#e0d58f3bdc)"><rect x="-37.5" width="450" fill="#000000" y="-37.499999" height="449.999989" fill-opacity="0.32"/></g></mask><clipPath id="2ec974295f"><path d="M 0.804688 0.804688 L 240.195312 0.804688 L 240.195312 240.195312 L 0.804688 240.195312 Z M 0.804688 0.804688 " clip-rule="nonzero"/></clipPath><clipPath id="60e9937619"><path d="M 120.5 0.804688 C 54.394531 0.804688 0.804688 54.394531 0.804688 120.5 C 0.804688 186.605469 54.394531 240.195312 120.5 240.195312 C 186.605469 240.195312 240.195312 186.605469 240.195312 120.5 C 240.195312 54.394531 186.605469 0.804688 120.5 0.804688 Z M 120.5 0.804688 " clip-rule="nonzero"/></clipPath><clipPath id="71dd102856"><rect x="0" width="241" y="0" height="241"/></clipPath></defs><g clip-path="url(#100508eae2)"><g clip-path="url(#12fccbef78)"><path fill="#d6f5f1" d="M 31.207031 31.957031 L 343.792969 31.957031 L 343.792969 344.542969 L 31.207031 344.542969 Z M 31.207031 31.957031 " fill-opacity="1" fill-rule="nonzero"/></g></g><g mask="url(#7cba0debb6)"><g transform="matrix(1, 0, 0, 1, 67, 67)"><g clip-path="url(#71dd102856)"><g clip-path="url(#2ec974295f)"><g clip-path="url(#60e9937619)"><path fill="#f5df99" d="M 0.804688 0.804688 L 240.195312 0.804688 L 240.195312 240.195312 L 0.804688 240.195312 Z M 0.804688 0.804688 " fill-opacity="1" fill-rule="nonzero"/></g></g></g></g></g><path fill="#00a087" d="M 181.417969 131.105469 C 183.507812 125.460938 191.488281 125.460938 193.578125 131.105469 C 202.332031 154.761719 220.984375 173.414062 244.640625 182.167969 C 250.285156 184.257812 250.285156 192.238281 244.640625 194.328125 C 220.984375 203.082031 202.332031 221.734375 193.578125 245.390625 C 191.488281 251.035156 183.507812 251.035156 181.417969 245.390625 C 172.664062 221.734375 154.011719 203.082031 130.355469 194.328125 C 124.710938 192.238281 124.710938 184.257812 130.355469 182.167969 C 154.011719 173.414062 172.664062 154.761719 181.417969 131.105469 Z M 181.417969 131.105469 " fill-opacity="1" fill-rule="nonzero"/></svg>