<svg xmlns="http://www.w3.org/2000/svg" xmlns:xlink="http://www.w3.org/1999/xlink" width="500" zoomAndPan="magnify" viewBox="0 0 375 374.999991" height="500" preserveAspectRatio="xMidYMid meet" version="1.0"><defs><filter x="0%" y="0%" width="100%" height="100%" id="03733e60bd"><feColorMatrix values="0 0 0 0 1 0 0 0 0 1 0 0 0 0 1 0 0 0 1 0" color-interpolation-filters="sRGB"/></filter><clipPath id="3332178677"><path d="M 25.507812 25.507812 L 349.492188 25.507812 L 349.492188 349.492188 L 25.507812 349.492188 Z M 25.507812 25.507812 " clip-rule="nonzero"/></clipPath><clipPath id="0e7967a144"><path d="M 187.5 25.507812 C 98.035156 25.507812 25.507812 98.035156 25.507812 187.5 C 25.507812 276.964844 98.035156 349.492188 187.5 349.492188 C 276.964844 349.492188 349.492188 276.964844 349.492188 187.5 C 349.492188 98.035156 276.964844 25.507812 187.5 25.507812 Z M 187.5 25.507812 " clip-rule="nonzero"/></clipPath><mask id="e50e7918fb"><g filter="url(#03733e60bd)"><rect x="-37.5" width="450" fill="#000000" y="-37.499999" height="449.999989" fill-opacity="0.93"/></g></mask><clipPath id="1bd32bd056"><path d="M 1.003906 1.003906 L 213.996094 1.003906 L 213.996094 213.996094 L 1.003906 213.996094 Z M 1.003906 1.003906 " clip-rule="nonzero"/></clipPath><clipPath id="711d3414d1"><path d="M 107.5 1.003906 C 48.683594 1.003906 1.003906 48.683594 1.003906 107.5 C 1.003906 166.316406 48.683594 213.996094 107.5 213.996094 C 166.316406 213.996094 213.996094 166.316406 213.996094 107.5 C 213.996094 48.683594 166.316406 1.003906 107.5 1.003906 Z M 107.5 1.003906 " clip-rule="nonzero"/></clipPath><clipPath id="fdd0b1e550"><rect x="0" width="214" y="0" height="214"/></clipPath></defs><g clip-path="url(#3332178677)"><g clip-path="url(#0e7967a144)"><path fill="#d6f5f1" d="M 25.507812 25.507812 L 349.492188 25.507812 L 349.492188 349.492188 L 25.507812 349.492188 Z M 25.507812 25.507812 " fill-opacity="1" fill-rule="nonzero"/></g></g><g mask="url(#e50e7918fb)"><g transform="matrix(1, 0, 0, 1, 80, 80)"><g clip-path="url(#fdd0b1e550)"><g clip-path="url(#1bd32bd056)"><g clip-path="url(#711d3414d1)"><path fill="#00a087" d="M 1.003906 1.003906 L 213.996094 1.003906 L 213.996094 213.996094 L 1.003906 213.996094 Z M 1.003906 1.003906 " fill-opacity="1" fill-rule="nonzero"/></g></g></g></g></g><path fill="#f5df99" d="M 181.417969 131.105469 C 183.507812 125.460938 191.488281 125.460938 193.578125 131.105469 C 202.332031 154.761719 220.984375 173.414062 244.640625 182.167969 C 250.285156 184.257812 250.285156 192.238281 244.640625 194.328125 C 220.984375 203.082031 202.332031 221.734375 193.578125 245.390625 C 191.488281 251.035156 183.507812 251.035156 181.417969 245.390625 C 172.664062 221.734375 154.011719 203.082031 130.355469 194.328125 C 124.710938 192.238281 124.710938 184.257812 130.355469 182.167969 C 154.011719 173.414062 172.664062 154.761719 181.417969 131.105469 Z M 181.417969 131.105469 " fill-opacity="1" fill-rule="nonzero"/></svg>