<svg xmlns="http://www.w3.org/2000/svg" xmlns:xlink="http://www.w3.org/1999/xlink" width="500" zoomAndPan="magnify" viewBox="0 0 375 374.999991" height="500" preserveAspectRatio="xMidYMid meet" version="1.0"><defs><filter x="0%" y="0%" width="100%" height="100%" id="3a7b45b3ce"><feColorMatrix values="0 0 0 0 1 0 0 0 0 1 0 0 0 0 1 0 0 0 1 0" color-interpolation-filters="sRGB"/></filter><clipPath id="4d112387da"><path d="M 17.292969 12.847656 L 357.792969 12.847656 L 357.792969 362.347656 L 17.292969 362.347656 Z M 17.292969 12.847656 " clip-rule="nonzero"/></clipPath><mask id="cb437747b4"><g filter="url(#3a7b45b3ce)"><rect x="-37.5" width="450" fill="#000000" y="-37.499999" height="449.999989" fill-opacity="0.2"/></g></mask><clipPath id="ffe993c023"><path d="M 0.292969 5 L 340.792969 5 L 340.792969 346 L 0.292969 346 Z M 0.292969 5 " clip-rule="nonzero"/></clipPath><clipPath id="7d0a8cf80d"><rect x="0" width="341" y="0" height="351"/></clipPath></defs><g clip-path="url(#4d112387da)"><g mask="url(#cb437747b4)"><g transform="matrix(1, 0, 0, 1, 17, 12)"><g clip-path="url(#7d0a8cf80d)"><g clip-path="url(#ffe993c023)"><path fill="#30cbb8" d="M 340.699219 175.609375 C 340.699219 178.394531 340.628906 181.175781 340.492188 183.960938 C 340.355469 186.742188 340.152344 189.519531 339.878906 192.289062 C 339.605469 195.0625 339.265625 197.828125 338.855469 200.582031 C 338.449219 203.335938 337.972656 206.082031 337.429688 208.8125 C 336.886719 211.546875 336.273438 214.261719 335.597656 216.964844 C 334.921875 219.667969 334.179688 222.351562 333.371094 225.015625 C 332.5625 227.679688 331.6875 230.324219 330.75 232.949219 C 329.8125 235.570312 328.808594 238.167969 327.742188 240.742188 C 326.675781 243.316406 325.546875 245.859375 324.359375 248.378906 C 323.167969 250.898438 321.914062 253.382812 320.601562 255.839844 C 319.289062 258.296875 317.914062 260.722656 316.484375 263.109375 C 315.050781 265.5 313.5625 267.851562 312.015625 270.167969 C 310.46875 272.484375 308.863281 274.761719 307.203125 276.996094 C 305.546875 279.234375 303.832031 281.429688 302.066406 283.582031 C 300.296875 285.738281 298.480469 287.84375 296.609375 289.910156 C 294.738281 291.972656 292.816406 293.988281 290.847656 295.960938 C 288.878906 297.929688 286.859375 299.851562 284.796875 301.71875 C 282.734375 303.589844 280.625 305.410156 278.472656 307.175781 C 276.320312 308.945312 274.125 310.65625 271.886719 312.316406 C 269.648438 313.976562 267.371094 315.578125 265.054688 317.125 C 262.738281 318.675781 260.386719 320.164062 257.996094 321.597656 C 255.609375 323.027344 253.1875 324.402344 250.730469 325.714844 C 248.273438 327.027344 245.785156 328.277344 243.265625 329.46875 C 240.75 330.660156 238.203125 331.789062 235.628906 332.855469 C 233.054688 333.921875 230.457031 334.921875 227.835938 335.863281 C 225.214844 336.800781 222.570312 337.671875 219.902344 338.480469 C 217.238281 339.289062 214.554688 340.035156 211.851562 340.710938 C 209.148438 341.386719 206.433594 341.996094 203.699219 342.539062 C 200.96875 343.085938 198.226562 343.558594 195.46875 343.96875 C 192.714844 344.378906 189.949219 344.71875 187.179688 344.992188 C 184.40625 345.265625 181.628906 345.46875 178.847656 345.605469 C 176.066406 345.742188 173.28125 345.8125 170.496094 345.8125 C 167.710938 345.8125 164.925781 345.742188 162.144531 345.605469 C 159.363281 345.46875 156.585938 345.265625 153.8125 344.992188 C 151.039062 344.71875 148.277344 344.378906 145.523438 343.96875 C 142.765625 343.558594 140.023438 343.085938 137.289062 342.539062 C 134.558594 341.996094 131.84375 341.386719 129.140625 340.710938 C 126.4375 340.035156 123.753906 339.289062 121.089844 338.480469 C 118.421875 337.671875 115.777344 336.800781 113.15625 335.863281 C 110.535156 334.921875 107.933594 333.921875 105.363281 332.855469 C 102.789062 331.789062 100.242188 330.660156 97.726562 329.46875 C 95.207031 328.277344 92.71875 327.027344 90.261719 325.714844 C 87.804688 324.402344 85.382812 323.027344 82.992188 321.597656 C 80.605469 320.164062 78.253906 318.675781 75.9375 317.125 C 73.621094 315.578125 71.34375 313.976562 69.105469 312.316406 C 66.867188 310.65625 64.671875 308.945312 62.519531 307.175781 C 60.367188 305.410156 58.257812 303.589844 56.195312 301.71875 C 54.128906 299.851562 52.113281 297.929688 50.144531 295.960938 C 48.175781 293.988281 46.253906 291.972656 44.382812 289.910156 C 42.511719 287.84375 40.695312 285.738281 38.925781 283.582031 C 37.160156 281.429688 35.445312 279.234375 33.789062 276.996094 C 32.128906 274.761719 30.523438 272.484375 28.976562 270.167969 C 27.429688 267.851562 25.941406 265.5 24.507812 263.109375 C 23.074219 260.722656 21.703125 258.296875 20.390625 255.839844 C 19.078125 253.382812 17.824219 250.898438 16.632812 248.378906 C 15.441406 245.859375 14.316406 243.316406 13.25 240.742188 C 12.183594 238.167969 11.179688 235.570312 10.242188 232.949219 C 9.304688 230.324219 8.429688 227.679688 7.621094 225.015625 C 6.8125 222.351562 6.070312 219.667969 5.394531 216.964844 C 4.714844 214.261719 4.105469 211.546875 3.5625 208.8125 C 3.019531 206.082031 2.542969 203.335938 2.136719 200.582031 C 1.726562 197.828125 1.386719 195.0625 1.113281 192.289062 C 0.839844 189.519531 0.632812 186.742188 0.496094 183.960938 C 0.359375 181.175781 0.292969 178.394531 0.292969 175.609375 C 0.292969 172.824219 0.359375 170.039062 0.496094 167.257812 C 0.632812 164.472656 0.839844 161.699219 1.113281 158.925781 C 1.386719 156.152344 1.726562 153.390625 2.136719 150.632812 C 2.542969 147.878906 3.019531 145.136719 3.5625 142.402344 C 4.105469 139.671875 4.714844 136.953125 5.394531 134.253906 C 6.070312 131.550781 6.8125 128.867188 7.621094 126.199219 C 8.429688 123.535156 9.304688 120.890625 10.242188 118.269531 C 11.179688 115.644531 12.183594 113.046875 13.25 110.472656 C 14.316406 107.902344 15.441406 105.355469 16.632812 102.835938 C 17.824219 100.320312 19.078125 97.832031 20.390625 95.375 C 21.703125 92.917969 23.074219 90.496094 24.507812 88.105469 C 25.941406 85.71875 27.429688 83.363281 28.976562 81.046875 C 30.523438 78.730469 32.128906 76.457031 33.789062 74.21875 C 35.445312 71.980469 37.160156 69.785156 38.925781 67.632812 C 40.695312 65.480469 42.511719 63.371094 44.382812 61.308594 C 46.253906 59.242188 48.175781 57.226562 50.144531 55.257812 C 52.113281 53.285156 54.128906 51.367188 56.195312 49.496094 C 58.257812 47.625 60.367188 45.804688 62.519531 44.039062 C 64.671875 42.273438 66.867188 40.558594 69.105469 38.898438 C 71.34375 37.242188 73.621094 35.636719 75.9375 34.089844 C 78.253906 32.542969 80.605469 31.050781 82.992188 29.621094 C 85.382812 28.1875 87.804688 26.816406 90.261719 25.503906 C 92.71875 24.1875 95.207031 22.9375 97.726562 21.746094 C 100.242188 20.554688 102.789062 19.425781 105.363281 18.359375 C 107.933594 17.296875 110.535156 16.292969 113.15625 15.355469 C 115.777344 14.414062 118.421875 13.542969 121.089844 12.734375 C 123.753906 11.925781 126.4375 11.183594 129.140625 10.503906 C 131.84375 9.828125 134.558594 9.21875 137.289062 8.675781 C 140.023438 8.132812 142.765625 7.65625 145.523438 7.246094 C 148.277344 6.839844 151.039062 6.496094 153.8125 6.222656 C 156.585938 5.953125 159.363281 5.746094 162.144531 5.609375 C 164.925781 5.472656 167.710938 5.40625 170.496094 5.40625 C 173.28125 5.40625 176.066406 5.472656 178.847656 5.609375 C 181.628906 5.746094 184.40625 5.953125 187.179688 6.222656 C 189.949219 6.496094 192.714844 6.839844 195.46875 7.246094 C 198.226562 7.65625 200.96875 8.132812 203.699219 8.675781 C 206.433594 9.21875 209.148438 9.828125 211.851562 10.503906 C 214.554688 11.183594 217.238281 11.925781 219.902344 12.734375 C 222.570312 13.542969 225.214844 14.414062 227.835938 15.355469 C 230.457031 16.292969 233.054688 17.296875 235.628906 18.359375 C 238.203125 19.425781 240.75 20.554688 243.265625 21.746094 C 245.785156 22.9375 248.273438 24.1875 250.730469 25.503906 C 253.1875 26.816406 255.609375 28.1875 257.996094 29.621094 C 260.386719 31.050781 262.738281 32.542969 265.054688 34.089844 C 267.371094 35.636719 269.648438 37.242188 271.886719 38.898438 C 274.125 40.558594 276.320312 42.273438 278.472656 44.039062 C 280.625 45.804688 282.734375 47.625 284.796875 49.496094 C 286.859375 51.367188 288.878906 53.285156 290.847656 55.257812 C 292.816406 57.226562 294.738281 59.242188 296.609375 61.308594 C 298.480469 63.371094 300.296875 65.480469 302.066406 67.632812 C 303.832031 69.785156 305.546875 71.980469 307.203125 74.21875 C 308.863281 76.457031 310.46875 78.730469 312.015625 81.046875 C 313.5625 83.363281 315.050781 85.71875 316.484375 88.105469 C 317.914062 90.496094 319.289062 92.917969 320.601562 95.375 C 321.914062 97.832031 323.167969 100.320312 324.359375 102.835938 C 325.546875 105.355469 326.675781 107.902344 327.742188 110.472656 C 328.808594 113.046875 329.8125 115.644531 330.75 118.269531 C 331.6875 120.890625 332.5625 123.535156 333.371094 126.199219 C 334.179688 128.867188 334.921875 131.550781 335.597656 134.253906 C 336.273438 136.953125 336.886719 139.671875 337.429688 142.402344 C 337.972656 145.136719 338.449219 147.878906 338.855469 150.632812 C 339.265625 153.390625 339.605469 156.152344 339.878906 158.925781 C 340.152344 161.699219 340.355469 164.472656 340.492188 167.257812 C 340.628906 170.039062 340.699219 172.824219 340.699219 175.609375 Z M 340.699219 175.609375 " fill-opacity="1" fill-rule="nonzero"/></g></g></g></g></g><path fill="#00a087" d="M 187.667969 102.394531 C 138.222656 102.394531 102.394531 142.734375 102.394531 187.496094 C 102.394531 201.792969 106.5625 216.515625 113.882812 229.964844 C 115.246094 232.175781 115.414062 234.984375 114.480469 237.621094 L 108.777344 256.683594 C 107.5 261.28125 111.414062 264.683594 115.753906 263.324219 L 132.945312 258.21875 C 137.625 256.683594 141.285156 258.640625 145.632812 261.28125 C 158.058594 268.597656 173.539062 272.34375 187.496094 272.34375 C 229.707031 272.34375 272.597656 239.75 272.597656 187.242188 C 272.597656 141.96875 236.003906 102.394531 187.667969 102.394531 Z M 187.667969 102.394531 " fill-opacity="1" fill-rule="nonzero"/><path fill="#f5df99" d="M 187.328125 198.472656 C 181.289062 198.386719 176.4375 193.535156 176.4375 187.492188 C 176.4375 181.535156 181.371094 176.601562 187.328125 176.6875 C 193.371094 176.6875 198.222656 181.535156 198.222656 187.578125 C 198.222656 193.535156 193.371094 198.472656 187.328125 198.472656 Z M 148.09375 198.472656 C 142.136719 198.472656 137.203125 193.535156 137.203125 187.578125 C 137.203125 181.535156 142.050781 176.6875 148.09375 176.6875 C 154.136719 176.6875 158.988281 181.535156 158.988281 187.578125 C 158.988281 193.535156 154.136719 198.386719 148.09375 198.472656 Z M 215.667969 187.578125 C 215.667969 193.535156 220.519531 198.472656 226.558594 198.472656 C 232.601562 198.472656 237.453125 193.535156 237.453125 187.578125 C 237.453125 181.535156 232.601562 176.6875 226.558594 176.6875 C 220.519531 176.6875 215.667969 181.535156 215.667969 187.578125 Z M 215.667969 187.578125 " fill-opacity="1" fill-rule="evenodd"/></svg>