<svg xmlns="http://www.w3.org/2000/svg" xmlns:xlink="http://www.w3.org/1999/xlink" width="500" zoomAndPan="magnify" viewBox="0 0 375 374.999991" height="500" preserveAspectRatio="xMidYMid meet" version="1.0"><defs><filter x="0%" y="0%" width="100%" height="100%" id="330831b80a"><feColorMatrix values="0 0 0 0 1 0 0 0 0 1 0 0 0 0 1 0 0 0 1 0" color-interpolation-filters="sRGB"/></filter><clipPath id="c62aa146e6"><path d="M 15.90625 15.90625 L 359.40625 15.90625 L 359.40625 359.40625 L 15.90625 359.40625 Z M 15.90625 15.90625 " clip-rule="nonzero"/></clipPath><mask id="1c9cc15394"><g filter="url(#330831b80a)"><rect x="-37.5" width="450" fill="#000000" y="-37.499999" height="449.999989" fill-opacity="0.2"/></g></mask><clipPath id="6b083cc40d"><path d="M 0.90625 0.90625 L 344.28125 0.90625 L 344.28125 344.28125 L 0.90625 344.28125 Z M 0.90625 0.90625 " clip-rule="nonzero"/></clipPath><clipPath id="dfd3df04a8"><rect x="0" width="345" y="0" height="345"/></clipPath></defs><g clip-path="url(#c62aa146e6)"><g mask="url(#1c9cc15394)"><g transform="matrix(1, 0, 0, 1, 15, 15)"><g clip-path="url(#dfd3df04a8)"><g clip-path="url(#6b083cc40d)"><path fill="#30cbb8" d="M 344.089844 172.5 C 344.089844 175.304688 344.019531 178.113281 343.882812 180.917969 C 343.746094 183.722656 343.539062 186.523438 343.265625 189.316406 C 342.988281 192.113281 342.644531 194.898438 342.234375 197.675781 C 341.820312 200.453125 341.339844 203.21875 340.792969 205.972656 C 340.246094 208.726562 339.628906 211.46875 338.949219 214.191406 C 338.265625 216.914062 337.515625 219.621094 336.703125 222.308594 C 335.886719 224.996094 335.003906 227.660156 334.058594 230.304688 C 333.113281 232.949219 332.101562 235.570312 331.027344 238.164062 C 329.953125 240.757812 328.816406 243.324219 327.617188 245.863281 C 326.414062 248.402344 325.152344 250.910156 323.828125 253.386719 C 322.503906 255.863281 321.121094 258.304688 319.675781 260.714844 C 318.234375 263.121094 316.730469 265.496094 315.171875 267.828125 C 313.609375 270.164062 311.996094 272.460938 310.320312 274.714844 C 308.648438 276.972656 306.921875 279.183594 305.140625 281.355469 C 303.359375 283.527344 301.523438 285.652344 299.640625 287.730469 C 297.753906 289.8125 295.816406 291.847656 293.832031 293.832031 C 291.847656 295.816406 289.8125 297.753906 287.730469 299.640625 C 285.652344 301.523438 283.527344 303.359375 281.355469 305.140625 C 279.183594 306.921875 276.972656 308.648438 274.714844 310.320312 C 272.460938 311.996094 270.164062 313.613281 267.828125 315.171875 C 265.496094 316.730469 263.121094 318.234375 260.714844 319.675781 C 258.304688 321.121094 255.863281 322.503906 253.386719 323.828125 C 250.910156 325.152344 248.402344 326.414062 245.863281 327.617188 C 243.324219 328.816406 240.757812 329.953125 238.164062 331.027344 C 235.570312 332.101562 232.949219 333.113281 230.304688 334.058594 C 227.660156 335.003906 224.996094 335.886719 222.308594 336.703125 C 219.621094 337.515625 216.914062 338.265625 214.191406 338.949219 C 211.46875 339.628906 208.726562 340.246094 205.972656 340.792969 C 203.21875 341.339844 200.453125 341.820312 197.675781 342.234375 C 194.898438 342.644531 192.113281 342.988281 189.316406 343.265625 C 186.523438 343.539062 183.722656 343.746094 180.917969 343.882812 C 178.113281 344.019531 175.304688 344.089844 172.5 344.089844 C 169.691406 344.089844 166.882812 344.019531 164.078125 343.882812 C 161.273438 343.746094 158.472656 343.539062 155.679688 343.265625 C 152.882812 342.988281 150.097656 342.644531 147.320312 342.234375 C 144.542969 341.820312 141.777344 341.339844 139.023438 340.792969 C 136.269531 340.246094 133.527344 339.628906 130.804688 338.949219 C 128.082031 338.265625 125.375 337.515625 122.6875 336.703125 C 120 335.886719 117.335938 335.003906 114.691406 334.058594 C 112.046875 333.113281 109.425781 332.101562 106.832031 331.027344 C 104.238281 329.953125 101.671875 328.816406 99.132812 327.617188 C 96.59375 326.414062 94.085938 325.152344 91.609375 323.828125 C 89.132812 322.503906 86.691406 321.121094 84.28125 319.675781 C 81.875 318.234375 79.5 316.730469 77.167969 315.171875 C 74.832031 313.609375 72.535156 311.996094 70.28125 310.320312 C 68.027344 308.648438 65.8125 306.921875 63.640625 305.140625 C 61.472656 303.359375 59.34375 301.523438 57.265625 299.640625 C 55.183594 297.753906 53.148438 295.816406 51.164062 293.832031 C 49.179688 291.847656 47.242188 289.8125 45.355469 287.730469 C 43.472656 285.652344 41.636719 283.527344 39.855469 281.355469 C 38.074219 279.183594 36.347656 276.972656 34.675781 274.714844 C 33 272.460938 31.386719 270.164062 29.824219 267.828125 C 28.265625 265.496094 26.761719 263.121094 25.320312 260.714844 C 23.875 258.304688 22.492188 255.863281 21.167969 253.386719 C 19.84375 250.910156 18.582031 248.402344 17.382812 245.863281 C 16.179688 243.324219 15.042969 240.757812 13.96875 238.164062 C 12.894531 235.570312 11.882812 232.949219 10.9375 230.304688 C 9.992188 227.660156 9.109375 224.996094 8.296875 222.308594 C 7.480469 219.621094 6.730469 216.914062 6.046875 214.191406 C 5.367188 211.46875 4.75 208.726562 4.203125 205.972656 C 3.65625 203.21875 3.175781 200.453125 2.761719 197.675781 C 2.351562 194.898438 2.007812 192.113281 1.734375 189.316406 C 1.457031 186.523438 1.25 183.722656 1.113281 180.917969 C 0.976562 178.113281 0.90625 175.304688 0.90625 172.5 C 0.90625 169.691406 0.976562 166.882812 1.113281 164.078125 C 1.25 161.273438 1.457031 158.472656 1.734375 155.679688 C 2.007812 152.882812 2.351562 150.097656 2.761719 147.320312 C 3.175781 144.542969 3.65625 141.777344 4.203125 139.023438 C 4.75 136.269531 5.367188 133.527344 6.046875 130.804688 C 6.730469 128.082031 7.480469 125.375 8.296875 122.6875 C 9.109375 120 9.992188 117.335938 10.9375 114.691406 C 11.882812 112.046875 12.894531 109.425781 13.96875 106.832031 C 15.042969 104.238281 16.179688 101.671875 17.382812 99.132812 C 18.582031 96.59375 19.84375 94.085938 21.167969 91.609375 C 22.492188 89.132812 23.875 86.691406 25.320312 84.28125 C 26.761719 81.875 28.265625 79.5 29.824219 77.167969 C 31.386719 74.832031 33 72.535156 34.675781 70.28125 C 36.347656 68.027344 38.074219 65.8125 39.855469 63.640625 C 41.636719 61.472656 43.472656 59.34375 45.355469 57.265625 C 47.242188 55.183594 49.179688 53.148438 51.164062 51.164062 C 53.148438 49.179688 55.183594 47.242188 57.265625 45.355469 C 59.34375 43.472656 61.472656 41.636719 63.640625 39.855469 C 65.8125 38.074219 68.027344 36.347656 70.28125 34.675781 C 72.535156 33 74.832031 31.386719 77.167969 29.824219 C 79.5 28.265625 81.875 26.761719 84.28125 25.320312 C 86.691406 23.875 89.132812 22.492188 91.609375 21.167969 C 94.085938 19.84375 96.59375 18.582031 99.132812 17.382812 C 101.671875 16.179688 104.238281 15.042969 106.832031 13.96875 C 109.425781 12.894531 112.046875 11.882812 114.691406 10.9375 C 117.335938 9.992188 120 9.109375 122.6875 8.296875 C 125.375 7.480469 128.082031 6.730469 130.804688 6.046875 C 133.527344 5.367188 136.269531 4.75 139.023438 4.203125 C 141.777344 3.65625 144.542969 3.175781 147.320312 2.761719 C 150.097656 2.351562 152.882812 2.007812 155.679688 1.734375 C 158.472656 1.457031 161.273438 1.25 164.078125 1.113281 C 166.882812 0.976562 169.691406 0.90625 172.5 0.90625 C 175.304688 0.90625 178.113281 0.976562 180.917969 1.113281 C 183.722656 1.25 186.523438 1.457031 189.316406 1.734375 C 192.113281 2.007812 194.898438 2.351562 197.675781 2.761719 C 200.453125 3.175781 203.21875 3.65625 205.972656 4.203125 C 208.726562 4.75 211.46875 5.367188 214.191406 6.046875 C 216.914062 6.730469 219.621094 7.480469 222.308594 8.296875 C 224.996094 9.109375 227.660156 9.992188 230.304688 10.9375 C 232.949219 11.882812 235.570312 12.894531 238.164062 13.96875 C 240.757812 15.042969 243.324219 16.179688 245.863281 17.382812 C 248.402344 18.582031 250.910156 19.84375 253.386719 21.167969 C 255.863281 22.492188 258.304688 23.875 260.714844 25.320312 C 263.121094 26.761719 265.496094 28.265625 267.828125 29.824219 C 270.164062 31.386719 272.460938 33 274.714844 34.675781 C 276.972656 36.347656 279.183594 38.074219 281.355469 39.855469 C 283.527344 41.636719 285.652344 43.472656 287.730469 45.355469 C 289.8125 47.242188 291.847656 49.179688 293.832031 51.164062 C 295.816406 53.148438 297.753906 55.183594 299.640625 57.265625 C 301.523438 59.34375 303.359375 61.472656 305.140625 63.640625 C 306.921875 65.8125 308.648438 68.027344 310.320312 70.28125 C 311.996094 72.535156 313.613281 74.832031 315.171875 77.167969 C 316.730469 79.5 318.234375 81.875 319.675781 84.28125 C 321.121094 86.691406 322.503906 89.132812 323.828125 91.609375 C 325.152344 94.085938 326.414062 96.59375 327.617188 99.132812 C 328.816406 101.671875 329.953125 104.238281 331.027344 106.832031 C 332.101562 109.425781 333.113281 112.046875 334.058594 114.691406 C 335.003906 117.335938 335.886719 120 336.703125 122.6875 C 337.515625 125.375 338.265625 128.082031 338.949219 130.804688 C 339.628906 133.527344 340.246094 136.269531 340.792969 139.023438 C 341.339844 141.777344 341.820312 144.542969 342.234375 147.320312 C 342.644531 150.097656 342.988281 152.882812 343.265625 155.679688 C 343.539062 158.472656 343.746094 161.273438 343.882812 164.078125 C 344.019531 166.882812 344.089844 169.691406 344.089844 172.5 Z M 344.089844 172.5 " fill-opacity="1" fill-rule="nonzero"/></g></g></g></g></g><path fill="#f5df99" d="M 204.789062 139.257812 C 201.382812 138.628906 198.257812 140.800781 197.609375 144.121094 C 196.964844 147.445312 199.140625 150.6875 202.453125 151.339844 C 212.421875 153.28125 220.117188 161 222.070312 171 L 222.070312 171.007812 C 222.625 173.886719 225.160156 175.980469 228.078125 175.980469 C 228.46875 175.980469 228.863281 175.945312 229.261719 175.875 C 232.570312 175.210938 234.75 171.972656 234.101562 168.644531 C 231.191406 153.703125 219.691406 142.164062 204.789062 139.257812 " fill-opacity="1" fill-rule="nonzero"/><path fill="#f5df99" d="M 204.339844 114.363281 C 202.746094 114.132812 201.144531 114.605469 199.871094 115.617188 C 198.558594 116.648438 197.742188 118.132812 197.5625 119.796875 C 197.1875 123.164062 199.613281 126.207031 202.972656 126.585938 C 226.152344 129.171875 244.164062 147.226562 246.773438 170.476562 C 247.121094 173.589844 249.734375 175.941406 252.851562 175.941406 C 253.085938 175.941406 253.316406 175.929688 253.550781 175.898438 C 255.179688 175.71875 256.632812 174.914062 257.660156 173.628906 C 258.675781 172.339844 259.140625 170.742188 258.953125 169.105469 C 255.707031 140.097656 233.257812 117.582031 204.339844 114.363281 " fill-opacity="1" fill-rule="nonzero"/><path fill="#00a087" d="M 180.574219 192.753906 C 209.097656 221.265625 215.566406 188.28125 233.726562 206.425781 C 251.230469 223.929688 261.292969 227.433594 239.113281 249.609375 C 236.335938 251.84375 218.683594 278.707031 156.644531 216.6875 C 94.597656 154.65625 121.445312 136.988281 123.679688 134.207031 C 145.914062 111.972656 149.359375 122.09375 166.867188 139.59375 C 185.027344 157.75 152.054688 164.242188 180.574219 192.753906 Z M 180.574219 192.753906 " fill-opacity="1" fill-rule="evenodd"/></svg>