<svg xmlns="http://www.w3.org/2000/svg" xmlns:xlink="http://www.w3.org/1999/xlink" width="500" zoomAndPan="magnify" viewBox="0 0 375 374.999991" height="500" preserveAspectRatio="xMidYMid meet" version="1.0"><defs><filter x="0%" y="0%" width="100%" height="100%" id="205331c351"><feColorMatrix values="0 0 0 0 1 0 0 0 0 1 0 0 0 0 1 0 0 0 1 0" color-interpolation-filters="sRGB"/></filter><clipPath id="24ef98b7c4"><path d="M 18.75 18.75 L 356.25 18.75 L 356.25 356.25 L 18.75 356.25 Z M 18.75 18.75 " clip-rule="nonzero"/></clipPath><mask id="e6ac9c57df"><g filter="url(#205331c351)"><rect x="-37.5" width="450" fill="#000000" y="-37.499999" height="449.999989" fill-opacity="0.2"/></g></mask><clipPath id="b0f2320c7b"><path d="M 0.75 0.75 L 338.25 0.75 L 338.25 338.25 L 0.75 338.25 Z M 0.75 0.75 " clip-rule="nonzero"/></clipPath><clipPath id="13502b55b7"><rect x="0" width="339" y="0" height="339"/></clipPath></defs><g clip-path="url(#24ef98b7c4)"><g mask="url(#e6ac9c57df)"><g transform="matrix(1, 0, 0, 1, 18, 18)"><g clip-path="url(#13502b55b7)"><g clip-path="url(#b0f2320c7b)"><path fill="#30cbb8" d="M 338.25 169.5 C 338.25 172.261719 338.183594 175.023438 338.046875 177.78125 C 337.910156 180.539062 337.707031 183.292969 337.4375 186.039062 C 337.167969 188.789062 336.828125 191.527344 336.421875 194.261719 C 336.019531 196.992188 335.546875 199.710938 335.007812 202.421875 C 334.46875 205.128906 333.863281 207.824219 333.191406 210.503906 C 332.523438 213.183594 331.785156 215.84375 330.984375 218.484375 C 330.183594 221.128906 329.316406 223.75 328.386719 226.351562 C 327.457031 228.949219 326.460938 231.527344 325.40625 234.078125 C 324.347656 236.628906 323.230469 239.152344 322.046875 241.648438 C 320.867188 244.144531 319.625 246.613281 318.324219 249.046875 C 317.023438 251.484375 315.660156 253.886719 314.242188 256.253906 C 312.820312 258.625 311.34375 260.957031 309.808594 263.253906 C 308.277344 265.546875 306.6875 267.804688 305.042969 270.023438 C 303.394531 272.242188 301.699219 274.417969 299.945312 276.554688 C 298.195312 278.6875 296.390625 280.777344 294.535156 282.824219 C 292.679688 284.871094 290.777344 286.871094 288.824219 288.824219 C 286.871094 290.777344 284.871094 292.679688 282.824219 294.535156 C 280.777344 296.390625 278.6875 298.195312 276.554688 299.945312 C 274.417969 301.699219 272.242188 303.394531 270.023438 305.042969 C 267.804688 306.6875 265.546875 308.277344 263.253906 309.808594 C 260.957031 311.34375 258.625 312.820312 256.253906 314.242188 C 253.886719 315.660156 251.484375 317.023438 249.046875 318.324219 C 246.613281 319.625 244.144531 320.867188 241.648438 322.046875 C 239.152344 323.230469 236.628906 324.347656 234.078125 325.40625 C 231.527344 326.460938 228.949219 327.457031 226.351562 328.386719 C 223.75 329.316406 221.128906 330.183594 218.484375 330.984375 C 215.84375 331.785156 213.183594 332.523438 210.503906 333.191406 C 207.824219 333.863281 205.128906 334.46875 202.421875 335.007812 C 199.710938 335.546875 196.992188 336.019531 194.261719 336.421875 C 191.527344 336.828125 188.789062 337.167969 186.039062 337.4375 C 183.292969 337.707031 180.539062 337.910156 177.78125 338.046875 C 175.023438 338.183594 172.261719 338.25 169.5 338.25 C 166.738281 338.25 163.976562 338.183594 161.21875 338.046875 C 158.460938 337.910156 155.707031 337.707031 152.960938 337.4375 C 150.210938 337.167969 147.472656 336.828125 144.738281 336.421875 C 142.007812 336.019531 139.289062 335.546875 136.578125 335.007812 C 133.871094 334.46875 131.175781 333.863281 128.496094 333.191406 C 125.816406 332.523438 123.15625 331.785156 120.515625 330.984375 C 117.871094 330.183594 115.25 329.316406 112.648438 328.386719 C 110.050781 327.457031 107.472656 326.460938 104.921875 325.40625 C 102.371094 324.347656 99.847656 323.230469 97.351562 322.046875 C 94.851562 320.867188 92.386719 319.625 89.953125 318.324219 C 87.515625 317.023438 85.113281 315.660156 82.746094 314.242188 C 80.375 312.820312 78.042969 311.34375 75.746094 309.808594 C 73.453125 308.277344 71.195312 306.6875 68.976562 305.042969 C 66.757812 303.394531 64.582031 301.699219 62.445312 299.945312 C 60.3125 298.195312 58.222656 296.390625 56.175781 294.535156 C 54.128906 292.679688 52.128906 290.777344 50.175781 288.824219 C 48.222656 286.871094 46.320312 284.871094 44.464844 282.824219 C 42.609375 280.777344 40.804688 278.6875 39.054688 276.554688 C 37.300781 274.417969 35.605469 272.242188 33.957031 270.023438 C 32.3125 267.804688 30.722656 265.546875 29.191406 263.253906 C 27.65625 260.957031 26.179688 258.625 24.757812 256.253906 C 23.339844 253.886719 21.976562 251.484375 20.675781 249.046875 C 19.375 246.613281 18.132812 244.144531 16.953125 241.648438 C 15.769531 239.152344 14.652344 236.628906 13.59375 234.078125 C 12.539062 231.527344 11.542969 228.949219 10.613281 226.351562 C 9.683594 223.75 8.816406 221.128906 8.015625 218.484375 C 7.214844 215.84375 6.476562 213.183594 5.808594 210.503906 C 5.136719 207.824219 4.53125 205.128906 3.992188 202.421875 C 3.453125 199.710938 2.980469 196.992188 2.578125 194.261719 C 2.171875 191.527344 1.832031 188.789062 1.5625 186.039062 C 1.292969 183.292969 1.089844 180.539062 0.953125 177.78125 C 0.816406 175.023438 0.75 172.261719 0.75 169.5 C 0.75 166.738281 0.816406 163.976562 0.953125 161.21875 C 1.089844 158.460938 1.292969 155.707031 1.5625 152.960938 C 1.832031 150.210938 2.171875 147.472656 2.578125 144.738281 C 2.980469 142.007812 3.453125 139.289062 3.992188 136.578125 C 4.53125 133.871094 5.136719 131.175781 5.808594 128.496094 C 6.476562 125.816406 7.214844 123.15625 8.015625 120.515625 C 8.816406 117.871094 9.683594 115.25 10.613281 112.648438 C 11.542969 110.050781 12.539062 107.472656 13.59375 104.921875 C 14.652344 102.371094 15.769531 99.847656 16.953125 97.351562 C 18.132812 94.851562 19.375 92.386719 20.675781 89.953125 C 21.976562 87.515625 23.339844 85.113281 24.757812 82.746094 C 26.179688 80.375 27.65625 78.042969 29.191406 75.746094 C 30.722656 73.453125 32.3125 71.195312 33.957031 68.976562 C 35.605469 66.757812 37.300781 64.582031 39.054688 62.445312 C 40.804688 60.3125 42.609375 58.222656 44.464844 56.175781 C 46.320312 54.128906 48.222656 52.128906 50.175781 50.175781 C 52.128906 48.222656 54.128906 46.320312 56.175781 44.464844 C 58.222656 42.609375 60.3125 40.804688 62.445312 39.054688 C 64.582031 37.300781 66.757812 35.605469 68.976562 33.957031 C 71.195312 32.3125 73.453125 30.722656 75.746094 29.191406 C 78.042969 27.65625 80.375 26.179688 82.746094 24.757812 C 85.113281 23.339844 87.515625 21.976562 89.953125 20.675781 C 92.386719 19.375 94.851562 18.132812 97.351562 16.953125 C 99.847656 15.769531 102.371094 14.652344 104.921875 13.59375 C 107.472656 12.539062 110.050781 11.542969 112.648438 10.613281 C 115.25 9.683594 117.871094 8.816406 120.515625 8.015625 C 123.15625 7.214844 125.816406 6.476562 128.496094 5.808594 C 131.175781 5.136719 133.871094 4.53125 136.578125 3.992188 C 139.289062 3.453125 142.007812 2.980469 144.738281 2.578125 C 147.472656 2.171875 150.210938 1.832031 152.960938 1.5625 C 155.707031 1.292969 158.460938 1.089844 161.21875 0.953125 C 163.976562 0.816406 166.738281 0.75 169.5 0.75 C 172.261719 0.75 175.023438 0.816406 177.78125 0.953125 C 180.539062 1.089844 183.292969 1.292969 186.039062 1.5625 C 188.789062 1.832031 191.527344 2.171875 194.261719 2.578125 C 196.992188 2.980469 199.710938 3.453125 202.421875 3.992188 C 205.128906 4.53125 207.824219 5.136719 210.503906 5.808594 C 213.183594 6.476562 215.84375 7.214844 218.484375 8.015625 C 221.128906 8.816406 223.75 9.683594 226.351562 10.613281 C 228.949219 11.542969 231.527344 12.539062 234.078125 13.59375 C 236.628906 14.652344 239.152344 15.769531 241.648438 16.953125 C 244.144531 18.132812 246.613281 19.375 249.046875 20.675781 C 251.484375 21.976562 253.886719 23.339844 256.253906 24.757812 C 258.625 26.179688 260.957031 27.65625 263.253906 29.191406 C 265.546875 30.722656 267.804688 32.3125 270.023438 33.957031 C 272.242188 35.605469 274.417969 37.300781 276.554688 39.054688 C 278.6875 40.804688 280.777344 42.609375 282.824219 44.464844 C 284.871094 46.320312 286.871094 48.222656 288.824219 50.175781 C 290.777344 52.128906 292.679688 54.128906 294.535156 56.175781 C 296.390625 58.222656 298.195312 60.3125 299.945312 62.445312 C 301.699219 64.582031 303.394531 66.757812 305.042969 68.976562 C 306.6875 71.195312 308.277344 73.453125 309.808594 75.746094 C 311.34375 78.042969 312.820312 80.375 314.242188 82.746094 C 315.660156 85.113281 317.023438 87.515625 318.324219 89.953125 C 319.625 92.386719 320.867188 94.851562 322.046875 97.351562 C 323.230469 99.847656 324.347656 102.371094 325.40625 104.921875 C 326.460938 107.472656 327.457031 110.050781 328.386719 112.648438 C 329.316406 115.25 330.183594 117.871094 330.984375 120.515625 C 331.785156 123.15625 332.523438 125.816406 333.191406 128.496094 C 333.863281 131.175781 334.46875 133.871094 335.007812 136.578125 C 335.546875 139.289062 336.019531 142.007812 336.421875 144.738281 C 336.828125 147.472656 337.167969 150.210938 337.4375 152.960938 C 337.707031 155.707031 337.910156 158.460938 338.046875 161.21875 C 338.183594 163.976562 338.25 166.738281 338.25 169.5 Z M 338.25 169.5 " fill-opacity="1" fill-rule="nonzero"/></g></g></g></g></g><path fill="#00a087" d="M 158.371094 226.441406 C 162.398438 237.832031 169.859375 247.695312 179.726562 254.667969 C 189.589844 261.644531 201.378906 265.386719 213.460938 265.382812 L 267.003906 265.382812 C 268.296875 265.382812 269.535156 264.871094 270.445312 263.960938 C 271.359375 263.046875 271.871094 261.808594 271.871094 260.515625 L 271.871094 206.972656 C 271.871094 192.03125 266.148438 177.664062 255.878906 166.816406 C 245.609375 155.964844 231.570312 149.464844 216.65625 148.648438 " fill-opacity="1" fill-rule="nonzero"/><path fill="#ffffff" d="M 161.539062 226.441406 L 107.992188 226.441406 C 106.703125 226.441406 105.464844 225.929688 104.550781 225.015625 C 103.636719 224.105469 103.125 222.867188 103.125 221.574219 L 103.125 168.03125 C 103.125 152.539062 109.28125 137.679688 120.234375 126.726562 C 131.1875 115.769531 146.046875 109.617188 161.539062 109.617188 C 177.03125 109.617188 191.886719 115.769531 202.84375 126.726562 C 213.796875 137.679688 219.953125 152.539062 219.953125 168.03125 C 219.953125 183.523438 213.796875 198.378906 202.84375 209.335938 C 191.886719 220.289062 177.03125 226.441406 161.539062 226.441406 Z M 161.539062 226.441406 " fill-opacity="1" fill-rule="nonzero"/></svg>