<svg xmlns="http://www.w3.org/2000/svg" xmlns:xlink="http://www.w3.org/1999/xlink" width="500" zoomAndPan="magnify" viewBox="0 0 375 374.999991" height="500" preserveAspectRatio="xMidYMid meet" version="1.0"><defs><filter x="0%" y="0%" width="100%" height="100%" id="d4fc36739d"><feColorMatrix values="0 0 0 0 1 0 0 0 0 1 0 0 0 0 1 0 0 0 1 0" color-interpolation-filters="sRGB"/></filter><clipPath id="dba0bca6de"><path d="M 18.304688 18.304688 L 356.554688 18.304688 L 356.554688 356.554688 L 18.304688 356.554688 Z M 18.304688 18.304688 " clip-rule="nonzero"/></clipPath><mask id="f0229c0aa8"><g filter="url(#d4fc36739d)"><rect x="-37.5" width="450" fill="#000000" y="-37.499999" height="449.999989" fill-opacity="0.2"/></g></mask><clipPath id="54c93fcee0"><path d="M 0.304688 0.304688 L 338.554688 0.304688 L 338.554688 338.554688 L 0.304688 338.554688 Z M 0.304688 0.304688 " clip-rule="nonzero"/></clipPath><clipPath id="ad2eac434b"><rect x="0" width="339" y="0" height="339"/></clipPath></defs><g clip-path="url(#dba0bca6de)"><g mask="url(#f0229c0aa8)"><g transform="matrix(1, 0, 0, 1, 18, 18)"><g clip-path="url(#ad2eac434b)"><g clip-path="url(#54c93fcee0)"><path fill="#30cbb8" d="M 338.683594 169.496094 C 338.683594 172.265625 338.617188 175.03125 338.480469 177.796875 C 338.34375 180.5625 338.140625 183.324219 337.871094 186.078125 C 337.597656 188.835938 337.257812 191.582031 336.851562 194.320312 C 336.445312 197.058594 335.972656 199.785156 335.433594 202.503906 C 334.894531 205.21875 334.285156 207.917969 333.613281 210.605469 C 332.941406 213.289062 332.203125 215.957031 331.398438 218.609375 C 330.59375 221.257812 329.726562 223.886719 328.792969 226.492188 C 327.863281 229.101562 326.867188 231.683594 325.804688 234.242188 C 324.746094 236.800781 323.625 239.328125 322.441406 241.832031 C 321.257812 244.335938 320.011719 246.808594 318.707031 249.25 C 317.402344 251.691406 316.039062 254.101562 314.613281 256.476562 C 313.191406 258.851562 311.710938 261.191406 310.171875 263.492188 C 308.632812 265.792969 307.039062 268.058594 305.390625 270.28125 C 303.738281 272.503906 302.035156 274.6875 300.28125 276.828125 C 298.523438 278.96875 296.714844 281.0625 294.855469 283.117188 C 292.996094 285.167969 291.089844 287.171875 289.128906 289.128906 C 287.171875 291.089844 285.167969 292.996094 283.117188 294.855469 C 281.0625 296.714844 278.96875 298.523438 276.828125 300.28125 C 274.6875 302.035156 272.503906 303.738281 270.28125 305.390625 C 268.058594 307.039062 265.792969 308.632812 263.492188 310.171875 C 261.191406 311.710938 258.851562 313.191406 256.476562 314.613281 C 254.101562 316.039062 251.691406 317.402344 249.25 318.707031 C 246.808594 320.011719 244.335938 321.257812 241.832031 322.441406 C 239.328125 323.625 236.800781 324.746094 234.242188 325.804688 C 231.683594 326.867188 229.101562 327.863281 226.492188 328.792969 C 223.886719 329.726562 221.257812 330.59375 218.609375 331.398438 C 215.957031 332.203125 213.289062 332.941406 210.605469 333.613281 C 207.917969 334.285156 205.21875 334.894531 202.503906 335.433594 C 199.785156 335.972656 197.058594 336.445312 194.320312 336.851562 C 191.582031 337.257812 188.835938 337.597656 186.078125 337.871094 C 183.324219 338.140625 180.5625 338.34375 177.796875 338.480469 C 175.03125 338.617188 172.265625 338.683594 169.496094 338.683594 C 166.726562 338.683594 163.960938 338.617188 161.195312 338.480469 C 158.429688 338.34375 155.667969 338.140625 152.910156 337.871094 C 150.15625 337.597656 147.410156 337.257812 144.667969 336.851562 C 141.929688 336.445312 139.203125 335.972656 136.488281 335.433594 C 133.773438 334.894531 131.070312 334.285156 128.386719 333.613281 C 125.699219 332.941406 123.03125 332.203125 120.382812 331.398438 C 117.730469 330.59375 115.105469 329.726562 112.496094 328.792969 C 109.890625 327.863281 107.308594 326.867188 104.75 325.804688 C 102.191406 324.746094 99.660156 323.625 97.15625 322.441406 C 94.652344 321.257812 92.183594 320.011719 89.738281 318.707031 C 87.296875 317.402344 84.890625 316.039062 82.515625 314.613281 C 80.140625 313.191406 77.800781 311.710938 75.5 310.171875 C 73.195312 308.632812 70.933594 307.039062 68.710938 305.390625 C 66.484375 303.738281 64.304688 302.035156 62.164062 300.28125 C 60.023438 298.523438 57.925781 296.714844 55.875 294.855469 C 53.824219 292.996094 51.816406 291.089844 49.859375 289.128906 C 47.902344 287.171875 45.992188 285.167969 44.132812 283.117188 C 42.273438 281.0625 40.464844 278.96875 38.710938 276.828125 C 36.953125 274.6875 35.25 272.503906 33.601562 270.28125 C 31.953125 268.058594 30.359375 265.792969 28.820312 263.492188 C 27.28125 261.191406 25.800781 258.851562 24.375 256.476562 C 22.953125 254.101562 21.589844 251.691406 20.285156 249.25 C 18.976562 246.808594 17.734375 244.335938 16.550781 241.832031 C 15.367188 239.328125 14.242188 236.800781 13.183594 234.242188 C 12.125 231.683594 11.128906 229.101562 10.195312 226.492188 C 9.261719 223.886719 8.394531 221.257812 7.589844 218.609375 C 6.789062 215.957031 6.050781 213.289062 5.375 210.605469 C 4.703125 207.917969 4.097656 205.21875 3.554688 202.503906 C 3.015625 199.785156 2.542969 197.058594 2.136719 194.320312 C 1.730469 191.582031 1.390625 188.835938 1.121094 186.078125 C 0.847656 183.324219 0.644531 180.5625 0.507812 177.796875 C 0.375 175.03125 0.304688 172.265625 0.304688 169.496094 C 0.304688 166.726562 0.375 163.957031 0.507812 161.195312 C 0.644531 158.429688 0.847656 155.667969 1.121094 152.910156 C 1.390625 150.15625 1.730469 147.410156 2.136719 144.667969 C 2.542969 141.929688 3.015625 139.203125 3.554688 136.488281 C 4.097656 133.773438 4.703125 131.070312 5.375 128.386719 C 6.050781 125.699219 6.789062 123.03125 7.589844 120.382812 C 8.394531 117.730469 9.261719 115.105469 10.195312 112.496094 C 11.128906 109.890625 12.125 107.308594 13.183594 104.75 C 14.242188 102.191406 15.367188 99.660156 16.550781 97.15625 C 17.734375 94.652344 18.976562 92.183594 20.285156 89.738281 C 21.589844 87.296875 22.953125 84.890625 24.375 82.515625 C 25.800781 80.140625 27.28125 77.800781 28.820312 75.5 C 30.359375 73.195312 31.953125 70.933594 33.601562 68.710938 C 35.25 66.484375 36.953125 64.304688 38.710938 62.164062 C 40.464844 60.023438 42.273438 57.925781 44.132812 55.875 C 45.992188 53.824219 47.902344 51.816406 49.859375 49.859375 C 51.816406 47.902344 53.824219 45.992188 55.875 44.132812 C 57.925781 42.273438 60.023438 40.464844 62.164062 38.710938 C 64.304688 36.953125 66.484375 35.25 68.710938 33.601562 C 70.933594 31.953125 73.195312 30.359375 75.5 28.820312 C 77.800781 27.28125 80.140625 25.800781 82.515625 24.375 C 84.890625 22.953125 87.296875 21.589844 89.738281 20.285156 C 92.183594 18.976562 94.652344 17.734375 97.15625 16.550781 C 99.660156 15.367188 102.191406 14.242188 104.75 13.183594 C 107.308594 12.125 109.890625 11.128906 112.496094 10.195312 C 115.105469 9.261719 117.730469 8.394531 120.382812 7.589844 C 123.03125 6.789062 125.699219 6.050781 128.386719 5.375 C 131.070312 4.703125 133.773438 4.097656 136.488281 3.554688 C 139.203125 3.015625 141.929688 2.542969 144.667969 2.136719 C 147.410156 1.730469 150.15625 1.390625 152.910156 1.121094 C 155.667969 0.847656 158.429688 0.644531 161.195312 0.507812 C 163.960938 0.375 166.726562 0.304688 169.496094 0.304688 C 172.265625 0.304688 175.03125 0.375 177.796875 0.507812 C 180.5625 0.644531 183.324219 0.847656 186.078125 1.121094 C 188.835938 1.390625 191.582031 1.730469 194.320312 2.136719 C 197.058594 2.542969 199.785156 3.015625 202.503906 3.554688 C 205.21875 4.097656 207.917969 4.703125 210.605469 5.375 C 213.289062 6.050781 215.957031 6.789062 218.609375 7.589844 C 221.257812 8.394531 223.886719 9.261719 226.492188 10.195312 C 229.101562 11.128906 231.683594 12.125 234.242188 13.183594 C 236.800781 14.242188 239.328125 15.367188 241.832031 16.550781 C 244.335938 17.734375 246.808594 18.976562 249.25 20.285156 C 251.691406 21.589844 254.101562 22.953125 256.476562 24.375 C 258.851562 25.800781 261.191406 27.28125 263.492188 28.820312 C 265.792969 30.359375 268.058594 31.953125 270.28125 33.601562 C 272.503906 35.25 274.6875 36.953125 276.828125 38.710938 C 278.96875 40.464844 281.0625 42.273438 283.117188 44.132812 C 285.167969 45.992188 287.171875 47.902344 289.128906 49.859375 C 291.089844 51.816406 292.996094 53.824219 294.855469 55.875 C 296.714844 57.925781 298.523438 60.023438 300.28125 62.164062 C 302.035156 64.304688 303.738281 66.484375 305.390625 68.710938 C 307.039062 70.933594 308.632812 73.195312 310.171875 75.5 C 311.710938 77.800781 313.191406 80.140625 314.613281 82.515625 C 316.039062 84.890625 317.402344 87.296875 318.707031 89.738281 C 320.011719 92.183594 321.257812 94.652344 322.441406 97.15625 C 323.625 99.660156 324.746094 102.191406 325.804688 104.75 C 326.867188 107.308594 327.863281 109.890625 328.792969 112.496094 C 329.726562 115.105469 330.59375 117.730469 331.398438 120.382812 C 332.203125 123.03125 332.941406 125.699219 333.613281 128.386719 C 334.285156 131.070312 334.894531 133.773438 335.433594 136.488281 C 335.972656 139.203125 336.445312 141.929688 336.851562 144.667969 C 337.257812 147.410156 337.597656 150.15625 337.871094 152.910156 C 338.140625 155.667969 338.34375 158.429688 338.480469 161.195312 C 338.617188 163.957031 338.683594 166.726562 338.683594 169.496094 Z M 338.683594 169.496094 " fill-opacity="1" fill-rule="nonzero"/></g></g></g></g></g><path fill="#00a087" d="M 257.992188 215.269531 C 257.992188 234.9375 242.199219 250.871094 222.53125 250.941406 L 152.601562 250.941406 C 133.003906 250.941406 117 235.078125 117 215.410156 L 117 215.339844 C 117 215.339844 117.042969 184.140625 117.097656 168.445312 C 117.105469 165.5 120.488281 163.851562 122.792969 165.683594 C 139.542969 178.972656 169.496094 203.203125 169.871094 203.519531 C 174.875 207.53125 181.222656 209.792969 187.707031 209.792969 C 194.191406 209.792969 200.535156 207.53125 205.542969 203.441406 C 205.914062 203.195312 235.199219 179.691406 252.203125 166.183594 C 254.515625 164.34375 257.914062 165.992188 257.921875 168.933594 C 257.992188 184.507812 257.992188 215.269531 257.992188 215.269531 " fill-opacity="1" fill-rule="nonzero"/><path fill="#f5df99" d="M 254.296875 142.894531 C 248.191406 131.390625 236.179688 124.046875 222.953125 124.046875 L 152.597656 124.046875 C 139.375 124.046875 127.363281 131.390625 121.257812 142.894531 C 119.890625 145.46875 120.539062 148.675781 122.816406 150.496094 L 175.15625 192.363281 C 178.824219 195.324219 183.265625 196.796875 187.707031 196.796875 C 187.734375 196.796875 187.753906 196.796875 187.777344 196.796875 C 187.796875 196.796875 187.824219 196.796875 187.847656 196.796875 C 192.289062 196.796875 196.730469 195.324219 200.394531 192.363281 L 252.738281 150.496094 C 255.015625 148.675781 255.664062 145.46875 254.296875 142.894531 " fill-opacity="1" fill-rule="nonzero"/></svg>