<svg xmlns="http://www.w3.org/2000/svg" xmlns:xlink="http://www.w3.org/1999/xlink" width="500" zoomAndPan="magnify" viewBox="0 0 375 374.999991" height="500" preserveAspectRatio="xMidYMid meet" version="1.0"><defs><filter x="0%" y="0%" width="100%" height="100%" id="d9a0f10d19"><feColorMatrix values="0 0 0 0 1 0 0 0 0 1 0 0 0 0 1 0 0 0 1 0" color-interpolation-filters="sRGB"/></filter><clipPath id="1046301c32"><path d="M 17.417969 17.417969 L 357.917969 17.417969 L 357.917969 357.917969 L 17.417969 357.917969 Z M 17.417969 17.417969 " clip-rule="nonzero"/></clipPath><mask id="44781491ed"><g filter="url(#d9a0f10d19)"><rect x="-37.5" width="450" fill="#000000" y="-37.499999" height="449.999989" fill-opacity="0.2"/></g></mask><clipPath id="641879ac87"><path d="M 0.417969 0.417969 L 340.601562 0.417969 L 340.601562 340.601562 L 0.417969 340.601562 Z M 0.417969 0.417969 " clip-rule="nonzero"/></clipPath><clipPath id="7099f14031"><rect x="0" width="341" y="0" height="341"/></clipPath></defs><g clip-path="url(#1046301c32)"><g mask="url(#44781491ed)"><g transform="matrix(1, 0, 0, 1, 17, 17)"><g clip-path="url(#7099f14031)"><g clip-path="url(#641879ac87)"><path fill="#30cbb8" d="M 340.578125 170.496094 C 340.578125 173.28125 340.507812 176.0625 340.371094 178.84375 C 340.234375 181.621094 340.03125 184.398438 339.757812 187.167969 C 339.484375 189.9375 339.144531 192.699219 338.734375 195.453125 C 338.328125 198.207031 337.851562 200.949219 337.308594 203.679688 C 336.765625 206.40625 336.15625 209.125 335.480469 211.824219 C 334.804688 214.523438 334.0625 217.207031 333.253906 219.867188 C 332.445312 222.53125 331.574219 225.175781 330.636719 227.796875 C 329.695312 230.417969 328.695312 233.011719 327.628906 235.582031 C 326.566406 238.15625 325.4375 240.699219 324.246094 243.214844 C 323.058594 245.730469 321.804688 248.21875 320.496094 250.671875 C 319.183594 253.128906 317.8125 255.546875 316.378906 257.9375 C 314.949219 260.324219 313.460938 262.675781 311.914062 264.988281 C 310.367188 267.304688 308.765625 269.578125 307.105469 271.8125 C 305.449219 274.050781 303.738281 276.242188 301.972656 278.394531 C 300.203125 280.546875 298.386719 282.652344 296.519531 284.714844 C 294.648438 286.777344 292.730469 288.792969 290.761719 290.761719 C 288.792969 292.730469 286.777344 294.648438 284.714844 296.519531 C 282.652344 298.386719 280.546875 300.203125 278.394531 301.972656 C 276.242188 303.738281 274.050781 305.449219 271.8125 307.105469 C 269.578125 308.765625 267.304688 310.367188 264.988281 311.914062 C 262.675781 313.460938 260.324219 314.949219 257.9375 316.378906 C 255.546875 317.8125 253.128906 319.183594 250.671875 320.496094 C 248.21875 321.804688 245.730469 323.058594 243.214844 324.246094 C 240.699219 325.4375 238.15625 326.566406 235.582031 327.628906 C 233.011719 328.695312 230.417969 329.695312 227.796875 330.636719 C 225.175781 331.574219 222.53125 332.445312 219.867188 333.253906 C 217.207031 334.0625 214.523438 334.804688 211.824219 335.480469 C 209.125 336.15625 206.40625 336.765625 203.679688 337.308594 C 200.949219 337.851562 198.207031 338.328125 195.453125 338.734375 C 192.699219 339.144531 189.9375 339.484375 187.167969 339.757812 C 184.398438 340.03125 181.621094 340.234375 178.84375 340.371094 C 176.0625 340.507812 173.28125 340.578125 170.496094 340.578125 C 167.714844 340.578125 164.933594 340.507812 162.152344 340.371094 C 159.371094 340.234375 156.597656 340.03125 153.828125 339.757812 C 151.054688 339.484375 148.292969 339.144531 145.542969 338.734375 C 142.789062 338.328125 140.046875 337.851562 137.316406 337.308594 C 134.585938 336.765625 131.871094 336.15625 129.171875 335.480469 C 126.472656 334.804688 123.789062 334.0625 121.125 333.253906 C 118.460938 332.445312 115.820312 331.574219 113.199219 330.636719 C 110.578125 329.695312 107.980469 328.695312 105.410156 327.628906 C 102.839844 326.566406 100.292969 325.4375 97.777344 324.246094 C 95.261719 323.058594 92.777344 321.804688 90.320312 320.496094 C 87.867188 319.183594 85.445312 317.8125 83.058594 316.378906 C 80.671875 314.949219 78.320312 313.460938 76.003906 311.914062 C 73.691406 310.367188 71.417969 308.765625 69.179688 307.105469 C 66.945312 305.449219 64.75 303.738281 62.597656 301.972656 C 60.449219 300.203125 58.339844 298.386719 56.277344 296.519531 C 54.214844 294.648438 52.199219 292.730469 50.230469 290.761719 C 48.265625 288.792969 46.34375 286.777344 44.476562 284.714844 C 42.605469 282.652344 40.789062 280.546875 39.023438 278.394531 C 37.257812 276.242188 35.546875 274.050781 33.886719 271.8125 C 32.230469 269.578125 30.628906 267.304688 29.082031 264.988281 C 27.535156 262.675781 26.046875 260.324219 24.613281 257.9375 C 23.183594 255.546875 21.8125 253.128906 20.5 250.671875 C 19.1875 248.21875 17.9375 245.730469 16.746094 243.214844 C 15.554688 240.699219 14.429688 238.15625 13.363281 235.582031 C 12.296875 233.011719 11.296875 230.417969 10.359375 227.796875 C 9.421875 225.175781 8.546875 222.53125 7.742188 219.867188 C 6.933594 217.207031 6.191406 214.523438 5.515625 211.824219 C 4.835938 209.125 4.226562 206.40625 3.683594 203.679688 C 3.140625 200.949219 2.667969 198.207031 2.257812 195.453125 C 1.847656 192.699219 1.507812 189.9375 1.234375 187.167969 C 0.964844 184.398438 0.757812 181.621094 0.621094 178.84375 C 0.484375 176.0625 0.417969 173.28125 0.417969 170.496094 C 0.417969 167.714844 0.484375 164.933594 0.621094 162.152344 C 0.757812 159.371094 0.964844 156.597656 1.234375 153.828125 C 1.507812 151.054688 1.847656 148.292969 2.257812 145.542969 C 2.667969 142.789062 3.140625 140.046875 3.683594 137.316406 C 4.226562 134.585938 4.835938 131.871094 5.515625 129.171875 C 6.191406 126.472656 6.933594 123.789062 7.742188 121.125 C 8.546875 118.460938 9.421875 115.820312 10.359375 113.199219 C 11.296875 110.578125 12.296875 107.980469 13.363281 105.410156 C 14.429688 102.839844 15.554688 100.292969 16.746094 97.777344 C 17.9375 95.261719 19.1875 92.777344 20.5 90.320312 C 21.8125 87.867188 23.183594 85.445312 24.613281 83.058594 C 26.046875 80.671875 27.535156 78.320312 29.082031 76.003906 C 30.628906 73.691406 32.230469 71.417969 33.886719 69.179688 C 35.546875 66.945312 37.257812 64.75 39.023438 62.597656 C 40.789062 60.449219 42.605469 58.339844 44.476562 56.277344 C 46.34375 54.214844 48.265625 52.199219 50.230469 50.230469 C 52.199219 48.265625 54.214844 46.34375 56.277344 44.476562 C 58.339844 42.605469 60.449219 40.789062 62.597656 39.023438 C 64.75 37.257812 66.945312 35.546875 69.179688 33.886719 C 71.417969 32.230469 73.691406 30.628906 76.003906 29.082031 C 78.320312 27.535156 80.671875 26.046875 83.058594 24.613281 C 85.445312 23.183594 87.867188 21.8125 90.320312 20.5 C 92.777344 19.1875 95.261719 17.9375 97.777344 16.746094 C 100.292969 15.554688 102.839844 14.429688 105.410156 13.363281 C 107.980469 12.296875 110.578125 11.296875 113.199219 10.359375 C 115.820312 9.421875 118.460938 8.546875 121.125 7.742188 C 123.789062 6.933594 126.472656 6.191406 129.171875 5.515625 C 131.871094 4.835938 134.585938 4.226562 137.316406 3.683594 C 140.046875 3.140625 142.789062 2.667969 145.542969 2.257812 C 148.292969 1.847656 151.054688 1.507812 153.828125 1.234375 C 156.597656 0.964844 159.371094 0.757812 162.152344 0.621094 C 164.933594 0.484375 167.714844 0.417969 170.496094 0.417969 C 173.28125 0.417969 176.0625 0.484375 178.84375 0.621094 C 181.621094 0.757812 184.398438 0.964844 187.167969 1.234375 C 189.9375 1.507812 192.699219 1.847656 195.453125 2.257812 C 198.207031 2.667969 200.949219 3.140625 203.679688 3.683594 C 206.40625 4.226562 209.125 4.835938 211.824219 5.515625 C 214.523438 6.191406 217.207031 6.933594 219.867188 7.742188 C 222.53125 8.546875 225.175781 9.421875 227.796875 10.359375 C 230.417969 11.296875 233.011719 12.296875 235.582031 13.363281 C 238.15625 14.429688 240.699219 15.554688 243.214844 16.746094 C 245.730469 17.9375 248.21875 19.1875 250.671875 20.5 C 253.128906 21.8125 255.546875 23.183594 257.9375 24.613281 C 260.324219 26.046875 262.675781 27.535156 264.988281 29.082031 C 267.304688 30.628906 269.578125 32.230469 271.8125 33.886719 C 274.050781 35.546875 276.242188 37.257812 278.394531 39.023438 C 280.546875 40.789062 282.652344 42.605469 284.714844 44.476562 C 286.777344 46.34375 288.792969 48.265625 290.761719 50.230469 C 292.730469 52.199219 294.648438 54.214844 296.519531 56.277344 C 298.386719 58.339844 300.203125 60.449219 301.972656 62.597656 C 303.738281 64.75 305.449219 66.945312 307.105469 69.179688 C 308.765625 71.417969 310.367188 73.691406 311.914062 76.003906 C 313.460938 78.320312 314.949219 80.671875 316.378906 83.058594 C 317.8125 85.445312 319.183594 87.867188 320.496094 90.320312 C 321.804688 92.777344 323.058594 95.261719 324.246094 97.777344 C 325.4375 100.292969 326.566406 102.839844 327.628906 105.410156 C 328.695312 107.980469 329.695312 110.578125 330.636719 113.199219 C 331.574219 115.820312 332.445312 118.460938 333.253906 121.125 C 334.0625 123.789062 334.804688 126.472656 335.480469 129.171875 C 336.15625 131.871094 336.765625 134.585938 337.308594 137.316406 C 337.851562 140.046875 338.328125 142.789062 338.734375 145.542969 C 339.144531 148.292969 339.484375 151.054688 339.757812 153.828125 C 340.03125 156.597656 340.234375 159.371094 340.371094 162.152344 C 340.507812 164.933594 340.578125 167.714844 340.578125 170.496094 Z M 340.578125 170.496094 " fill-opacity="1" fill-rule="nonzero"/></g></g></g></g></g><path fill="#00a087" d="M 158 111.074219 C 176.582031 100.277344 199.417969 100.464844 217.824219 111.566406 C 236.050781 122.894531 247.128906 143.113281 247.023438 164.859375 C 246.601562 186.464844 234.722656 206.769531 219.875 222.46875 C 211.308594 231.570312 201.722656 239.621094 191.3125 246.449219 C 190.242188 247.070312 189.070312 247.484375 187.851562 247.675781 C 186.675781 247.625 185.535156 247.277344 184.527344 246.667969 C 168.636719 236.402344 154.699219 223.304688 143.382812 207.996094 C 133.910156 195.21875 128.527344 179.777344 127.96875 163.777344 C 127.957031 141.988281 139.421875 121.871094 158 111.074219 Z M 168.738281 172.796875 C 171.863281 180.5 179.242188 185.527344 187.425781 185.527344 C 192.789062 185.566406 197.941406 183.417969 201.738281 179.5625 C 205.539062 175.707031 207.664062 170.464844 207.644531 165.003906 C 207.671875 156.664062 202.765625 149.132812 195.210938 145.921875 C 187.660156 142.710938 178.949219 144.457031 173.152344 150.339844 C 167.355469 156.226562 165.613281 165.089844 168.738281 172.796875 Z M 168.738281 172.796875 " fill-opacity="1" fill-rule="evenodd"/><path fill="#f5df99" d="M 230.015625 264.679688 C 230.015625 264.957031 229.949219 265.234375 229.8125 265.511719 C 229.675781 265.789062 229.472656 266.066406 229.199219 266.339844 C 228.929688 266.613281 228.589844 266.882812 228.1875 267.148438 C 227.78125 267.414062 227.3125 267.675781 226.78125 267.933594 C 226.246094 268.191406 225.652344 268.441406 224.996094 268.6875 C 224.339844 268.933594 223.625 269.171875 222.851562 269.402344 C 222.078125 269.636719 221.25 269.859375 220.367188 270.074219 C 219.480469 270.289062 218.546875 270.496094 217.5625 270.691406 C 216.578125 270.890625 215.546875 271.078125 214.472656 271.253906 C 213.394531 271.429688 212.277344 271.59375 211.121094 271.75 C 209.960938 271.90625 208.769531 272.046875 207.539062 272.179688 C 206.3125 272.3125 205.054688 272.429688 203.769531 272.535156 C 202.480469 272.644531 201.171875 272.738281 199.839844 272.816406 C 198.507812 272.898438 197.15625 272.964844 195.792969 273.019531 C 194.425781 273.074219 193.050781 273.113281 191.664062 273.140625 C 190.277344 273.167969 188.890625 273.183594 187.496094 273.183594 C 186.105469 273.183594 184.714844 273.167969 183.328125 273.140625 C 181.945312 273.113281 180.566406 273.074219 179.203125 273.019531 C 177.835938 272.964844 176.488281 272.898438 175.152344 272.816406 C 173.820312 272.738281 172.511719 272.644531 171.226562 272.535156 C 169.9375 272.429688 168.679688 272.3125 167.453125 272.179688 C 166.226562 272.046875 165.03125 271.90625 163.875 271.75 C 162.714844 271.59375 161.597656 271.429688 160.523438 271.253906 C 159.445312 271.078125 158.414062 270.890625 157.429688 270.691406 C 156.445312 270.496094 155.511719 270.289062 154.628906 270.074219 C 153.746094 269.859375 152.917969 269.636719 152.144531 269.402344 C 151.371094 269.171875 150.652344 268.933594 149.996094 268.6875 C 149.339844 268.441406 148.746094 268.191406 148.214844 267.933594 C 147.679688 267.675781 147.210938 267.414062 146.808594 267.148438 C 146.402344 266.882812 146.066406 266.613281 145.792969 266.339844 C 145.523438 266.066406 145.316406 265.789062 145.183594 265.511719 C 145.046875 265.234375 144.976562 264.957031 144.976562 264.679688 C 144.976562 264.402344 145.046875 264.125 145.183594 263.847656 C 145.316406 263.570312 145.523438 263.292969 145.792969 263.019531 C 146.066406 262.746094 146.402344 262.476562 146.808594 262.210938 C 147.210938 261.945312 147.679688 261.683594 148.214844 261.425781 C 148.746094 261.167969 149.339844 260.917969 149.996094 260.671875 C 150.652344 260.425781 151.371094 260.1875 152.144531 259.953125 C 152.917969 259.722656 153.746094 259.5 154.628906 259.285156 C 155.511719 259.070312 156.445312 258.863281 157.429688 258.667969 C 158.414062 258.46875 159.445312 258.28125 160.523438 258.105469 C 161.597656 257.929688 162.714844 257.761719 163.875 257.609375 C 165.03125 257.453125 166.226562 257.3125 167.453125 257.179688 C 168.679688 257.046875 169.9375 256.929688 171.226562 256.824219 C 172.511719 256.714844 173.820312 256.621094 175.152344 256.542969 C 176.488281 256.460938 177.835938 256.394531 179.203125 256.339844 C 180.566406 256.285156 181.945312 256.242188 183.328125 256.214844 C 184.714844 256.1875 186.105469 256.175781 187.496094 256.175781 C 188.890625 256.175781 190.277344 256.1875 191.664062 256.214844 C 193.050781 256.242188 194.425781 256.285156 195.792969 256.339844 C 197.15625 256.394531 198.507812 256.460938 199.839844 256.542969 C 201.171875 256.621094 202.480469 256.714844 203.769531 256.824219 C 205.054688 256.929688 206.3125 257.046875 207.539062 257.179688 C 208.769531 257.3125 209.960938 257.453125 211.121094 257.609375 C 212.277344 257.761719 213.394531 257.929688 214.472656 258.105469 C 215.546875 258.28125 216.578125 258.46875 217.5625 258.667969 C 218.546875 258.863281 219.480469 259.070312 220.367188 259.285156 C 221.25 259.5 222.078125 259.722656 222.851562 259.953125 C 223.625 260.1875 224.339844 260.425781 224.996094 260.671875 C 225.652344 260.917969 226.246094 261.167969 226.78125 261.425781 C 227.3125 261.683594 227.78125 261.945312 228.1875 262.210938 C 228.589844 262.476562 228.929688 262.746094 229.199219 263.019531 C 229.472656 263.292969 229.675781 263.570312 229.8125 263.847656 C 229.949219 264.125 230.015625 264.402344 230.015625 264.679688 Z M 230.015625 264.679688 " fill-opacity="1" fill-rule="nonzero"/></svg>