<svg xmlns="http://www.w3.org/2000/svg" xmlns:xlink="http://www.w3.org/1999/xlink" width="500" zoomAndPan="magnify" viewBox="0 0 375 374.999991" height="500" preserveAspectRatio="xMidYMid meet" version="1.0"><path fill="#00a087" d="M 205.617188 46.027344 C 209.265625 46.027344 212.074219 49.003906 212.074219 52.550781 L 212.074219 98.214844 C 212.074219 124.167969 233.277344 145.441406 258.972656 145.582031 C 269.644531 145.582031 278.070312 145.722656 284.527344 145.722656 L 286.921875 145.714844 C 291.238281 145.679688 297.046875 145.582031 302.082031 145.582031 C 305.589844 145.582031 308.398438 148.417969 308.398438 151.964844 L 308.398438 265.984375 C 308.398438 301.15625 280.175781 329.664062 245.351562 329.664062 L 133.582031 329.664062 C 97.074219 329.664062 67.308594 299.738281 67.308594 262.867188 L 67.308594 109.984375 C 67.308594 74.816406 95.671875 46.027344 130.632812 46.027344 Z M 220.640625 228.972656 L 144.253906 228.972656 C 138.496094 228.972656 133.722656 233.652344 133.722656 239.464844 C 133.722656 245.28125 138.496094 250.101562 144.253906 250.101562 L 220.640625 250.101562 C 226.398438 250.101562 231.171875 245.28125 231.171875 239.464844 C 231.171875 233.652344 226.398438 228.972656 220.640625 228.972656 Z M 191.714844 158.0625 L 144.253906 158.0625 C 138.496094 158.0625 133.722656 162.882812 133.722656 168.699219 C 133.722656 174.511719 138.496094 179.191406 144.253906 179.191406 L 191.714844 179.191406 C 197.472656 179.191406 202.246094 174.511719 202.246094 168.699219 C 202.246094 162.882812 197.472656 158.0625 191.714844 158.0625 Z M 232.535156 58.875 C 232.535156 52.761719 239.878906 49.726562 244.078125 54.136719 C 259.257812 70.078125 285.78125 97.945312 300.609375 113.515625 C 304.707031 117.8125 301.703125 124.949219 295.792969 124.960938 C 284.25 125.003906 270.644531 124.960938 260.859375 124.863281 C 245.328125 124.863281 232.535156 111.941406 232.535156 96.257812 Z M 232.535156 58.875 " fill-opacity="1" fill-rule="nonzero"/><path fill="#ffffff" d="M 191.71875 158.0625 L 144.257812 158.0625 C 138.5 158.0625 133.726562 162.886719 133.726562 168.699219 C 133.726562 174.515625 138.5 179.195312 144.257812 179.195312 L 191.71875 179.195312 C 197.472656 179.195312 202.25 174.515625 202.25 168.699219 C 202.25 162.886719 197.472656 158.0625 191.71875 158.0625 Z M 191.71875 158.0625 " fill-opacity="1" fill-rule="nonzero"/><path fill="#ffffff" d="M 220.644531 228.972656 L 144.257812 228.972656 C 138.5 228.972656 133.726562 233.652344 133.726562 239.46875 C 133.726562 245.28125 138.5 250.105469 144.257812 250.105469 L 220.644531 250.105469 C 226.398438 250.105469 231.175781 245.28125 231.175781 239.46875 C 231.175781 233.652344 226.398438 228.972656 220.644531 228.972656 Z M 220.644531 228.972656 " fill-opacity="1" fill-rule="nonzero"/><path fill="#f5df99" d="M 244.074219 54.140625 C 239.875 49.730469 232.53125 52.765625 232.53125 58.875 L 232.53125 96.257812 C 232.53125 111.945312 245.324219 124.863281 260.855469 124.863281 C 270.640625 124.964844 284.246094 125.007812 295.789062 124.964844 C 301.699219 124.949219 304.707031 117.816406 300.605469 113.519531 C 293.203125 105.746094 282.882812 94.90625 272.515625 84.015625 C 262.121094 73.09375 251.675781 62.121094 244.074219 54.140625 Z M 244.074219 54.140625 " fill-opacity="1" fill-rule="evenodd"/></svg>