<svg xmlns="http://www.w3.org/2000/svg" xmlns:xlink="http://www.w3.org/1999/xlink" width="500" zoomAndPan="magnify" viewBox="0 0 375 374.999991" height="500" preserveAspectRatio="xMidYMid meet" version="1.0"><path fill="#00a087" d="M 45.84375 139.222656 C 45.84375 134.480469 49.6875 130.636719 54.429688 130.636719 L 321.585938 130.636719 C 326.328125 130.636719 330.171875 134.480469 330.171875 139.222656 L 330.171875 301.175781 C 330.171875 320.144531 314.796875 335.519531 295.828125 335.519531 L 80.1875 335.519531 C 61.21875 335.519531 45.84375 320.144531 45.84375 301.175781 Z M 45.84375 139.222656 " fill-opacity="1" fill-rule="nonzero"/><path fill="#f5df99" d="M 45.84375 109.507812 C 45.84375 114.25 49.6875 118.09375 54.429688 118.09375 L 321.585938 118.09375 C 326.328125 118.09375 330.171875 114.25 330.171875 109.507812 L 330.171875 98.082031 C 330.171875 79.113281 314.796875 63.738281 295.828125 63.738281 L 80.1875 63.738281 C 61.21875 63.738281 45.84375 79.113281 45.84375 98.082031 Z M 45.84375 109.507812 " fill-opacity="1" fill-rule="nonzero"/><path fill="#ffffff" d="M 135.945312 203.089844 L 103.015625 170.160156 C 102.617188 169.761719 102.183594 169.40625 101.710938 169.089844 C 101.242188 168.777344 100.75 168.511719 100.226562 168.296875 C 99.707031 168.082031 99.167969 167.917969 98.617188 167.808594 C 98.0625 167.699219 97.503906 167.644531 96.941406 167.644531 C 96.375 167.644531 95.816406 167.699219 95.265625 167.808594 C 94.710938 167.917969 94.175781 168.082031 93.652344 168.296875 C 93.132812 168.511719 92.636719 168.777344 92.167969 169.089844 C 91.699219 169.40625 91.265625 169.761719 90.867188 170.160156 L 85.371094 175.65625 C 84.972656 176.054688 84.617188 176.488281 84.304688 176.957031 C 83.992188 177.425781 83.726562 177.921875 83.511719 178.441406 C 83.292969 178.960938 83.132812 179.5 83.019531 180.050781 C 82.910156 180.605469 82.855469 181.164062 82.855469 181.726562 C 82.855469 182.292969 82.910156 182.851562 83.019531 183.402344 C 83.132812 183.957031 83.292969 184.496094 83.511719 185.015625 C 83.726562 185.535156 83.992188 186.03125 84.304688 186.5 C 84.617188 186.96875 84.972656 187.402344 85.371094 187.800781 L 118.300781 220.730469 C 118.699219 221.128906 119.132812 221.488281 119.601562 221.800781 C 120.070312 222.113281 120.566406 222.378906 121.089844 222.59375 C 121.609375 222.808594 122.144531 222.972656 122.699219 223.082031 C 123.253906 223.191406 123.8125 223.246094 124.375 223.246094 C 124.9375 223.246094 125.496094 223.191406 126.050781 223.082031 C 126.605469 222.972656 127.140625 222.808594 127.664062 222.59375 C 128.183594 222.378906 128.679688 222.113281 129.148438 221.800781 C 129.617188 221.488281 130.050781 221.128906 130.449219 220.730469 L 135.945312 215.238281 C 136.34375 214.835938 136.699219 214.402344 137.011719 213.933594 C 137.324219 213.464844 137.589844 212.972656 137.804688 212.449219 C 138.023438 211.929688 138.183594 211.390625 138.292969 210.839844 C 138.40625 210.285156 138.460938 209.726562 138.460938 209.164062 C 138.460938 208.597656 138.40625 208.039062 138.292969 207.488281 C 138.183594 206.933594 138.023438 206.398438 137.804688 205.875 C 137.589844 205.355469 137.324219 204.859375 137.011719 204.390625 C 136.699219 203.921875 136.34375 203.488281 135.945312 203.089844 Z M 135.945312 203.089844 " fill-opacity="1" fill-rule="nonzero"/><path fill="#ffffff" d="M 85.355469 230.8125 L 118.285156 197.882812 C 118.683594 197.484375 119.117188 197.128906 119.585938 196.8125 C 120.054688 196.5 120.550781 196.234375 121.070312 196.019531 C 121.589844 195.804688 122.128906 195.640625 122.683594 195.53125 C 123.234375 195.421875 123.792969 195.367188 124.359375 195.367188 C 124.921875 195.367188 125.480469 195.421875 126.035156 195.53125 C 126.585938 195.640625 127.125 195.804688 127.644531 196.019531 C 128.164062 196.234375 128.660156 196.5 129.128906 196.8125 C 129.597656 197.128906 130.03125 197.484375 130.429688 197.882812 L 135.925781 203.375 C 136.324219 203.777344 136.679688 204.210938 136.996094 204.679688 C 137.308594 205.148438 137.574219 205.640625 137.789062 206.164062 C 138.003906 206.683594 138.167969 207.222656 138.277344 207.773438 C 138.386719 208.328125 138.441406 208.886719 138.441406 209.449219 C 138.441406 210.015625 138.386719 210.574219 138.277344 211.125 C 138.167969 211.679688 138.003906 212.214844 137.789062 212.738281 C 137.574219 213.257812 137.308594 213.753906 136.996094 214.222656 C 136.679688 214.691406 136.324219 215.125 135.925781 215.523438 L 102.996094 248.453125 C 102.597656 248.851562 102.164062 249.207031 101.695312 249.523438 C 101.226562 249.835938 100.730469 250.101562 100.210938 250.316406 C 99.6875 250.53125 99.152344 250.695312 98.597656 250.804688 C 98.046875 250.914062 97.488281 250.96875 96.921875 250.96875 C 96.359375 250.96875 95.800781 250.914062 95.246094 250.804688 C 94.695312 250.695312 94.15625 250.53125 93.636719 250.316406 C 93.113281 250.101562 92.621094 249.835938 92.152344 249.523438 C 91.683594 249.207031 91.25 248.851562 90.847656 248.453125 L 85.355469 242.957031 C 84.957031 242.558594 84.597656 242.125 84.285156 241.65625 C 83.972656 241.1875 83.707031 240.691406 83.492188 240.171875 C 83.277344 239.652344 83.113281 239.113281 83.003906 238.5625 C 82.894531 238.007812 82.839844 237.449219 82.839844 236.886719 C 82.839844 236.320312 82.894531 235.761719 83.003906 235.210938 C 83.113281 234.65625 83.277344 234.117188 83.492188 233.597656 C 83.707031 233.078125 83.972656 232.582031 84.285156 232.113281 C 84.597656 231.644531 84.957031 231.210938 85.355469 230.8125 Z M 85.355469 230.8125 " fill-opacity="1" fill-rule="nonzero"/><path fill="#ffffff" d="M 158.984375 251.898438 L 208.707031 251.898438 C 209.269531 251.898438 209.828125 251.84375 210.382812 251.734375 C 210.933594 251.625 211.472656 251.460938 211.992188 251.246094 C 212.515625 251.03125 213.007812 250.765625 213.476562 250.453125 C 213.945312 250.140625 214.382812 249.785156 214.78125 249.382812 C 215.179688 248.984375 215.535156 248.550781 215.847656 248.082031 C 216.160156 247.613281 216.425781 247.117188 216.640625 246.597656 C 216.859375 246.078125 217.019531 245.539062 217.128906 244.988281 C 217.242188 244.433594 217.296875 243.875 217.296875 243.3125 L 217.296875 235.398438 C 217.296875 234.835938 217.242188 234.277344 217.128906 233.722656 C 217.019531 233.167969 216.859375 232.632812 216.640625 232.113281 C 216.425781 231.589844 216.160156 231.09375 215.847656 230.625 C 215.535156 230.15625 215.179688 229.722656 214.78125 229.324219 C 214.382812 228.925781 213.945312 228.570312 213.476562 228.257812 C 213.007812 227.945312 212.515625 227.679688 211.992188 227.464844 C 211.472656 227.246094 210.933594 227.085938 210.382812 226.972656 C 209.828125 226.863281 209.269531 226.808594 208.707031 226.808594 L 158.984375 226.808594 C 158.421875 226.808594 157.863281 226.863281 157.308594 226.972656 C 156.757812 227.085938 156.21875 227.246094 155.699219 227.464844 C 155.175781 227.679688 154.683594 227.945312 154.214844 228.257812 C 153.742188 228.570312 153.308594 228.925781 152.910156 229.324219 C 152.511719 229.722656 152.15625 230.15625 151.84375 230.625 C 151.53125 231.09375 151.265625 231.589844 151.050781 232.113281 C 150.832031 232.632812 150.671875 233.167969 150.558594 233.722656 C 150.449219 234.277344 150.394531 234.835938 150.394531 235.398438 L 150.394531 243.3125 C 150.394531 243.875 150.449219 244.433594 150.558594 244.988281 C 150.671875 245.539062 150.832031 246.078125 151.050781 246.597656 C 151.265625 247.117188 151.53125 247.613281 151.84375 248.082031 C 152.15625 248.550781 152.511719 248.984375 152.910156 249.382812 C 153.308594 249.785156 153.742188 250.140625 154.214844 250.453125 C 154.683594 250.765625 155.175781 251.03125 155.699219 251.246094 C 156.21875 251.460938 156.757812 251.625 157.308594 251.734375 C 157.863281 251.84375 158.421875 251.898438 158.984375 251.898438 Z M 158.984375 251.898438 " fill-opacity="1" fill-rule="nonzero"/></svg>