<svg xmlns="http://www.w3.org/2000/svg" xmlns:xlink="http://www.w3.org/1999/xlink" width="500" zoomAndPan="magnify" viewBox="0 0 375 374.999991" height="500" preserveAspectRatio="xMidYMid meet" version="1.0"><defs><clipPath id="228802dd4a"><path d="M 243 114.671875 L 322 114.671875 L 322 193 L 243 193 Z M 243 114.671875 " clip-rule="nonzero"/></clipPath><clipPath id="5582cd9b78"><path d="M 214 192 L 350 192 L 350 260.171875 L 214 260.171875 Z M 214 192 " clip-rule="nonzero"/></clipPath><clipPath id="efeb5a3db0"><path d="M 55 114.078125 L 134 114.078125 L 134 192 L 55 192 Z M 55 114.078125 " clip-rule="nonzero"/></clipPath><clipPath id="c31ca98f95"><path d="M 27 191 L 162 191 L 162 258.828125 L 27 258.828125 Z M 27 191 " clip-rule="nonzero"/></clipPath><clipPath id="267ef2fd66"><path d="M 148 116.019531 L 226 116.019531 L 226 194 L 148 194 Z M 148 116.019531 " clip-rule="nonzero"/></clipPath><clipPath id="221bfcba89"><path d="M 119 193 L 255 193 L 255 260.769531 L 119 260.769531 Z M 119 193 " clip-rule="nonzero"/></clipPath></defs><g clip-path="url(#228802dd4a)"><path fill="#01404f" d="M 321.300781 153.671875 C 321.300781 154.949219 321.238281 156.226562 321.113281 157.496094 C 320.988281 158.765625 320.800781 160.027344 320.550781 161.28125 C 320.304688 162.535156 319.992188 163.773438 319.621094 164.996094 C 319.25 166.21875 318.820312 167.417969 318.332031 168.597656 C 317.84375 169.777344 317.296875 170.933594 316.695312 172.058594 C 316.09375 173.183594 315.4375 174.277344 314.730469 175.339844 C 314.019531 176.402344 313.257812 177.429688 312.449219 178.414062 C 311.636719 179.402344 310.78125 180.347656 309.878906 181.25 C 308.976562 182.15625 308.03125 183.011719 307.042969 183.820312 C 306.054688 184.632812 305.03125 185.390625 303.96875 186.101562 C 302.90625 186.8125 301.8125 187.46875 300.683594 188.070312 C 299.558594 188.671875 298.40625 189.21875 297.226562 189.707031 C 296.046875 190.195312 294.84375 190.625 293.621094 190.996094 C 292.398438 191.367188 291.160156 191.675781 289.910156 191.925781 C 288.65625 192.175781 287.394531 192.363281 286.121094 192.488281 C 284.851562 192.613281 283.578125 192.675781 282.300781 192.675781 C 281.023438 192.675781 279.75 192.613281 278.476562 192.488281 C 277.207031 192.363281 275.945312 192.175781 274.691406 191.925781 C 273.4375 191.675781 272.199219 191.367188 270.980469 190.996094 C 269.757812 190.625 268.554688 190.195312 267.375 189.707031 C 266.195312 189.21875 265.042969 188.671875 263.914062 188.070312 C 262.789062 187.46875 261.695312 186.8125 260.632812 186.101562 C 259.570312 185.390625 258.546875 184.632812 257.558594 183.820312 C 256.570312 183.011719 255.625 182.15625 254.722656 181.25 C 253.820312 180.347656 252.960938 179.402344 252.152344 178.414062 C 251.339844 177.429688 250.582031 176.402344 249.871094 175.339844 C 249.160156 174.277344 248.507812 173.183594 247.902344 172.058594 C 247.300781 170.933594 246.757812 169.777344 246.265625 168.597656 C 245.777344 167.417969 245.347656 166.21875 244.976562 164.996094 C 244.605469 163.773438 244.296875 162.535156 244.046875 161.28125 C 243.796875 160.027344 243.613281 158.765625 243.488281 157.496094 C 243.359375 156.226562 243.296875 154.949219 243.296875 153.671875 C 243.296875 152.394531 243.359375 151.121094 243.488281 149.851562 C 243.613281 148.578125 243.796875 147.316406 244.046875 146.0625 C 244.296875 144.8125 244.605469 143.574219 244.976562 142.351562 C 245.347656 141.128906 245.777344 139.929688 246.265625 138.746094 C 246.757812 137.566406 247.300781 136.414062 247.902344 135.289062 C 248.507812 134.160156 249.160156 133.066406 249.871094 132.003906 C 250.582031 130.941406 251.339844 129.917969 252.152344 128.929688 C 252.960938 127.945312 253.820312 127 254.722656 126.09375 C 255.625 125.191406 256.570312 124.335938 257.558594 123.523438 C 258.546875 122.714844 259.570312 121.953125 260.632812 121.246094 C 261.695312 120.535156 262.789062 119.878906 263.914062 119.277344 C 265.042969 118.675781 266.195312 118.128906 267.375 117.640625 C 268.554688 117.152344 269.757812 116.722656 270.980469 116.351562 C 272.199219 115.980469 273.4375 115.671875 274.691406 115.421875 C 275.945312 115.171875 277.207031 114.984375 278.476562 114.859375 C 279.75 114.734375 281.023438 114.671875 282.300781 114.671875 C 283.578125 114.671875 284.851562 114.734375 286.121094 114.859375 C 287.394531 114.984375 288.65625 115.171875 289.910156 115.421875 C 291.160156 115.671875 292.398438 115.980469 293.621094 116.351562 C 294.84375 116.722656 296.046875 117.152344 297.226562 117.640625 C 298.40625 118.128906 299.558594 118.675781 300.683594 119.277344 C 301.8125 119.878906 302.90625 120.535156 303.96875 121.246094 C 305.03125 121.953125 306.054688 122.714844 307.042969 123.523438 C 308.03125 124.335938 308.976562 125.191406 309.878906 126.09375 C 310.78125 127 311.636719 127.945312 312.449219 128.929688 C 313.257812 129.917969 314.019531 130.941406 314.730469 132.003906 C 315.4375 133.066406 316.09375 134.160156 316.695312 135.289062 C 317.296875 136.414062 317.84375 137.566406 318.332031 138.746094 C 318.820312 139.929688 319.25 141.128906 319.621094 142.351562 C 319.992188 143.574219 320.304688 144.8125 320.550781 146.0625 C 320.800781 147.316406 320.988281 148.578125 321.113281 149.851562 C 321.238281 151.121094 321.300781 152.394531 321.300781 153.671875 Z M 321.300781 153.671875 " fill-opacity="1" fill-rule="nonzero"/></g><g clip-path="url(#5582cd9b78)"><path fill="#00a087" d="M 349.648438 260.019531 C 349.648438 251.175781 347.90625 242.417969 344.519531 234.246094 C 341.136719 226.074219 336.175781 218.652344 329.921875 212.398438 C 323.667969 206.144531 316.242188 201.183594 308.074219 197.796875 C 299.902344 194.414062 291.144531 192.671875 282.300781 192.671875 C 273.457031 192.671875 264.699219 194.414062 256.527344 197.796875 C 248.355469 201.183594 240.933594 206.144531 234.679688 212.398438 C 228.425781 218.652344 223.464844 226.074219 220.078125 234.246094 C 216.695312 242.417969 214.953125 251.175781 214.953125 260.019531 Z M 349.648438 260.019531 " fill-opacity="1" fill-rule="nonzero"/></g><g clip-path="url(#efeb5a3db0)"><path fill="#f5df99" d="M 133.367188 152.960938 C 133.367188 154.234375 133.304688 155.503906 133.179688 156.769531 C 133.054688 158.039062 132.867188 159.296875 132.617188 160.546875 C 132.371094 161.792969 132.0625 163.027344 131.691406 164.246094 C 131.320312 165.464844 130.894531 166.664062 130.40625 167.839844 C 129.917969 169.015625 129.375 170.164062 128.773438 171.289062 C 128.175781 172.410156 127.519531 173.503906 126.8125 174.5625 C 126.105469 175.621094 125.347656 176.640625 124.539062 177.625 C 123.730469 178.609375 122.878906 179.554688 121.976562 180.453125 C 121.078125 181.355469 120.132812 182.207031 119.148438 183.015625 C 118.164062 183.824219 117.144531 184.582031 116.085938 185.289062 C 115.027344 185.996094 113.933594 186.648438 112.8125 187.25 C 111.6875 187.851562 110.539062 188.394531 109.363281 188.882812 C 108.1875 189.371094 106.988281 189.796875 105.769531 190.167969 C 104.550781 190.535156 103.316406 190.847656 102.070312 191.09375 C 100.820312 191.34375 99.5625 191.53125 98.292969 191.65625 C 97.027344 191.777344 95.757812 191.839844 94.484375 191.839844 C 93.210938 191.839844 91.941406 191.777344 90.671875 191.65625 C 89.40625 191.53125 88.148438 191.34375 86.898438 191.09375 C 85.648438 190.847656 84.414062 190.535156 83.195312 190.167969 C 81.976562 189.796875 80.78125 189.371094 79.605469 188.882812 C 78.425781 188.394531 77.277344 187.851562 76.15625 187.25 C 75.03125 186.648438 73.941406 185.996094 72.882812 185.289062 C 71.824219 184.582031 70.800781 183.824219 69.816406 183.015625 C 68.832031 182.207031 67.890625 181.355469 66.988281 180.453125 C 66.089844 179.554688 65.234375 178.609375 64.425781 177.625 C 63.621094 176.640625 62.863281 175.621094 62.152344 174.5625 C 61.445312 173.503906 60.792969 172.410156 60.191406 171.289062 C 59.59375 170.164062 59.046875 169.015625 58.5625 167.839844 C 58.074219 166.664062 57.644531 165.464844 57.277344 164.246094 C 56.90625 163.027344 56.597656 161.792969 56.347656 160.546875 C 56.101562 159.296875 55.914062 158.039062 55.789062 156.769531 C 55.664062 155.503906 55.601562 154.234375 55.601562 152.960938 C 55.601562 151.6875 55.664062 150.414062 55.789062 149.148438 C 55.914062 147.882812 56.101562 146.621094 56.347656 145.375 C 56.597656 144.125 56.90625 142.890625 57.277344 141.671875 C 57.644531 140.453125 58.074219 139.257812 58.5625 138.078125 C 59.046875 136.902344 59.59375 135.753906 60.191406 134.628906 C 60.792969 133.507812 61.445312 132.417969 62.152344 131.359375 C 62.863281 130.300781 63.621094 129.277344 64.425781 128.292969 C 65.234375 127.308594 66.089844 126.367188 66.988281 125.464844 C 67.890625 124.566406 68.832031 123.710938 69.816406 122.902344 C 70.800781 122.09375 71.824219 121.335938 72.882812 120.628906 C 73.941406 119.921875 75.03125 119.269531 76.15625 118.667969 C 77.277344 118.066406 78.425781 117.523438 79.605469 117.035156 C 80.78125 116.550781 81.976562 116.121094 83.195312 115.75 C 84.414062 115.382812 85.648438 115.074219 86.898438 114.824219 C 88.148438 114.574219 89.40625 114.390625 90.671875 114.265625 C 91.941406 114.140625 93.210938 114.078125 94.484375 114.078125 C 95.757812 114.078125 97.027344 114.140625 98.292969 114.265625 C 99.5625 114.390625 100.820312 114.574219 102.070312 114.824219 C 103.316406 115.074219 104.550781 115.382812 105.769531 115.75 C 106.988281 116.121094 108.1875 116.550781 109.363281 117.035156 C 110.539062 117.523438 111.6875 118.066406 112.8125 118.667969 C 113.933594 119.269531 115.027344 119.921875 116.085938 120.628906 C 117.144531 121.335938 118.164062 122.09375 119.148438 122.902344 C 120.132812 123.710938 121.078125 124.566406 121.976562 125.464844 C 122.878906 126.367188 123.730469 127.308594 124.539062 128.292969 C 125.347656 129.277344 126.105469 130.300781 126.8125 131.359375 C 127.519531 132.417969 128.175781 133.507812 128.773438 134.628906 C 129.375 135.753906 129.917969 136.902344 130.40625 138.078125 C 130.894531 139.257812 131.320312 140.453125 131.691406 141.671875 C 132.0625 142.890625 132.371094 144.125 132.617188 145.375 C 132.867188 146.621094 133.054688 147.882812 133.179688 149.148438 C 133.304688 150.414062 133.367188 151.6875 133.367188 152.960938 Z M 133.367188 152.960938 " fill-opacity="1" fill-rule="nonzero"/></g><g clip-path="url(#c31ca98f95)"><path fill="#01404f" d="M 161.625 258.980469 C 161.625 250.164062 159.886719 241.433594 156.511719 233.285156 C 153.140625 225.140625 148.195312 217.738281 141.960938 211.503906 C 135.726562 205.269531 128.324219 200.324219 120.175781 196.949219 C 112.03125 193.574219 103.300781 191.839844 94.484375 191.839844 C 85.667969 191.839844 76.9375 193.574219 68.789062 196.949219 C 60.644531 200.324219 53.242188 205.269531 47.007812 211.503906 C 40.773438 217.738281 35.828125 225.140625 32.453125 233.285156 C 29.078125 241.433594 27.34375 250.164062 27.34375 258.980469 Z M 161.625 258.980469 " fill-opacity="1" fill-rule="nonzero"/></g><g clip-path="url(#267ef2fd66)"><path fill="#00a087" d="M 225.777344 154.902344 C 225.777344 156.175781 225.714844 157.445312 225.589844 158.710938 C 225.464844 159.980469 225.28125 161.238281 225.03125 162.488281 C 224.78125 163.734375 224.472656 164.96875 224.105469 166.1875 C 223.734375 167.40625 223.304688 168.605469 222.820312 169.78125 C 222.332031 170.957031 221.789062 172.109375 221.1875 173.230469 C 220.585938 174.355469 219.933594 175.445312 219.226562 176.503906 C 218.519531 177.5625 217.761719 178.582031 216.953125 179.566406 C 216.144531 180.550781 215.289062 181.496094 214.390625 182.394531 C 213.488281 183.296875 212.546875 184.148438 211.5625 184.957031 C 210.578125 185.765625 209.558594 186.523438 208.496094 187.230469 C 207.4375 187.9375 206.347656 188.59375 205.226562 189.191406 C 204.101562 189.792969 202.953125 190.335938 201.777344 190.824219 C 200.597656 191.3125 199.402344 191.738281 198.183594 192.109375 C 196.964844 192.480469 195.730469 192.789062 194.480469 193.035156 C 193.234375 193.285156 191.972656 193.472656 190.707031 193.597656 C 189.441406 193.722656 188.167969 193.785156 186.894531 193.785156 C 185.621094 193.785156 184.351562 193.722656 183.085938 193.597656 C 181.816406 193.472656 180.558594 193.285156 179.3125 193.035156 C 178.0625 192.789062 176.828125 192.480469 175.609375 192.109375 C 174.390625 191.738281 173.191406 191.3125 172.015625 190.824219 C 170.839844 190.335938 169.691406 189.792969 168.566406 189.191406 C 167.445312 188.59375 166.351562 187.9375 165.292969 187.230469 C 164.234375 186.523438 163.214844 185.765625 162.230469 184.957031 C 161.246094 184.148438 160.304688 183.296875 159.402344 182.394531 C 158.5 181.496094 157.648438 180.550781 156.839844 179.566406 C 156.03125 178.582031 155.273438 177.5625 154.566406 176.503906 C 153.859375 175.445312 153.207031 174.355469 152.605469 173.230469 C 152.003906 172.109375 151.460938 170.957031 150.972656 169.78125 C 150.488281 168.605469 150.058594 167.40625 149.6875 166.1875 C 149.320312 164.96875 149.007812 163.734375 148.761719 162.488281 C 148.511719 161.238281 148.324219 159.980469 148.203125 158.710938 C 148.078125 157.445312 148.015625 156.175781 148.015625 154.902344 C 148.015625 153.628906 148.078125 152.359375 148.203125 151.089844 C 148.324219 149.824219 148.511719 148.566406 148.761719 147.316406 C 149.007812 146.066406 149.320312 144.832031 149.6875 143.613281 C 150.058594 142.394531 150.488281 141.199219 150.972656 140.023438 C 151.460938 138.84375 152.003906 137.695312 152.605469 136.574219 C 153.207031 135.449219 153.859375 134.359375 154.566406 133.300781 C 155.273438 132.242188 156.03125 131.21875 156.839844 130.234375 C 157.648438 129.25 158.5 128.308594 159.402344 127.40625 C 160.304688 126.507812 161.246094 125.652344 162.230469 124.84375 C 163.214844 124.039062 164.234375 123.28125 165.292969 122.574219 C 166.351562 121.863281 167.445312 121.210938 168.566406 120.609375 C 169.691406 120.011719 170.839844 119.464844 172.015625 118.980469 C 173.191406 118.492188 174.390625 118.0625 175.609375 117.695312 C 176.828125 117.324219 178.0625 117.015625 179.3125 116.765625 C 180.558594 116.519531 181.816406 116.332031 183.085938 116.207031 C 184.351562 116.082031 185.621094 116.019531 186.894531 116.019531 C 188.167969 116.019531 189.441406 116.082031 190.707031 116.207031 C 191.972656 116.332031 193.234375 116.519531 194.480469 116.765625 C 195.730469 117.015625 196.964844 117.324219 198.183594 117.695312 C 199.402344 118.0625 200.597656 118.492188 201.777344 118.980469 C 202.953125 119.464844 204.101562 120.011719 205.226562 120.609375 C 206.347656 121.210938 207.4375 121.863281 208.496094 122.574219 C 209.558594 123.28125 210.578125 124.039062 211.5625 124.84375 C 212.546875 125.652344 213.488281 126.507812 214.390625 127.40625 C 215.289062 128.308594 216.144531 129.25 216.953125 130.234375 C 217.761719 131.21875 218.519531 132.242188 219.226562 133.300781 C 219.933594 134.359375 220.585938 135.449219 221.1875 136.574219 C 221.789062 137.695312 222.332031 138.84375 222.820312 140.023438 C 223.304688 141.199219 223.734375 142.394531 224.105469 143.613281 C 224.472656 144.832031 224.78125 146.066406 225.03125 147.316406 C 225.28125 148.566406 225.464844 149.824219 225.589844 151.089844 C 225.714844 152.359375 225.777344 153.628906 225.777344 154.902344 Z M 225.777344 154.902344 " fill-opacity="1" fill-rule="nonzero"/></g><g clip-path="url(#221bfcba89)"><path fill="#f5df99" d="M 254.039062 260.921875 C 254.039062 252.105469 252.300781 243.375 248.925781 235.226562 C 245.550781 227.082031 240.605469 219.679688 234.371094 213.445312 C 228.136719 207.210938 220.734375 202.265625 212.589844 198.890625 C 204.445312 195.515625 195.714844 193.78125 186.894531 193.78125 C 178.078125 193.78125 169.347656 195.515625 161.203125 198.890625 C 153.054688 202.265625 145.65625 207.210938 139.421875 213.445312 C 133.1875 219.679688 128.238281 227.082031 124.867188 235.226562 C 121.492188 243.375 119.753906 252.105469 119.753906 260.921875 Z M 254.039062 260.921875 " fill-opacity="1" fill-rule="nonzero"/></g></svg>