<svg xmlns="http://www.w3.org/2000/svg" xmlns:xlink="http://www.w3.org/1999/xlink" width="500" zoomAndPan="magnify" viewBox="0 0 375 374.999991" height="500" preserveAspectRatio="xMidYMid meet" version="1.0"><defs><clipPath id="72865c904e"><path d="M 32.308594 219 L 119 219 L 119 350 L 32.308594 350 Z M 32.308594 219 " clip-rule="nonzero"/></clipPath><clipPath id="724c00bcba"><path d="M 256 39 L 342.808594 39 L 342.808594 350 L 256 350 Z M 256 39 " clip-rule="nonzero"/></clipPath></defs><g clip-path="url(#72865c904e)"><path fill="#f5df99" d="M 46.523438 219.265625 L 104.3125 219.265625 C 105.246094 219.265625 106.171875 219.355469 107.085938 219.539062 C 108 219.722656 108.890625 219.992188 109.753906 220.347656 C 110.613281 220.707031 111.433594 221.144531 112.210938 221.660156 C 112.984375 222.179688 113.703125 222.769531 114.363281 223.429688 C 115.023438 224.089844 115.613281 224.808594 116.132812 225.582031 C 116.648438 226.359375 117.085938 227.179688 117.445312 228.039062 C 117.800781 228.902344 118.070312 229.792969 118.253906 230.707031 C 118.4375 231.621094 118.527344 232.546875 118.527344 233.480469 L 118.527344 335.535156 C 118.527344 336.46875 118.4375 337.394531 118.253906 338.308594 C 118.070312 339.226562 117.800781 340.113281 117.445312 340.976562 C 117.085938 341.839844 116.648438 342.65625 116.132812 343.433594 C 115.613281 344.210938 115.023438 344.929688 114.363281 345.585938 C 113.703125 346.246094 112.984375 346.835938 112.210938 347.355469 C 111.433594 347.875 110.613281 348.3125 109.753906 348.667969 C 108.890625 349.027344 108 349.296875 107.085938 349.476562 C 106.171875 349.660156 105.246094 349.75 104.3125 349.75 L 46.523438 349.75 C 45.59375 349.75 44.667969 349.660156 43.753906 349.476562 C 42.835938 349.296875 41.949219 349.027344 41.085938 348.667969 C 40.222656 348.3125 39.40625 347.875 38.628906 347.355469 C 37.851562 346.835938 37.132812 346.246094 36.472656 345.585938 C 35.8125 344.929688 35.226562 344.210938 34.707031 343.433594 C 34.1875 342.65625 33.75 341.839844 33.394531 340.976562 C 33.035156 340.113281 32.765625 339.226562 32.585938 338.308594 C 32.402344 337.394531 32.3125 336.46875 32.3125 335.535156 L 32.3125 233.480469 C 32.3125 232.546875 32.402344 231.621094 32.585938 230.707031 C 32.765625 229.792969 33.035156 228.902344 33.394531 228.039062 C 33.75 227.179688 34.1875 226.359375 34.707031 225.582031 C 35.226562 224.808594 35.8125 224.089844 36.472656 223.429688 C 37.132812 222.769531 37.851562 222.179688 38.628906 221.660156 C 39.40625 221.144531 40.222656 220.707031 41.085938 220.347656 C 41.949219 219.992188 42.835938 219.722656 43.753906 219.539062 C 44.667969 219.355469 45.59375 219.265625 46.523438 219.265625 Z M 46.523438 219.265625 " fill-opacity="1" fill-rule="nonzero"/></g><path fill="#024c5b" d="M 158.605469 130.128906 L 216.394531 130.128906 C 217.328125 130.128906 218.25 130.222656 219.167969 130.402344 C 220.082031 130.585938 220.972656 130.855469 221.832031 131.210938 C 222.695312 131.570312 223.515625 132.007812 224.289062 132.527344 C 225.066406 133.042969 225.785156 133.632812 226.445312 134.292969 C 227.105469 134.953125 227.695312 135.671875 228.210938 136.449219 C 228.730469 137.222656 229.167969 138.042969 229.527344 138.90625 C 229.882812 139.765625 230.152344 140.65625 230.335938 141.570312 C 230.515625 142.488281 230.609375 143.410156 230.609375 144.34375 L 230.609375 335.542969 C 230.609375 336.476562 230.515625 337.398438 230.335938 338.316406 C 230.152344 339.230469 229.882812 340.121094 229.527344 340.980469 C 229.167969 341.84375 228.730469 342.664062 228.210938 343.441406 C 227.695312 344.214844 227.105469 344.933594 226.445312 345.59375 C 225.785156 346.253906 225.066406 346.84375 224.289062 347.359375 C 223.515625 347.878906 222.695312 348.316406 221.832031 348.675781 C 220.972656 349.03125 220.082031 349.300781 219.167969 349.484375 C 218.25 349.664062 217.328125 349.757812 216.394531 349.757812 L 158.605469 349.757812 C 157.671875 349.757812 156.75 349.664062 155.832031 349.484375 C 154.917969 349.300781 154.027344 349.03125 153.167969 348.675781 C 152.304688 348.316406 151.484375 347.878906 150.707031 347.359375 C 149.933594 346.84375 149.214844 346.253906 148.554688 345.59375 C 147.894531 344.933594 147.304688 344.214844 146.789062 343.441406 C 146.269531 342.664062 145.832031 341.84375 145.472656 340.980469 C 145.117188 340.121094 144.847656 339.230469 144.664062 338.316406 C 144.484375 337.398438 144.390625 336.476562 144.390625 335.542969 L 144.390625 144.34375 C 144.390625 143.410156 144.484375 142.488281 144.664062 141.570312 C 144.847656 140.65625 145.117188 139.765625 145.472656 138.90625 C 145.832031 138.042969 146.269531 137.222656 146.789062 136.449219 C 147.304688 135.671875 147.894531 134.953125 148.554688 134.292969 C 149.214844 133.632812 149.933594 133.042969 150.707031 132.527344 C 151.484375 132.007812 152.304688 131.570312 153.167969 131.210938 C 154.027344 130.855469 154.917969 130.585938 155.832031 130.402344 C 156.75 130.222656 157.671875 130.128906 158.605469 130.128906 Z M 158.605469 130.128906 " fill-opacity="1" fill-rule="nonzero"/><g clip-path="url(#724c00bcba)"><path fill="#00a087" d="M 270.6875 39.378906 L 328.472656 39.378906 C 329.40625 39.378906 330.332031 39.46875 331.246094 39.652344 C 332.164062 39.835938 333.050781 40.105469 333.914062 40.460938 C 334.777344 40.820312 335.59375 41.257812 336.371094 41.773438 C 337.148438 42.292969 337.863281 42.882812 338.523438 43.542969 C 339.183594 44.203125 339.773438 44.921875 340.292969 45.695312 C 340.8125 46.472656 341.25 47.292969 341.605469 48.152344 C 341.964844 49.015625 342.234375 49.90625 342.414062 50.820312 C 342.597656 51.734375 342.6875 52.660156 342.6875 53.59375 L 342.6875 335.542969 C 342.6875 336.476562 342.597656 337.398438 342.414062 338.316406 C 342.234375 339.230469 341.964844 340.121094 341.605469 340.980469 C 341.25 341.84375 340.8125 342.664062 340.292969 343.441406 C 339.773438 344.214844 339.183594 344.933594 338.523438 345.59375 C 337.863281 346.253906 337.148438 346.84375 336.371094 347.359375 C 335.59375 347.878906 334.777344 348.316406 333.914062 348.675781 C 333.050781 349.03125 332.164062 349.300781 331.246094 349.484375 C 330.332031 349.664062 329.40625 349.757812 328.472656 349.757812 L 270.6875 349.757812 C 269.753906 349.757812 268.828125 349.664062 267.914062 349.484375 C 267 349.300781 266.109375 349.03125 265.246094 348.675781 C 264.382812 348.316406 263.566406 347.878906 262.789062 347.359375 C 262.011719 346.84375 261.296875 346.253906 260.636719 345.59375 C 259.976562 344.933594 259.386719 344.214844 258.867188 343.441406 C 258.347656 342.664062 257.910156 341.84375 257.554688 340.980469 C 257.195312 340.121094 256.925781 339.230469 256.746094 338.316406 C 256.5625 337.398438 256.472656 336.476562 256.472656 335.542969 L 256.472656 53.59375 C 256.472656 52.660156 256.5625 51.734375 256.746094 50.820312 C 256.925781 49.90625 257.195312 49.015625 257.554688 48.152344 C 257.910156 47.292969 258.347656 46.472656 258.867188 45.695312 C 259.386719 44.921875 259.976562 44.203125 260.636719 43.542969 C 261.296875 42.882812 262.011719 42.292969 262.789062 41.773438 C 263.566406 41.257812 264.382812 40.820312 265.246094 40.460938 C 266.109375 40.105469 267 39.835938 267.914062 39.652344 C 268.828125 39.46875 269.753906 39.378906 270.6875 39.378906 Z M 270.6875 39.378906 " fill-opacity="1" fill-rule="nonzero"/></g></svg>