<svg xmlns="http://www.w3.org/2000/svg" xmlns:xlink="http://www.w3.org/1999/xlink" width="500" zoomAndPan="magnify" viewBox="0 0 375 374.999991" height="500" preserveAspectRatio="xMidYMid meet" version="1.0"><path fill="#00a087" d="M 65.5 130.8125 L 312.792969 130.8125 C 313.496094 130.8125 314.199219 130.84375 314.898438 130.914062 C 315.601562 130.984375 316.296875 131.085938 316.988281 131.222656 C 317.679688 131.363281 318.359375 131.53125 319.035156 131.738281 C 319.710938 131.941406 320.371094 132.179688 321.023438 132.449219 C 321.671875 132.71875 322.308594 133.019531 322.929688 133.351562 C 323.550781 133.683594 324.15625 134.042969 324.738281 134.433594 C 325.324219 134.828125 325.890625 135.246094 326.433594 135.691406 C 326.980469 136.140625 327.5 136.613281 328 137.109375 C 328.496094 137.609375 328.96875 138.128906 329.417969 138.671875 C 329.863281 139.21875 330.28125 139.78125 330.671875 140.367188 C 331.066406 140.953125 331.425781 141.558594 331.757812 142.179688 C 332.089844 142.800781 332.390625 143.4375 332.660156 144.085938 C 332.929688 144.738281 333.167969 145.398438 333.371094 146.074219 C 333.578125 146.746094 333.746094 147.429688 333.882812 148.121094 C 334.023438 148.8125 334.125 149.507812 334.195312 150.207031 C 334.261719 150.910156 334.296875 151.613281 334.296875 152.316406 L 334.296875 307.933594 C 334.296875 308.636719 334.261719 309.339844 334.195312 310.042969 C 334.125 310.742188 334.023438 311.4375 333.882812 312.128906 C 333.746094 312.820312 333.578125 313.503906 333.371094 314.175781 C 333.167969 314.851562 332.929688 315.511719 332.660156 316.164062 C 332.390625 316.8125 332.089844 317.449219 331.757812 318.070312 C 331.425781 318.691406 331.066406 319.296875 330.671875 319.882812 C 330.28125 320.46875 329.863281 321.03125 329.417969 321.578125 C 328.96875 322.121094 328.496094 322.640625 328 323.140625 C 327.5 323.636719 326.980469 324.109375 326.433594 324.558594 C 325.890625 325.003906 325.324219 325.421875 324.738281 325.816406 C 324.15625 326.207031 323.550781 326.566406 322.929688 326.898438 C 322.308594 327.230469 321.671875 327.53125 321.023438 327.800781 C 320.371094 328.070312 319.710938 328.308594 319.035156 328.511719 C 318.359375 328.71875 317.679688 328.886719 316.988281 329.027344 C 316.296875 329.164062 315.601562 329.265625 314.898438 329.335938 C 314.199219 329.40625 313.496094 329.4375 312.792969 329.4375 L 65.5 329.4375 C 64.796875 329.4375 64.09375 329.40625 63.390625 329.335938 C 62.691406 329.265625 61.996094 329.164062 61.304688 329.027344 C 60.613281 328.886719 59.929688 328.71875 59.257812 328.511719 C 58.582031 328.308594 57.921875 328.070312 57.269531 327.800781 C 56.621094 327.53125 55.984375 327.230469 55.363281 326.898438 C 54.742188 326.566406 54.136719 326.207031 53.550781 325.816406 C 52.964844 325.421875 52.402344 325.003906 51.855469 324.558594 C 51.3125 324.109375 50.792969 323.636719 50.292969 323.140625 C 49.796875 322.640625 49.324219 322.121094 48.875 321.578125 C 48.429688 321.03125 48.011719 320.46875 47.617188 319.882812 C 47.226562 319.296875 46.867188 318.691406 46.535156 318.070312 C 46.203125 317.449219 45.902344 316.8125 45.632812 316.164062 C 45.363281 315.511719 45.125 314.851562 44.921875 314.175781 C 44.714844 313.503906 44.546875 312.820312 44.40625 312.128906 C 44.269531 311.4375 44.167969 310.742188 44.097656 310.042969 C 44.027344 309.339844 43.996094 308.636719 43.996094 307.933594 L 43.996094 152.316406 C 43.996094 151.613281 44.027344 150.910156 44.097656 150.207031 C 44.167969 149.507812 44.269531 148.8125 44.40625 148.121094 C 44.546875 147.429688 44.714844 146.746094 44.921875 146.074219 C 45.125 145.398438 45.363281 144.738281 45.632812 144.085938 C 45.902344 143.4375 46.203125 142.800781 46.535156 142.179688 C 46.867188 141.558594 47.226562 140.953125 47.617188 140.367188 C 48.011719 139.78125 48.429688 139.21875 48.875 138.671875 C 49.324219 138.128906 49.796875 137.609375 50.292969 137.109375 C 50.792969 136.613281 51.3125 136.140625 51.855469 135.691406 C 52.402344 135.246094 52.964844 134.828125 53.550781 134.433594 C 54.136719 134.042969 54.742188 133.683594 55.363281 133.351562 C 55.984375 133.019531 56.621094 132.71875 57.269531 132.449219 C 57.921875 132.179688 58.582031 131.941406 59.257812 131.738281 C 59.929688 131.53125 60.613281 131.363281 61.304688 131.222656 C 61.996094 131.085938 62.691406 130.984375 63.390625 130.914062 C 64.09375 130.84375 64.796875 130.8125 65.5 130.8125 Z M 65.5 130.8125 " fill-opacity="1" fill-rule="nonzero"/><path fill="#024c5b" d="M 184.617188 176.644531 L 193.664062 176.644531 C 194.371094 176.644531 195.070312 176.714844 195.761719 176.851562 C 196.453125 176.988281 197.125 177.195312 197.777344 177.464844 C 198.429688 177.734375 199.050781 178.066406 199.636719 178.457031 C 200.226562 178.851562 200.769531 179.296875 201.269531 179.796875 C 201.769531 180.296875 202.214844 180.839844 202.605469 181.425781 C 203 182.011719 203.328125 182.632812 203.601562 183.285156 C 203.871094 183.9375 204.074219 184.609375 204.210938 185.300781 C 204.351562 185.996094 204.417969 186.695312 204.417969 187.402344 L 204.417969 272.84375 C 204.417969 273.550781 204.351562 274.25 204.210938 274.941406 C 204.074219 275.632812 203.871094 276.304688 203.601562 276.957031 C 203.328125 277.609375 203 278.230469 202.605469 278.816406 C 202.214844 279.40625 201.769531 279.949219 201.269531 280.449219 C 200.769531 280.949219 200.226562 281.394531 199.636719 281.785156 C 199.050781 282.179688 198.429688 282.507812 197.777344 282.78125 C 197.125 283.050781 196.453125 283.253906 195.761719 283.390625 C 195.070312 283.53125 194.371094 283.597656 193.664062 283.597656 L 184.617188 283.597656 C 183.910156 283.597656 183.210938 283.53125 182.519531 283.390625 C 181.828125 283.253906 181.15625 283.050781 180.5 282.78125 C 179.847656 282.507812 179.230469 282.179688 178.640625 281.785156 C 178.054688 281.394531 177.511719 280.949219 177.011719 280.449219 C 176.511719 279.949219 176.066406 279.40625 175.675781 278.816406 C 175.28125 278.230469 174.953125 277.609375 174.679688 276.957031 C 174.410156 276.304688 174.207031 275.632812 174.070312 274.941406 C 173.929688 274.25 173.863281 273.550781 173.863281 272.84375 L 173.863281 187.402344 C 173.863281 186.695312 173.929688 185.996094 174.070312 185.300781 C 174.207031 184.609375 174.410156 183.9375 174.679688 183.285156 C 174.953125 182.632812 175.28125 182.011719 175.675781 181.425781 C 176.066406 180.839844 176.511719 180.296875 177.011719 179.796875 C 177.511719 179.296875 178.054688 178.851562 178.640625 178.457031 C 179.230469 178.066406 179.847656 177.734375 180.5 177.464844 C 181.15625 177.195312 181.828125 176.988281 182.519531 176.851562 C 183.210938 176.714844 183.910156 176.644531 184.617188 176.644531 Z M 184.617188 176.644531 " fill-opacity="1" fill-rule="nonzero"/><path fill="#024c5b" d="M 135.65625 234.644531 L 135.65625 225.597656 C 135.65625 224.894531 135.726562 224.195312 135.863281 223.5 C 136.003906 222.808594 136.207031 222.136719 136.476562 221.484375 C 136.746094 220.832031 137.078125 220.210938 137.46875 219.625 C 137.863281 219.035156 138.308594 218.492188 138.808594 217.992188 C 139.308594 217.496094 139.851562 217.046875 140.4375 216.65625 C 141.023438 216.265625 141.644531 215.933594 142.296875 215.664062 C 142.949219 215.390625 143.621094 215.1875 144.316406 215.050781 C 145.007812 214.914062 145.707031 214.84375 146.414062 214.84375 L 231.855469 214.84375 C 232.5625 214.84375 233.261719 214.914062 233.953125 215.050781 C 234.648438 215.1875 235.320312 215.390625 235.972656 215.664062 C 236.625 215.933594 237.242188 216.265625 237.832031 216.65625 C 238.417969 217.046875 238.960938 217.496094 239.460938 217.992188 C 239.960938 218.492188 240.40625 219.035156 240.796875 219.625 C 241.191406 220.210938 241.523438 220.832031 241.792969 221.484375 C 242.0625 222.136719 242.265625 222.808594 242.40625 223.5 C 242.542969 224.195312 242.609375 224.894531 242.609375 225.597656 L 242.609375 234.644531 C 242.609375 235.351562 242.542969 236.050781 242.40625 236.742188 C 242.265625 237.433594 242.0625 238.109375 241.792969 238.761719 C 241.523438 239.414062 241.191406 240.03125 240.796875 240.621094 C 240.40625 241.207031 239.960938 241.75 239.460938 242.25 C 238.960938 242.75 238.417969 243.195312 237.832031 243.585938 C 237.242188 243.980469 236.625 244.3125 235.972656 244.582031 C 235.320312 244.851562 234.648438 245.054688 233.953125 245.195312 C 233.261719 245.332031 232.5625 245.398438 231.855469 245.398438 L 146.414062 245.398438 C 145.707031 245.398438 145.007812 245.332031 144.316406 245.195312 C 143.621094 245.054688 142.949219 244.851562 142.296875 244.582031 C 141.644531 244.3125 141.023438 243.980469 140.4375 243.585938 C 139.851562 243.195312 139.308594 242.75 138.808594 242.25 C 138.308594 241.75 137.863281 241.207031 137.46875 240.621094 C 137.078125 240.03125 136.746094 239.414062 136.476562 238.761719 C 136.207031 238.109375 136.003906 237.433594 135.863281 236.742188 C 135.726562 236.050781 135.65625 235.351562 135.65625 234.644531 Z M 135.65625 234.644531 " fill-opacity="1" fill-rule="nonzero"/><path fill="#f5df99" d="M 273.171875 130.808594 C 273.171875 108.523438 264.316406 87.148438 248.558594 71.386719 C 232.796875 55.628906 211.425781 46.773438 189.136719 46.773438 C 166.847656 46.773438 145.472656 55.628906 129.714844 71.386719 C 113.957031 87.148438 105.101562 108.523438 105.101562 130.808594 L 138.714844 130.808594 C 138.714844 117.4375 144.027344 104.613281 153.484375 95.15625 C 162.941406 85.699219 175.765625 80.386719 189.136719 80.386719 C 202.507812 80.386719 215.332031 85.699219 224.789062 95.15625 C 234.246094 104.613281 239.558594 117.4375 239.558594 130.808594 Z M 273.171875 130.808594 " fill-opacity="1" fill-rule="nonzero"/></svg>