<svg xmlns="http://www.w3.org/2000/svg" xmlns:xlink="http://www.w3.org/1999/xlink" width="500" zoomAndPan="magnify" viewBox="0 0 375 374.999991" height="500" preserveAspectRatio="xMidYMid meet" version="1.0"><path fill="#00a087" d="M 187.496094 19.179688 C 279.570312 19.179688 353.996094 93.769531 353.996094 185.675781 C 353.996094 277.75 279.570312 352.175781 187.496094 352.175781 C 95.589844 352.175781 21 277.75 21 185.675781 C 21 93.769531 95.589844 19.179688 187.496094 19.179688 Z M 181.667969 101.261719 C 174.84375 101.261719 169.183594 106.757812 169.183594 113.75 L 169.183594 197.832031 C 169.183594 202.160156 171.511719 206.15625 175.34375 208.488281 L 240.609375 247.449219 C 242.609375 248.613281 244.773438 249.28125 247.105469 249.28125 C 251.265625 249.28125 255.429688 247.113281 257.757812 243.117188 C 261.253906 237.292969 259.425781 229.632812 253.429688 225.96875 L 194.15625 190.671875 L 194.15625 113.75 C 194.15625 106.757812 188.496094 101.261719 181.667969 101.261719 Z M 181.667969 101.261719 " fill-opacity="1" fill-rule="nonzero"/><path fill="#f5df99" d="M 166.394531 197.832031 C 166.394531 203.183594 169.28125 208.050781 173.886719 210.855469 L 239.175781 249.832031 L 239.199219 249.84375 C 241.566406 251.222656 244.207031 252.054688 247.09375 252.054688 C 252.195312 252.054688 257.285156 249.40625 260.136719 244.53125 C 264.410156 237.386719 262.144531 228.046875 254.867188 223.601562 L 196.921875 189.09375 L 196.921875 113.75 C 196.921875 105.199219 189.992188 98.488281 181.65625 98.488281 C 173.324219 98.488281 166.394531 105.199219 166.394531 113.75 Z M 251.679688 248.382812 C 250.214844 248.972656 248.65625 249.277344 247.09375 249.277344 C 244.765625 249.277344 242.601562 248.609375 240.601562 247.445312 L 175.335938 208.484375 C 171.503906 206.15625 169.171875 202.160156 169.171875 197.828125 L 169.171875 113.746094 C 169.171875 108.558594 172.289062 104.195312 176.6875 102.289062 C 172.289062 104.195312 169.171875 108.558594 169.171875 113.75 L 169.171875 197.832031 C 169.171875 202.160156 171.5 206.15625 175.332031 208.488281 L 240.597656 247.449219 C 242.597656 248.613281 244.761719 249.277344 247.09375 249.277344 C 248.652344 249.277344 250.214844 248.972656 251.679688 248.382812 Z M 251.679688 248.382812 " fill-opacity="1" fill-rule="evenodd"/></svg>