<svg xmlns="http://www.w3.org/2000/svg" xmlns:xlink="http://www.w3.org/1999/xlink" width="500" zoomAndPan="magnify" viewBox="0 0 375 374.999991" height="500" preserveAspectRatio="xMidYMid meet" version="1.0"><defs><clipPath id="3b069e83a5"><path d="M 23.945312 259 L 350.945312 259 L 350.945312 297 L 23.945312 297 Z M 23.945312 259 " clip-rule="nonzero"/></clipPath></defs><g clip-path="url(#3b069e83a5)"><path fill="#f5df99" d="M 31.433594 259.789062 L 343.5625 259.789062 C 344.054688 259.789062 344.542969 259.835938 345.023438 259.933594 C 345.507812 260.027344 345.976562 260.171875 346.429688 260.359375 C 346.882812 260.546875 347.316406 260.777344 347.722656 261.050781 C 348.132812 261.324219 348.511719 261.632812 348.859375 261.980469 C 349.207031 262.328125 349.515625 262.707031 349.789062 263.117188 C 350.0625 263.523438 350.292969 263.957031 350.480469 264.410156 C 350.667969 264.863281 350.8125 265.332031 350.90625 265.816406 C 351.003906 266.296875 351.050781 266.785156 351.050781 267.277344 L 351.050781 289.46875 C 351.050781 289.960938 351.003906 290.449219 350.90625 290.929688 C 350.8125 291.414062 350.667969 291.882812 350.480469 292.335938 C 350.292969 292.789062 350.0625 293.222656 349.789062 293.628906 C 349.515625 294.039062 349.207031 294.417969 348.859375 294.765625 C 348.511719 295.113281 348.132812 295.421875 347.722656 295.695312 C 347.316406 295.96875 346.882812 296.199219 346.429688 296.386719 C 345.976562 296.574219 345.507812 296.71875 345.023438 296.8125 C 344.542969 296.910156 344.054688 296.957031 343.5625 296.957031 L 31.433594 296.957031 C 30.941406 296.957031 30.453125 296.910156 29.972656 296.8125 C 29.488281 296.71875 29.023438 296.574219 28.566406 296.386719 C 28.113281 296.199219 27.683594 295.96875 27.273438 295.695312 C 26.863281 295.421875 26.484375 295.113281 26.140625 294.765625 C 25.792969 294.417969 25.480469 294.039062 25.207031 293.628906 C 24.933594 293.222656 24.703125 292.789062 24.515625 292.335938 C 24.328125 291.882812 24.1875 291.414062 24.089844 290.929688 C 23.992188 290.449219 23.945312 289.960938 23.945312 289.46875 L 23.945312 267.277344 C 23.945312 266.785156 23.992188 266.296875 24.089844 265.816406 C 24.1875 265.332031 24.328125 264.863281 24.515625 264.410156 C 24.703125 263.957031 24.933594 263.523438 25.207031 263.117188 C 25.480469 262.707031 25.792969 262.328125 26.140625 261.980469 C 26.484375 261.632812 26.863281 261.324219 27.273438 261.050781 C 27.683594 260.777344 28.113281 260.546875 28.566406 260.359375 C 29.023438 260.171875 29.488281 260.027344 29.972656 259.933594 C 30.453125 259.835938 30.941406 259.789062 31.433594 259.789062 Z M 31.433594 259.789062 " fill-opacity="1" fill-rule="nonzero"/></g><path fill="#00a087" d="M 53.6875 88.855469 C 53.6875 84.722656 57.042969 81.367188 61.179688 81.367188 L 313.832031 81.367188 C 317.96875 81.367188 321.320312 84.722656 321.320312 88.855469 L 321.320312 259.789062 L 53.6875 259.789062 Z M 53.6875 88.855469 " fill-opacity="1" fill-rule="nonzero"/><path fill="#024c5b" d="M 150.347656 81.367188 L 224.691406 81.367188 L 224.691406 99.925781 C 224.691406 101.992188 223.015625 103.671875 220.945312 103.671875 L 154.09375 103.671875 C 152.027344 103.671875 150.347656 101.992188 150.347656 99.925781 Z M 150.347656 81.367188 " fill-opacity="1" fill-rule="nonzero"/></svg>