<svg xmlns="http://www.w3.org/2000/svg" xmlns:xlink="http://www.w3.org/1999/xlink" width="500" zoomAndPan="magnify" viewBox="0 0 375 374.999991" height="500" preserveAspectRatio="xMidYMid meet" version="1.0"><defs><filter x="0%" y="0%" width="100%" height="100%" id="853fedacf7"><feColorMatrix values="0 0 0 0 1 0 0 0 0 1 0 0 0 0 1 0 0 0 1 0" color-interpolation-filters="sRGB"/></filter><clipPath id="48f43a68bf"><path d="M 23.90625 23.90625 L 350.90625 23.90625 L 350.90625 350.90625 L 23.90625 350.90625 Z M 23.90625 23.90625 " clip-rule="nonzero"/></clipPath><mask id="bb67c16631"><g filter="url(#853fedacf7)"><rect x="-37.5" width="450" fill="#000000" y="-37.499999" height="449.999989" fill-opacity="0.2"/></g></mask><clipPath id="b99410f2f2"><path d="M 0.90625 0.90625 L 327.90625 0.90625 L 327.90625 327.90625 L 0.90625 327.90625 Z M 0.90625 0.90625 " clip-rule="nonzero"/></clipPath><clipPath id="58733391bb"><rect x="0" width="328" y="0" height="328"/></clipPath></defs><g clip-path="url(#48f43a68bf)"><g mask="url(#bb67c16631)"><g transform="matrix(1, 0, 0, 1, 23, 23)"><g clip-path="url(#58733391bb)"><g clip-path="url(#b99410f2f2)"><path fill="#30cbb8" d="M 328.082031 164.496094 C 328.082031 167.171875 328.015625 169.847656 327.886719 172.523438 C 327.753906 175.195312 327.558594 177.867188 327.296875 180.53125 C 327.03125 183.195312 326.707031 185.851562 326.3125 188.5 C 325.917969 191.148438 325.460938 193.785156 324.941406 196.410156 C 324.417969 199.035156 323.832031 201.648438 323.179688 204.242188 C 322.53125 206.839844 321.816406 209.421875 321.039062 211.980469 C 320.261719 214.542969 319.421875 217.085938 318.519531 219.605469 C 317.617188 222.128906 316.65625 224.625 315.628906 227.097656 C 314.605469 229.570312 313.523438 232.019531 312.375 234.4375 C 311.230469 236.859375 310.027344 239.25 308.765625 241.609375 C 307.503906 243.972656 306.1875 246.300781 304.808594 248.597656 C 303.433594 250.890625 302 253.152344 300.511719 255.378906 C 299.027344 257.605469 297.484375 259.792969 295.890625 261.945312 C 294.296875 264.09375 292.648438 266.203125 290.949219 268.273438 C 289.25 270.34375 287.503906 272.371094 285.707031 274.355469 C 283.90625 276.335938 282.0625 278.277344 280.167969 280.167969 C 278.277344 282.0625 276.335938 283.90625 274.355469 285.707031 C 272.371094 287.503906 270.34375 289.25 268.273438 290.949219 C 266.203125 292.648438 264.09375 294.296875 261.945312 295.890625 C 259.792969 297.484375 257.605469 299.027344 255.378906 300.511719 C 253.152344 302 250.890625 303.433594 248.597656 304.808594 C 246.300781 306.183594 243.972656 307.503906 241.609375 308.765625 C 239.25 310.027344 236.859375 311.230469 234.4375 312.375 C 232.019531 313.523438 229.570312 314.605469 227.097656 315.628906 C 224.625 316.65625 222.128906 317.617188 219.605469 318.519531 C 217.085938 319.421875 214.542969 320.261719 211.980469 321.039062 C 209.421875 321.816406 206.839844 322.53125 204.242188 323.179688 C 201.648438 323.832031 199.035156 324.417969 196.410156 324.941406 C 193.785156 325.460938 191.148438 325.917969 188.5 326.3125 C 185.851562 326.707031 183.195312 327.03125 180.53125 327.296875 C 177.867188 327.558594 175.195312 327.753906 172.523438 327.886719 C 169.847656 328.015625 167.171875 328.082031 164.496094 328.082031 C 161.816406 328.082031 159.140625 328.015625 156.46875 327.886719 C 153.792969 327.753906 151.125 327.558594 148.460938 327.296875 C 145.796875 327.03125 143.140625 326.707031 140.492188 326.3125 C 137.84375 325.917969 135.207031 325.460938 132.582031 324.941406 C 129.953125 324.417969 127.34375 323.832031 124.746094 323.179688 C 122.148438 322.53125 119.570312 321.816406 117.007812 321.039062 C 114.445312 320.261719 111.90625 319.421875 109.382812 318.519531 C 106.863281 317.617188 104.367188 316.65625 101.894531 315.628906 C 99.417969 314.605469 96.972656 313.523438 94.550781 312.375 C 92.132812 311.230469 89.742188 310.027344 87.378906 308.765625 C 85.019531 307.503906 82.691406 306.183594 80.394531 304.808594 C 78.097656 303.433594 75.835938 302 73.609375 300.511719 C 71.382812 299.027344 69.195312 297.484375 67.046875 295.890625 C 64.894531 294.296875 62.785156 292.648438 60.714844 290.949219 C 58.648438 289.25 56.621094 287.503906 54.636719 285.707031 C 52.652344 283.90625 50.714844 282.0625 48.820312 280.167969 C 46.929688 278.277344 45.082031 276.335938 43.285156 274.355469 C 41.488281 272.371094 39.738281 270.34375 38.039062 268.273438 C 36.339844 266.203125 34.695312 264.09375 33.101562 261.945312 C 31.503906 259.792969 29.964844 257.605469 28.476562 255.378906 C 26.988281 253.152344 25.558594 250.890625 24.179688 248.597656 C 22.804688 246.300781 21.484375 243.972656 20.222656 241.609375 C 18.960938 239.25 17.757812 236.859375 16.613281 234.4375 C 15.46875 232.019531 14.382812 229.570312 13.359375 227.097656 C 12.335938 224.625 11.371094 222.128906 10.46875 219.605469 C 9.566406 217.085938 8.730469 214.542969 7.953125 211.980469 C 7.175781 209.421875 6.460938 206.839844 5.808594 204.242188 C 5.160156 201.648438 4.574219 199.035156 4.050781 196.410156 C 3.527344 193.785156 3.070312 191.148438 2.679688 188.5 C 2.285156 185.851562 1.957031 183.195312 1.695312 180.53125 C 1.433594 177.867188 1.234375 175.195312 1.105469 172.523438 C 0.972656 169.847656 0.90625 167.171875 0.90625 164.496094 C 0.90625 161.816406 0.972656 159.140625 1.105469 156.46875 C 1.234375 153.792969 1.433594 151.125 1.695312 148.460938 C 1.957031 145.796875 2.285156 143.140625 2.679688 140.492188 C 3.070312 137.84375 3.527344 135.207031 4.050781 132.582031 C 4.574219 129.953125 5.160156 127.34375 5.808594 124.746094 C 6.460938 122.148438 7.175781 119.570312 7.953125 117.007812 C 8.730469 114.445312 9.566406 111.90625 10.46875 109.382812 C 11.371094 106.863281 12.335938 104.367188 13.359375 101.894531 C 14.382812 99.417969 15.46875 96.972656 16.613281 94.550781 C 17.757812 92.132812 18.960938 89.742188 20.222656 87.378906 C 21.484375 85.019531 22.804688 82.691406 24.179688 80.394531 C 25.558594 78.097656 26.988281 75.835938 28.476562 73.609375 C 29.964844 71.382812 31.503906 69.195312 33.101562 67.046875 C 34.695312 64.894531 36.339844 62.785156 38.039062 60.714844 C 39.738281 58.648438 41.488281 56.621094 43.285156 54.636719 C 45.082031 52.652344 46.929688 50.714844 48.820312 48.820312 C 50.714844 46.929688 52.652344 45.082031 54.636719 43.285156 C 56.621094 41.488281 58.648438 39.738281 60.714844 38.039062 C 62.785156 36.339844 64.894531 34.695312 67.046875 33.101562 C 69.195312 31.503906 71.382812 29.964844 73.609375 28.476562 C 75.835938 26.988281 78.097656 25.558594 80.394531 24.179688 C 82.691406 22.804688 85.019531 21.484375 87.378906 20.222656 C 89.742188 18.960938 92.132812 17.757812 94.550781 16.613281 C 96.972656 15.46875 99.417969 14.382812 101.894531 13.359375 C 104.367188 12.335938 106.863281 11.371094 109.382812 10.46875 C 111.90625 9.566406 114.445312 8.730469 117.007812 7.953125 C 119.570312 7.175781 122.148438 6.460938 124.746094 5.808594 C 127.34375 5.160156 129.953125 4.574219 132.582031 4.050781 C 135.207031 3.527344 137.84375 3.070312 140.492188 2.679688 C 143.140625 2.285156 145.796875 1.957031 148.460938 1.695312 C 151.125 1.433594 153.792969 1.234375 156.46875 1.105469 C 159.140625 0.972656 161.816406 0.90625 164.496094 0.90625 C 167.171875 0.90625 169.847656 0.972656 172.523438 1.105469 C 175.195312 1.234375 177.867188 1.433594 180.53125 1.695312 C 183.195312 1.957031 185.851562 2.285156 188.5 2.679688 C 191.148438 3.070312 193.785156 3.527344 196.410156 4.050781 C 199.035156 4.574219 201.648438 5.160156 204.242188 5.808594 C 206.839844 6.460938 209.421875 7.175781 211.980469 7.953125 C 214.542969 8.730469 217.085938 9.566406 219.605469 10.46875 C 222.128906 11.371094 224.625 12.335938 227.097656 13.359375 C 229.570312 14.382812 232.019531 15.46875 234.4375 16.613281 C 236.859375 17.757812 239.25 18.960938 241.609375 20.222656 C 243.972656 21.484375 246.300781 22.804688 248.597656 24.179688 C 250.890625 25.558594 253.152344 26.988281 255.378906 28.476562 C 257.605469 29.964844 259.792969 31.503906 261.945312 33.101562 C 264.09375 34.695312 266.203125 36.339844 268.273438 38.039062 C 270.34375 39.738281 272.371094 41.488281 274.355469 43.285156 C 276.335938 45.082031 278.277344 46.929688 280.167969 48.820312 C 282.0625 50.714844 283.90625 52.652344 285.707031 54.636719 C 287.503906 56.621094 289.25 58.648438 290.949219 60.714844 C 292.648438 62.785156 294.296875 64.894531 295.890625 67.046875 C 297.484375 69.195312 299.027344 71.382812 300.511719 73.609375 C 302 75.835938 303.433594 78.097656 304.808594 80.394531 C 306.1875 82.691406 307.503906 85.019531 308.765625 87.378906 C 310.027344 89.742188 311.230469 92.132812 312.375 94.550781 C 313.523438 96.972656 314.605469 99.417969 315.628906 101.894531 C 316.65625 104.367188 317.617188 106.863281 318.519531 109.382812 C 319.421875 111.90625 320.261719 114.445312 321.039062 117.007812 C 321.816406 119.570312 322.53125 122.148438 323.179688 124.746094 C 323.832031 127.34375 324.417969 129.953125 324.941406 132.582031 C 325.460938 135.207031 325.917969 137.84375 326.3125 140.492188 C 326.707031 143.140625 327.03125 145.796875 327.296875 148.460938 C 327.558594 151.125 327.753906 153.792969 327.886719 156.46875 C 328.015625 159.140625 328.082031 161.816406 328.082031 164.496094 Z M 328.082031 164.496094 " fill-opacity="1" fill-rule="nonzero"/></g></g></g></g></g><path fill="#f5df99" d="M 252.871094 244.984375 L 206.292969 244.984375 C 201.75 244.984375 198.054688 248.738281 198.054688 253.355469 C 198.054688 257.980469 201.75 261.726562 206.292969 261.726562 L 252.871094 261.726562 C 257.414062 261.726562 261.109375 257.980469 261.109375 253.355469 C 261.109375 248.738281 257.414062 244.984375 252.871094 244.984375 Z M 252.871094 244.984375 " fill-opacity="1" fill-rule="nonzero"/><path fill="#00a087" d="M 173.664062 146.425781 L 217.800781 182.085938 C 218.863281 182.941406 219.046875 184.503906 218.214844 185.597656 L 165.890625 253.773438 C 162.601562 257.984375 157.753906 260.367188 152.5625 260.457031 L 124 260.808594 C 122.476562 260.824219 121.140625 259.769531 120.796875 258.257812 L 114.304688 230.035156 C 113.179688 224.847656 114.304688 219.484375 117.59375 215.351562 L 170.175781 146.847656 C 171.023438 145.746094 172.589844 145.554688 173.664062 146.425781 Z M 173.664062 146.425781 " fill-opacity="1" fill-rule="nonzero"/><path fill="#f5df99" d="M 237.5625 160.835938 L 229.054688 171.457031 C 228.199219 172.539062 226.65625 172.714844 225.59375 171.851562 C 215.25 163.480469 188.761719 142 181.414062 136.050781 C 180.339844 135.171875 180.195312 133.605469 181.058594 132.515625 L 189.265625 122.324219 C 196.710938 112.738281 209.691406 111.859375 220.164062 120.214844 L 232.195312 129.796875 C 237.132812 133.667969 240.421875 138.765625 241.546875 144.128906 C 242.84375 150.03125 241.457031 155.824219 237.5625 160.835938 Z M 237.5625 160.835938 " fill-opacity="1" fill-rule="nonzero"/></svg>