<svg xmlns="http://www.w3.org/2000/svg" xmlns:xlink="http://www.w3.org/1999/xlink" width="500" zoomAndPan="magnify" viewBox="0 0 375 374.999991" height="500" preserveAspectRatio="xMidYMid meet" version="1.0"><defs><filter x="0%" y="0%" width="100%" height="100%" id="9499bb983e"><feColorMatrix values="0 0 0 0 1 0 0 0 0 1 0 0 0 0 1 0 0 0 1 0" color-interpolation-filters="sRGB"/></filter><clipPath id="3924c4e6fb"><path d="M 5.476562 0 L 370.726562 0 L 370.726562 369.75 L 5.476562 369.75 Z M 5.476562 0 " clip-rule="nonzero"/></clipPath><mask id="d188d4395a"><g filter="url(#9499bb983e)"><rect x="-37.5" width="450" fill="#000000" y="-37.499999" height="449.999989" fill-opacity="0.2"/></g></mask><clipPath id="94a903b8c2"><path d="M 0.476562 1 L 365.726562 1 L 365.726562 368 L 0.476562 368 Z M 0.476562 1 " clip-rule="nonzero"/></clipPath><clipPath id="5ead25fcb6"><rect x="0" width="366" y="0" height="370"/></clipPath></defs><g clip-path="url(#3924c4e6fb)"><g mask="url(#d188d4395a)"><g transform="matrix(1, 0, 0, 1, 5, 0)"><g clip-path="url(#5ead25fcb6)"><g clip-path="url(#94a903b8c2)"><path fill="#30cbb8" d="M 366.015625 184.316406 C 366.015625 187.304688 365.941406 190.296875 365.796875 193.28125 C 365.648438 196.269531 365.429688 199.253906 365.136719 202.230469 C 364.84375 205.207031 364.476562 208.171875 364.039062 211.132812 C 363.597656 214.089844 363.085938 217.039062 362.503906 219.972656 C 361.921875 222.90625 361.265625 225.820312 360.539062 228.722656 C 359.8125 231.625 359.015625 234.507812 358.144531 237.371094 C 357.277344 240.230469 356.339844 243.070312 355.332031 245.886719 C 354.324219 248.703125 353.25 251.492188 352.105469 254.257812 C 350.960938 257.019531 349.746094 259.753906 348.46875 262.457031 C 347.191406 265.160156 345.84375 267.832031 344.433594 270.46875 C 343.023438 273.109375 341.550781 275.710938 340.011719 278.277344 C 338.476562 280.839844 336.875 283.367188 335.214844 285.855469 C 333.550781 288.339844 331.832031 290.785156 330.050781 293.1875 C 328.265625 295.589844 326.425781 297.949219 324.53125 300.261719 C 322.632812 302.574219 320.679688 304.835938 318.671875 307.054688 C 316.660156 309.269531 314.601562 311.433594 312.484375 313.550781 C 310.371094 315.664062 308.203125 317.726562 305.988281 319.734375 C 303.773438 321.746094 301.507812 323.699219 299.195312 325.59375 C 296.882812 327.492188 294.527344 329.332031 292.125 331.113281 C 289.722656 332.894531 287.277344 334.617188 284.789062 336.28125 C 282.300781 337.941406 279.777344 339.542969 277.210938 341.078125 C 274.644531 342.617188 272.042969 344.089844 269.40625 345.5 C 266.765625 346.910156 264.097656 348.253906 261.390625 349.535156 C 258.6875 350.8125 255.953125 352.023438 253.191406 353.167969 C 250.429688 354.3125 247.636719 355.390625 244.820312 356.398438 C 242.003906 357.40625 239.167969 358.34375 236.304688 359.210938 C 233.441406 360.078125 230.558594 360.878906 227.660156 361.605469 C 224.757812 362.332031 221.839844 362.984375 218.90625 363.570312 C 215.972656 364.152344 213.027344 364.664062 210.066406 365.101562 C 207.109375 365.542969 204.140625 365.90625 201.164062 366.203125 C 198.1875 366.496094 195.207031 366.714844 192.21875 366.859375 C 189.230469 367.007812 186.242188 367.082031 183.25 367.082031 C 180.257812 367.082031 177.269531 367.007812 174.28125 366.859375 C 171.292969 366.714844 168.3125 366.496094 165.335938 366.203125 C 162.359375 365.90625 159.390625 365.542969 156.433594 365.101562 C 153.472656 364.664062 150.527344 364.152344 147.59375 363.570312 C 144.660156 362.984375 141.742188 362.332031 138.839844 361.605469 C 135.941406 360.878906 133.058594 360.078125 130.195312 359.210938 C 127.332031 358.34375 124.492188 357.40625 121.679688 356.398438 C 118.863281 355.390625 116.070312 354.3125 113.308594 353.167969 C 110.542969 352.023438 107.8125 350.8125 105.105469 349.535156 C 102.402344 348.253906 99.730469 346.910156 97.09375 345.5 C 94.457031 344.089844 91.855469 342.617188 89.289062 341.078125 C 86.722656 339.542969 84.199219 337.941406 81.710938 336.28125 C 79.222656 334.617188 76.777344 332.894531 74.375 331.113281 C 71.972656 329.332031 69.617188 327.492188 67.304688 325.59375 C 64.992188 323.699219 62.726562 321.746094 60.511719 319.734375 C 58.296875 317.726562 56.128906 315.664062 54.015625 313.550781 C 51.898438 311.433594 49.835938 309.269531 47.828125 307.054688 C 45.820312 304.835938 43.867188 302.574219 41.96875 300.261719 C 40.070312 297.949219 38.234375 295.589844 36.449219 293.1875 C 34.667969 290.785156 32.945312 288.339844 31.285156 285.855469 C 29.625 283.367188 28.023438 280.839844 26.484375 278.277344 C 24.949219 275.710938 23.472656 273.109375 22.0625 270.46875 C 20.65625 267.832031 19.308594 265.160156 18.03125 262.457031 C 16.753906 259.753906 15.539062 257.019531 14.394531 254.257812 C 13.25 251.492188 12.175781 248.703125 11.167969 245.886719 C 10.160156 243.070312 9.222656 240.230469 8.351562 237.371094 C 7.484375 234.507812 6.6875 231.625 5.960938 228.722656 C 5.234375 225.820312 4.578125 222.90625 3.996094 219.972656 C 3.410156 217.039062 2.902344 214.089844 2.460938 211.132812 C 2.023438 208.171875 1.65625 205.207031 1.363281 202.230469 C 1.070312 199.253906 0.851562 196.269531 0.703125 193.28125 C 0.558594 190.296875 0.484375 187.304688 0.484375 184.316406 C 0.484375 181.324219 0.558594 178.335938 0.703125 175.347656 C 0.851562 172.359375 1.070312 169.378906 1.363281 166.402344 C 1.65625 163.425781 2.023438 160.457031 2.460938 157.496094 C 2.902344 154.539062 3.410156 151.59375 3.996094 148.660156 C 4.578125 145.726562 5.234375 142.808594 5.960938 139.90625 C 6.6875 137.003906 7.484375 134.125 8.351562 131.261719 C 9.222656 128.398438 10.160156 125.558594 11.167969 122.742188 C 12.175781 119.925781 13.25 117.136719 14.394531 114.375 C 15.539062 111.609375 16.753906 108.875 18.03125 106.171875 C 19.308594 103.46875 20.65625 100.796875 22.0625 98.160156 C 23.472656 95.523438 24.949219 92.921875 26.484375 90.355469 C 28.023438 87.789062 29.625 85.261719 31.285156 82.777344 C 32.945312 80.289062 34.667969 77.84375 36.449219 75.441406 C 38.234375 73.039062 40.070312 70.683594 41.96875 68.371094 C 43.867188 66.058594 45.820312 63.792969 47.828125 61.578125 C 49.835938 59.359375 51.898438 57.195312 54.015625 55.078125 C 56.128906 52.964844 58.296875 50.902344 60.511719 48.894531 C 62.726562 46.886719 64.992188 44.933594 67.304688 43.035156 C 69.617188 41.136719 71.972656 39.296875 74.375 37.515625 C 76.777344 35.734375 79.222656 34.011719 81.710938 32.351562 C 84.199219 30.6875 86.722656 29.089844 89.289062 27.550781 C 91.855469 26.011719 94.457031 24.539062 97.09375 23.128906 C 99.730469 21.71875 102.402344 20.375 105.105469 19.097656 C 107.8125 17.816406 110.542969 16.605469 113.308594 15.460938 C 116.070312 14.316406 118.863281 13.242188 121.679688 12.234375 C 124.492188 11.226562 127.332031 10.285156 130.195312 9.417969 C 133.058594 8.550781 135.941406 7.753906 138.839844 7.027344 C 141.742188 6.300781 144.660156 5.644531 147.59375 5.0625 C 150.527344 4.476562 153.472656 3.964844 156.433594 3.527344 C 159.390625 3.089844 162.359375 2.722656 165.335938 2.429688 C 168.3125 2.136719 171.292969 1.914062 174.28125 1.769531 C 177.269531 1.621094 180.257812 1.550781 183.25 1.550781 C 186.242188 1.550781 189.230469 1.621094 192.21875 1.769531 C 195.207031 1.914062 198.1875 2.136719 201.164062 2.429688 C 204.140625 2.722656 207.109375 3.089844 210.066406 3.527344 C 213.027344 3.964844 215.972656 4.476562 218.90625 5.0625 C 221.839844 5.644531 224.757812 6.300781 227.660156 7.027344 C 230.558594 7.753906 233.441406 8.550781 236.304688 9.417969 C 239.167969 10.285156 242.003906 11.226562 244.820312 12.234375 C 247.636719 13.242188 250.429688 14.316406 253.191406 15.460938 C 255.953125 16.605469 258.6875 17.816406 261.390625 19.097656 C 264.097656 20.375 266.765625 21.71875 269.40625 23.128906 C 272.042969 24.539062 274.644531 26.011719 277.210938 27.550781 C 279.777344 29.089844 282.300781 30.6875 284.789062 32.351562 C 287.277344 34.011719 289.722656 35.734375 292.125 37.515625 C 294.527344 39.296875 296.882812 41.136719 299.195312 43.035156 C 301.507812 44.933594 303.773438 46.886719 305.988281 48.894531 C 308.203125 50.902344 310.371094 52.964844 312.484375 55.078125 C 314.601562 57.195312 316.660156 59.359375 318.671875 61.578125 C 320.679688 63.792969 322.632812 66.058594 324.53125 68.371094 C 326.425781 70.683594 328.265625 73.039062 330.050781 75.441406 C 331.832031 77.84375 333.550781 80.289062 335.214844 82.777344 C 336.875 85.261719 338.476562 87.789062 340.011719 90.355469 C 341.550781 92.921875 343.023438 95.523438 344.433594 98.160156 C 345.84375 100.796875 347.191406 103.46875 348.46875 106.171875 C 349.746094 108.875 350.960938 111.609375 352.105469 114.375 C 353.25 117.136719 354.324219 119.925781 355.332031 122.742188 C 356.339844 125.558594 357.277344 128.398438 358.144531 131.261719 C 359.015625 134.125 359.8125 137.003906 360.539062 139.90625 C 361.265625 142.808594 361.921875 145.726562 362.503906 148.660156 C 363.085938 151.59375 363.597656 154.539062 364.039062 157.496094 C 364.476562 160.457031 364.84375 163.425781 365.136719 166.402344 C 365.429688 169.378906 365.648438 172.359375 365.796875 175.347656 C 365.941406 178.335938 366.015625 181.324219 366.015625 184.316406 Z M 366.015625 184.316406 " fill-opacity="1" fill-rule="nonzero"/></g></g></g></g></g><path fill="#00a087" d="M 156.023438 159.292969 L 220.464844 159.292969 C 238.417969 159.292969 252.972656 173.527344 252.972656 191.082031 L 252.972656 228.679688 C 252.972656 246.234375 238.417969 260.46875 220.464844 260.46875 L 156.023438 260.46875 C 138.070312 260.46875 123.515625 246.234375 123.515625 228.679688 L 123.515625 191.082031 C 123.515625 173.527344 138.070312 159.292969 156.023438 159.292969 Z M 188.203125 224.902344 C 191.996094 224.902344 195.015625 221.949219 195.015625 218.242188 L 195.015625 201.441406 C 195.015625 197.8125 191.996094 194.859375 188.203125 194.859375 C 184.492188 194.859375 181.472656 197.8125 181.472656 201.441406 L 181.472656 218.242188 C 181.472656 221.949219 184.492188 224.902344 188.203125 224.902344 Z M 188.203125 224.902344 " fill-opacity="1" fill-rule="evenodd"/><path fill="#ffffff" d="M 188.25 194.03125 C 192.035156 194.03125 195.105469 197.101562 195.105469 200.886719 L 195.105469 218.875 C 195.105469 222.660156 192.035156 225.730469 188.25 225.730469 C 184.464844 225.730469 181.394531 222.660156 181.394531 218.875 L 181.394531 200.886719 C 181.394531 197.101562 184.464844 194.03125 188.25 194.03125 Z M 188.25 194.03125 " fill-opacity="1" fill-rule="evenodd"/><path fill="#002d33" d="M 230.296875 149.257812 L 230.296875 160.457031 C 227.585938 159.699219 224.722656 159.320312 221.785156 159.320312 L 216.753906 159.320312 L 216.753906 149.257812 C 216.753906 133.894531 203.984375 121.40625 188.277344 121.40625 C 172.570312 121.40625 159.800781 133.816406 159.722656 149.105469 L 159.722656 159.320312 L 154.769531 159.320312 C 151.753906 159.320312 148.890625 159.699219 146.179688 160.53125 L 146.179688 149.257812 C 146.257812 126.554688 165.0625 108.164062 188.121094 108.164062 C 211.492188 108.164062 230.296875 126.554688 230.296875 149.257812 Z M 230.296875 149.257812 " fill-opacity="1" fill-rule="nonzero"/></svg>