<svg xmlns="http://www.w3.org/2000/svg" xmlns:xlink="http://www.w3.org/1999/xlink" width="500" zoomAndPan="magnify" viewBox="0 0 375 374.999991" height="500" preserveAspectRatio="xMidYMid meet" version="1.0"><defs><clipPath id="bd10612d95"><path d="M 4.394531 3.644531 L 371.894531 3.644531 L 371.894531 371.144531 L 4.394531 371.144531 Z M 4.394531 3.644531 " clip-rule="nonzero"/></clipPath></defs><g clip-path="url(#bd10612d95)"><path fill="#00404f" d="M 372.105469 187.5 C 372.105469 190.507812 372.03125 193.515625 371.882812 196.519531 C 371.734375 199.527344 371.515625 202.523438 371.21875 205.519531 C 370.925781 208.515625 370.554688 211.5 370.113281 214.476562 C 369.671875 217.453125 369.160156 220.417969 368.570312 223.367188 C 367.984375 226.316406 367.324219 229.253906 366.59375 232.171875 C 365.863281 235.089844 365.0625 237.988281 364.1875 240.871094 C 363.3125 243.75 362.371094 246.605469 361.355469 249.4375 C 360.34375 252.269531 359.261719 255.078125 358.109375 257.855469 C 356.957031 260.636719 355.738281 263.386719 354.453125 266.105469 C 353.164062 268.828125 351.8125 271.515625 350.394531 274.167969 C 348.976562 276.820312 347.492188 279.4375 345.945312 282.019531 C 344.398438 284.601562 342.789062 287.140625 341.117188 289.644531 C 339.449219 292.144531 337.714844 294.605469 335.921875 297.019531 C 334.128906 299.4375 332.28125 301.808594 330.371094 304.136719 C 328.460938 306.460938 326.496094 308.738281 324.476562 310.96875 C 322.457031 313.199219 320.382812 315.375 318.253906 317.503906 C 316.125 319.632812 313.949219 321.707031 311.71875 323.726562 C 309.488281 325.746094 307.210938 327.710938 304.886719 329.621094 C 302.558594 331.53125 300.1875 333.378906 297.769531 335.171875 C 295.355469 336.964844 292.894531 338.699219 290.394531 340.367188 C 287.890625 342.039062 285.351562 343.648438 282.769531 345.195312 C 280.1875 346.742188 277.570312 348.226562 274.917969 349.644531 C 272.265625 351.0625 269.578125 352.414062 266.855469 353.703125 C 264.136719 354.988281 261.386719 356.207031 258.605469 357.359375 C 255.828125 358.511719 253.019531 359.59375 250.1875 360.605469 C 247.355469 361.621094 244.5 362.5625 241.621094 363.4375 C 238.738281 364.3125 235.839844 365.113281 232.921875 365.84375 C 230.003906 366.574219 227.066406 367.234375 224.117188 367.820312 C 221.167969 368.410156 218.203125 368.921875 215.226562 369.363281 C 212.25 369.804688 209.265625 370.175781 206.269531 370.46875 C 203.273438 370.765625 200.277344 370.984375 197.269531 371.132812 C 194.265625 371.28125 191.257812 371.355469 188.25 371.355469 C 185.238281 371.355469 182.234375 371.28125 179.226562 371.132812 C 176.222656 370.984375 173.222656 370.765625 170.226562 370.46875 C 167.234375 370.175781 164.246094 369.804688 161.273438 369.363281 C 158.296875 368.921875 155.332031 368.410156 152.378906 367.820312 C 149.429688 367.234375 146.496094 366.574219 143.574219 365.84375 C 140.65625 365.113281 137.757812 364.3125 134.878906 363.4375 C 132 362.5625 129.144531 361.621094 126.308594 360.605469 C 123.476562 359.59375 120.671875 358.511719 117.890625 357.359375 C 115.109375 356.207031 112.359375 354.988281 109.640625 353.703125 C 106.921875 352.414062 104.234375 351.0625 101.578125 349.644531 C 98.925781 348.226562 96.308594 346.742188 93.726562 345.195312 C 91.148438 343.648438 88.605469 342.039062 86.105469 340.367188 C 83.601562 338.699219 81.144531 336.964844 78.726562 335.171875 C 76.308594 333.378906 73.9375 331.53125 71.613281 329.621094 C 69.285156 327.710938 67.007812 325.746094 64.777344 323.726562 C 62.550781 321.707031 60.371094 319.632812 58.242188 317.503906 C 56.117188 315.375 54.042969 313.199219 52.019531 310.96875 C 50 308.738281 48.035156 306.460938 46.125 304.136719 C 44.21875 301.808594 42.367188 299.4375 40.574219 297.019531 C 38.78125 294.605469 37.050781 292.144531 35.378906 289.644531 C 33.707031 287.140625 32.097656 284.601562 30.550781 282.019531 C 29.003906 279.4375 27.519531 276.820312 26.101562 274.167969 C 24.683594 271.515625 23.332031 268.828125 22.046875 266.105469 C 20.757812 263.386719 19.539062 260.636719 18.386719 257.855469 C 17.238281 255.078125 16.15625 252.269531 15.140625 249.4375 C 14.128906 246.605469 13.183594 243.75 12.308594 240.871094 C 11.4375 237.988281 10.632812 235.089844 9.902344 232.171875 C 9.171875 229.253906 8.511719 226.316406 7.925781 223.367188 C 7.339844 220.417969 6.824219 217.453125 6.382812 214.476562 C 5.941406 211.5 5.574219 208.515625 5.277344 205.519531 C 4.984375 202.523438 4.761719 199.527344 4.613281 196.519531 C 4.46875 193.515625 4.394531 190.507812 4.394531 187.5 C 4.394531 184.488281 4.46875 181.484375 4.613281 178.476562 C 4.761719 175.472656 4.984375 172.472656 5.277344 169.476562 C 5.574219 166.484375 5.941406 163.496094 6.382812 160.523438 C 6.824219 157.546875 7.339844 154.582031 7.925781 151.628906 C 8.511719 148.679688 9.171875 145.746094 9.902344 142.824219 C 10.632812 139.90625 11.4375 137.007812 12.308594 134.128906 C 13.183594 131.25 14.128906 128.394531 15.140625 125.558594 C 16.15625 122.726562 17.238281 119.921875 18.386719 117.140625 C 19.539062 114.359375 20.757812 111.609375 22.046875 108.890625 C 23.332031 106.171875 24.683594 103.484375 26.101562 100.828125 C 27.519531 98.175781 29.003906 95.558594 30.550781 92.976562 C 32.097656 90.398438 33.707031 87.855469 35.378906 85.355469 C 37.050781 82.851562 38.78125 80.394531 40.574219 77.976562 C 42.367188 75.558594 44.21875 73.1875 46.125 70.863281 C 48.035156 68.535156 50 66.257812 52.019531 64.027344 C 54.042969 61.800781 56.117188 59.621094 58.242188 57.492188 C 60.371094 55.367188 62.550781 53.292969 64.777344 51.269531 C 67.007812 49.25 69.285156 47.285156 71.613281 45.375 C 73.9375 43.46875 76.308594 41.617188 78.726562 39.824219 C 81.144531 38.03125 83.601562 36.300781 86.105469 34.628906 C 88.605469 32.957031 91.148438 31.347656 93.726562 29.800781 C 96.308594 28.253906 98.925781 26.769531 101.578125 25.351562 C 104.234375 23.933594 106.921875 22.582031 109.640625 21.296875 C 112.359375 20.007812 115.109375 18.789062 117.890625 17.636719 C 120.671875 16.488281 123.476562 15.40625 126.308594 14.390625 C 129.144531 13.378906 132 12.433594 134.878906 11.558594 C 137.757812 10.6875 140.65625 9.882812 143.574219 9.152344 C 146.496094 8.421875 149.429688 7.761719 152.378906 7.175781 C 155.332031 6.589844 158.296875 6.074219 161.273438 5.632812 C 164.246094 5.191406 167.234375 4.824219 170.226562 4.527344 C 173.222656 4.234375 176.222656 4.011719 179.226562 3.863281 C 182.234375 3.71875 185.238281 3.644531 188.25 3.644531 C 191.257812 3.644531 194.265625 3.71875 197.269531 3.863281 C 200.277344 4.011719 203.273438 4.234375 206.269531 4.527344 C 209.265625 4.824219 212.25 5.191406 215.226562 5.632812 C 218.203125 6.074219 221.167969 6.589844 224.117188 7.175781 C 227.066406 7.761719 230.003906 8.421875 232.921875 9.152344 C 235.839844 9.882812 238.738281 10.6875 241.621094 11.558594 C 244.5 12.433594 247.355469 13.378906 250.1875 14.390625 C 253.019531 15.40625 255.828125 16.488281 258.605469 17.636719 C 261.386719 18.789062 264.136719 20.007812 266.855469 21.296875 C 269.578125 22.582031 272.265625 23.933594 274.917969 25.351562 C 277.570312 26.769531 280.1875 28.253906 282.769531 29.800781 C 285.351562 31.347656 287.890625 32.957031 290.394531 34.628906 C 292.894531 36.300781 295.355469 38.03125 297.769531 39.824219 C 300.1875 41.617188 302.558594 43.46875 304.886719 45.375 C 307.210938 47.285156 309.488281 49.25 311.71875 51.269531 C 313.949219 53.292969 316.125 55.367188 318.253906 57.492188 C 320.382812 59.621094 322.457031 61.800781 324.476562 64.027344 C 326.496094 66.257812 328.460938 68.535156 330.371094 70.863281 C 332.28125 73.1875 334.128906 75.558594 335.921875 77.976562 C 337.714844 80.394531 339.449219 82.851562 341.117188 85.355469 C 342.789062 87.855469 344.398438 90.398438 345.945312 92.976562 C 347.492188 95.558594 348.976562 98.175781 350.394531 100.828125 C 351.8125 103.484375 353.164062 106.171875 354.453125 108.890625 C 355.738281 111.609375 356.957031 114.359375 358.109375 117.140625 C 359.261719 119.921875 360.34375 122.726562 361.355469 125.558594 C 362.371094 128.394531 363.3125 131.25 364.1875 134.128906 C 365.0625 137.007812 365.863281 139.90625 366.59375 142.824219 C 367.324219 145.746094 367.984375 148.679688 368.570312 151.628906 C 369.160156 154.582031 369.671875 157.546875 370.113281 160.523438 C 370.554688 163.496094 370.925781 166.484375 371.21875 169.476562 C 371.515625 172.472656 371.734375 175.472656 371.882812 178.476562 C 372.03125 181.484375 372.105469 184.488281 372.105469 187.5 Z M 372.105469 187.5 " fill-opacity="1" fill-rule="nonzero"/></g><path fill="#00a087" d="M 221.488281 110.890625 L 155.070312 110.890625 C 129.101562 110.890625 111.636719 129.125 111.636719 156.242188 L 111.636719 218.828125 C 111.636719 245.871094 129.101562 264.105469 155.070312 264.105469 L 221.488281 264.105469 C 247.460938 264.105469 264.847656 245.871094 264.847656 218.828125 L 264.847656 156.242188 C 264.847656 129.125 247.460938 110.890625 221.488281 110.890625 " fill-opacity="1" fill-rule="nonzero"/><path fill="#ffffff" d="M 211.351562 201.058594 L 197.722656 187.441406 L 211.34375 173.820312 C 213.960938 171.207031 213.960938 166.957031 211.34375 164.34375 C 208.722656 161.707031 204.484375 161.714844 201.867188 164.335938 L 188.238281 177.957031 L 174.609375 164.320312 C 171.988281 161.699219 167.746094 161.714844 165.125 164.320312 C 162.511719 166.941406 162.511719 171.191406 165.125 173.804688 L 178.761719 187.441406 L 165.15625 201.039062 C 162.535156 203.65625 162.535156 207.910156 165.15625 210.515625 C 166.464844 211.832031 168.175781 212.484375 169.890625 212.484375 C 171.613281 212.484375 173.324219 211.832031 174.632812 210.523438 L 188.238281 196.917969 L 201.875 210.542969 C 203.183594 211.855469 204.890625 212.503906 206.609375 212.503906 C 208.324219 212.503906 210.039062 211.847656 211.351562 210.542969 C 213.96875 207.925781 213.96875 203.679688 211.351562 201.058594 " fill-opacity="1" fill-rule="nonzero"/></svg>