<svg xmlns="http://www.w3.org/2000/svg" xmlns:xlink="http://www.w3.org/1999/xlink" width="500" zoomAndPan="magnify" viewBox="0 0 375 374.999991" height="500" preserveAspectRatio="xMidYMid meet" version="1.0"><defs><filter x="0%" y="0%" width="100%" height="100%" id="8c30b3180b"><feColorMatrix values="0 0 0 0 1 0 0 0 0 1 0 0 0 0 1 0 0 0 1 0" color-interpolation-filters="sRGB"/></filter><clipPath id="1c15d20e48"><path d="M 0 0.917969 L 373.5 0.917969 L 373.5 374.417969 L 0 374.417969 Z M 0 0.917969 " clip-rule="nonzero"/></clipPath><mask id="adfc4ac0e3"><g filter="url(#8c30b3180b)"><rect x="-37.5" width="450" fill="#000000" y="-37.499999" height="449.999989" fill-opacity="0.2"/></g></mask><clipPath id="b2d6e1313c"><path d="M 0 0.917969 L 373.199219 0.917969 L 373.199219 374.160156 L 0 374.160156 Z M 0 0.917969 " clip-rule="nonzero"/></clipPath><clipPath id="c04d9f2457"><rect x="0" width="374" y="0" height="375"/></clipPath></defs><g clip-path="url(#1c15d20e48)"><g mask="url(#adfc4ac0e3)"><g transform="matrix(1, 0, 0, 1, 0, 0)"><g clip-path="url(#c04d9f2457)"><g clip-path="url(#b2d6e1313c)"><path fill="#30cbb8" d="M 373.160156 187.5 C 373.160156 190.550781 373.085938 193.605469 372.933594 196.652344 C 372.785156 199.703125 372.5625 202.75 372.261719 205.785156 C 371.960938 208.824219 371.589844 211.855469 371.140625 214.875 C 370.691406 217.894531 370.171875 220.902344 369.574219 223.898438 C 368.980469 226.894531 368.308594 229.871094 367.570312 232.835938 C 366.828125 235.796875 366.011719 238.738281 365.125 241.660156 C 364.238281 244.582031 363.28125 247.480469 362.253906 250.355469 C 361.226562 253.230469 360.125 256.078125 358.957031 258.898438 C 357.789062 261.722656 356.550781 264.511719 355.246094 267.273438 C 353.941406 270.03125 352.566406 272.757812 351.128906 275.453125 C 349.691406 278.144531 348.183594 280.800781 346.613281 283.421875 C 345.046875 286.039062 343.410156 288.617188 341.714844 291.15625 C 340.019531 293.695312 338.261719 296.191406 336.441406 298.644531 C 334.625 301.097656 332.746094 303.503906 330.808594 305.863281 C 328.871094 308.222656 326.878906 310.535156 324.828125 312.796875 C 322.777344 315.0625 320.671875 317.273438 318.511719 319.429688 C 316.351562 321.589844 314.140625 323.695312 311.878906 325.746094 C 309.617188 327.796875 307.304688 329.789062 304.945312 331.726562 C 302.585938 333.664062 300.179688 335.542969 297.726562 337.363281 C 295.273438 339.179688 292.777344 340.9375 290.238281 342.632812 C 287.699219 344.332031 285.121094 345.964844 282.5 347.535156 C 279.882812 349.105469 277.226562 350.609375 274.535156 352.046875 C 271.839844 353.488281 269.113281 354.859375 266.351562 356.164062 C 263.59375 357.472656 260.800781 358.707031 257.980469 359.875 C 255.160156 361.042969 252.3125 362.144531 249.4375 363.171875 C 246.5625 364.199219 243.664062 365.160156 240.742188 366.042969 C 237.820312 366.929688 234.878906 367.746094 231.914062 368.488281 C 228.953125 369.230469 225.976562 369.898438 222.980469 370.492188 C 219.984375 371.089844 216.976562 371.613281 213.957031 372.058594 C 210.9375 372.507812 207.90625 372.882812 204.867188 373.179688 C 201.828125 373.480469 198.785156 373.703125 195.734375 373.855469 C 192.683594 374.003906 189.632812 374.078125 186.578125 374.078125 C 183.527344 374.078125 180.476562 374.003906 177.425781 373.855469 C 174.375 373.703125 171.332031 373.480469 168.292969 373.179688 C 165.253906 372.882812 162.222656 372.507812 159.203125 372.058594 C 156.183594 371.613281 153.175781 371.089844 150.179688 370.492188 C 147.183594 369.898438 144.207031 369.230469 141.246094 368.488281 C 138.28125 367.746094 135.339844 366.929688 132.417969 366.042969 C 129.496094 365.160156 126.597656 364.199219 123.722656 363.171875 C 120.847656 362.144531 118 361.042969 115.179688 359.875 C 112.359375 358.707031 109.566406 357.472656 106.808594 356.164062 C 104.046875 354.859375 101.320312 353.488281 98.625 352.046875 C 95.933594 350.609375 93.277344 349.105469 90.660156 347.535156 C 88.039062 345.964844 85.460938 344.332031 82.921875 342.632812 C 80.382812 340.9375 77.886719 339.179688 75.433594 337.363281 C 72.980469 335.542969 70.574219 333.664062 68.214844 331.726562 C 65.855469 329.789062 63.542969 327.796875 61.28125 325.746094 C 59.019531 323.695312 56.808594 321.589844 54.648438 319.429688 C 52.488281 317.273438 50.382812 315.0625 48.332031 312.796875 C 46.28125 310.535156 44.289062 308.222656 42.351562 305.863281 C 40.414062 303.503906 38.535156 301.097656 36.71875 298.644531 C 34.898438 296.191406 33.140625 293.695312 31.445312 291.15625 C 29.746094 288.617188 28.113281 286.039062 26.546875 283.421875 C 24.976562 280.800781 23.46875 278.144531 22.03125 275.453125 C 20.589844 272.757812 19.21875 270.03125 17.914062 267.273438 C 16.609375 264.511719 15.371094 261.722656 14.203125 258.898438 C 13.035156 256.078125 11.933594 253.230469 10.90625 250.355469 C 9.878906 247.480469 8.921875 244.582031 8.035156 241.660156 C 7.148438 238.738281 6.332031 235.796875 5.589844 232.835938 C 4.851562 229.871094 4.179688 226.894531 3.585938 223.898438 C 2.988281 220.902344 2.46875 217.894531 2.019531 214.875 C 1.570312 211.855469 1.199219 208.824219 0.898438 205.785156 C 0.597656 202.75 0.375 199.703125 0.226562 196.652344 C 0.0742188 193.605469 0 190.550781 0 187.5 C 0 184.445312 0.0742188 181.394531 0.226562 178.34375 C 0.375 175.292969 0.597656 172.25 0.898438 169.210938 C 1.199219 166.171875 1.570312 163.140625 2.019531 160.121094 C 2.46875 157.101562 2.988281 154.09375 3.585938 151.097656 C 4.179688 148.105469 4.851562 145.125 5.589844 142.164062 C 6.332031 139.203125 7.148438 136.257812 8.035156 133.335938 C 8.921875 130.414062 9.878906 127.515625 10.90625 124.640625 C 11.933594 121.765625 13.035156 118.917969 14.203125 116.097656 C 15.371094 113.277344 16.609375 110.484375 17.914062 107.726562 C 19.21875 104.964844 20.589844 102.238281 22.03125 99.546875 C 23.46875 96.851562 24.976562 94.195312 26.546875 91.578125 C 28.113281 88.957031 29.746094 86.378906 31.445312 83.839844 C 33.140625 81.300781 34.898438 78.804688 36.71875 76.351562 C 38.535156 73.902344 40.414062 71.496094 42.351562 69.132812 C 44.289062 66.773438 46.28125 64.460938 48.332031 62.199219 C 50.382812 59.9375 52.488281 57.726562 54.648438 55.566406 C 56.808594 53.40625 59.019531 51.304688 61.28125 49.253906 C 63.542969 47.203125 65.855469 45.207031 68.214844 43.269531 C 70.574219 41.332031 72.980469 39.457031 75.433594 37.636719 C 77.886719 35.816406 80.382812 34.058594 82.921875 32.363281 C 85.460938 30.667969 88.039062 29.035156 90.660156 27.464844 C 93.277344 25.894531 95.933594 24.390625 98.625 22.949219 C 101.320312 21.511719 104.046875 20.136719 106.808594 18.832031 C 109.566406 17.527344 112.359375 16.289062 115.179688 15.121094 C 118 13.953125 120.847656 12.855469 123.722656 11.824219 C 126.597656 10.796875 129.496094 9.839844 132.417969 8.953125 C 135.339844 8.066406 138.28125 7.253906 141.246094 6.511719 C 144.207031 5.769531 147.183594 5.101562 150.179688 4.503906 C 153.175781 3.910156 156.183594 3.386719 159.203125 2.9375 C 162.222656 2.492188 165.253906 2.117188 168.292969 1.816406 C 171.332031 1.519531 174.375 1.292969 177.425781 1.144531 C 180.476562 0.992188 183.527344 0.917969 186.578125 0.917969 C 189.632812 0.917969 192.683594 0.992188 195.734375 1.144531 C 198.785156 1.292969 201.828125 1.519531 204.867188 1.816406 C 207.90625 2.117188 210.9375 2.492188 213.957031 2.9375 C 216.976562 3.386719 219.984375 3.910156 222.980469 4.503906 C 225.976562 5.101562 228.953125 5.769531 231.914062 6.511719 C 234.878906 7.253906 237.820312 8.066406 240.742188 8.953125 C 243.664062 9.839844 246.5625 10.796875 249.4375 11.824219 C 252.3125 12.855469 255.160156 13.953125 257.980469 15.121094 C 260.800781 16.289062 263.59375 17.527344 266.351562 18.832031 C 269.113281 20.136719 271.839844 21.511719 274.535156 22.949219 C 277.226562 24.390625 279.882812 25.894531 282.5 27.464844 C 285.121094 29.035156 287.699219 30.667969 290.238281 32.363281 C 292.777344 34.058594 295.273438 35.816406 297.726562 37.636719 C 300.179688 39.457031 302.585938 41.332031 304.945312 43.269531 C 307.304688 45.207031 309.617188 47.203125 311.878906 49.253906 C 314.140625 51.304688 316.351562 53.40625 318.511719 55.566406 C 320.671875 57.726562 322.777344 59.9375 324.828125 62.199219 C 326.878906 64.460938 328.871094 66.773438 330.808594 69.132812 C 332.746094 71.496094 334.625 73.902344 336.441406 76.351562 C 338.261719 78.804688 340.019531 81.300781 341.714844 83.839844 C 343.410156 86.378906 345.046875 88.957031 346.613281 91.578125 C 348.183594 94.195312 349.691406 96.851562 351.128906 99.546875 C 352.566406 102.238281 353.941406 104.964844 355.246094 107.726562 C 356.550781 110.484375 357.789062 113.277344 358.957031 116.097656 C 360.125 118.917969 361.226562 121.765625 362.253906 124.640625 C 363.28125 127.515625 364.238281 130.414062 365.125 133.335938 C 366.011719 136.257812 366.828125 139.203125 367.570312 142.164062 C 368.308594 145.125 368.980469 148.105469 369.574219 151.097656 C 370.171875 154.09375 370.691406 157.101562 371.140625 160.121094 C 371.589844 163.140625 371.960938 166.171875 372.261719 169.210938 C 372.5625 172.25 372.785156 175.292969 372.933594 178.34375 C 373.085938 181.394531 373.160156 184.445312 373.160156 187.5 Z M 373.160156 187.5 " fill-opacity="1" fill-rule="nonzero"/></g></g></g></g></g><path fill="#00404f" d="M 261.144531 253.066406 L 208.023438 253.066406 C 202.839844 253.066406 198.625 257.351562 198.625 262.613281 C 198.625 267.890625 202.839844 272.160156 208.023438 272.160156 L 261.144531 272.160156 C 266.328125 272.160156 270.542969 267.890625 270.542969 262.613281 C 270.542969 257.351562 266.328125 253.066406 261.144531 253.066406 Z M 261.144531 253.066406 " fill-opacity="1" fill-rule="nonzero"/><path fill="#00a087" d="M 170.804688 140.65625 L 221.144531 181.332031 C 222.355469 182.304688 222.566406 184.089844 221.617188 185.332031 L 161.9375 263.09375 C 158.1875 267.898438 152.660156 270.613281 146.738281 270.714844 L 114.160156 271.117188 C 112.421875 271.136719 110.902344 269.933594 110.503906 268.207031 L 103.101562 236.015625 C 101.820312 230.101562 103.101562 223.984375 106.851562 219.269531 L 166.828125 141.136719 C 167.792969 139.882812 169.582031 139.664062 170.804688 140.65625 Z M 170.804688 140.65625 " fill-opacity="1" fill-rule="nonzero"/><path fill="#00404f" d="M 243.6875 157.09375 L 233.980469 169.207031 C 233.003906 170.441406 231.246094 170.640625 230.03125 169.65625 C 218.234375 160.109375 188.027344 135.609375 179.644531 128.824219 C 178.421875 127.820312 178.253906 126.035156 179.238281 124.789062 L 188.597656 113.167969 C 197.089844 102.238281 211.898438 101.234375 223.84375 110.761719 L 237.566406 121.691406 C 243.191406 126.105469 246.945312 131.921875 248.226562 138.039062 C 249.707031 144.765625 248.128906 151.375 243.6875 157.09375 Z M 243.6875 157.09375 " fill-opacity="1" fill-rule="nonzero"/></svg>