<svg xmlns="http://www.w3.org/2000/svg" xmlns:xlink="http://www.w3.org/1999/xlink" width="500" zoomAndPan="magnify" viewBox="0 0 375 374.999991" height="500" preserveAspectRatio="xMidYMid meet" version="1.0"><defs><filter x="0%" y="0%" width="100%" height="100%" id="14b6135a35"><feColorMatrix values="0 0 0 0 1 0 0 0 0 1 0 0 0 0 1 0 0 0 1 0" color-interpolation-filters="sRGB"/></filter><clipPath id="93fc2cbc82"><path d="M 3.109375 3.109375 L 372 3.109375 L 372 372 L 3.109375 372 Z M 3.109375 3.109375 " clip-rule="nonzero"/></clipPath><mask id="ca3a8c0fc9"><g filter="url(#14b6135a35)"><rect x="-37.5" width="450" fill="#000000" y="-37.499999" height="449.999989" fill-opacity="0.2"/></g></mask><clipPath id="79a2b30132"><path d="M 0.109375 0.109375 L 369 0.109375 L 369 369 L 0.109375 369 Z M 0.109375 0.109375 " clip-rule="nonzero"/></clipPath><clipPath id="d8e2215b94"><rect x="0" width="369" y="0" height="369"/></clipPath></defs><g clip-path="url(#93fc2cbc82)"><g mask="url(#ca3a8c0fc9)"><g transform="matrix(1, 0, 0, 1, 3, 3)"><g clip-path="url(#d8e2215b94)"><g clip-path="url(#79a2b30132)"><path fill="#30cbb8" d="M 368.886719 184.5 C 368.886719 187.515625 368.8125 190.53125 368.664062 193.546875 C 368.515625 196.558594 368.296875 199.570312 368 202.570312 C 367.703125 205.574219 367.335938 208.570312 366.890625 211.554688 C 366.449219 214.539062 365.933594 217.511719 365.34375 220.472656 C 364.753906 223.429688 364.09375 226.375 363.363281 229.300781 C 362.628906 232.230469 361.824219 235.136719 360.949219 238.023438 C 360.070312 240.910156 359.125 243.777344 358.109375 246.617188 C 357.09375 249.457031 356.007812 252.273438 354.851562 255.0625 C 353.695312 257.847656 352.472656 260.605469 351.183594 263.335938 C 349.894531 266.0625 348.539062 268.757812 347.113281 271.417969 C 345.691406 274.082031 344.207031 276.707031 342.652344 279.292969 C 341.101562 281.882812 339.488281 284.429688 337.8125 286.941406 C 336.136719 289.449219 334.398438 291.914062 332.601562 294.339844 C 330.804688 296.761719 328.949219 299.140625 327.03125 301.472656 C 325.117188 303.804688 323.148438 306.089844 321.121094 308.328125 C 319.09375 310.5625 317.015625 312.746094 314.882812 314.882812 C 312.746094 317.015625 310.5625 319.09375 308.328125 321.121094 C 306.089844 323.148438 303.804688 325.117188 301.472656 327.03125 C 299.140625 328.949219 296.761719 330.804688 294.339844 332.601562 C 291.914062 334.398438 289.449219 336.136719 286.941406 337.8125 C 284.429688 339.488281 281.882812 341.101562 279.292969 342.652344 C 276.707031 344.207031 274.082031 345.691406 271.417969 347.113281 C 268.757812 348.539062 266.0625 349.894531 263.335938 351.183594 C 260.605469 352.472656 257.847656 353.695312 255.0625 354.851562 C 252.273438 356.007812 249.457031 357.09375 246.617188 358.109375 C 243.777344 359.125 240.910156 360.070312 238.023438 360.949219 C 235.136719 361.824219 232.230469 362.628906 229.300781 363.363281 C 226.375 364.09375 223.429688 364.753906 220.472656 365.34375 C 217.511719 365.933594 214.539062 366.449219 211.554688 366.890625 C 208.570312 367.335938 205.574219 367.703125 202.570312 368 C 199.570312 368.296875 196.558594 368.515625 193.546875 368.664062 C 190.53125 368.8125 187.515625 368.886719 184.5 368.886719 C 181.480469 368.886719 178.464844 368.8125 175.453125 368.664062 C 172.4375 368.515625 169.429688 368.296875 166.425781 368 C 163.421875 367.703125 160.429688 367.335938 157.445312 366.890625 C 154.457031 366.449219 151.484375 365.933594 148.527344 365.34375 C 145.566406 364.753906 142.625 364.09375 139.695312 363.363281 C 136.769531 362.628906 133.863281 361.824219 130.972656 360.949219 C 128.085938 360.070312 125.222656 359.125 122.378906 358.109375 C 119.539062 357.09375 116.722656 356.007812 113.9375 354.851562 C 111.148438 353.695312 108.390625 352.472656 105.664062 351.183594 C 102.933594 349.894531 100.238281 348.539062 97.578125 347.113281 C 94.917969 345.691406 92.292969 344.207031 89.703125 342.652344 C 87.117188 341.101562 84.566406 339.488281 82.058594 337.8125 C 79.550781 336.136719 77.082031 334.398438 74.660156 332.601562 C 72.234375 330.804688 69.855469 328.949219 67.523438 327.03125 C 65.191406 325.117188 62.90625 323.148438 60.671875 321.121094 C 58.433594 319.09375 56.25 317.015625 54.117188 314.882812 C 51.984375 312.746094 49.902344 310.5625 47.875 308.328125 C 45.847656 306.089844 43.878906 303.804688 41.964844 301.472656 C 40.050781 299.140625 38.195312 296.761719 36.398438 294.339844 C 34.597656 291.914062 32.863281 289.449219 31.183594 286.941406 C 29.507812 284.429688 27.894531 281.882812 26.34375 279.292969 C 24.792969 276.707031 23.304688 274.082031 21.882812 271.417969 C 20.460938 268.757812 19.105469 266.0625 17.8125 263.335938 C 16.523438 260.605469 15.300781 257.847656 14.144531 255.0625 C 12.992188 252.273438 11.90625 249.457031 10.890625 246.617188 C 9.871094 243.777344 8.925781 240.910156 8.050781 238.023438 C 7.175781 235.136719 6.371094 232.230469 5.636719 229.300781 C 4.902344 226.375 4.242188 223.429688 3.652344 220.472656 C 3.066406 217.511719 2.546875 214.539062 2.105469 211.554688 C 1.664062 208.570312 1.292969 205.574219 1 202.570312 C 0.703125 199.570312 0.480469 196.558594 0.332031 193.546875 C 0.183594 190.53125 0.109375 187.515625 0.109375 184.5 C 0.109375 181.480469 0.183594 178.464844 0.332031 175.453125 C 0.480469 172.4375 0.703125 169.429688 1 166.425781 C 1.292969 163.421875 1.664062 160.429688 2.105469 157.445312 C 2.546875 154.457031 3.066406 151.484375 3.652344 148.527344 C 4.242188 145.566406 4.902344 142.625 5.636719 139.695312 C 6.371094 136.769531 7.175781 133.863281 8.050781 130.972656 C 8.925781 128.085938 9.871094 125.222656 10.890625 122.378906 C 11.90625 119.539062 12.992188 116.722656 14.144531 113.9375 C 15.300781 111.148438 16.523438 108.390625 17.8125 105.664062 C 19.105469 102.933594 20.460938 100.238281 21.882812 97.578125 C 23.304688 94.917969 24.792969 92.292969 26.34375 89.703125 C 27.894531 87.117188 29.507812 84.566406 31.183594 82.058594 C 32.863281 79.550781 34.597656 77.082031 36.398438 74.660156 C 38.195312 72.234375 40.050781 69.855469 41.964844 67.523438 C 43.878906 65.191406 45.847656 62.90625 47.875 60.671875 C 49.902344 58.433594 51.984375 56.25 54.117188 54.117188 C 56.25 51.984375 58.433594 49.902344 60.671875 47.875 C 62.90625 45.847656 65.191406 43.878906 67.523438 41.964844 C 69.855469 40.050781 72.234375 38.195312 74.660156 36.398438 C 77.082031 34.597656 79.550781 32.863281 82.058594 31.183594 C 84.566406 29.507812 87.117188 27.894531 89.703125 26.34375 C 92.292969 24.792969 94.917969 23.304688 97.578125 21.882812 C 100.238281 20.460938 102.933594 19.105469 105.664062 17.8125 C 108.390625 16.523438 111.148438 15.300781 113.9375 14.144531 C 116.722656 12.992188 119.539062 11.90625 122.378906 10.890625 C 125.222656 9.871094 128.085938 8.925781 130.972656 8.050781 C 133.863281 7.175781 136.769531 6.371094 139.695312 5.636719 C 142.625 4.902344 145.566406 4.242188 148.527344 3.652344 C 151.484375 3.0625 154.457031 2.546875 157.445312 2.105469 C 160.429688 1.664062 163.421875 1.292969 166.425781 1 C 169.429688 0.703125 172.4375 0.480469 175.453125 0.332031 C 178.464844 0.183594 181.480469 0.109375 184.5 0.109375 C 187.515625 0.109375 190.53125 0.183594 193.546875 0.332031 C 196.558594 0.480469 199.570312 0.703125 202.570312 1 C 205.574219 1.292969 208.570312 1.664062 211.554688 2.105469 C 214.539062 2.546875 217.511719 3.0625 220.472656 3.652344 C 223.429688 4.242188 226.375 4.902344 229.300781 5.636719 C 232.230469 6.371094 235.136719 7.175781 238.023438 8.050781 C 240.910156 8.925781 243.777344 9.871094 246.617188 10.890625 C 249.457031 11.90625 252.273438 12.992188 255.0625 14.144531 C 257.847656 15.300781 260.605469 16.523438 263.335938 17.8125 C 266.0625 19.105469 268.757812 20.460938 271.417969 21.882812 C 274.082031 23.304688 276.707031 24.792969 279.292969 26.34375 C 281.882812 27.894531 284.429688 29.507812 286.941406 31.183594 C 289.449219 32.863281 291.914062 34.597656 294.339844 36.398438 C 296.761719 38.195312 299.140625 40.050781 301.472656 41.964844 C 303.804688 43.878906 306.089844 45.847656 308.328125 47.875 C 310.5625 49.902344 312.746094 51.984375 314.882812 54.117188 C 317.015625 56.25 319.09375 58.433594 321.121094 60.671875 C 323.148438 62.90625 325.117188 65.191406 327.03125 67.523438 C 328.949219 69.855469 330.804688 72.234375 332.601562 74.660156 C 334.398438 77.082031 336.136719 79.550781 337.8125 82.058594 C 339.488281 84.566406 341.101562 87.117188 342.652344 89.703125 C 344.207031 92.292969 345.691406 94.917969 347.113281 97.578125 C 348.539062 100.238281 349.894531 102.933594 351.183594 105.664062 C 352.472656 108.390625 353.695312 111.148438 354.851562 113.9375 C 356.007812 116.722656 357.09375 119.539062 358.109375 122.378906 C 359.125 125.222656 360.070312 128.085938 360.949219 130.972656 C 361.824219 133.863281 362.628906 136.769531 363.363281 139.695312 C 364.09375 142.625 364.753906 145.566406 365.34375 148.527344 C 365.933594 151.484375 366.449219 154.457031 366.890625 157.445312 C 367.335938 160.429688 367.703125 163.421875 368 166.425781 C 368.296875 169.429688 368.515625 172.4375 368.664062 175.453125 C 368.8125 178.464844 368.886719 181.480469 368.886719 184.5 Z M 368.886719 184.5 " fill-opacity="1" fill-rule="nonzero"/></g></g></g></g></g><path fill="#00404f" d="M 187.472656 216.652344 C 147.707031 216.652344 113.742188 222.917969 113.742188 247.996094 C 113.742188 273.082031 147.496094 279.574219 187.472656 279.574219 C 227.234375 279.574219 261.199219 273.3125 261.199219 248.226562 C 261.199219 223.140625 227.457031 216.652344 187.472656 216.652344 " fill-opacity="1" fill-rule="nonzero"/><path fill="#00a087" d="M 187.472656 192.765625 C 214.558594 192.765625 236.261719 171.050781 236.261719 143.976562 C 236.261719 116.898438 214.558594 95.183594 187.472656 95.183594 C 160.394531 95.183594 138.683594 116.898438 138.683594 143.976562 C 138.683594 171.050781 160.394531 192.765625 187.472656 192.765625 " fill-opacity="1" fill-rule="nonzero"/></svg>