<svg xmlns="http://www.w3.org/2000/svg" xmlns:xlink="http://www.w3.org/1999/xlink" width="500" zoomAndPan="magnify" viewBox="0 0 375 374.999991" height="500" preserveAspectRatio="xMidYMid meet" version="1.0"><defs><filter x="0%" y="0%" width="100%" height="100%" id="22d8278c16"><feColorMatrix values="0 0 0 0 1 0 0 0 0 1 0 0 0 0 1 0 0 0 1 0" color-interpolation-filters="sRGB"/></filter><clipPath id="852d7e43d5"><path d="M 3.136719 0 L 373.636719 0 L 373.636719 375 L 3.136719 375 Z M 3.136719 0 " clip-rule="nonzero"/></clipPath><mask id="2d56c663c0"><g filter="url(#22d8278c16)"><rect x="-37.5" width="450" fill="#000000" y="-37.499999" height="449.999989" fill-opacity="0.2"/></g></mask><clipPath id="e2ba79531a"><path d="M 0.136719 3 L 370.441406 3 L 370.441406 374 L 0.136719 374 Z M 0.136719 3 " clip-rule="nonzero"/></clipPath><clipPath id="22addfedd6"><rect x="0" width="371" y="0" height="375"/></clipPath><clipPath id="7ba1a64a39"><path d="M 84.679688 83.929688 L 289 83.929688 L 289 290.929688 L 84.679688 290.929688 Z M 84.679688 83.929688 " clip-rule="nonzero"/></clipPath></defs><g clip-path="url(#852d7e43d5)"><g mask="url(#2d56c663c0)"><g transform="matrix(1, 0, 0, 1, 3, 0)"><g clip-path="url(#22addfedd6)"><g clip-path="url(#e2ba79531a)"><path fill="#30cbb8" d="M 370.355469 188.207031 C 370.355469 191.238281 370.28125 194.265625 370.132812 197.289062 C 369.984375 200.316406 369.761719 203.335938 369.464844 206.351562 C 369.167969 209.367188 368.796875 212.371094 368.351562 215.371094 C 367.90625 218.367188 367.390625 221.351562 366.796875 224.320312 C 366.207031 227.292969 365.542969 230.246094 364.808594 233.1875 C 364.070312 236.125 363.265625 239.042969 362.382812 241.941406 C 361.503906 244.839844 360.554688 247.71875 359.535156 250.570312 C 358.515625 253.421875 357.421875 256.246094 356.265625 259.046875 C 355.105469 261.84375 353.878906 264.613281 352.582031 267.351562 C 351.289062 270.089844 349.925781 272.796875 348.496094 275.46875 C 347.070312 278.140625 345.578125 280.773438 344.019531 283.375 C 342.460938 285.972656 340.839844 288.53125 339.160156 291.050781 C 337.476562 293.566406 335.730469 296.042969 333.925781 298.476562 C 332.121094 300.910156 330.257812 303.296875 328.335938 305.640625 C 326.414062 307.980469 324.4375 310.273438 322.402344 312.519531 C 320.367188 314.765625 318.28125 316.957031 316.136719 319.101562 C 313.996094 321.242188 311.800781 323.332031 309.558594 325.363281 C 307.3125 327.398438 305.019531 329.378906 302.679688 331.300781 C 300.335938 333.222656 297.949219 335.085938 295.515625 336.890625 C 293.082031 338.695312 290.605469 340.4375 288.085938 342.121094 C 285.566406 343.804688 283.007812 345.425781 280.410156 346.980469 C 277.8125 348.539062 275.175781 350.03125 272.503906 351.460938 C 269.832031 352.886719 267.128906 354.25 264.390625 355.542969 C 261.652344 356.839844 258.882812 358.066406 256.085938 359.226562 C 253.285156 360.386719 250.460938 361.476562 247.605469 362.496094 C 244.753906 363.515625 241.878906 364.46875 238.980469 365.347656 C 236.082031 366.226562 233.164062 367.035156 230.222656 367.769531 C 227.285156 368.507812 224.328125 369.167969 221.359375 369.761719 C 218.386719 370.351562 215.402344 370.871094 212.40625 371.3125 C 209.410156 371.757812 206.40625 372.128906 203.390625 372.425781 C 200.375 372.722656 197.355469 372.945312 194.328125 373.09375 C 191.304688 373.242188 188.273438 373.316406 185.246094 373.316406 C 182.214844 373.316406 179.1875 373.242188 176.164062 373.09375 C 173.136719 372.945312 170.117188 372.722656 167.101562 372.425781 C 164.085938 372.128906 161.082031 371.757812 158.085938 371.3125 C 155.085938 370.871094 152.105469 370.351562 149.132812 369.761719 C 146.160156 369.167969 143.207031 368.507812 140.269531 367.769531 C 137.328125 367.035156 134.410156 366.226562 131.511719 365.347656 C 128.613281 364.46875 125.738281 363.515625 122.882812 362.496094 C 120.03125 361.476562 117.207031 360.386719 114.40625 359.226562 C 111.609375 358.066406 108.839844 356.839844 106.101562 355.542969 C 103.363281 354.25 100.65625 352.886719 97.984375 351.460938 C 95.3125 350.03125 92.679688 348.539062 90.082031 346.980469 C 87.480469 345.425781 84.921875 343.804688 82.40625 342.121094 C 79.886719 340.4375 77.410156 338.695312 74.976562 336.890625 C 72.542969 335.085938 70.15625 333.222656 67.8125 331.300781 C 65.472656 329.378906 63.179688 327.398438 60.933594 325.363281 C 58.6875 323.332031 56.496094 321.242188 54.355469 319.101562 C 52.210938 316.957031 50.125 314.765625 48.089844 312.519531 C 46.054688 310.273438 44.074219 307.980469 42.152344 305.640625 C 40.230469 303.296875 38.367188 300.910156 36.566406 298.476562 C 34.761719 296.042969 33.015625 293.566406 31.332031 291.050781 C 29.648438 288.53125 28.03125 285.972656 26.472656 283.375 C 24.914062 280.773438 23.421875 278.140625 21.992188 275.46875 C 20.566406 272.796875 19.203125 270.089844 17.910156 267.351562 C 16.613281 264.613281 15.386719 261.84375 14.226562 259.046875 C 13.066406 256.246094 11.976562 253.421875 10.957031 250.570312 C 9.9375 247.71875 8.988281 244.839844 8.105469 241.941406 C 7.226562 239.042969 6.421875 236.125 5.683594 233.1875 C 4.949219 230.246094 4.285156 227.292969 3.691406 224.320312 C 3.101562 221.351562 2.585938 218.367188 2.140625 215.371094 C 1.695312 212.371094 1.324219 209.367188 1.027344 206.351562 C 0.730469 203.335938 0.507812 200.316406 0.359375 197.289062 C 0.210938 194.265625 0.136719 191.238281 0.136719 188.207031 C 0.136719 185.179688 0.210938 182.152344 0.359375 179.125 C 0.507812 176.097656 0.730469 173.078125 1.027344 170.0625 C 1.324219 167.050781 1.695312 164.042969 2.140625 161.046875 C 2.585938 158.050781 3.101562 155.066406 3.691406 152.09375 C 4.285156 149.125 4.949219 146.167969 5.683594 143.230469 C 6.421875 140.292969 7.226562 137.371094 8.105469 134.472656 C 8.988281 131.574219 9.9375 128.699219 10.957031 125.847656 C 11.976562 122.996094 13.066406 120.167969 14.226562 117.371094 C 15.386719 114.570312 16.613281 111.800781 17.910156 109.0625 C 19.203125 106.324219 20.566406 103.621094 21.992188 100.949219 C 23.421875 98.277344 24.914062 95.640625 26.472656 93.042969 C 28.03125 90.445312 29.648438 87.886719 31.332031 85.367188 C 33.015625 82.847656 34.761719 80.371094 36.566406 77.9375 C 38.367188 75.503906 40.230469 73.117188 42.152344 70.777344 C 44.074219 68.433594 46.054688 66.140625 48.089844 63.894531 C 50.125 61.652344 52.210938 59.457031 54.355469 57.316406 C 56.496094 55.171875 58.6875 53.085938 60.933594 51.050781 C 63.179688 49.015625 65.472656 47.039062 67.8125 45.117188 C 70.15625 43.195312 72.542969 41.332031 74.976562 39.527344 C 77.410156 37.722656 79.886719 35.976562 82.40625 34.296875 C 84.921875 32.613281 87.480469 30.992188 90.082031 29.433594 C 92.679688 27.878906 95.3125 26.382812 97.984375 24.957031 C 100.65625 23.527344 103.363281 22.167969 106.101562 20.871094 C 108.839844 19.574219 111.609375 18.347656 114.40625 17.1875 C 117.207031 16.03125 120.03125 14.941406 122.882812 13.917969 C 125.738281 12.898438 128.613281 11.949219 131.511719 11.070312 C 134.410156 10.191406 137.328125 9.382812 140.269531 8.644531 C 143.207031 7.910156 146.160156 7.246094 149.132812 6.65625 C 152.105469 6.066406 155.085938 5.546875 158.085938 5.101562 C 161.082031 4.65625 164.085938 4.285156 167.101562 3.988281 C 170.117188 3.691406 173.136719 3.46875 176.164062 3.320312 C 179.1875 3.171875 182.214844 3.097656 185.246094 3.097656 C 188.273438 3.097656 191.304688 3.171875 194.328125 3.320312 C 197.355469 3.46875 200.375 3.691406 203.390625 3.988281 C 206.40625 4.285156 209.410156 4.65625 212.40625 5.101562 C 215.402344 5.546875 218.386719 6.066406 221.359375 6.65625 C 224.328125 7.246094 227.285156 7.910156 230.222656 8.644531 C 233.164062 9.382812 236.082031 10.191406 238.980469 11.070312 C 241.878906 11.949219 244.753906 12.898438 247.605469 13.917969 C 250.460938 14.941406 253.285156 16.03125 256.085938 17.1875 C 258.882812 18.347656 261.652344 19.574219 264.390625 20.871094 C 267.128906 22.167969 269.832031 23.527344 272.503906 24.957031 C 275.175781 26.382812 277.8125 27.878906 280.410156 29.433594 C 283.007812 30.992188 285.566406 32.613281 288.085938 34.296875 C 290.605469 35.976562 293.082031 37.722656 295.515625 39.527344 C 297.949219 41.332031 300.335938 43.195312 302.679688 45.117188 C 305.019531 47.039062 307.3125 49.015625 309.558594 51.050781 C 311.800781 53.085938 313.996094 55.171875 316.136719 57.316406 C 318.28125 59.457031 320.367188 61.652344 322.402344 63.894531 C 324.4375 66.140625 326.414062 68.433594 328.335938 70.777344 C 330.257812 73.117188 332.121094 75.503906 333.925781 77.9375 C 335.730469 80.371094 337.476562 82.847656 339.160156 85.367188 C 340.839844 87.886719 342.460938 90.445312 344.019531 93.042969 C 345.578125 95.640625 347.070312 98.277344 348.496094 100.949219 C 349.925781 103.621094 351.289062 106.324219 352.582031 109.0625 C 353.878906 111.800781 355.105469 114.570312 356.265625 117.371094 C 357.421875 120.167969 358.515625 122.996094 359.535156 125.847656 C 360.554688 128.699219 361.503906 131.574219 362.382812 134.472656 C 363.265625 137.371094 364.070312 140.292969 364.808594 143.230469 C 365.542969 146.167969 366.207031 149.125 366.796875 152.09375 C 367.390625 155.066406 367.90625 158.050781 368.351562 161.046875 C 368.796875 164.042969 369.167969 167.050781 369.464844 170.0625 C 369.761719 173.078125 369.984375 176.097656 370.132812 179.125 C 370.28125 182.152344 370.355469 185.179688 370.355469 188.207031 Z M 370.355469 188.207031 " fill-opacity="1" fill-rule="nonzero"/></g></g></g></g></g><path fill="#d6f5f1" d="M 221.722656 111.078125 L 154.851562 111.078125 C 128.703125 111.078125 111.117188 129.433594 111.117188 156.738281 L 111.117188 219.75 C 111.117188 246.976562 128.703125 265.335938 154.851562 265.335938 L 221.722656 265.335938 C 247.867188 265.335938 265.375 246.976562 265.375 219.75 L 265.375 156.738281 C 265.375 129.433594 247.867188 111.078125 221.722656 111.078125 Z M 221.722656 111.078125 " fill-opacity="1" fill-rule="nonzero"/><path fill="#d6f5f1" d="M 179.09375 213.257812 C 177.367188 213.257812 175.636719 212.601562 174.320312 211.285156 L 156.015625 192.980469 C 153.378906 190.34375 153.378906 186.070312 156.015625 183.441406 C 158.65625 180.800781 162.917969 180.792969 165.558594 183.433594 L 179.09375 196.96875 L 210.933594 165.128906 C 213.570312 162.492188 217.835938 162.492188 220.472656 165.128906 C 223.109375 167.765625 223.109375 172.039062 220.472656 174.679688 L 183.867188 211.285156 C 182.550781 212.601562 180.820312 213.257812 179.09375 213.257812 Z M 179.09375 213.257812 " fill-opacity="1" fill-rule="nonzero"/><g clip-path="url(#7ba1a64a39)"><path fill="#31cb65" d="M 200.617188 87.414062 C 200.34375 87.289062 200.011719 87.152344 199.660156 87.042969 C 201.296875 85.796875 206.398438 84.496094 210.085938 84.078125 C 215.527344 83.460938 219.46875 84.808594 221.039062 87.144531 C 224.914062 92.914062 226.429688 105.207031 225.859375 116.726562 C 225.582031 122.300781 225.160156 124.507812 224.375 127.511719 C 222.203125 135.992188 220.140625 138.386719 213.191406 139.1875 C 208.003906 139.785156 204.125 138.453125 203.136719 138.148438 C 203.191406 137.929688 206.039062 131.308594 206.574219 125.621094 C 206.898438 122.167969 207.070312 113.917969 206.550781 105.703125 C 206.167969 99.617188 204.109375 92.527344 203.894531 91.808594 C 203.164062 89.34375 202.503906 88.265625 200.617188 87.414062 Z M 168.570312 283.175781 C 168.371094 282.457031 166.425781 275.332031 166.132812 269.246094 C 165.742188 261.023438 166.046875 252.777344 166.425781 249.328125 C 167.050781 243.652344 170.003906 237.074219 170.0625 236.859375 C 169.082031 236.535156 165.222656 235.144531 160.027344 235.664062 C 153.066406 236.359375 150.964844 238.722656 148.660156 247.171875 C 147.828125 250.15625 147.371094 252.363281 147.003906 257.929688 C 146.253906 269.4375 147.578125 281.757812 151.355469 287.582031 C 152.886719 289.941406 156.808594 291.347656 162.261719 290.816406 C 165.953125 290.453125 171.074219 289.234375 172.726562 288.007812 C 172.378906 287.894531 172.050781 287.75 171.777344 287.621094 C 169.90625 286.742188 169.265625 285.652344 168.570312 283.175781 Z M 287.351562 222.113281 C 283.988281 230.015625 282.175781 235.027344 276.535156 246.871094 C 263.539062 274.148438 232.84375 287.421875 182.96875 285.144531 C 176.597656 284.851562 173.527344 284.847656 172.945312 284.550781 C 172.242188 284.210938 171.703125 282.800781 170.878906 279.148438 C 169.671875 273.867188 169.277344 269.832031 169.261719 262.546875 C 169.214844 252.171875 169.882812 247.144531 172.121094 241.019531 C 174.605469 234.316406 177.777344 229.496094 183.429688 223.828125 C 187.957031 219.308594 196.0625 214.191406 205.667969 209.785156 C 215.5625 205.238281 234.789062 198.140625 238.316406 197.703125 C 238.347656 197.75 238.585938 197.945312 238.84375 198.246094 C 238.703125 196.582031 238.476562 194.847656 238.128906 193.046875 C 237.167969 188.046875 234.703125 181.144531 233.761719 178.996094 C 233.183594 179.363281 232.300781 179.953125 231.25 180.695312 C 226.296875 184.179688 221.796875 186.820312 214.050781 190.785156 C 198.894531 198.605469 191.128906 201.730469 165.175781 210.460938 C 160.15625 212.160156 153.742188 214.378906 151.519531 215.234375 C 149.25 216.109375 145.207031 217.554688 142.554688 218.46875 C 139.894531 219.402344 136.601562 220.644531 135.355469 221.1875 L 133.691406 221.933594 L 133.824219 223.195312 C 134.644531 230.757812 134.835938 233.882812 134.804688 239.113281 C 134.804688 243.671875 134.660156 245.652344 134.21875 247.261719 C 132.628906 253.085938 129.585938 257.730469 125.652344 260.355469 C 122.808594 262.261719 120.527344 262.828125 117.546875 262.386719 C 112.296875 261.515625 109.304688 258.382812 107.839844 252.238281 C 106.632812 247.144531 108.492188 239.960938 112.574219 233.941406 C 116.113281 228.742188 121 224.296875 126.710938 221.082031 C 128.515625 220.0625 129.042969 219.625 129.195312 219.46875 C 129.140625 218.957031 128.839844 216.890625 128.011719 211.71875 C 126.851562 204.546875 126.792969 203.816406 126.792969 196.128906 C 126.785156 193.898438 127.160156 186.238281 129.324219 178.585938 C 128.296875 178.253906 126.269531 175.945312 124.332031 173.339844 C 115.035156 160.835938 116.046875 151.179688 117.765625 143.316406 C 119.148438 136.988281 122.164062 129.507812 125.0625 125.453125 C 126.734375 123.113281 126.480469 121.660156 125.21875 121.503906 C 124.324219 121.394531 123.417969 122.0625 121.695312 124.601562 C 107.195312 145.984375 113.011719 170.742188 108.996094 174.824219 C 107.554688 176.292969 104.339844 176.519531 103.988281 175.445312 C 101.117188 166.695312 101.625 147.386719 105.90625 136.203125 C 107.976562 130.789062 110.195312 125.753906 112.691406 121.476562 C 113.515625 120.066406 112.289062 118.332031 110.4375 120.03125 C 109.097656 121.253906 105.867188 127.515625 104.113281 131.996094 C 102.199219 136.882812 98.9375 146.996094 96.503906 151.429688 C 92.898438 157.976562 87.210938 162.429688 84.929688 160.21875 C 84.5625 159.867188 84.359375 158.96875 86.105469 154.679688 C 89.347656 146.726562 91.074219 141.6875 96.53125 129.757812 C 109.082031 102.277344 139.566406 88.539062 189.472656 90.0625 C 195.847656 90.257812 198.917969 90.214844 199.503906 90.503906 C 200.210938 90.832031 200.773438 92.234375 201.652344 95.875 C 202.945312 101.136719 203.40625 105.164062 203.535156 112.449219 C 203.746094 122.820312 203.15625 127.859375 201.015625 134.015625 C 198.640625 140.757812 195.542969 145.628906 189.980469 151.378906 C 185.527344 155.964844 177.503906 161.207031 167.96875 165.757812 C 158.144531 170.453125 139.035156 177.839844 135.511719 178.332031 C 135.441406 178.226562 134.480469 177.558594 134.292969 176.191406 C 132.890625 179.546875 131.84375 183.414062 130.902344 189.214844 C 130.601562 191.066406 130.414062 200.84375 131.5625 208.003906 C 131.789062 209.304688 132.097656 211.4375 132.367188 213.3125 L 132.570312 214.722656 C 132.757812 216.160156 132.929688 217.289062 133.046875 217.964844 C 133.175781 217.902344 133.332031 217.828125 133.523438 217.730469 C 134.4375 217.300781 137.394531 216.175781 140.417969 215.097656 C 145.972656 213.113281 148.703125 212.097656 150.011719 211.597656 C 152.539062 210.632812 158.328125 208.5625 162.929688 207.023438 C 191.207031 197.433594 201.449219 193.1875 217.714844 184.304688 C 224.554688 180.566406 231.167969 176.003906 232.1875 174.902344 C 232.019531 174.359375 231.53125 172.855469 230.816406 170.902344 C 228.5625 164.644531 228.183594 162.394531 228.417969 156.773438 C 228.820312 146.800781 231.835938 139.386719 237.648438 134.089844 C 240.832031 131.144531 243.675781 129.882812 247.164062 129.882812 C 253.277344 129.921875 256.824219 133.585938 257.421875 140.492188 C 257.695312 143.453125 256.738281 147.5 254.582031 152.507812 C 250.308594 162.464844 245.324219 169.371094 237.929688 175.601562 L 237.148438 176.246094 L 238.234375 179.21875 C 240.839844 186.4375 242.433594 191.6875 243.066406 198.179688 C 243.359375 197.925781 243.695312 197.703125 244.117188 197.527344 C 244.929688 197.191406 247.238281 199.835938 249.417969 202.867188 C 258.515625 215.507812 257.355469 225.148438 255.507812 232.988281 C 254.023438 239.289062 250.890625 246.726562 247.929688 250.738281 C 246.21875 253.050781 246.449219 254.507812 247.714844 254.683594 C 248.605469 254.804688 249.519531 254.15625 251.285156 251.640625 C 266.125 230.480469 260.699219 205.640625 264.777344 201.617188 C 266.242188 200.175781 269.460938 199.996094 269.796875 201.078125 C 272.523438 209.867188 271.714844 229.167969 267.257812 240.285156 C 265.101562 245.664062 262.804688 250.664062 260.238281 254.902344 C 259.390625 256.304688 260.589844 258.054688 262.464844 256.382812 C 263.824219 255.179688 267.15625 248.96875 268.980469 244.515625 C 270.972656 239.664062 274.390625 229.597656 276.898438 225.199219 C 280.605469 218.710938 286.363281 214.34375 288.613281 216.589844 C 288.972656 216.949219 289.160156 217.851562 287.347656 222.113281 Z M 131.445312 172.589844 C 131.6875 172.042969 131.9375 171.5 132.203125 170.976562 C 133.984375 167.453125 139.34375 158.414062 141.75 158.414062 C 142.859375 158.414062 143.316406 158.960938 143.488281 159.28125 C 143.867188 159.992188 143.65625 160.890625 142.847656 162.027344 C 142.386719 162.671875 141.003906 164.359375 140.035156 165.898438 C 139.097656 167.382812 138.253906 168.722656 137.488281 170.003906 C 139.269531 168.410156 141.492188 167.042969 143.402344 165.941406 C 145.175781 164.929688 162.234375 155.003906 166.265625 147.703125 C 171.78125 137.71875 168.152344 127.898438 161.476562 125.304688 C 155.808594 123.101562 149.433594 123.855469 144.976562 126.480469 C 139.25 129.847656 135 133.574219 131.789062 139.851562 C 124.390625 154.308594 128.828125 165.054688 130.632812 170.015625 C 130.960938 170.925781 131.234375 171.78125 131.445312 172.589844 Z M 130.375 228.503906 C 130.128906 226.222656 129.9375 224.726562 129.8125 223.894531 C 128.929688 224.304688 127.277344 225.222656 125.203125 226.644531 C 114.28125 234.246094 108.792969 246.871094 112.976562 254.789062 C 114.5625 257.84375 118.199219 259.308594 121.453125 258.203125 C 126.070312 256.589844 130.027344 250.308594 130.867188 243.265625 C 131.28125 239.972656 131.160156 236.386719 130.375 228.503906 Z M 235.597656 172.132812 C 237.316406 170.785156 241.90625 166.1875 244.242188 162.949219 C 247.136719 158.890625 250.917969 151.550781 252.332031 147.25 C 253.378906 143.980469 253.457031 143.515625 253.363281 141.023438 C 253.210938 137.792969 252.523438 136.152344 250.75 134.757812 C 249.769531 134.003906 249.617188 133.929688 247.480469 133.835938 C 247.058594 133.820312 246.707031 133.808594 246.402344 133.808594 C 245.277344 133.808594 244.84375 133.964844 243.480469 134.632812 C 241.40625 135.664062 239.03125 137.96875 237.125 140.796875 C 233.6875 145.859375 231.71875 154.390625 232.453125 161.089844 C 232.691406 163.246094 234.515625 169.550781 235.597656 172.132812 Z M 243.132812 206.289062 C 242.722656 211.105469 241.691406 216.09375 240.953125 217.996094 C 238.53125 224.261719 235.539062 227.945312 231.503906 231.664062 C 229.289062 233.664062 228.09375 234.480469 226.847656 234.027344 C 225.953125 233.691406 225.773438 233.027344 225.738281 232.753906 C 225.621094 231.875 226.269531 230.933594 227.667969 229.960938 C 230.65625 227.769531 234.8125 222.96875 236.332031 218.417969 C 236.878906 216.78125 239.050781 210.886719 239.027344 202.398438 C 237.613281 205.601562 233.476562 208.148438 230.226562 209.964844 C 228.4375 210.949219 211.222656 220.613281 207.074219 227.855469 C 201.40625 237.757812 204.875 247.628906 211.515625 250.328125 C 217.140625 252.617188 223.53125 251.957031 228.027344 249.40625 C 233.804688 246.125 238.113281 242.460938 241.425781 236.230469 C 248.964844 222.070312 244.902344 211.359375 243.132812 206.289062 Z M 243.132812 206.289062 " fill-opacity="1" fill-rule="nonzero"/></g></svg>