<svg xmlns="http://www.w3.org/2000/svg" xmlns:xlink="http://www.w3.org/1999/xlink" width="500" zoomAndPan="magnify" viewBox="0 0 375 374.999991" height="500" preserveAspectRatio="xMidYMid meet" version="1.0"><defs><filter x="0%" y="0%" width="100%" height="100%" id="963b3e2f33"><feColorMatrix values="0 0 0 0 1 0 0 0 0 1 0 0 0 0 1 0 0 0 1 0" color-interpolation-filters="sRGB"/></filter><clipPath id="a9d4ea37f7"><path d="M 3.136719 0 L 373.636719 0 L 373.636719 375 L 3.136719 375 Z M 3.136719 0 " clip-rule="nonzero"/></clipPath><mask id="f3204c625d"><g filter="url(#963b3e2f33)"><rect x="-37.5" width="450" fill="#000000" y="-37.499999" height="449.999989" fill-opacity="0.2"/></g></mask><clipPath id="aed0272f24"><path d="M 0.136719 3 L 370.441406 3 L 370.441406 374 L 0.136719 374 Z M 0.136719 3 " clip-rule="nonzero"/></clipPath><clipPath id="ecb684a025"><rect x="0" width="371" y="0" height="375"/></clipPath><clipPath id="125cd46a9c"><path d="M 98 98.71875 L 277 98.71875 L 277 278 L 98 278 Z M 98 98.71875 " clip-rule="nonzero"/></clipPath></defs><g clip-path="url(#a9d4ea37f7)"><g mask="url(#f3204c625d)"><g transform="matrix(1, 0, 0, 1, 3, 0)"><g clip-path="url(#ecb684a025)"><g clip-path="url(#aed0272f24)"><path fill="#30cbb8" d="M 370.355469 188.207031 C 370.355469 191.238281 370.28125 194.265625 370.132812 197.289062 C 369.984375 200.316406 369.761719 203.335938 369.464844 206.351562 C 369.167969 209.367188 368.796875 212.371094 368.351562 215.371094 C 367.90625 218.367188 367.390625 221.351562 366.796875 224.320312 C 366.207031 227.292969 365.542969 230.246094 364.808594 233.1875 C 364.070312 236.125 363.265625 239.042969 362.382812 241.941406 C 361.503906 244.839844 360.554688 247.71875 359.535156 250.570312 C 358.515625 253.421875 357.421875 256.246094 356.265625 259.046875 C 355.105469 261.84375 353.878906 264.613281 352.582031 267.351562 C 351.289062 270.089844 349.925781 272.796875 348.496094 275.46875 C 347.070312 278.140625 345.578125 280.773438 344.019531 283.375 C 342.460938 285.972656 340.839844 288.53125 339.160156 291.050781 C 337.476562 293.566406 335.730469 296.042969 333.925781 298.476562 C 332.121094 300.910156 330.257812 303.296875 328.335938 305.640625 C 326.414062 307.980469 324.4375 310.273438 322.402344 312.519531 C 320.367188 314.765625 318.28125 316.957031 316.136719 319.101562 C 313.996094 321.242188 311.800781 323.332031 309.558594 325.363281 C 307.3125 327.398438 305.019531 329.378906 302.679688 331.300781 C 300.335938 333.222656 297.949219 335.085938 295.515625 336.890625 C 293.082031 338.695312 290.605469 340.4375 288.085938 342.121094 C 285.566406 343.804688 283.007812 345.425781 280.410156 346.980469 C 277.8125 348.539062 275.175781 350.03125 272.503906 351.460938 C 269.832031 352.886719 267.128906 354.25 264.390625 355.542969 C 261.652344 356.839844 258.882812 358.066406 256.085938 359.226562 C 253.285156 360.386719 250.460938 361.476562 247.605469 362.496094 C 244.753906 363.515625 241.878906 364.46875 238.980469 365.347656 C 236.082031 366.226562 233.164062 367.035156 230.222656 367.769531 C 227.285156 368.507812 224.328125 369.167969 221.359375 369.761719 C 218.386719 370.351562 215.402344 370.871094 212.40625 371.3125 C 209.410156 371.757812 206.40625 372.128906 203.390625 372.425781 C 200.375 372.722656 197.355469 372.945312 194.328125 373.09375 C 191.304688 373.242188 188.273438 373.316406 185.246094 373.316406 C 182.214844 373.316406 179.1875 373.242188 176.164062 373.09375 C 173.136719 372.945312 170.117188 372.722656 167.101562 372.425781 C 164.085938 372.128906 161.082031 371.757812 158.085938 371.3125 C 155.085938 370.871094 152.105469 370.351562 149.132812 369.761719 C 146.160156 369.167969 143.207031 368.507812 140.269531 367.769531 C 137.328125 367.035156 134.410156 366.226562 131.511719 365.347656 C 128.613281 364.46875 125.738281 363.515625 122.882812 362.496094 C 120.03125 361.476562 117.207031 360.386719 114.40625 359.226562 C 111.609375 358.066406 108.839844 356.839844 106.101562 355.542969 C 103.363281 354.25 100.65625 352.886719 97.984375 351.460938 C 95.3125 350.03125 92.679688 348.539062 90.082031 346.980469 C 87.480469 345.425781 84.921875 343.804688 82.40625 342.121094 C 79.886719 340.4375 77.410156 338.695312 74.976562 336.890625 C 72.542969 335.085938 70.15625 333.222656 67.8125 331.300781 C 65.472656 329.378906 63.179688 327.398438 60.933594 325.363281 C 58.6875 323.332031 56.496094 321.242188 54.355469 319.101562 C 52.210938 316.957031 50.125 314.765625 48.089844 312.519531 C 46.054688 310.273438 44.074219 307.980469 42.152344 305.640625 C 40.230469 303.296875 38.367188 300.910156 36.566406 298.476562 C 34.761719 296.042969 33.015625 293.566406 31.332031 291.050781 C 29.648438 288.53125 28.03125 285.972656 26.472656 283.375 C 24.914062 280.773438 23.421875 278.140625 21.992188 275.46875 C 20.566406 272.796875 19.203125 270.089844 17.910156 267.351562 C 16.613281 264.613281 15.386719 261.84375 14.226562 259.046875 C 13.066406 256.246094 11.976562 253.421875 10.957031 250.570312 C 9.9375 247.71875 8.988281 244.839844 8.105469 241.941406 C 7.226562 239.042969 6.421875 236.125 5.683594 233.1875 C 4.949219 230.246094 4.285156 227.292969 3.691406 224.320312 C 3.101562 221.351562 2.585938 218.367188 2.140625 215.371094 C 1.695312 212.371094 1.324219 209.367188 1.027344 206.351562 C 0.730469 203.335938 0.507812 200.316406 0.359375 197.289062 C 0.210938 194.265625 0.136719 191.238281 0.136719 188.207031 C 0.136719 185.179688 0.210938 182.152344 0.359375 179.125 C 0.507812 176.097656 0.730469 173.078125 1.027344 170.0625 C 1.324219 167.050781 1.695312 164.042969 2.140625 161.046875 C 2.585938 158.050781 3.101562 155.066406 3.691406 152.09375 C 4.285156 149.125 4.949219 146.167969 5.683594 143.230469 C 6.421875 140.292969 7.226562 137.371094 8.105469 134.472656 C 8.988281 131.574219 9.9375 128.699219 10.957031 125.847656 C 11.976562 122.996094 13.066406 120.167969 14.226562 117.371094 C 15.386719 114.570312 16.613281 111.800781 17.910156 109.0625 C 19.203125 106.324219 20.566406 103.621094 21.992188 100.949219 C 23.421875 98.277344 24.914062 95.640625 26.472656 93.042969 C 28.03125 90.445312 29.648438 87.886719 31.332031 85.367188 C 33.015625 82.847656 34.761719 80.371094 36.566406 77.9375 C 38.367188 75.503906 40.230469 73.117188 42.152344 70.777344 C 44.074219 68.433594 46.054688 66.140625 48.089844 63.894531 C 50.125 61.652344 52.210938 59.457031 54.355469 57.316406 C 56.496094 55.171875 58.6875 53.085938 60.933594 51.050781 C 63.179688 49.015625 65.472656 47.039062 67.8125 45.117188 C 70.15625 43.195312 72.542969 41.332031 74.976562 39.527344 C 77.410156 37.722656 79.886719 35.976562 82.40625 34.296875 C 84.921875 32.613281 87.480469 30.992188 90.082031 29.433594 C 92.679688 27.878906 95.3125 26.382812 97.984375 24.957031 C 100.65625 23.527344 103.363281 22.167969 106.101562 20.871094 C 108.839844 19.574219 111.609375 18.347656 114.40625 17.1875 C 117.207031 16.03125 120.03125 14.941406 122.882812 13.917969 C 125.738281 12.898438 128.613281 11.949219 131.511719 11.070312 C 134.410156 10.191406 137.328125 9.382812 140.269531 8.644531 C 143.207031 7.910156 146.160156 7.246094 149.132812 6.65625 C 152.105469 6.066406 155.085938 5.546875 158.085938 5.101562 C 161.082031 4.65625 164.085938 4.285156 167.101562 3.988281 C 170.117188 3.691406 173.136719 3.46875 176.164062 3.320312 C 179.1875 3.171875 182.214844 3.097656 185.246094 3.097656 C 188.273438 3.097656 191.304688 3.171875 194.328125 3.320312 C 197.355469 3.46875 200.375 3.691406 203.390625 3.988281 C 206.40625 4.285156 209.410156 4.65625 212.40625 5.101562 C 215.402344 5.546875 218.386719 6.066406 221.359375 6.65625 C 224.328125 7.246094 227.285156 7.910156 230.222656 8.644531 C 233.164062 9.382812 236.082031 10.191406 238.980469 11.070312 C 241.878906 11.949219 244.753906 12.898438 247.605469 13.917969 C 250.460938 14.941406 253.285156 16.03125 256.085938 17.1875 C 258.882812 18.347656 261.652344 19.574219 264.390625 20.871094 C 267.128906 22.167969 269.832031 23.527344 272.503906 24.957031 C 275.175781 26.382812 277.8125 27.878906 280.410156 29.433594 C 283.007812 30.992188 285.566406 32.613281 288.085938 34.296875 C 290.605469 35.976562 293.082031 37.722656 295.515625 39.527344 C 297.949219 41.332031 300.335938 43.195312 302.679688 45.117188 C 305.019531 47.039062 307.3125 49.015625 309.558594 51.050781 C 311.800781 53.085938 313.996094 55.171875 316.136719 57.316406 C 318.28125 59.457031 320.367188 61.652344 322.402344 63.894531 C 324.4375 66.140625 326.414062 68.433594 328.335938 70.777344 C 330.257812 73.117188 332.121094 75.503906 333.925781 77.9375 C 335.730469 80.371094 337.476562 82.847656 339.160156 85.367188 C 340.839844 87.886719 342.460938 90.445312 344.019531 93.042969 C 345.578125 95.640625 347.070312 98.277344 348.496094 100.949219 C 349.925781 103.621094 351.289062 106.324219 352.582031 109.0625 C 353.878906 111.800781 355.105469 114.570312 356.265625 117.371094 C 357.421875 120.167969 358.515625 122.996094 359.535156 125.847656 C 360.554688 128.699219 361.503906 131.574219 362.382812 134.472656 C 363.265625 137.371094 364.070312 140.292969 364.808594 143.230469 C 365.542969 146.167969 366.207031 149.125 366.796875 152.09375 C 367.390625 155.066406 367.90625 158.050781 368.351562 161.046875 C 368.796875 164.042969 369.167969 167.050781 369.464844 170.0625 C 369.761719 173.078125 369.984375 176.097656 370.132812 179.125 C 370.28125 182.152344 370.355469 185.179688 370.355469 188.207031 Z M 370.355469 188.207031 " fill-opacity="1" fill-rule="nonzero"/></g></g></g></g></g><path fill="#d6f5f1" d="M 221.722656 111.078125 L 154.851562 111.078125 C 128.703125 111.078125 111.117188 129.433594 111.117188 156.738281 L 111.117188 219.75 C 111.117188 246.976562 128.703125 265.335938 154.851562 265.335938 L 221.722656 265.335938 C 247.867188 265.335938 265.375 246.976562 265.375 219.75 L 265.375 156.738281 C 265.375 129.433594 247.867188 111.078125 221.722656 111.078125 Z M 221.722656 111.078125 " fill-opacity="1" fill-rule="nonzero"/><path fill="#d6f5f1" d="M 179.09375 213.257812 C 177.367188 213.257812 175.636719 212.601562 174.320312 211.285156 L 156.015625 192.980469 C 153.378906 190.34375 153.378906 186.070312 156.015625 183.441406 C 158.65625 180.800781 162.917969 180.792969 165.558594 183.433594 L 179.09375 196.96875 L 210.933594 165.128906 C 213.570312 162.492188 217.835938 162.492188 220.472656 165.128906 C 223.109375 167.765625 223.109375 172.039062 220.472656 174.679688 L 183.867188 211.285156 C 182.550781 212.601562 180.820312 213.257812 179.09375 213.257812 Z M 179.09375 213.257812 " fill-opacity="1" fill-rule="nonzero"/><g clip-path="url(#125cd46a9c)"><path fill="#31cb65" d="M 194.953125 123.769531 C 196.03125 124.832031 196.359375 125.917969 196.304688 127.390625 C 196.175781 130.984375 196.054688 145.808594 195.996094 149.398438 C 201.640625 150.816406 212.652344 153.660156 216.074219 155.375 C 216.097656 155.117188 215.234375 152.523438 215.257812 152.265625 C 209.941406 149.066406 206.371094 143.257812 206.371094 136.605469 C 206.371094 126.503906 214.566406 118.316406 224.65625 118.316406 C 224.863281 118.316406 225.0625 118.339844 225.261719 118.347656 C 225.308594 118.285156 225.371094 118.230469 225.421875 118.171875 C 226.054688 117.445312 226.675781 116.707031 227.269531 115.953125 C 228.773438 114.050781 230.203125 111.925781 231.101562 109.660156 C 231.515625 108.601562 231.980469 107.40625 231.871094 106.246094 C 231.734375 104.867188 231.046875 103.792969 229.734375 103.269531 C 228.394531 102.738281 227.324219 103.3125 226.355469 104.273438 C 225.777344 104.84375 225.273438 105.480469 224.738281 106.085938 C 221.359375 109.921875 218.296875 114.632812 213.355469 116.609375 C 212.082031 117.121094 210.59375 117.484375 209.207031 117.554688 C 208.148438 117.609375 206.980469 117.601562 205.921875 117.417969 C 199.742188 116.339844 196.054688 112.136719 193.101562 107.074219 C 191.835938 104.910156 190.777344 102.628906 189.523438 100.464844 C 188.332031 98.40625 187.699219 98.296875 185.570312 99.464844 C 184.988281 100.351562 184.570312 101.316406 184.644531 102.378906 C 184.84375 105.269531 185.335938 108.113281 186.253906 110.871094 C 187.960938 115.96875 191.183594 120.074219 194.953125 123.769531 Z M 169.75 141.917969 C 179.53125 141.917969 186.363281 133.925781 187.460938 124.203125 C 188.59375 114.171875 180.929688 105.445312 171.140625 105.445312 C 161.359375 105.445312 152.03125 114.414062 152.03125 124.203125 C 152.03125 133.988281 159.957031 141.917969 169.75 141.917969 Z M 208.265625 136.605469 C 208.265625 145.660156 215.601562 153.003906 224.65625 153.003906 C 233.71875 153.003906 241.058594 145.660156 241.058594 136.605469 C 241.058594 127.546875 233.71875 120.203125 224.65625 120.203125 C 215.601562 120.203125 208.265625 127.546875 208.265625 136.605469 Z M 208.710938 115.292969 C 212.742188 115.292969 215.417969 111.84375 216.015625 107.683594 C 216.613281 103.496094 212.296875 100.007812 208.710938 100.078125 C 204.027344 100.167969 201.398438 103.484375 201.398438 107.683594 C 201.398438 111.886719 204.671875 115.292969 208.710938 115.292969 Z M 145.347656 117.238281 C 150.75 117.652344 153.894531 112.914062 153.601562 108.558594 C 153.25 103.257812 149.621094 101.433594 145.347656 101.433594 C 141.078125 101.433594 137.613281 104.972656 137.613281 109.335938 C 137.609375 113.699219 141.089844 116.917969 145.347656 117.238281 Z M 275.90625 113.285156 C 275.1875 111.359375 274.066406 109.941406 271.882812 109.6875 C 269.683594 109.433594 267.902344 110.179688 266.804688 112.148438 C 263.855469 117.410156 261.714844 123.03125 259.398438 128.582031 C 255.390625 138.207031 250.597656 147.226562 241.933594 153.671875 C 231.179688 161.671875 218.511719 165.191406 205.53125 167.617188 C 201.304688 168.40625 197.050781 169.082031 192.75 169.410156 C 190.007812 169.621094 187.105469 169.75 185.597656 172.398438 C 184.203125 174.855469 183.351562 179.464844 185.699219 181.644531 C 187.441406 183.261719 190.476562 183.5 192.675781 184.097656 C 196.1875 185.066406 199.824219 185.574219 203.464844 185.726562 C 206.710938 185.863281 211.679688 184.746094 214.570312 186.546875 C 217.457031 188.332031 216.347656 194.492188 216.234375 197.253906 C 215.945312 204.257812 214.882812 211.183594 212.285156 217.726562 C 211.691406 219.230469 210.226562 221.140625 209.9375 222.695312 C 209.582031 224.664062 210.339844 226.136719 211.128906 228.097656 C 213.496094 233.957031 207.804688 240.710938 205.265625 243.089844 C 201.296875 246.808594 196.378906 249.164062 192.058594 252.367188 C 192.058594 252.367188 216.070312 267.648438 239.710938 254.300781 C 251.964844 247.386719 257.386719 234.296875 258.367188 228.261719 C 260.628906 214.304688 258.453125 199.617188 257.679688 189.964844 C 256.996094 181.40625 257.773438 174.175781 258.835938 168.785156 C 260.890625 163.996094 264.351562 159.855469 266.710938 155.222656 C 270.300781 148.191406 273.011719 140.75 274.683594 133.039062 C 275.648438 128.597656 276.265625 124.082031 276.527344 119.542969 C 276.65625 117.445312 276.667969 115.320312 275.90625 113.285156 Z M 162.578125 220.652344 C 162.578125 227.519531 168.042969 232.578125 174.742188 233.085938 C 183.25 233.730469 188.179688 226.277344 187.726562 219.425781 C 187.175781 211.09375 181.460938 208.21875 174.742188 208.21875 C 168.019531 208.222656 162.578125 213.785156 162.578125 220.652344 Z M 126.242188 121.058594 C 127.65625 122.398438 128.578125 124.105469 130.695312 124.894531 C 132.503906 125.574219 133.378906 127.371094 133.320312 129.757812 C 133.3125 130.222656 133.308594 130.808594 133.304688 131.445312 C 137.976562 134.738281 142.976562 137.4375 148.269531 139.511719 C 149.75 140.09375 151.25 140.632812 152.765625 141.144531 C 152.777344 138.746094 152.792969 136.652344 152.804688 135.230469 C 150.726562 132.054688 149.507812 128.269531 149.507812 124.203125 C 149.507812 122.597656 149.746094 121.015625 150.144531 119.476562 C 146.242188 120.175781 142.273438 120.210938 138.398438 118.976562 C 136.132812 118.253906 133.871094 117.027344 131.96875 115.605469 C 130.457031 114.464844 122.296875 107.203125 121.894531 112.558594 C 121.640625 115.902344 123.949219 118.882812 126.242188 121.058594 Z M 208.871094 232.90625 C 209.027344 231.5625 209.527344 229.839844 208.078125 229.039062 C 206.769531 228.316406 205.25 228.636719 203.761719 229.320312 C 191.527344 234.929688 177.300781 240.117188 163.824219 235.820312 C 160.261719 234.6875 156.703125 232.753906 153.710938 230.515625 C 151.324219 228.722656 138.496094 217.296875 137.851562 225.722656 C 137.449219 230.980469 141.089844 235.667969 144.699219 239.089844 C 146.921875 241.195312 148.371094 243.886719 151.691406 245.132812 C 154.535156 246.195312 155.914062 249.023438 155.835938 252.78125 C 155.683594 260.390625 155.769531 268.007812 155.8125 275.621094 C 162.503906 276.871094 169.375 277.5625 176.410156 277.5625 C 179.6875 277.5625 182.921875 277.386719 186.136719 277.109375 C 186.3125 271.253906 186.4375 265.390625 186.484375 259.542969 C 186.507812 256.957031 185.511719 251.464844 188.613281 250.144531 C 195.300781 247.304688 201.132812 243.222656 206.273438 238.117188 C 207.707031 236.679688 208.640625 234.921875 208.875 232.90625 Z M 147.582031 222.921875 C 150.023438 224.867188 152.664062 226.488281 155.300781 228.140625 C 156.195312 228.691406 159.257812 231.296875 160.257812 230.441406 C 160.789062 229.988281 159.417969 228.25 159.199219 227.722656 C 156.933594 222.25 157.996094 215.265625 161.683594 210.660156 C 165.28125 206.164062 173.769531 203.1875 179.375 204.410156 C 180.390625 204.632812 181.628906 205.289062 181.773438 203.398438 C 182.09375 199.089844 181.140625 194.644531 181.203125 190.304688 C 181.289062 183.742188 181.738281 176.929688 183.0625 170.492188 C 183.621094 167.789062 185.40625 166.730469 187.878906 166.65625 C 198.703125 166.339844 209.269531 164.339844 219.757812 161.875 C 221.316406 160.929688 220.636719 160.46875 219.4375 159.859375 C 213.042969 156.628906 206.21875 154.703125 199.253906 153.316406 C 181.890625 149.855469 163.964844 148.367188 147.34375 141.855469 C 138.582031 138.417969 130.707031 133.382812 123.8125 126.972656 C 120.953125 124.316406 118.359375 121.367188 115.617188 118.574219 C 114.5625 117.507812 113.535156 116.378906 112.339844 115.488281 C 109.382812 113.289062 105.722656 111.542969 102.25 113.683594 C 99.960938 115.097656 98.5625 119.34375 98.777344 121.84375 C 99.082031 125.414062 101.339844 128.726562 103.28125 131.617188 C 107.613281 138.0625 112.617188 143.773438 118.410156 148.945312 C 121.582031 151.78125 124.777344 154.59375 127.972656 157.414062 C 130.539062 159.675781 133.097656 162.316406 134.367188 165.566406 C 134.859375 166.828125 135.160156 167.78125 135.355469 168.660156 C 135.394531 173.59375 134.796875 179.902344 132.832031 187.757812 C 127.121094 210.617188 134.621094 222.636719 134.621094 222.636719 L 136.742188 220.777344 C 140.734375 218.054688 144.195312 220.226562 147.582031 222.921875 Z M 147.582031 222.921875 " fill-opacity="1" fill-rule="evenodd"/></g></svg>