<svg xmlns="http://www.w3.org/2000/svg" xmlns:xlink="http://www.w3.org/1999/xlink" width="500" zoomAndPan="magnify" viewBox="0 0 375 374.999991" height="500" preserveAspectRatio="xMidYMid meet" version="1.0"><defs><filter x="0%" y="0%" width="100%" height="100%" id="416990dc4f"><feColorMatrix values="0 0 0 0 1 0 0 0 0 1 0 0 0 0 1 0 0 0 1 0" color-interpolation-filters="sRGB"/></filter><g/><clipPath id="be28330c88"><path d="M 3.136719 0 L 373.636719 0 L 373.636719 375 L 3.136719 375 Z M 3.136719 0 " clip-rule="nonzero"/></clipPath><mask id="0178ad1ca3"><g filter="url(#416990dc4f)"><rect x="-37.5" width="450" fill="#000000" y="-37.499999" height="449.999989" fill-opacity="0.2"/></g></mask><clipPath id="358b32582b"><path d="M 0.136719 3 L 370.441406 3 L 370.441406 374 L 0.136719 374 Z M 0.136719 3 " clip-rule="nonzero"/></clipPath><clipPath id="06c9e225ab"><rect x="0" width="371" y="0" height="375"/></clipPath></defs><g clip-path="url(#be28330c88)"><g mask="url(#0178ad1ca3)"><g transform="matrix(1, 0, 0, 1, 3, 0)"><g clip-path="url(#06c9e225ab)"><g clip-path="url(#358b32582b)"><path fill="#30cbb8" d="M 370.355469 188.207031 C 370.355469 191.238281 370.28125 194.265625 370.132812 197.289062 C 369.984375 200.316406 369.761719 203.335938 369.464844 206.351562 C 369.167969 209.367188 368.796875 212.371094 368.351562 215.371094 C 367.90625 218.367188 367.390625 221.351562 366.796875 224.320312 C 366.207031 227.292969 365.542969 230.246094 364.808594 233.1875 C 364.070312 236.125 363.265625 239.042969 362.382812 241.941406 C 361.503906 244.839844 360.554688 247.71875 359.535156 250.570312 C 358.515625 253.421875 357.421875 256.246094 356.265625 259.046875 C 355.105469 261.84375 353.878906 264.613281 352.582031 267.351562 C 351.289062 270.089844 349.925781 272.796875 348.496094 275.46875 C 347.070312 278.140625 345.578125 280.773438 344.019531 283.375 C 342.460938 285.972656 340.839844 288.53125 339.160156 291.050781 C 337.476562 293.566406 335.730469 296.042969 333.925781 298.476562 C 332.121094 300.910156 330.257812 303.296875 328.335938 305.640625 C 326.414062 307.980469 324.4375 310.273438 322.402344 312.519531 C 320.367188 314.765625 318.28125 316.957031 316.136719 319.101562 C 313.996094 321.242188 311.800781 323.332031 309.558594 325.363281 C 307.3125 327.398438 305.019531 329.378906 302.679688 331.300781 C 300.335938 333.222656 297.949219 335.085938 295.515625 336.890625 C 293.082031 338.695312 290.605469 340.4375 288.085938 342.121094 C 285.566406 343.804688 283.007812 345.425781 280.410156 346.980469 C 277.8125 348.539062 275.175781 350.03125 272.503906 351.460938 C 269.832031 352.886719 267.128906 354.25 264.390625 355.542969 C 261.652344 356.839844 258.882812 358.066406 256.085938 359.226562 C 253.285156 360.386719 250.460938 361.476562 247.605469 362.496094 C 244.753906 363.515625 241.878906 364.46875 238.980469 365.347656 C 236.082031 366.226562 233.164062 367.035156 230.222656 367.769531 C 227.285156 368.507812 224.328125 369.167969 221.359375 369.761719 C 218.386719 370.351562 215.402344 370.871094 212.40625 371.3125 C 209.410156 371.757812 206.40625 372.128906 203.390625 372.425781 C 200.375 372.722656 197.355469 372.945312 194.328125 373.09375 C 191.304688 373.242188 188.273438 373.316406 185.246094 373.316406 C 182.214844 373.316406 179.1875 373.242188 176.164062 373.09375 C 173.136719 372.945312 170.117188 372.722656 167.101562 372.425781 C 164.085938 372.128906 161.082031 371.757812 158.085938 371.3125 C 155.085938 370.871094 152.105469 370.351562 149.132812 369.761719 C 146.160156 369.167969 143.207031 368.507812 140.269531 367.769531 C 137.328125 367.035156 134.410156 366.226562 131.511719 365.347656 C 128.613281 364.46875 125.738281 363.515625 122.882812 362.496094 C 120.03125 361.476562 117.207031 360.386719 114.40625 359.226562 C 111.609375 358.066406 108.839844 356.839844 106.101562 355.542969 C 103.363281 354.25 100.65625 352.886719 97.984375 351.460938 C 95.3125 350.03125 92.679688 348.539062 90.082031 346.980469 C 87.480469 345.425781 84.921875 343.804688 82.40625 342.121094 C 79.886719 340.4375 77.410156 338.695312 74.976562 336.890625 C 72.542969 335.085938 70.15625 333.222656 67.8125 331.300781 C 65.472656 329.378906 63.179688 327.398438 60.933594 325.363281 C 58.6875 323.332031 56.496094 321.242188 54.355469 319.101562 C 52.210938 316.957031 50.125 314.765625 48.089844 312.519531 C 46.054688 310.273438 44.074219 307.980469 42.152344 305.640625 C 40.230469 303.296875 38.367188 300.910156 36.566406 298.476562 C 34.761719 296.042969 33.015625 293.566406 31.332031 291.050781 C 29.648438 288.53125 28.03125 285.972656 26.472656 283.375 C 24.914062 280.773438 23.421875 278.140625 21.992188 275.46875 C 20.566406 272.796875 19.203125 270.089844 17.910156 267.351562 C 16.613281 264.613281 15.386719 261.84375 14.226562 259.046875 C 13.066406 256.246094 11.976562 253.421875 10.957031 250.570312 C 9.9375 247.71875 8.988281 244.839844 8.105469 241.941406 C 7.226562 239.042969 6.421875 236.125 5.683594 233.1875 C 4.949219 230.246094 4.285156 227.292969 3.691406 224.320312 C 3.101562 221.351562 2.585938 218.367188 2.140625 215.371094 C 1.695312 212.371094 1.324219 209.367188 1.027344 206.351562 C 0.730469 203.335938 0.507812 200.316406 0.359375 197.289062 C 0.210938 194.265625 0.136719 191.238281 0.136719 188.207031 C 0.136719 185.179688 0.210938 182.152344 0.359375 179.125 C 0.507812 176.097656 0.730469 173.078125 1.027344 170.0625 C 1.324219 167.050781 1.695312 164.042969 2.140625 161.046875 C 2.585938 158.050781 3.101562 155.066406 3.691406 152.09375 C 4.285156 149.125 4.949219 146.167969 5.683594 143.230469 C 6.421875 140.292969 7.226562 137.371094 8.105469 134.472656 C 8.988281 131.574219 9.9375 128.699219 10.957031 125.847656 C 11.976562 122.996094 13.066406 120.167969 14.226562 117.371094 C 15.386719 114.570312 16.613281 111.800781 17.910156 109.0625 C 19.203125 106.324219 20.566406 103.621094 21.992188 100.949219 C 23.421875 98.277344 24.914062 95.640625 26.472656 93.042969 C 28.03125 90.445312 29.648438 87.886719 31.332031 85.367188 C 33.015625 82.847656 34.761719 80.371094 36.566406 77.9375 C 38.367188 75.503906 40.230469 73.117188 42.152344 70.777344 C 44.074219 68.433594 46.054688 66.140625 48.089844 63.894531 C 50.125 61.652344 52.210938 59.457031 54.355469 57.316406 C 56.496094 55.171875 58.6875 53.085938 60.933594 51.050781 C 63.179688 49.015625 65.472656 47.039062 67.8125 45.117188 C 70.15625 43.195312 72.542969 41.332031 74.976562 39.527344 C 77.410156 37.722656 79.886719 35.976562 82.40625 34.296875 C 84.921875 32.613281 87.480469 30.992188 90.082031 29.433594 C 92.679688 27.878906 95.3125 26.382812 97.984375 24.957031 C 100.65625 23.527344 103.363281 22.167969 106.101562 20.871094 C 108.839844 19.574219 111.609375 18.347656 114.40625 17.1875 C 117.207031 16.03125 120.03125 14.941406 122.882812 13.917969 C 125.738281 12.898438 128.613281 11.949219 131.511719 11.070312 C 134.410156 10.191406 137.328125 9.382812 140.269531 8.644531 C 143.207031 7.910156 146.160156 7.246094 149.132812 6.65625 C 152.105469 6.066406 155.085938 5.546875 158.085938 5.101562 C 161.082031 4.65625 164.085938 4.285156 167.101562 3.988281 C 170.117188 3.691406 173.136719 3.46875 176.164062 3.320312 C 179.1875 3.171875 182.214844 3.097656 185.246094 3.097656 C 188.273438 3.097656 191.304688 3.171875 194.328125 3.320312 C 197.355469 3.46875 200.375 3.691406 203.390625 3.988281 C 206.40625 4.285156 209.410156 4.65625 212.40625 5.101562 C 215.402344 5.546875 218.386719 6.066406 221.359375 6.65625 C 224.328125 7.246094 227.285156 7.910156 230.222656 8.644531 C 233.164062 9.382812 236.082031 10.191406 238.980469 11.070312 C 241.878906 11.949219 244.753906 12.898438 247.605469 13.917969 C 250.460938 14.941406 253.285156 16.03125 256.085938 17.1875 C 258.882812 18.347656 261.652344 19.574219 264.390625 20.871094 C 267.128906 22.167969 269.832031 23.527344 272.503906 24.957031 C 275.175781 26.382812 277.8125 27.878906 280.410156 29.433594 C 283.007812 30.992188 285.566406 32.613281 288.085938 34.296875 C 290.605469 35.976562 293.082031 37.722656 295.515625 39.527344 C 297.949219 41.332031 300.335938 43.195312 302.679688 45.117188 C 305.019531 47.039062 307.3125 49.015625 309.558594 51.050781 C 311.800781 53.085938 313.996094 55.171875 316.136719 57.316406 C 318.28125 59.457031 320.367188 61.652344 322.402344 63.894531 C 324.4375 66.140625 326.414062 68.433594 328.335938 70.777344 C 330.257812 73.117188 332.121094 75.503906 333.925781 77.9375 C 335.730469 80.371094 337.476562 82.847656 339.160156 85.367188 C 340.839844 87.886719 342.460938 90.445312 344.019531 93.042969 C 345.578125 95.640625 347.070312 98.277344 348.496094 100.949219 C 349.925781 103.621094 351.289062 106.324219 352.582031 109.0625 C 353.878906 111.800781 355.105469 114.570312 356.265625 117.371094 C 357.421875 120.167969 358.515625 122.996094 359.535156 125.847656 C 360.554688 128.699219 361.503906 131.574219 362.382812 134.472656 C 363.265625 137.371094 364.070312 140.292969 364.808594 143.230469 C 365.542969 146.167969 366.207031 149.125 366.796875 152.09375 C 367.390625 155.066406 367.90625 158.050781 368.351562 161.046875 C 368.796875 164.042969 369.167969 167.050781 369.464844 170.0625 C 369.761719 173.078125 369.984375 176.097656 370.132812 179.125 C 370.28125 182.152344 370.355469 185.179688 370.355469 188.207031 Z M 370.355469 188.207031 " fill-opacity="1" fill-rule="nonzero"/></g></g></g></g></g><path fill="#f5df99" d="M 221.722656 111.078125 L 154.851562 111.078125 C 128.703125 111.078125 111.117188 129.433594 111.117188 156.738281 L 111.117188 219.75 C 111.117188 246.976562 128.703125 265.335938 154.851562 265.335938 L 221.722656 265.335938 C 247.867188 265.335938 265.375 246.976562 265.375 219.75 L 265.375 156.738281 C 265.375 129.433594 247.867188 111.078125 221.722656 111.078125 Z M 221.722656 111.078125 " fill-opacity="1" fill-rule="nonzero"/><path fill="#f5df99" d="M 179.09375 213.257812 C 177.367188 213.257812 175.636719 212.601562 174.320312 211.285156 L 156.015625 192.980469 C 153.378906 190.34375 153.378906 186.070312 156.015625 183.441406 C 158.65625 180.800781 162.917969 180.792969 165.558594 183.433594 L 179.09375 196.96875 L 210.933594 165.128906 C 213.570312 162.492188 217.835938 162.492188 220.472656 165.128906 C 223.109375 167.765625 223.109375 172.039062 220.472656 174.679688 L 183.867188 211.285156 C 182.550781 212.601562 180.820312 213.257812 179.09375 213.257812 Z M 179.09375 213.257812 " fill-opacity="1" fill-rule="nonzero"/><g fill="#00a087" fill-opacity="1"><g transform="translate(103.589338, 264.131248)"><g><path d="M 85.09375 3.328125 C 65.9375 3.328125 50.039062 -1.988281 37.40625 -12.625 C 24.78125 -23.269531 17.769531 -37.289062 16.375 -54.6875 L 40.953125 -54.6875 C 42.242188 -43.863281 46.960938 -35.140625 55.109375 -28.515625 C 63.253906 -21.898438 73.34375 -18.59375 85.375 -18.59375 C 98.976562 -18.59375 110.054688 -22.875 118.609375 -31.4375 C 127.171875 -40 131.453125 -50.988281 131.453125 -64.40625 C 131.453125 -77.914062 127.171875 -89 118.609375 -97.65625 C 110.054688 -106.3125 99.113281 -110.640625 85.78125 -110.640625 C 76.4375 -110.640625 67.992188 -108.648438 60.453125 -104.671875 C 52.910156 -100.691406 47.054688 -95.1875 42.890625 -88.15625 L 19.4375 -88.15625 L 30.40625 -200.3125 L 145.0625 -200.3125 L 145.0625 -178.109375 L 50.953125 -178.109375 L 44.84375 -112.859375 L 45.390625 -112.859375 C 50.015625 -118.960938 56.257812 -123.703125 64.125 -127.078125 C 72 -130.460938 80.703125 -132.15625 90.234375 -132.15625 C 103.097656 -132.15625 114.503906 -129.257812 124.453125 -123.46875 C 134.398438 -117.6875 142.21875 -109.753906 147.90625 -99.671875 C 153.601562 -89.585938 156.453125 -78.066406 156.453125 -65.109375 C 156.453125 -51.691406 153.394531 -39.84375 147.28125 -29.5625 C 141.175781 -19.289062 132.78125 -11.238281 122.09375 -5.40625 C 111.40625 0.414062 99.070312 3.328125 85.09375 3.328125 Z M 85.09375 3.328125 "/></g></g></g></svg>