<svg width="88" height="88" viewBox="0 0 88 88" fill="none" xmlns="http://www.w3.org/2000/svg">
<circle opacity="0.2" cx="44" cy="44" r="44" fill="#30CBB8"/>
<path d="M41.3923 25.667C32.7072 25.667 25.6666 32.7834 25.6666 41.5619C25.6666 50.3403 32.7072 57.4567 41.3923 57.4567C50.0773 57.4567 57.118 50.3403 57.118 41.5619C57.118 37.3463 55.4612 33.3034 52.512 30.3225C49.5629 27.3416 45.563 25.667 41.3923 25.667Z" fill="#30CB65"/>
<path d="M61.5413 58.1473L56.8577 54.3667C56.1491 53.6629 55.0132 53.6629 54.3046 54.3667C53.9371 54.7368 53.7306 55.2396 53.7306 55.7639C53.7306 56.2882 53.9371 56.791 54.3046 57.1611V57.1611V57.1611L58.1913 61.6156C59.1388 62.5733 60.6751 62.5733 61.6226 61.6156C62.5702 60.6578 62.5702 59.1051 61.6226 58.1473H61.5413Z" fill="#EEF6F9"/>
</svg>
