<svg width="40" height="41" viewBox="0 0 40 41" fill="none" xmlns="http://www.w3.org/2000/svg">
<circle opacity="0.2" cx="20" cy="20.207" r="20" fill="#30CBB8"/>
<path d="M25.44 14.2364L25.34 14.0166C25.07 13.4473 24.76 12.788 24.57 12.4084C24.11 11.5094 23.32 11.01 22.35 11H17.64C16.67 11.01 15.89 11.5094 15.43 12.4084C15.23 12.808 14.89 13.5272 14.61 14.1165L14.55 14.2364C14.52 14.3163 14.44 14.3563 14.36 14.3563C11.95 14.3563 10 16.3141 10 18.7114V24.6448C10 27.0422 11.95 29 14.36 29H25.64C28.04 29 30 27.0422 30 24.6448V18.7114C30 16.3141 28.04 14.3563 25.64 14.3563C25.55 14.3563 25.48 14.3063 25.44 14.2364Z" fill="#30CB65"/>
<path fill-rule="evenodd" clip-rule="evenodd" d="M24.7095 18.0721C24.7095 18.5715 25.1095 18.9711 25.6095 18.9711C26.1095 18.9711 26.5195 18.5715 26.5195 18.0721C26.5195 17.5726 26.1095 17.1631 25.6095 17.1631C25.1095 17.1631 24.7095 17.5726 24.7095 18.0721ZM22.7695 24.1054C22.0595 24.8146 21.0795 25.2541 19.9995 25.2541C18.9495 25.2541 17.9695 24.8446 17.2195 24.1054C16.4795 23.3562 16.0695 22.3773 16.0695 21.3285C16.0595 20.2896 16.4695 19.3107 17.2095 18.5615C17.9595 17.8124 18.9495 17.4028 19.9995 17.4028C21.0495 17.4028 22.0395 17.8124 22.7795 18.5515C23.5195 19.3007 23.9295 20.2896 23.9295 21.3285C23.9195 22.4172 23.4795 23.3962 22.7695 24.1054ZM19.9995 18.9012C19.3495 18.9012 18.7395 19.1509 18.2695 19.6204C17.8095 20.0798 17.5595 20.6892 17.5695 21.3185V21.3285C17.5695 21.9777 17.8195 22.5871 18.2795 23.0465C18.7395 23.506 19.3495 23.7558 19.9995 23.7558C21.3395 23.7558 22.4195 22.667 22.4295 21.3285C22.4295 20.6792 22.1795 20.0699 21.7195 19.6104C21.2595 19.1509 20.6495 18.9012 19.9995 18.9012Z" fill="#00404F"/>
</svg>
