<svg width="16" height="16" viewBox="0 0 16 16" fill="none" xmlns="http://www.w3.org/2000/svg">
<rect width="16" height="16" rx="5" fill="#515F62"/>
<path d="M7.65273 3.26006C7.80702 2.99515 8.18972 2.99515 8.34402 3.26006L9.63383 5.47453C9.69035 5.57157 9.78506 5.64038 9.89481 5.66415L12.3995 6.20652C12.6991 6.2714 12.8174 6.63537 12.6131 6.86398L10.9056 8.77497C10.8308 8.85871 10.7946 8.97005 10.8059 9.08178L11.064 11.6315C11.0949 11.9365 10.7853 12.1614 10.5048 12.0378L8.15967 11.0044C8.05691 10.9591 7.93984 10.9591 7.83707 11.0044L5.49196 12.0378C5.21143 12.1614 4.90182 11.9365 4.9327 11.6315L5.19085 9.08178C5.20216 8.97005 5.16599 8.85871 5.09116 8.77497L3.38365 6.86398C3.17939 6.63537 3.29765 6.2714 3.59727 6.20652L6.10193 5.66415C6.21168 5.64038 6.3064 5.57157 6.36292 5.47453L7.65273 3.26006Z" fill="white"/>
</svg>
