<svg width="40" height="41" viewBox="0 0 40 41" fill="none" xmlns="http://www.w3.org/2000/svg">
<circle opacity="0.2" cx="20" cy="20.3916" r="20" fill="#30CBB8"/>
<path d="M30 20C30 25.523 25.523 30 20 30C14.477 30 10 25.523 10 20C10 14.478 14.477 10 20 10C25.523 10 30 14.478 30 20Z" fill="#30CB65"/>
<path d="M23.86 16.7051L22.24 21.8251C22.18 22.0351 22.01 22.2051 21.8 22.2661L16.7 23.8651C16.36 23.9761 16.03 23.6451 16.14 23.3051L17.74 18.1751C17.8 17.9651 17.97 17.8051 18.18 17.7351L23.3 16.1351C23.65 16.0251 23.97 16.3551 23.86 16.7051Z" fill="#00404F"/>
</svg>
