<svg width="88" height="88" viewBox="0 0 88 88" fill="none" xmlns="http://www.w3.org/2000/svg">
<circle opacity="0.2" cx="44" cy="44" r="44" fill="#30CBB8"/>
<path d="M51.9572 25.666H36.0622C29.8472 25.666 25.6672 30.0293 25.6672 36.5193V51.4977C25.6672 57.9693 29.8472 62.3327 36.0622 62.3327H51.9572C58.1722 62.3327 62.3339 57.9693 62.3339 51.4977V36.5193C62.3339 30.0293 58.1722 25.666 51.9572 25.666" fill="#30CB65"/>
<path d="M41.8246 49.9542C41.4139 49.9542 41.0033 49.7984 40.6898 49.4849L36.3393 45.1344C35.7123 44.5074 35.7123 43.4917 36.3393 42.8665C36.9663 42.2395 37.9801 42.2377 38.6071 42.8647L41.8246 46.0822L49.3926 38.5142C50.0196 37.8872 51.0334 37.8872 51.6604 38.5142C52.2874 39.1412 52.2874 40.1569 51.6604 40.7839L42.9594 49.4849C42.6459 49.7984 42.2353 49.9542 41.8246 49.9542" fill="white"/>
</svg>
