<svg width="41" height="41" viewBox="0 0 41 41" fill="none" xmlns="http://www.w3.org/2000/svg">
<circle opacity="0.2" cx="20.6484" cy="20.2744" r="20" fill="#30CBB8"/>
<path d="M31 20.581C31 26.0899 26.5116 30.5762 21 30.5762C15.4884 30.5762 11 26.0899 11 20.581C11 15.0624 15.4884 10.5762 21 10.5762C26.5116 10.5762 31 15.0624 31 20.581Z" fill="#30CB65"/>
<path d="M25 20.581C25 20.8338 24.9205 21.0875 24.7614 21.2906C24.7315 21.3305 24.5923 21.4948 24.483 21.6017L24.4233 21.66C23.5881 22.5456 21.5099 23.8773 20.456 24.304C20.456 24.3137 19.8295 24.5674 19.5312 24.5762H19.4915C19.0341 24.5762 18.6065 24.3244 18.3878 23.9161C18.2685 23.6916 18.1591 23.0403 18.1491 23.0316C18.0597 22.4474 18 21.5531 18 20.5713C18 19.5419 18.0597 18.6078 18.169 18.0343C18.169 18.0245 18.2784 17.4996 18.348 17.3247C18.4574 17.0729 18.6562 16.8581 18.9048 16.722C19.1037 16.6257 19.3125 16.5762 19.5312 16.5762C19.7599 16.5869 20.1875 16.7317 20.3565 16.7997C21.4702 17.2274 23.598 18.6272 24.4134 19.4826C24.5526 19.6187 24.7017 19.7849 24.7415 19.8228C24.9105 20.0367 25 20.2991 25 20.581Z" fill="#00404F"/>
</svg>
