<svg width="30" height="29" viewBox="0 0 30 29" fill="none" xmlns="http://www.w3.org/2000/svg">
<path d="M28.5576 14.7713C28.5576 13.5831 28.4616 12.7161 28.2537 11.817H14.7383V17.1796H22.6715C22.5117 18.5122 21.648 20.5192 19.7286 21.8678L19.7017 22.0474L23.975 25.3705L24.2711 25.4002C26.9901 22.8794 28.5576 19.1705 28.5576 14.7713" fill="#4C8BF3"/>
<path d="M14.7386 28.9004C18.6253 28.9004 21.8881 27.6159 24.2714 25.4002L19.7289 21.8679C18.5133 22.7188 16.8819 23.3129 14.7386 23.3129C10.9319 23.3129 7.70103 20.7922 6.54931 17.3081L6.3805 17.3225L1.93702 20.7745L1.87891 20.9367C4.24609 25.657 9.10846 28.9004 14.7386 28.9004Z" fill="#34A853"/>
<path d="M6.54569 17.3081C6.2418 16.409 6.06593 15.4456 6.06593 14.4502C6.06593 13.4547 6.2418 12.4914 6.5297 11.5922L6.52165 11.4008L2.02249 7.89331L1.87529 7.9636C0.899661 9.92242 0.339844 12.1221 0.339844 14.4502C0.339844 16.7783 0.899661 18.9778 1.87529 20.9367L6.54569 17.3081" fill="#FFD584"/>
<path d="M14.7386 5.58737C17.4417 5.58737 19.265 6.75944 20.3047 7.7389L24.3673 3.75705C21.8722 1.42897 18.6252 0 14.7386 0C9.10846 0 4.24608 3.24324 1.87891 7.9636L6.53332 11.5923C7.70103 8.10816 10.9319 5.58737 14.7386 5.58737" fill="#EA4335"/>
</svg>
