<svg width="40" height="40" viewBox="0 0 40 40" fill="none" xmlns="http://www.w3.org/2000/svg">
<circle opacity="0.2" cx="20" cy="20" r="20" fill="#30CBB8"/>
<path d="M10.5 19.0785C10.55 21.4165 10.69 25.4155 10.71 25.8565C10.781 26.7995 11.142 27.7525 11.704 28.4245C12.486 29.3675 13.449 29.7885 14.792 29.7885C16.648 29.7985 18.694 29.7985 20.681 29.7985C22.676 29.7985 24.612 29.7985 26.247 29.7885C27.571 29.7885 28.564 29.3565 29.336 28.4245C29.898 27.7525 30.259 26.7895 30.31 25.8565C30.33 25.4855 30.43 21.1445 30.49 19.0785H10.5Z" fill="#00404F"/>
<path fill-rule="evenodd" clip-rule="evenodd" d="M18.711 22.5564C18.611 22.9194 18.262 23.1514 17.884 23.1014C15.333 22.7454 12.895 21.8404 10.837 20.4814C10.626 20.3434 10.5 20.1074 10.5 19.8554V16.3894C10.5 14.2894 12.212 12.5814 14.317 12.5814H16.284C16.472 11.1294 17.702 10.0004 19.204 10.0004H21.786C23.287 10.0004 24.518 11.1294 24.706 12.5814H26.683C28.782 12.5814 30.49 14.2894 30.49 16.3894V19.8554C30.49 20.1074 30.363 20.3424 30.154 20.4814C28.092 21.8464 25.644 22.7554 23.076 23.1104C23.041 23.1154 23.007 23.1174 22.973 23.1174C22.634 23.1174 22.331 22.8884 22.246 22.5524C22.044 21.7564 21.321 21.1994 20.49 21.1994C19.648 21.1994 18.933 21.7444 18.711 22.5564ZM21.786 11.5004H19.204C18.531 11.5004 17.969 11.9604 17.801 12.5814H23.188C23.02 11.9604 22.458 11.5004 21.786 11.5004Z" fill="#30CB65"/>
</svg>
