<svg width="40" height="41" viewBox="0 0 40 41" fill="none" xmlns="http://www.w3.org/2000/svg">
<circle opacity="0.2" cx="20" cy="20.1663" r="20" fill="#30CBB8"/>
<rect x="10" y="10.1663" width="20" height="20" rx="5" fill="#30CB65"/>
<path d="M19.1359 14.9829C19.5217 14.3206 20.4784 14.3206 20.8642 14.9829L21.9335 16.8188C22.0748 17.0614 22.3115 17.2334 22.5859 17.2928L24.6624 17.7425C25.4115 17.9047 25.7071 18.8146 25.1965 19.3861L23.7809 20.9704C23.5938 21.1797 23.5034 21.4581 23.5316 21.7374L23.7457 23.8512C23.8229 24.6137 23.0488 25.1761 22.3475 24.867L20.4033 24.0103C20.1464 23.8971 19.8537 23.8971 19.5968 24.0103L17.6526 24.867C16.9512 25.1761 16.1772 24.6137 16.2544 23.8512L16.4684 21.7374C16.4967 21.4581 16.4063 21.1797 16.2192 20.9704L14.8036 19.3861C14.293 18.8146 14.5886 17.9047 15.3377 17.7425L17.4141 17.2928C17.6885 17.2334 17.9253 17.0614 18.0666 16.8188L19.1359 14.9829Z" fill="white"/>
</svg>
