<svg width="80" height="81" viewBox="0 0 80 81" fill="none" xmlns="http://www.w3.org/2000/svg">
<circle opacity="0.2" cx="40" cy="40.6528" r="40" fill="#30CBB8"/>
<path d="M37.3593 41.0983C36.8514 40.0767 37.2268 38.8311 38.2144 38.2609C39.1871 37.6994 40.4229 37.9847 41.0501 38.9157L48.4038 49.8314C49.3793 51.2793 48.9078 53.268 47.395 54.1414C45.9037 55.0023 43.9914 54.4364 43.2244 52.8939L37.3593 41.0983Z" fill="#00404F"/>
<path d="M22.8988 37.1411C22.0718 35.6854 22.5767 33.8268 24.0267 32.9897L38.1886 24.8133C39.2329 24.2103 40.5311 24.2862 41.4944 25.0065L48.3334 30.1199C50.0783 31.4246 49.9141 34.1061 48.0225 35.1982L30.8984 45.0848C29.4485 45.9219 27.6026 45.4205 26.7756 43.9648L22.8988 37.1411Z" fill="#30CB65"/>
</svg>
