<svg width="88" height="88" viewBox="0 0 88 88" fill="none" xmlns="http://www.w3.org/2000/svg">
<circle opacity="0.2" cx="44" cy="44" r="44" fill="#30CBB8"/>
<path d="M48.4336 32.0649C47.5608 31.9037 46.7593 32.4606 46.5932 33.3125C46.427 34.1644 46.9857 34.9962 47.8347 35.1629C50.3909 35.6612 52.3646 37.6399 52.8648 40.2048V40.2066C53.0073 40.945 53.6573 41.4817 54.4058 41.4817C54.5063 41.4817 54.6067 41.4726 54.7089 41.4543C55.5579 41.2839 56.1166 40.454 55.9505 39.6002C55.2037 35.7693 52.255 32.8105 48.4336 32.0649" fill="#EEF6F9"/>
<path d="M48.3194 25.6815C47.9105 25.6229 47.4997 25.7438 47.1728 26.004C46.8369 26.2678 46.6269 26.6489 46.5813 27.0757C46.4845 27.9386 47.1071 28.7191 47.9689 28.8162C53.9119 29.4794 58.5313 34.1091 59.1995 40.0706C59.289 40.8694 59.959 41.4722 60.7588 41.4722C60.819 41.4722 60.8774 41.4685 60.9377 41.4612C61.3558 41.4154 61.7283 41.2084 61.9912 40.8786C62.2523 40.5488 62.371 40.1384 62.3235 39.7189C61.4909 32.2807 55.7341 26.5078 48.3194 25.6815" fill="#EEF6F9"/>
<path fill-rule="evenodd" clip-rule="evenodd" d="M42.2249 45.7827C49.5382 53.094 51.1973 44.6357 55.8537 49.2888C60.3429 53.7767 62.923 54.6759 57.2353 60.362C56.5229 60.9345 51.9963 67.8228 36.0885 51.9194C20.1786 36.014 27.0629 31.4828 27.6356 30.7706C33.3371 25.0687 34.2208 27.6639 38.7099 32.1518C43.3664 36.8069 34.9116 38.4714 42.2249 45.7827Z" fill="#30CB65"/>
</svg>
