<svg width="41" height="40" viewBox="0 0 41 40" fill="none" xmlns="http://www.w3.org/2000/svg">
<circle opacity="0.2" cx="20.5" cy="20" r="20" fill="#30CBB8"/>
<path d="M29.73 22.3573C29.5358 22.0573 29.2599 21.7573 28.9022 21.5673C28.6161 21.4273 28.4321 21.1973 28.2686 20.9273C27.7474 20.0673 28.054 18.9373 28.9227 18.4273C29.9446 17.8573 30.2716 16.5873 29.6789 15.5973L28.9942 14.4173C28.4117 13.4273 27.1342 13.0773 26.1225 13.6573C25.2232 14.1373 24.0684 13.8173 23.5472 12.9673C23.3837 12.6873 23.2917 12.3873 23.3121 12.0873C23.3428 11.6973 23.2201 11.3273 23.0362 11.0273C22.6581 10.4073 21.9734 9.9873 21.2171 9.9873H19.7761C19.0301 10.0073 18.3454 10.4073 17.9673 11.0273C17.7731 11.3273 17.6607 11.6973 17.6811 12.0873C17.7016 12.3873 17.6096 12.6873 17.4461 12.9673C16.9249 13.8173 15.7701 14.1373 14.881 13.6573C13.859 13.0773 12.5918 13.4273 11.999 14.4173L11.3143 15.5973C10.7318 16.5873 11.0588 17.8573 12.0706 18.4273C12.9392 18.9373 13.2458 20.0673 12.7349 20.9273C12.5611 21.1973 12.3772 21.4273 12.091 21.5673C11.7436 21.7573 11.437 22.0573 11.2735 22.3573C10.8953 22.9773 10.9158 23.7573 11.2939 24.4073L11.999 25.6073C12.3772 26.2473 13.0823 26.6473 13.8181 26.6473C14.1656 26.6473 14.5744 26.5473 14.9014 26.3473C15.1569 26.1773 15.4635 26.1173 15.8007 26.1173C16.8125 26.1173 17.6607 26.9473 17.6811 27.9373C17.6811 29.0873 18.6213 29.9873 19.8068 29.9873H21.1967C22.3719 29.9873 23.3121 29.0873 23.3121 27.9373C23.3428 26.9473 24.191 26.1173 25.2027 26.1173C25.5298 26.1173 25.8364 26.1773 26.1021 26.3473C26.4291 26.5473 26.8277 26.6473 27.1853 26.6473C27.9109 26.6473 28.6161 26.2473 28.9942 25.6073L29.7096 24.4073C30.0775 23.7373 30.1081 22.9773 29.73 22.3573" fill="#30CB65"/>
<path d="M20.512 22.8175C18.9075 22.8175 17.6096 21.5675 17.6096 19.9975C17.6096 18.4275 18.9075 17.1675 20.512 17.1675C22.1165 17.1675 23.3837 18.4275 23.3837 19.9975C23.3837 21.5675 22.1165 22.8175 20.512 22.8175" fill="white"/>
</svg>
