<svg width="400" height="348" viewBox="0 0 400 348" fill="none" xmlns="http://www.w3.org/2000/svg">
<path d="M0 0H400V348H0V0Z" fill="#DDFBFF"/>
<mask id="mask0_3385_42739" style="mask-type:alpha" maskUnits="userSpaceOnUse" x="0" y="0" width="400" height="348">
<path d="M0 0H400V348H0V0Z" fill="#DCFFF0"/>
</mask>
<g mask="url(#mask0_3385_42739)">
<g filter="url(#filter0_d_3385_42739)">
<rect x="45.4883" y="45.8003" width="309.021" height="320.131" rx="23" fill="white"/>
</g>
<rect opacity="0.3" x="68.6445" y="166.043" width="262.552" height="301.49" rx="12" fill="#E5EBEC"/>
<rect x="90.6328" y="185.444" width="58.2012" height="11.6402" rx="5.82012" fill="#ACBABC"/>
<path d="M276.048 300.642C276.048 310.567 274.093 320.394 270.295 329.563C266.497 338.732 260.93 347.063 253.913 354.081C246.895 361.099 238.564 366.665 229.395 370.463C220.226 374.261 210.398 376.216 200.474 376.216C190.549 376.216 180.722 374.261 171.553 370.463C162.384 366.665 154.053 361.099 147.035 354.081C140.018 347.063 134.451 338.732 130.653 329.563C126.855 320.394 124.9 310.567 124.9 300.642C124.9 290.718 126.855 280.891 130.653 271.722C134.451 262.553 140.018 254.221 147.035 247.204C154.053 240.186 162.384 234.619 171.553 230.821C180.722 227.024 190.549 225.069 200.474 225.069C210.398 225.069 220.226 227.024 229.395 230.821C238.564 234.619 246.895 240.186 253.913 247.204C260.93 254.221 266.497 262.553 270.295 271.722C274.093 280.891 276.048 290.718 276.048 300.642L276.048 300.642Z" stroke="#E5EBEC" stroke-width="9.41"/>
<path d="M127.82 279.839C131.688 266.331 139.245 254.169 149.642 244.718C160.04 235.268 172.866 228.903 186.681 226.338C200.495 223.774 214.752 225.111 227.848 230.201C240.945 235.29 252.363 243.93 260.821 255.15C269.279 266.37 274.442 279.725 275.73 293.717C277.017 307.708 274.379 321.782 268.111 334.357C261.842 346.932 252.193 357.51 240.245 364.905C228.297 372.299 214.525 376.216 200.474 376.216" stroke="#01B969" stroke-width="9.41" stroke-linecap="round"/>
<path d="M252.969 300.642C252.969 307.536 251.612 314.362 248.974 320.731C246.336 327.1 242.469 332.886 237.594 337.761C232.72 342.635 226.933 346.502 220.564 349.14C214.195 351.778 207.369 353.136 200.476 353.136C193.582 353.136 186.756 351.778 180.387 349.14C174.019 346.502 168.232 342.635 163.357 337.761C158.483 332.886 154.616 327.1 151.978 320.731C149.34 314.362 147.982 307.536 147.982 300.642C147.982 293.749 149.34 286.923 151.978 280.554C154.616 274.185 158.483 268.398 163.357 263.524C168.232 258.649 174.019 254.783 180.387 252.145C186.756 249.507 193.582 248.149 200.476 248.149C207.369 248.149 214.195 249.507 220.564 252.145C226.933 254.783 232.72 258.649 237.594 263.524C242.469 268.398 246.336 274.185 248.974 280.554C251.612 286.923 252.969 293.749 252.969 300.642L252.969 300.642Z" stroke="#E5EBEC" stroke-width="9.41"/>
<path d="M228.153 300.641C228.153 304.336 227.426 307.995 226.012 311.408C224.598 314.822 222.525 317.924 219.912 320.536C217.3 323.149 214.198 325.222 210.784 326.636C207.371 328.05 203.712 328.777 200.017 328.777C196.322 328.777 192.663 328.05 189.25 326.636C185.836 325.222 182.734 323.149 180.122 320.536C177.509 317.924 175.437 314.822 174.023 311.408C172.609 307.995 171.881 304.336 171.881 300.641C171.881 296.946 172.609 293.287 174.023 289.874C175.437 286.46 177.509 283.358 180.122 280.746C182.734 278.133 185.836 276.061 189.25 274.647C192.663 273.233 196.322 272.505 200.017 272.505C203.712 272.505 207.371 273.233 210.784 274.647C214.198 276.061 217.3 278.133 219.912 280.746C222.525 283.358 224.598 286.46 226.012 289.874C227.426 293.287 228.153 296.946 228.153 300.641L228.153 300.641Z" stroke="#E5EBEC" stroke-width="9.41"/>
<path d="M219.912 280.746C223.703 284.536 226.332 289.331 227.489 294.565C228.647 299.799 228.285 305.255 226.447 310.29C224.609 315.326 221.37 319.731 217.112 322.988C212.855 326.245 207.755 328.218 202.414 328.675" stroke="#FDB52A" stroke-width="9.41" stroke-linecap="round"/>
<path d="M175.066 254.708C182.006 250.87 189.725 248.653 197.643 248.225C205.562 247.797 213.475 249.169 220.788 252.238C228.1 255.306 234.622 259.992 239.865 265.942C245.107 271.893 248.933 278.954 251.055 286.595C253.177 294.236 253.54 302.259 252.118 310.06C250.695 317.862 247.523 325.24 242.84 331.64C238.157 338.04 232.085 343.296 225.08 347.013C218.075 350.73 210.318 352.811 202.393 353.101" stroke="#013941" stroke-width="9.41" stroke-linecap="round"/>
<rect opacity="0.3" x="68.6445" y="91.0298" width="124.632" height="61.5068" rx="12" fill="#E5EBEC"/>
<path d="M88.6711 125.259C86.5784 122.51 86.5784 118.65 88.6711 115.901C91.1275 112.675 95.1806 108.965 100.829 108.965C106.478 108.965 110.531 112.675 112.987 115.902C115.08 118.651 115.08 122.511 112.987 125.26C110.531 128.486 106.478 132.196 100.829 132.196C95.1806 132.196 91.1275 128.486 88.6711 125.259Z" fill="#01B969"/>
<path d="M100.828 114.245C97.3285 114.245 94.4922 117.081 94.4922 120.58C94.4922 124.08 97.3285 126.916 100.828 126.916C104.328 126.916 107.164 124.08 107.164 120.58C107.164 117.081 104.328 114.245 100.828 114.245Z" fill="#F6FAFB"/>
<rect x="121.676" y="109.941" width="54.3211" height="7.76016" rx="3.88008" fill="#ACBABC"/>
<rect x="121.676" y="123.339" width="32.334" height="7.76016" rx="3.88008" fill="#E5EBEC"/>
<rect opacity="0.3" x="205.738" y="91.0298" width="125.211" height="61.7924" rx="12" fill="#E5EBEC"/>
<rect x="256.73" y="110.122" width="54.3211" height="7.76016" rx="3.88008" fill="#ACBABC"/>
<rect x="256.73" y="124.638" width="32.334" height="7.76016" rx="3.88008" fill="#E5EBEC"/>
<path d="M240.065 114.218C240.065 116.912 237.881 119.096 235.187 119.096C232.493 119.096 230.309 116.912 230.309 114.218C230.309 111.523 232.493 109.339 235.187 109.339C237.881 109.339 240.065 111.523 240.065 114.218Z" fill="#01B969"/>
<path d="M227.012 124.896C227.012 122.94 228.729 121.354 230.848 121.354H239.617C241.736 121.354 243.454 122.94 243.454 124.896V130.456C243.454 131.018 242.999 131.473 242.437 131.473H228.028C227.467 131.473 227.012 131.018 227.012 130.456V124.896Z" fill="#FDB52A"/>
<circle cx="71.3297" cy="64.2853" r="5.05235" fill="#01B969"/>
<circle cx="87.3531" cy="64.2853" r="5.05235" fill="#FDB52A"/>
<circle cx="103.38" cy="64.2853" r="5.05235" fill="#013941"/>
</g>
<defs>
<filter id="filter0_d_3385_42739" x="17.4883" y="25.8003" width="365.02" height="376.131" filterUnits="userSpaceOnUse" color-interpolation-filters="sRGB">
<feFlood flood-opacity="0" result="BackgroundImageFix"/>
<feColorMatrix in="SourceAlpha" type="matrix" values="0 0 0 0 0 0 0 0 0 0 0 0 0 0 0 0 0 0 127 0" result="hardAlpha"/>
<feOffset dy="8"/>
<feGaussianBlur stdDeviation="14"/>
<feComposite in2="hardAlpha" operator="out"/>
<feColorMatrix type="matrix" values="0 0 0 0 0.128404 0 0 0 0 0.294444 0 0 0 0 0.321011 0 0 0 0.09 0"/>
<feBlend mode="normal" in2="BackgroundImageFix" result="effect1_dropShadow_3385_42739"/>
<feBlend mode="normal" in="SourceGraphic" in2="effect1_dropShadow_3385_42739" result="shape"/>
</filter>
</defs>
</svg>
