<svg width="400" height="348" viewBox="0 0 400 348" fill="none" xmlns="http://www.w3.org/2000/svg">
<path d="M0 0H400V348H0V0Z" fill="#FFF3DD"/>
<mask id="mask0_3385_42687" style="mask-type:alpha" maskUnits="userSpaceOnUse" x="0" y="0" width="400" height="348">
<path d="M0 0H400V348H0V0Z" fill="#DCFFF0"/>
</mask>
<g mask="url(#mask0_3385_42687)">
<g filter="url(#filter0_d_3385_42687)">
<rect x="55.168" y="56.6362" width="296.701" height="317.42" rx="23" fill="#FF0000" fill-opacity="0.1" shape-rendering="crispEdges"/>
</g>
<path d="M45.4883 68.8003C45.4883 56.0977 55.7857 45.8003 68.4883 45.8003H331.509C344.212 45.8003 354.509 56.0977 354.509 68.8003V365.931H45.4883V68.8003Z" fill="white"/>
<line x1="45.5586" y1="82.5625" x2="353.688" y2="82.5625" stroke="#E5EBEC"/>
<line x1="81.9297" y1="83.5396" x2="81.9297" y2="371.598" stroke="#E5EBEC"/>
<rect x="128.867" y="165.331" width="133.378" height="7.86996" rx="3.93498" fill="#E5EBEC"/>
<rect x="128.867" y="272.551" width="133.378" height="7.86996" rx="3.93498" fill="#E5EBEC"/>
<rect x="108.43" y="201.071" width="108.516" height="7.86996" rx="3.93498" fill="#E5EBEC"/>
<rect x="224.184" y="201.071" width="75.4803" height="7.86996" rx="3.93498" fill="#E5EBEC"/>
<rect x="108.43" y="308.292" width="108.516" height="7.86996" rx="3.93498" fill="#E5EBEC"/>
<rect x="224.184" y="308.292" width="75.4803" height="7.86996" rx="3.93498" fill="#E5EBEC"/>
<rect x="261.125" y="183.201" width="64.0746" height="7.86996" rx="3.93498" fill="#013941"/>
<rect x="189.902" y="183.201" width="64.0746" height="7.86996" rx="3.93498" fill="#01B969"/>
<rect x="261.125" y="290.421" width="64.0746" height="7.86996" rx="3.93498" fill="#013941"/>
<rect x="189.902" y="290.421" width="64.0746" height="7.86996" rx="3.93498" fill="#FDB52A"/>
<rect x="136.488" y="129.59" width="80.4601" height="7.86996" rx="3.93498" fill="#E5EBEC"/>
<rect x="224.184" y="129.59" width="69.1575" height="7.86996" rx="3.93498" fill="#E5EBEC"/>
<rect x="136.488" y="236.811" width="80.4601" height="7.86996" rx="3.93498" fill="#E5EBEC"/>
<rect x="224.184" y="236.811" width="69.1575" height="7.86996" rx="3.93498" fill="#E5EBEC"/>
<rect x="110.68" y="111.72" width="42.9294" height="7.86996" rx="3.93498" fill="#E5EBEC"/>
<rect x="261.992" y="111.72" width="68.8776" height="7.86996" rx="3.93498" fill="#E5EBEC"/>
<rect x="161.207" y="111.72" width="93.1883" height="7.86996" rx="3.93498" fill="#01B969"/>
<rect x="110.68" y="218.941" width="42.9294" height="7.86996" rx="3.93498" fill="#E5EBEC"/>
<rect x="261.992" y="218.941" width="68.8776" height="7.86996" rx="3.93498" fill="#E5EBEC"/>
<rect x="161.207" y="218.941" width="93.1883" height="7.86996" rx="3.93498" fill="#FDB52A"/>
<rect x="110.68" y="147.46" width="42.9294" height="7.86996" rx="3.93498" fill="#013941"/>
<rect x="246.016" y="147.46" width="66.4114" height="7.86996" rx="3.93498" fill="#E5EBEC"/>
<rect x="161.207" y="147.46" width="77.2167" height="7.86996" rx="3.93498" fill="#FDB52A"/>
<rect x="110.68" y="254.681" width="42.9294" height="7.86996" rx="3.93498" fill="#E5EBEC"/>
<rect x="246.016" y="254.681" width="66.4114" height="7.86996" rx="3.93498" fill="#E5EBEC"/>
<rect x="161.207" y="254.681" width="77.2167" height="7.86996" rx="3.93498" fill="#01B969"/>
<circle cx="71.3297" cy="64.2853" r="5.05235" fill="#01B969"/>
<circle cx="87.3531" cy="64.2853" r="5.05235" fill="#FDB52A"/>
<circle cx="103.38" cy="64.2853" r="5.05235" fill="#013941"/>
</g>
<defs>
<filter id="filter0_d_3385_42687" x="31.168" y="38.6362" width="344.699" height="365.42" filterUnits="userSpaceOnUse" color-interpolation-filters="sRGB">
<feFlood flood-opacity="0" result="BackgroundImageFix"/>
<feColorMatrix in="SourceAlpha" type="matrix" values="0 0 0 0 0 0 0 0 0 0 0 0 0 0 0 0 0 0 127 0" result="hardAlpha"/>
<feOffset dy="6"/>
<feGaussianBlur stdDeviation="12"/>
<feComposite in2="hardAlpha" operator="out"/>
<feColorMatrix type="matrix" values="0 0 0 0 0.00317323 0 0 0 0 0.223714 0 0 0 0 0.254344 0 0 0 0.12 0"/>
<feBlend mode="normal" in2="BackgroundImageFix" result="effect1_dropShadow_3385_42687"/>
<feBlend mode="normal" in="SourceGraphic" in2="effect1_dropShadow_3385_42687" result="shape"/>
</filter>
</defs>
</svg>
