<svg width="157" height="47" viewBox="0 0 157 47" fill="none" xmlns="http://www.w3.org/2000/svg">
<rect x="17.7422" width="7.09657" height="46.1277" rx="2.16224" fill="#024C5B"/>
<rect x="0.00390625" y="13.2426" width="7.09657" height="46.1277" rx="2.16224" transform="rotate(-60 0.00390625 13.2426)" fill="#024C5B"/>
<rect width="7.09657" height="46.1277" rx="2.16224" transform="matrix(-0.5 -0.866025 -0.866025 0.5 43.4961 13.2426)" fill="#024C5B"/>
<rect x="74.4922" y="0.00012207" width="7.09657" height="46.1277" rx="2.16224" fill="#FDB52A"/>
<rect x="56.7539" y="13.2427" width="7.09657" height="46.1277" rx="2.16224" transform="rotate(-60 56.7539 13.2427)" fill="#FDB52A"/>
<rect width="7.09657" height="46.1277" rx="2.16224" transform="matrix(-0.5 -0.866025 -0.866025 0.5 100.246 13.2427)" fill="#FDB52A"/>
<rect x="131.242" y="0.00012207" width="7.09657" height="46.1277" rx="2.16224" fill="#01B969"/>
<rect x="113.504" y="13.2427" width="7.09657" height="46.1277" rx="2.16224" transform="rotate(-60 113.504 13.2427)" fill="#01B969"/>
<rect width="7.09657" height="46.1277" rx="2.16224" transform="matrix(-0.5 -0.866025 -0.866025 0.5 156.996 13.2427)" fill="#01B969"/>
</svg>
