<svg xmlns="http://www.w3.org/2000/svg" xmlns:xlink="http://www.w3.org/1999/xlink" width="1964" zoomAndPan="magnify" viewBox="0 0 1473 266.999984" height="356" preserveAspectRatio="xMidYMid meet" version="1.0"><defs><clipPath id="3f4dc9d4e7"><path d="M 3 16 L 1462 16 L 1462 267 L 3 267 Z M 3 16 " clip-rule="nonzero"/></clipPath><clipPath id="0993c61371"><path d="M 1213.410156 230.097656 C 1089.480469 279.929688 928.734375 289.4375 739.175781 197.699219 C 377.835938 22.820312 112.734375 90.535156 18.367188 148.464844 C 13.957031 151.171875 8.164062 150.046875 5.261719 145.761719 C 2.355469 141.476562 3.417969 135.664062 7.820312 132.9375 C 108.035156 70.933594 380.480469 3.269531 747.34375 180.820312 C 932.191406 270.28125 1087.433594 260.542969 1206.414062 212.699219 C 1320.988281 166.625 1402.453125 84.984375 1444.261719 21.210938 C 1447.101562 16.882812 1452.855469 15.535156 1457.257812 18.261719 C 1461.660156 20.984375 1463.039062 26.75 1460.210938 31.085938 C 1416.636719 97.722656 1332.210938 182.324219 1213.410156 230.097656 Z M 1213.410156 230.097656 " clip-rule="evenodd"/></clipPath></defs><g clip-path="url(#3f4dc9d4e7)"><g clip-path="url(#0993c61371)"><path fill="#218d7d" d="M 2.355469 3.269531 L 2.355469 267 L 1463.039062 267 L 1463.039062 3.269531 Z M 2.355469 3.269531 " fill-opacity="1" fill-rule="nonzero"/></g></g></svg>